<?xml version="1.0" encoding="utf-8" standalone="no"?>
<!DOCTYPE svg PUBLIC "-//W3C//DTD SVG 1.1//EN"
  "http://www.w3.org/Graphics/SVG/1.1/DTD/svg11.dtd">
<svg height="151.46856pt" version="1.1" viewBox="0 0 245.0808 151.46856" width="245.0808pt" xmlns="http://www.w3.org/2000/svg" xmlns:xlink="http://www.w3.org/1999/xlink">
 <metadata>
  <rdf:RDF xmlns:cc="http://creativecommons.org/ns#" xmlns:dc="http://purl.org/dc/elements/1.1/" xmlns:rdf="http://www.w3.org/1999/02/22-rdf-syntax-ns#">
   <cc:Work>
    <dc:type rdf:resource="http://purl.org/dc/dcmitype/StillImage"/>
    <dc:date>2022-01-10T22:28:43.705623</dc:date>
    <dc:format>image/svg+xml</dc:format>
    <dc:creator>
     <cc:Agent>
      <dc:title>Matplotlib v3.4.2, https://matplotlib.org/</dc:title>
     </cc:Agent>
    </dc:creator>
   </cc:Work>
  </rdf:RDF>
 </metadata>
 <defs>
  <style type="text/css">*{stroke-linecap:butt;stroke-linejoin:round;}</style>
 </defs>
 <g id="figure_1">
  <g id="patch_1">
   <path d="M 0 151.46856 
L 245.0808 151.46856 
L 245.0808 0 
L 0 0 
z
" style="fill:none;"/>
  </g>
  <g id="axes_1">
   <g id="patch_2">
    <path d="M 30.993233 131.289617 
L 242.08056 131.289617 
L 242.08056 3.00024 
L 30.993233 3.00024 
z
" style="fill:none;"/>
   </g>
   <g id="patch_3">
    <path clip-path="url(#pac2f7bcb04)" d="M 40.588111 93618.171089 
L 46.778355 93618.171089 
L 46.778355 16.418103 
L 40.588111 16.418103 
z
" style="fill:#b3cde3;stroke:#839cb1;stroke-linejoin:miter;"/>
   </g>
   <g id="patch_4">
    <path clip-path="url(#pac2f7bcb04)" d="M 62.253966 93618.171089 
L 68.44421 93618.171089 
L 68.44421 10.366608 
L 62.253966 10.366608 
z
" style="fill:#b3cde3;stroke:#839cb1;stroke-linejoin:miter;"/>
   </g>
   <g id="patch_5">
    <path clip-path="url(#pac2f7bcb04)" d="M 83.919821 93618.171089 
L 90.110065 93618.171089 
L 90.110065 18.289135 
L 83.919821 18.289135 
z
" style="fill:#b3cde3;stroke:#839cb1;stroke-linejoin:miter;"/>
   </g>
   <g id="patch_6">
    <path clip-path="url(#pac2f7bcb04)" d="M 105.585675 93618.171089 
L 111.77592 93618.171089 
L 111.77592 16.82636 
L 105.585675 16.82636 
z
" style="fill:#b3cde3;stroke:#839cb1;stroke-linejoin:miter;"/>
   </g>
   <g id="patch_7">
    <path clip-path="url(#pac2f7bcb04)" d="M 127.25153 93618.171089 
L 133.441774 93618.171089 
L 133.441774 8.831575 
L 127.25153 8.831575 
z
" style="fill:#b3cde3;stroke:#839cb1;stroke-linejoin:miter;"/>
   </g>
   <g id="patch_8">
    <path clip-path="url(#pac2f7bcb04)" d="M 148.917385 93618.171089 
L 155.107629 93618.171089 
L 155.107629 13.342242 
L 148.917385 13.342242 
z
" style="fill:#b3cde3;stroke:#839cb1;stroke-linejoin:miter;"/>
   </g>
   <g id="patch_9">
    <path clip-path="url(#pac2f7bcb04)" d="M 170.583239 93618.171089 
L 176.773484 93618.171089 
L 176.773484 24.804562 
L 170.583239 24.804562 
z
" style="fill:#b3cde3;stroke:#839cb1;stroke-linejoin:miter;"/>
   </g>
   <g id="patch_10">
    <path clip-path="url(#pac2f7bcb04)" d="M 192.249094 93618.171089 
L 198.439338 93618.171089 
L 198.439338 15.022101 
L 192.249094 15.022101 
z
" style="fill:#b3cde3;stroke:#839cb1;stroke-linejoin:miter;"/>
   </g>
   <g id="patch_11">
    <path clip-path="url(#pac2f7bcb04)" d="M 213.914949 93618.171089 
L 220.105193 93618.171089 
L 220.105193 21.878693 
L 213.914949 21.878693 
z
" style="fill:#b3cde3;stroke:#839cb1;stroke-linejoin:miter;"/>
   </g>
   <g id="patch_12">
    <path clip-path="url(#pac2f7bcb04)" d="M 46.778355 93618.171089 
L 52.9686 93618.171089 
L 52.9686 94.949691 
L 46.778355 94.949691 
z
" style="fill:#ccebc5;stroke:#9bb994;stroke-linejoin:miter;"/>
   </g>
   <g id="patch_13">
    <path clip-path="url(#pac2f7bcb04)" d="M 68.44421 93618.171089 
L 74.634454 93618.171089 
L 74.634454 95.398319 
L 68.44421 95.398319 
z
" style="fill:#ccebc5;stroke:#9bb994;stroke-linejoin:miter;"/>
   </g>
   <g id="patch_14">
    <path clip-path="url(#pac2f7bcb04)" d="M 90.110065 93618.171089 
L 96.300309 93618.171089 
L 96.300309 97.479234 
L 90.110065 97.479234 
z
" style="fill:#ccebc5;stroke:#9bb994;stroke-linejoin:miter;"/>
   </g>
   <g id="patch_15">
    <path clip-path="url(#pac2f7bcb04)" d="M 111.77592 93618.171089 
L 117.966164 93618.171089 
L 117.966164 97.175619 
L 111.77592 97.175619 
z
" style="fill:#ccebc5;stroke:#9bb994;stroke-linejoin:miter;"/>
   </g>
   <g id="patch_16">
    <path clip-path="url(#pac2f7bcb04)" d="M 133.441774 93618.171089 
L 139.632018 93618.171089 
L 139.632018 97.970243 
L 133.441774 97.970243 
z
" style="fill:#ccebc5;stroke:#9bb994;stroke-linejoin:miter;"/>
   </g>
   <g id="patch_17">
    <path clip-path="url(#pac2f7bcb04)" d="M 155.107629 93618.171089 
L 161.297873 93618.171089 
L 161.297873 97.312878 
L 155.107629 97.312878 
z
" style="fill:#ccebc5;stroke:#9bb994;stroke-linejoin:miter;"/>
   </g>
   <g id="patch_18">
    <path clip-path="url(#pac2f7bcb04)" d="M 176.773484 93618.171089 
L 182.963728 93618.171089 
L 182.963728 97.831095 
L 176.773484 97.831095 
z
" style="fill:#ccebc5;stroke:#9bb994;stroke-linejoin:miter;"/>
   </g>
   <g id="patch_19">
    <path clip-path="url(#pac2f7bcb04)" d="M 198.439338 93618.171089 
L 204.629583 93618.171089 
L 204.629583 97.899511 
L 198.439338 97.899511 
z
" style="fill:#ccebc5;stroke:#9bb994;stroke-linejoin:miter;"/>
   </g>
   <g id="patch_20">
    <path clip-path="url(#pac2f7bcb04)" d="M 220.105193 93618.171089 
L 226.295437 93618.171089 
L 226.295437 93.75218 
L 220.105193 93.75218 
z
" style="fill:#ccebc5;stroke:#9bb994;stroke-linejoin:miter;"/>
   </g>
   <g id="patch_21">
    <path clip-path="url(#pac2f7bcb04)" d="M 52.9686 93618.171089 
L 59.158844 93618.171089 
L 59.158844 115.343385 
L 52.9686 115.343385 
z
" style="fill:#decbe4;stroke:#ac9ab2;stroke-linejoin:miter;"/>
   </g>
   <g id="patch_22">
    <path clip-path="url(#pac2f7bcb04)" d="M 74.634454 93618.171089 
L 80.824699 93618.171089 
L 80.824699 119.364914 
L 74.634454 119.364914 
z
" style="fill:#decbe4;stroke:#ac9ab2;stroke-linejoin:miter;"/>
   </g>
   <g id="patch_23">
    <path clip-path="url(#pac2f7bcb04)" d="M 96.300309 93618.171089 
L 102.490553 93618.171089 
L 102.490553 114.894827 
L 96.300309 114.894827 
z
" style="fill:#decbe4;stroke:#ac9ab2;stroke-linejoin:miter;"/>
   </g>
   <g id="patch_24">
    <path clip-path="url(#pac2f7bcb04)" d="M 117.966164 93618.171089 
L 124.156408 93618.171089 
L 124.156408 106.103052 
L 117.966164 106.103052 
z
" style="fill:#decbe4;stroke:#ac9ab2;stroke-linejoin:miter;"/>
   </g>
   <g id="patch_25">
    <path clip-path="url(#pac2f7bcb04)" d="M 139.632018 93618.171089 
L 145.822263 93618.171089 
L 145.822263 124.74791 
L 139.632018 124.74791 
z
" style="fill:#decbe4;stroke:#ac9ab2;stroke-linejoin:miter;"/>
   </g>
   <g id="patch_26">
    <path clip-path="url(#pac2f7bcb04)" d="M 161.297873 93618.171089 
L 167.488117 93618.171089 
L 167.488117 119.590588 
L 161.297873 119.590588 
z
" style="fill:#decbe4;stroke:#ac9ab2;stroke-linejoin:miter;"/>
   </g>
   <g id="patch_27">
    <path clip-path="url(#pac2f7bcb04)" d="M 182.963728 93618.171089 
L 189.153972 93618.171089 
L 189.153972 125.458282 
L 182.963728 125.458282 
z
" style="fill:#decbe4;stroke:#ac9ab2;stroke-linejoin:miter;"/>
   </g>
   <g id="patch_28">
    <path clip-path="url(#pac2f7bcb04)" d="M 204.629583 93618.171089 
L 210.819827 93618.171089 
L 210.819827 114.21151 
L 204.629583 114.21151 
z
" style="fill:#decbe4;stroke:#ac9ab2;stroke-linejoin:miter;"/>
   </g>
   <g id="patch_29">
    <path clip-path="url(#pac2f7bcb04)" d="M 226.295437 93618.171089 
L 232.485681 93618.171089 
L 232.485681 109.809283 
L 226.295437 109.809283 
z
" style="fill:#decbe4;stroke:#ac9ab2;stroke-linejoin:miter;"/>
   </g>
   <g id="matplotlib.axis_1">
    <g id="xtick_1">
     <g id="line2d_1">
      <defs>
       <path d="M 0 0 
L 0 -4 
" id="m0ea109e1de" style="stroke:#000000;stroke-width:0.5;"/>
      </defs>
      <g>
       <use style="stroke:#000000;stroke-width:0.5;" x="49.873477" xlink:href="#m0ea109e1de" y="131.289617"/>
      </g>
     </g>
     <g id="text_1">
      <!-- shf -->
      <g transform="translate(41.681645 146.309877)rotate(-45)scale(0.08 -0.08)">
       <defs>
        <path d="M 211 83 
L 211 928 
Q 211 998 214 1024 
Q 218 1050 237 1069 
Q 256 1088 294 1088 
Q 339 1088 355 1069 
Q 371 1050 384 979 
Q 480 538 688 304 
Q 896 70 1274 70 
Q 1632 70 1814 230 
Q 1997 390 1997 653 
Q 1997 1120 1331 1242 
Q 947 1318 787 1369 
Q 627 1421 486 1536 
Q 211 1760 211 2080 
Q 211 2400 454 2633 
Q 698 2867 1235 2867 
Q 1594 2867 1837 2688 
Q 1907 2746 1946 2790 
Q 2029 2867 2074 2867 
Q 2125 2867 2134 2835 
Q 2144 2803 2144 2714 
L 2144 2067 
Q 2144 1997 2141 1971 
Q 2138 1946 2118 1930 
Q 2099 1914 2061 1914 
Q 1990 1914 1984 1971 
Q 1933 2746 1235 2746 
Q 858 2746 688 2602 
Q 518 2458 518 2259 
Q 518 2150 569 2067 
Q 621 1984 688 1936 
Q 755 1888 880 1843 
Q 1005 1798 1081 1782 
Q 1158 1766 1306 1734 
Q 1818 1638 2035 1427 
Q 2304 1158 2304 819 
Q 2304 442 2048 186 
Q 1792 -70 1274 -70 
Q 858 -70 570 205 
Q 531 166 502 134 
Q 474 102 464 89 
Q 454 77 451 70 
Q 448 64 442 58 
Q 314 -70 282 -70 
Q 230 -70 220 -38 
Q 211 -6 211 83 
z
" id="CMUSerif-Roman-73" transform="scale(0.015625)"/>
        <path d="M 205 0 
L 205 198 
Q 544 198 624 240 
Q 704 282 704 486 
L 704 3814 
Q 704 4051 621 4112 
Q 538 4173 205 4173 
L 205 4371 
L 1126 4442 
L 1126 2214 
L 1133 2214 
Q 1235 2445 1465 2637 
Q 1696 2829 2054 2829 
Q 2534 2829 2726 2592 
Q 2867 2432 2896 2253 
Q 2925 2074 2925 1613 
L 2925 390 
Q 2931 256 3033 227 
Q 3136 198 3424 198 
L 3424 0 
Q 2771 19 2707 19 
Q 2656 19 1984 0 
L 1984 198 
Q 2323 198 2403 240 
Q 2483 282 2483 486 
L 2483 1978 
Q 2483 2304 2384 2496 
Q 2285 2688 2010 2688 
Q 1677 2688 1411 2409 
Q 1146 2131 1146 1664 
L 1146 486 
Q 1146 282 1226 240 
Q 1306 198 1645 198 
L 1645 0 
Q 992 19 928 19 
Q 877 19 205 0 
z
" id="CMUSerif-Roman-68" transform="scale(0.015625)"/>
        <path d="M 211 2560 
L 211 2758 
L 717 2758 
L 717 3494 
Q 717 3968 1024 4240 
Q 1331 4512 1709 4512 
Q 1958 4512 2121 4377 
Q 2285 4243 2285 4064 
Q 2285 3942 2211 3862 
Q 2138 3782 2003 3782 
Q 1875 3782 1801 3862 
Q 1728 3942 1728 4058 
Q 1728 4262 1920 4326 
Q 1824 4371 1709 4371 
Q 1478 4371 1299 4134 
Q 1120 3898 1120 3501 
L 1120 2758 
L 1869 2758 
L 1869 2560 
L 1139 2560 
L 1139 499 
Q 1139 314 1216 256 
Q 1293 198 1626 198 
L 1760 198 
L 1760 0 
Q 1504 19 947 19 
Q 870 19 748 16 
Q 627 13 467 6 
Q 307 0 218 0 
L 218 198 
Q 557 198 637 240 
Q 717 282 717 486 
L 717 2560 
L 211 2560 
z
" id="CMUSerif-Roman-66" transform="scale(0.015625)"/>
       </defs>
       <use xlink:href="#CMUSerif-Roman-73"/>
       <use x="39.399994" xlink:href="#CMUSerif-Roman-68"/>
       <use x="94.899979" xlink:href="#CMUSerif-Roman-66"/>
      </g>
     </g>
    </g>
    <g id="xtick_2">
     <g id="line2d_2">
      <g>
       <use style="stroke:#000000;stroke-width:0.5;" x="71.539332" xlink:href="#m0ea109e1de" y="131.289617"/>
      </g>
     </g>
     <g id="text_2">
      <!-- shc -->
      <g transform="translate(62.560844 147.096533)rotate(-45)scale(0.08 -0.08)">
       <defs>
        <path d="M 624 352 
Q 218 774 218 1382 
Q 218 1990 618 2428 
Q 1018 2867 1606 2867 
Q 1997 2867 2291 2681 
Q 2586 2496 2586 2182 
Q 2586 2042 2502 1962 
Q 2419 1882 2291 1882 
Q 2157 1882 2077 1965 
Q 1997 2048 1997 2176 
Q 1997 2234 2016 2288 
Q 2035 2342 2105 2403 
Q 2176 2464 2298 2470 
Q 2067 2707 1613 2707 
Q 1286 2707 1017 2400 
Q 749 2093 749 1395 
Q 749 1030 838 761 
Q 928 493 1075 355 
Q 1222 218 1366 154 
Q 1510 90 1651 90 
Q 2278 90 2490 762 
Q 2509 826 2573 826 
Q 2656 826 2656 762 
Q 2656 730 2630 650 
Q 2605 570 2528 442 
Q 2451 314 2339 202 
Q 2227 90 2032 10 
Q 1837 -70 1594 -70 
Q 1030 -70 624 352 
z
" id="CMUSerif-Roman-63" transform="scale(0.015625)"/>
       </defs>
       <use xlink:href="#CMUSerif-Roman-73"/>
       <use x="39.399994" xlink:href="#CMUSerif-Roman-68"/>
       <use x="94.899979" xlink:href="#CMUSerif-Roman-63"/>
      </g>
     </g>
    </g>
    <g id="xtick_3">
     <g id="line2d_3">
      <g>
       <use style="stroke:#000000;stroke-width:0.5;" x="93.205187" xlink:href="#m0ea109e1de" y="131.289617"/>
      </g>
     </g>
     <g id="text_3">
      <!-- sho -->
      <g transform="translate(83.910268 147.412963)rotate(-45)scale(0.08 -0.08)">
       <defs>
        <path d="M 601 346 
Q 179 762 179 1370 
Q 179 1978 592 2422 
Q 1005 2867 1600 2867 
Q 2182 2867 2598 2425 
Q 3014 1984 3014 1370 
Q 3014 768 2595 349 
Q 2176 -70 1594 -70 
Q 1024 -70 601 346 
z
M 710 1421 
Q 710 800 870 518 
Q 1120 90 1600 90 
Q 1837 90 2035 218 
Q 2234 346 2342 563 
Q 2483 845 2483 1421 
Q 2483 2035 2317 2310 
Q 2067 2726 1594 2726 
Q 1389 2726 1187 2617 
Q 986 2509 864 2298 
Q 710 2016 710 1421 
z
" id="CMUSerif-Roman-6f" transform="scale(0.015625)"/>
       </defs>
       <use xlink:href="#CMUSerif-Roman-73"/>
       <use x="39.399994" xlink:href="#CMUSerif-Roman-68"/>
       <use x="94.899979" xlink:href="#CMUSerif-Roman-6f"/>
      </g>
     </g>
    </g>
    <g id="xtick_4">
     <g id="line2d_4">
      <g>
       <use style="stroke:#000000;stroke-width:0.5;" x="114.871042" xlink:href="#m0ea109e1de" y="131.289617"/>
      </g>
     </g>
     <g id="text_4">
      <!-- stf -->
      <g transform="translate(107.624081 145.365005)rotate(-45)scale(0.08 -0.08)">
       <defs>
        <path d="M 122 2560 
L 122 2701 
Q 416 2714 611 2922 
Q 806 3130 873 3386 
Q 941 3642 947 3936 
L 1107 3936 
L 1107 2758 
L 2022 2758 
L 2022 2560 
L 1107 2560 
L 1107 781 
Q 1107 90 1536 90 
Q 1722 90 1843 278 
Q 1965 467 1965 806 
L 1965 1158 
L 2125 1158 
L 2125 794 
Q 2125 448 1965 189 
Q 1805 -70 1491 -70 
Q 1376 -70 1261 -41 
Q 1146 -13 998 64 
Q 851 141 758 329 
Q 666 518 666 794 
L 666 2560 
L 122 2560 
z
" id="CMUSerif-Roman-74" transform="scale(0.015625)"/>
       </defs>
       <use xlink:href="#CMUSerif-Roman-73"/>
       <use x="39.399994" xlink:href="#CMUSerif-Roman-74"/>
       <use x="78.199982" xlink:href="#CMUSerif-Roman-66"/>
      </g>
     </g>
    </g>
    <g id="xtick_5">
     <g id="line2d_5">
      <g>
       <use style="stroke:#000000;stroke-width:0.5;" x="136.536896" xlink:href="#m0ea109e1de" y="131.289617"/>
      </g>
     </g>
     <g id="text_5">
      <!-- stc -->
      <g transform="translate(128.503279 146.151661)rotate(-45)scale(0.08 -0.08)">
       <use xlink:href="#CMUSerif-Roman-73"/>
       <use x="39.399994" xlink:href="#CMUSerif-Roman-74"/>
       <use x="78.199982" xlink:href="#CMUSerif-Roman-63"/>
      </g>
     </g>
    </g>
    <g id="xtick_6">
     <g id="line2d_6">
      <g>
       <use style="stroke:#000000;stroke-width:0.5;" x="158.202751" xlink:href="#m0ea109e1de" y="131.289617"/>
      </g>
     </g>
     <g id="text_6">
      <!-- sto -->
      <g transform="translate(149.852704 146.468092)rotate(-45)scale(0.08 -0.08)">
       <use xlink:href="#CMUSerif-Roman-73"/>
       <use x="39.399994" xlink:href="#CMUSerif-Roman-74"/>
       <use x="78.199982" xlink:href="#CMUSerif-Roman-6f"/>
      </g>
     </g>
    </g>
    <g id="xtick_7">
     <g id="line2d_7">
      <g>
       <use style="stroke:#000000;stroke-width:0.5;" x="179.868606" xlink:href="#m0ea109e1de" y="131.289617"/>
      </g>
     </g>
     <g id="text_7">
      <!-- tsf -->
      <g transform="translate(172.621645 145.365005)rotate(-45)scale(0.08 -0.08)">
       <use xlink:href="#CMUSerif-Roman-74"/>
       <use x="38.799988" xlink:href="#CMUSerif-Roman-73"/>
       <use x="78.199982" xlink:href="#CMUSerif-Roman-66"/>
      </g>
     </g>
    </g>
    <g id="xtick_8">
     <g id="line2d_8">
      <g>
       <use style="stroke:#000000;stroke-width:0.5;" x="201.53446" xlink:href="#m0ea109e1de" y="131.289617"/>
      </g>
     </g>
     <g id="text_8">
      <!-- tsc -->
      <g transform="translate(193.500844 146.151661)rotate(-45)scale(0.08 -0.08)">
       <use xlink:href="#CMUSerif-Roman-74"/>
       <use x="38.799988" xlink:href="#CMUSerif-Roman-73"/>
       <use x="78.199982" xlink:href="#CMUSerif-Roman-63"/>
      </g>
     </g>
    </g>
    <g id="xtick_9">
     <g id="line2d_9">
      <g>
       <use style="stroke:#000000;stroke-width:0.5;" x="223.200315" xlink:href="#m0ea109e1de" y="131.289617"/>
      </g>
     </g>
     <g id="text_9">
      <!-- tso -->
      <g transform="translate(214.850268 146.468092)rotate(-45)scale(0.08 -0.08)">
       <use xlink:href="#CMUSerif-Roman-74"/>
       <use x="38.799988" xlink:href="#CMUSerif-Roman-73"/>
       <use x="78.199982" xlink:href="#CMUSerif-Roman-6f"/>
      </g>
     </g>
    </g>
   </g>
   <g id="matplotlib.axis_2">
    <g id="ytick_1">
     <g id="line2d_10">
      <defs>
       <path d="M 0 0 
L 4 0 
" id="m55bcbc048f" style="stroke:#000000;stroke-width:0.5;"/>
      </defs>
      <g>
       <use style="stroke:#000000;stroke-width:0.5;" x="30.993233" xlink:href="#m55bcbc048f" y="96.220905"/>
      </g>
     </g>
     <g id="text_10">
      <!-- $\mathdefault{10^{3}}$ -->
      <g transform="translate(15.953233 98.997155)scale(0.08 -0.08)">
       <defs>
        <path d="M 570 3654 
L 570 3853 
Q 1338 3853 1734 4262 
Q 1843 4262 1862 4236 
Q 1882 4211 1882 4096 
L 1882 506 
Q 1882 314 1974 256 
Q 2067 198 2477 198 
L 2682 198 
L 2682 0 
Q 2458 19 1645 19 
Q 832 19 608 0 
L 608 198 
L 813 198 
Q 1216 198 1312 256 
Q 1408 314 1408 506 
L 1408 3821 
Q 1075 3654 570 3654 
z
" id="CMUSerif-Roman-31" transform="scale(0.015625)"/>
        <path d="M 250 2048 
Q 250 2989 486 3501 
Q 819 4262 1600 4262 
Q 1766 4262 1939 4217 
Q 2112 4173 2333 4000 
Q 2554 3827 2688 3546 
Q 2944 3002 2944 2048 
Q 2944 1114 2707 602 
Q 2362 -141 1594 -141 
Q 1306 -141 1014 6 
Q 723 154 538 506 
Q 250 1037 250 2048 
z
M 781 2125 
Q 781 1158 851 774 
Q 928 358 1142 179 
Q 1357 0 1594 0 
Q 1850 0 2064 192 
Q 2278 384 2342 800 
Q 2413 1210 2413 2125 
Q 2413 3014 2349 3373 
Q 2266 3789 2042 3955 
Q 1818 4122 1594 4122 
Q 1510 4122 1420 4096 
Q 1331 4070 1203 4000 
Q 1075 3930 976 3750 
Q 877 3571 832 3302 
Q 781 2957 781 2125 
z
" id="CMUSerif-Roman-30" transform="scale(0.015625)"/>
        <path d="M 269 864 
Q 269 1056 377 1145 
Q 486 1235 627 1235 
Q 774 1235 880 1139 
Q 986 1043 986 877 
Q 986 698 861 598 
Q 736 499 563 525 
Q 717 269 998 153 
Q 1280 38 1542 38 
Q 1818 38 2042 275 
Q 2266 512 2266 1094 
Q 2266 1587 2074 1872 
Q 1882 2157 1504 2157 
L 1222 2157 
Q 1126 2157 1097 2166 
Q 1069 2176 1069 2227 
Q 1069 2291 1165 2304 
Q 1261 2304 1414 2323 
Q 1786 2336 1984 2656 
Q 2163 2957 2163 3386 
Q 2163 3776 1977 3939 
Q 1792 4102 1549 4102 
Q 1325 4102 1078 4009 
Q 832 3917 698 3706 
Q 1094 3706 1094 3386 
Q 1094 3245 1004 3152 
Q 915 3059 768 3059 
Q 627 3059 534 3148 
Q 442 3238 442 3392 
Q 442 3757 768 4009 
Q 1094 4262 1574 4262 
Q 2048 4262 2400 4012 
Q 2752 3763 2752 3379 
Q 2752 3002 2502 2691 
Q 2253 2381 1856 2253 
Q 2342 2157 2633 1827 
Q 2925 1498 2925 1094 
Q 2925 595 2531 227 
Q 2138 -141 1562 -141 
Q 1030 -141 649 147 
Q 269 435 269 864 
z
" id="CMUSerif-Roman-33" transform="scale(0.015625)"/>
       </defs>
       <use transform="translate(0 0.21875)" xlink:href="#CMUSerif-Roman-31"/>
       <use transform="translate(49.999985 0.21875)" xlink:href="#CMUSerif-Roman-30"/>
       <use transform="translate(100.75411 30.384375)scale(0.7)" xlink:href="#CMUSerif-Roman-33"/>
      </g>
     </g>
    </g>
    <g id="ytick_2">
     <g id="line2d_11">
      <defs>
       <path d="M 0 0 
L 2 0 
" id="m8965835b8e" style="stroke:#000000;stroke-width:0.6;"/>
      </defs>
      <g>
       <use style="stroke:#000000;stroke-width:0.6;" x="30.993233" xlink:href="#m8965835b8e" y="124.289611"/>
      </g>
     </g>
    </g>
    <g id="ytick_3">
     <g id="line2d_12">
      <g>
       <use style="stroke:#000000;stroke-width:0.6;" x="30.993233" xlink:href="#m8965835b8e" y="116.906575"/>
      </g>
     </g>
    </g>
    <g id="ytick_4">
     <g id="line2d_13">
      <g>
       <use style="stroke:#000000;stroke-width:0.6;" x="30.993233" xlink:href="#m8965835b8e" y="110.664308"/>
      </g>
     </g>
    </g>
    <g id="ytick_5">
     <g id="line2d_14">
      <g>
       <use style="stroke:#000000;stroke-width:0.6;" x="30.993233" xlink:href="#m8965835b8e" y="105.25701"/>
      </g>
     </g>
    </g>
    <g id="ytick_6">
     <g id="line2d_15">
      <g>
       <use style="stroke:#000000;stroke-width:0.6;" x="30.993233" xlink:href="#m8965835b8e" y="100.487435"/>
      </g>
     </g>
    </g>
    <g id="ytick_7">
     <g id="line2d_16">
      <g>
       <use style="stroke:#000000;stroke-width:0.6;" x="30.993233" xlink:href="#m8965835b8e" y="68.152199"/>
      </g>
     </g>
    </g>
    <g id="ytick_8">
     <g id="line2d_17">
      <g>
       <use style="stroke:#000000;stroke-width:0.6;" x="30.993233" xlink:href="#m8965835b8e" y="51.733058"/>
      </g>
     </g>
    </g>
    <g id="ytick_9">
     <g id="line2d_18">
      <g>
       <use style="stroke:#000000;stroke-width:0.6;" x="30.993233" xlink:href="#m8965835b8e" y="40.083492"/>
      </g>
     </g>
    </g>
    <g id="ytick_10">
     <g id="line2d_19">
      <g>
       <use style="stroke:#000000;stroke-width:0.6;" x="30.993233" xlink:href="#m8965835b8e" y="31.047387"/>
      </g>
     </g>
    </g>
    <g id="ytick_11">
     <g id="line2d_20">
      <g>
       <use style="stroke:#000000;stroke-width:0.6;" x="30.993233" xlink:href="#m8965835b8e" y="23.664352"/>
      </g>
     </g>
    </g>
    <g id="ytick_12">
     <g id="line2d_21">
      <g>
       <use style="stroke:#000000;stroke-width:0.6;" x="30.993233" xlink:href="#m8965835b8e" y="17.422084"/>
      </g>
     </g>
    </g>
    <g id="ytick_13">
     <g id="line2d_22">
      <g>
       <use style="stroke:#000000;stroke-width:0.6;" x="30.993233" xlink:href="#m8965835b8e" y="12.014786"/>
      </g>
     </g>
    </g>
    <g id="ytick_14">
     <g id="line2d_23">
      <g>
       <use style="stroke:#000000;stroke-width:0.6;" x="30.993233" xlink:href="#m8965835b8e" y="7.245211"/>
      </g>
     </g>
    </g>
    <g id="text_11">
     <!-- CPU Time $\mathrm{[hrs]}$ -->
     <g transform="translate(11.453233 102.094929)rotate(-90)scale(0.1 -0.1)">
      <defs>
       <path d="M 358 2189 
Q 358 3155 1017 3833 
Q 1677 4512 2586 4512 
Q 2867 4512 3116 4409 
Q 3366 4307 3481 4217 
Q 3597 4128 3763 3962 
L 4083 4435 
Q 4134 4512 4185 4512 
Q 4237 4512 4246 4483 
Q 4256 4454 4256 4358 
L 4256 2842 
Q 4256 2739 4243 2713 
Q 4230 2688 4154 2688 
Q 4090 2688 4077 2707 
Q 4064 2726 4051 2797 
Q 3955 3488 3571 3901 
Q 3187 4314 2656 4314 
Q 2502 4314 2332 4278 
Q 2163 4243 1916 4112 
Q 1670 3981 1481 3763 
Q 1293 3546 1155 3136 
Q 1018 2726 1018 2182 
Q 1018 1645 1155 1232 
Q 1293 819 1481 604 
Q 1670 390 1916 259 
Q 2163 128 2336 93 
Q 2509 58 2662 58 
Q 3213 58 3635 448 
Q 4058 838 4096 1498 
Q 4102 1530 4102 1542 
Q 4102 1555 4108 1571 
Q 4115 1587 4131 1593 
Q 4147 1600 4173 1600 
Q 4256 1600 4256 1491 
Q 4256 883 3789 371 
Q 3322 -141 2586 -141 
Q 1677 -141 1017 534 
Q 358 1210 358 2189 
z
" id="CMUSerif-Roman-43" transform="scale(0.015625)"/>
       <path d="M 224 0 
L 224 198 
L 378 198 
Q 723 198 803 256 
Q 883 314 883 499 
L 883 3872 
Q 883 4058 803 4115 
Q 723 4173 378 4173 
L 224 4173 
L 224 4371 
L 2483 4371 
Q 3130 4371 3562 4016 
Q 3994 3661 3994 3181 
Q 3994 2707 3555 2364 
Q 3117 2022 2534 2022 
L 1453 2022 
L 1453 499 
Q 1453 314 1533 256 
Q 1613 198 1958 198 
L 2112 198 
L 2112 0 
Q 1888 19 1165 19 
Q 448 19 224 0 
z
M 1434 2189 
L 2317 2189 
Q 2605 2189 2813 2269 
Q 3021 2349 3117 2448 
Q 3213 2547 3267 2707 
Q 3322 2867 3328 2956 
Q 3334 3046 3334 3181 
Q 3334 3322 3328 3411 
Q 3322 3501 3267 3661 
Q 3213 3821 3117 3920 
Q 3021 4019 2813 4096 
Q 2605 4173 2317 4173 
L 1747 4173 
Q 1530 4173 1482 4128 
Q 1434 4083 1434 3917 
L 1434 2189 
z
" id="CMUSerif-Roman-50" transform="scale(0.015625)"/>
       <path d="M 211 4173 
L 211 4371 
Q 435 4352 1158 4352 
Q 1875 4352 2099 4371 
L 2099 4173 
L 1946 4173 
Q 1600 4173 1520 4115 
Q 1440 4058 1440 3872 
L 1440 1434 
Q 1440 1005 1558 710 
Q 1677 416 1862 285 
Q 2048 154 2198 106 
Q 2349 58 2496 58 
Q 2982 58 3353 445 
Q 3725 832 3725 1478 
L 3725 3699 
Q 3725 3795 3712 3852 
Q 3699 3910 3644 3996 
Q 3590 4083 3443 4128 
Q 3296 4173 3066 4173 
L 3066 4371 
Q 3757 4352 3827 4352 
Q 3891 4352 4582 4371 
L 4582 4173 
Q 4352 4173 4205 4131 
Q 4058 4090 4003 4000 
Q 3949 3910 3936 3846 
Q 3923 3782 3923 3674 
L 3923 1626 
Q 3923 1312 3904 1184 
Q 3821 627 3424 243 
Q 3027 -141 2483 -141 
Q 1824 -141 1347 323 
Q 870 787 870 1459 
L 870 3872 
Q 870 4058 790 4115 
Q 710 4173 365 4173 
L 211 4173 
z
" id="CMUSerif-Roman-55" transform="scale(0.015625)"/>
       <path id="CMUSerif-Roman-20" transform="scale(0.015625)"/>
       <path d="M 230 2893 
L 352 4333 
L 4262 4333 
L 4384 2893 
L 4224 2893 
Q 4198 3181 4176 3347 
Q 4154 3514 4099 3670 
Q 4045 3827 3977 3904 
Q 3910 3981 3782 4041 
Q 3654 4102 3488 4118 
Q 3322 4134 3072 4134 
Q 2778 4134 2707 4122 
Q 2630 4102 2611 4048 
Q 2592 3994 2592 3878 
L 2592 506 
Q 2592 378 2617 326 
Q 2643 275 2790 236 
Q 2938 198 3264 198 
L 3520 198 
L 3520 0 
Q 3258 19 2304 19 
Q 1357 19 1094 0 
L 1094 198 
L 1350 198 
Q 1677 198 1824 236 
Q 1971 275 1996 326 
Q 2022 378 2022 506 
L 2022 3878 
Q 2022 3968 2016 4006 
Q 2010 4045 1981 4077 
Q 1952 4109 1888 4121 
Q 1824 4134 1542 4134 
Q 1293 4134 1126 4118 
Q 960 4102 832 4041 
Q 704 3981 637 3904 
Q 570 3827 515 3670 
Q 461 3514 438 3347 
Q 416 3181 390 2893 
L 230 2893 
z
" id="CMUSerif-Roman-54" transform="scale(0.015625)"/>
       <path d="M 211 0 
L 211 198 
Q 550 198 630 240 
Q 710 282 710 486 
L 710 2208 
Q 710 2445 630 2502 
Q 550 2560 237 2560 
L 237 2758 
L 1133 2829 
L 1133 480 
Q 1133 288 1200 243 
Q 1267 198 1581 198 
L 1581 0 
Q 928 19 915 19 
Q 826 19 211 0 
z
M 480 3942 
Q 480 4070 579 4176 
Q 678 4282 819 4282 
Q 960 4282 1059 4186 
Q 1158 4090 1158 3942 
Q 1158 3795 1059 3699 
Q 960 3603 819 3603 
Q 672 3603 576 3705 
Q 480 3808 480 3942 
z
" id="CMUSerif-Roman-69" transform="scale(0.015625)"/>
       <path d="M 205 0 
L 205 198 
Q 544 198 624 240 
Q 704 282 704 486 
L 704 2202 
Q 704 2438 621 2499 
Q 538 2560 205 2560 
L 205 2758 
L 1107 2829 
L 1107 2157 
Q 1408 2829 2054 2829 
Q 2803 2829 2906 2202 
Q 3014 2445 3244 2637 
Q 3475 2829 3834 2829 
Q 4314 2829 4506 2592 
Q 4646 2432 4675 2253 
Q 4704 2074 4704 1613 
L 4704 390 
Q 4710 256 4812 227 
Q 4915 198 5203 198 
L 5203 0 
Q 4550 19 4486 19 
Q 4435 19 3763 0 
L 3763 198 
Q 4102 198 4182 240 
Q 4262 282 4262 486 
L 4262 1978 
Q 4262 2304 4163 2496 
Q 4064 2688 3789 2688 
Q 3456 2688 3190 2409 
Q 2925 2131 2925 1664 
L 2925 486 
Q 2925 282 3005 240 
Q 3085 198 3424 198 
L 3424 0 
Q 2771 19 2707 19 
Q 2656 19 1984 0 
L 1984 198 
Q 2323 198 2403 240 
Q 2483 282 2483 486 
L 2483 1978 
Q 2483 2304 2384 2496 
Q 2285 2688 2010 2688 
Q 1677 2688 1411 2409 
Q 1146 2131 1146 1664 
L 1146 486 
Q 1146 282 1226 240 
Q 1306 198 1645 198 
L 1645 0 
Q 992 19 928 19 
Q 877 19 205 0 
z
" id="CMUSerif-Roman-6d" transform="scale(0.015625)"/>
       <path d="M 179 1408 
Q 179 2010 566 2438 
Q 954 2867 1510 2867 
Q 2074 2867 2365 2502 
Q 2656 2138 2656 1613 
Q 2656 1517 2630 1497 
Q 2605 1478 2496 1478 
L 710 1478 
Q 710 826 902 518 
Q 1171 90 1626 90 
Q 1690 90 1763 102 
Q 1837 115 1990 169 
Q 2144 224 2278 371 
Q 2413 518 2490 749 
Q 2509 838 2573 838 
Q 2656 838 2656 762 
Q 2656 704 2595 579 
Q 2534 454 2419 304 
Q 2304 154 2080 42 
Q 1856 -70 1587 -70 
Q 1024 -70 601 355 
Q 179 781 179 1408 
z
M 717 1613 
L 2234 1613 
Q 2234 1747 2211 1897 
Q 2189 2048 2121 2256 
Q 2054 2464 1897 2595 
Q 1741 2726 1510 2726 
Q 1408 2726 1296 2681 
Q 1184 2637 1049 2531 
Q 915 2426 822 2186 
Q 730 1946 717 1613 
z
" id="CMUSerif-Roman-65" transform="scale(0.015625)"/>
       <path d="M 756 -1600 
L 756 4800 
L 1631 4800 
L 1631 4544 
L 1013 4544 
L 1013 -1344 
L 1631 -1344 
L 1631 -1600 
L 756 -1600 
z
" id="Cmr10-5b" transform="scale(0.015625)"/>
       <path d="M 191 0 
L 191 225 
Q 409 225 550 259 
Q 691 294 691 428 
L 691 3788 
Q 691 3959 639 4036 
Q 588 4113 491 4130 
Q 394 4147 191 4147 
L 191 4372 
L 1141 4441 
L 1141 2241 
Q 1275 2506 1515 2667 
Q 1756 2828 2047 2828 
Q 2491 2828 2714 2615 
Q 2938 2403 2938 1966 
L 2938 428 
Q 2938 294 3078 259 
Q 3219 225 3438 225 
L 3438 0 
L 1972 0 
L 1972 225 
Q 2191 225 2331 259 
Q 2472 294 2472 428 
L 2472 1947 
Q 2472 2259 2381 2461 
Q 2291 2663 2009 2663 
Q 1638 2663 1398 2366 
Q 1159 2069 1159 1691 
L 1159 428 
Q 1159 294 1300 259 
Q 1441 225 1656 225 
L 1656 0 
L 191 0 
z
" id="Cmr10-68" transform="scale(0.015625)"/>
       <path d="M 166 0 
L 166 225 
Q 384 225 525 259 
Q 666 294 666 428 
L 666 2175 
Q 666 2347 614 2423 
Q 563 2500 466 2517 
Q 369 2534 166 2534 
L 166 2759 
L 1081 2828 
L 1081 2203 
Q 1184 2481 1375 2654 
Q 1566 2828 1838 2828 
Q 2028 2828 2178 2715 
Q 2328 2603 2328 2419 
Q 2328 2303 2245 2217 
Q 2163 2131 2041 2131 
Q 1922 2131 1837 2215 
Q 1753 2300 1753 2419 
Q 1753 2591 1875 2663 
L 1838 2663 
Q 1578 2663 1414 2475 
Q 1250 2288 1181 2009 
Q 1113 1731 1113 1478 
L 1113 428 
Q 1113 225 1734 225 
L 1734 0 
L 166 0 
z
" id="Cmr10-72" transform="scale(0.015625)"/>
       <path d="M 213 -19 
L 213 1025 
Q 213 1075 269 1075 
L 347 1075 
Q 384 1075 397 1025 
Q 575 97 1259 97 
Q 1563 97 1767 234 
Q 1972 372 1972 659 
Q 1972 866 1812 1011 
Q 1653 1156 1434 1209 
L 1006 1294 
Q 791 1341 614 1437 
Q 438 1534 325 1695 
Q 213 1856 213 2069 
Q 213 2350 361 2529 
Q 509 2709 746 2789 
Q 984 2869 1259 2869 
Q 1588 2869 1831 2694 
L 2016 2853 
Q 2016 2869 2047 2869 
L 2094 2869 
Q 2113 2869 2128 2851 
Q 2144 2834 2144 2816 
L 2144 1978 
Q 2144 1919 2094 1919 
L 2016 1919 
Q 1959 1919 1959 1978 
Q 1959 2313 1773 2516 
Q 1588 2719 1253 2719 
Q 966 2719 755 2612 
Q 544 2506 544 2247 
Q 544 2069 695 1955 
Q 847 1841 1050 1791 
L 1484 1709 
Q 1703 1659 1892 1540 
Q 2081 1422 2192 1240 
Q 2303 1059 2303 831 
Q 2303 600 2223 429 
Q 2144 259 2001 146 
Q 1859 34 1665 -19 
Q 1472 -72 1259 -72 
Q 859 -72 575 197 
L 341 -56 
Q 341 -72 306 -72 
L 269 -72 
Q 213 -72 213 -19 
z
" id="Cmr10-73" transform="scale(0.015625)"/>
       <path d="M 141 -1600 
L 141 -1344 
L 763 -1344 
L 763 4544 
L 141 4544 
L 141 4800 
L 1019 4800 
L 1019 -1600 
L 141 -1600 
z
" id="Cmr10-5d" transform="scale(0.015625)"/>
      </defs>
      <use xlink:href="#CMUSerif-Roman-43"/>
      <use transform="translate(72.199982 0)" xlink:href="#CMUSerif-Roman-50"/>
      <use transform="translate(140.199966 0)" xlink:href="#CMUSerif-Roman-55"/>
      <use transform="translate(215.199951 0)" xlink:href="#CMUSerif-Roman-20"/>
      <use transform="translate(248.499939 0)" xlink:href="#CMUSerif-Roman-54"/>
      <use transform="translate(320.699921 0)" xlink:href="#CMUSerif-Roman-69"/>
      <use transform="translate(348.399918 0)" xlink:href="#CMUSerif-Roman-6d"/>
      <use transform="translate(431.699905 0)" xlink:href="#CMUSerif-Roman-65"/>
      <use transform="translate(476.099899 0)" xlink:href="#CMUSerif-Roman-20"/>
      <use transform="translate(509.399887 0)" xlink:href="#Cmr10-5b"/>
      <use transform="translate(537.085434 0)" xlink:href="#Cmr10-68"/>
      <use transform="translate(592.603012 0)" xlink:href="#Cmr10-72"/>
      <use transform="translate(631.71434 0)" xlink:href="#Cmr10-73"/>
      <use transform="translate(671.118637 0)" xlink:href="#Cmr10-5d"/>
     </g>
    </g>
   </g>
   <g id="patch_30">
    <path d="M 30.993233 131.289617 
L 30.993233 3.00024 
" style="fill:none;stroke:#000000;stroke-linecap:square;stroke-linejoin:miter;stroke-width:0.75;"/>
   </g>
   <g id="patch_31">
    <path d="M 242.08056 131.289617 
L 242.08056 3.00024 
" style="fill:none;stroke:#000000;stroke-linecap:square;stroke-linejoin:miter;stroke-width:0.75;"/>
   </g>
   <g id="patch_32">
    <path d="M 30.993233 131.289617 
L 242.08056 131.289617 
" style="fill:none;stroke:#000000;stroke-linecap:square;stroke-linejoin:miter;stroke-width:0.75;"/>
   </g>
   <g id="patch_33">
    <path d="M 30.993233 3.00024 
L 242.08056 3.00024 
" style="fill:none;stroke:#000000;stroke-linecap:square;stroke-linejoin:miter;stroke-width:0.75;"/>
   </g>
   <g id="legend_1">
    <g id="patch_34">
     <path d="M 182.27116 40.336862 
L 236.24956 40.336862 
Q 237.91556 40.336862 237.91556 38.670862 
L 237.91556 8.83124 
Q 237.91556 7.16524 236.24956 7.16524 
L 182.27116 7.16524 
Q 180.60516 7.16524 180.60516 8.83124 
L 180.60516 38.670862 
Q 180.60516 40.336862 182.27116 40.336862 
z
" style="fill:#ffffff;opacity:0.5;stroke:#cccccc;stroke-linejoin:miter;"/>
    </g>
    <g id="patch_35">
     <path d="M 183.93716 16.32824 
L 200.59716 16.32824 
L 200.59716 10.49724 
L 183.93716 10.49724 
z
" style="fill:#b3cde3;stroke:#839cb1;stroke-linejoin:miter;"/>
    </g>
    <g id="text_12">
     <!-- MEM -->
     <g transform="translate(204.76216 16.32824)scale(0.0833 -0.0833)">
      <defs>
       <path d="M 237 0 
L 237 198 
Q 467 198 614 243 
Q 762 288 816 374 
Q 870 461 883 518 
Q 896 576 896 672 
L 896 3872 
Q 896 4058 816 4115 
Q 736 4173 390 4173 
L 237 4173 
L 237 4371 
L 1318 4371 
Q 1434 4371 1466 4352 
Q 1498 4333 1542 4230 
L 2931 646 
L 4333 4250 
Q 4365 4339 4393 4355 
Q 4422 4371 4544 4371 
L 5626 4371 
L 5626 4173 
L 5472 4173 
Q 5126 4173 5046 4115 
Q 4966 4058 4966 3872 
L 4966 499 
Q 4966 314 5046 256 
Q 5126 198 5472 198 
L 5626 198 
L 5626 0 
Q 5389 19 4710 19 
Q 4026 19 3789 0 
L 3789 198 
L 3942 198 
Q 4288 198 4368 256 
Q 4448 314 4448 499 
L 4448 4173 
L 4442 4173 
L 2867 122 
Q 2822 0 2752 0 
Q 2675 0 2624 141 
L 1082 4122 
L 1075 4122 
L 1075 672 
Q 1075 576 1088 518 
Q 1101 461 1155 374 
Q 1210 288 1357 243 
Q 1504 198 1734 198 
L 1734 0 
Q 1062 19 985 19 
Q 909 19 237 0 
z
" id="CMUSerif-Roman-4d" transform="scale(0.015625)"/>
       <path d="M 211 0 
L 211 198 
L 365 198 
Q 710 198 790 256 
Q 870 314 870 499 
L 870 3853 
Q 870 4038 790 4096 
Q 710 4154 365 4154 
L 211 4154 
L 211 4352 
L 3814 4352 
L 3994 2912 
L 3834 2912 
Q 3789 3277 3731 3488 
Q 3674 3699 3536 3862 
Q 3398 4026 3171 4090 
Q 2944 4154 2579 4154 
L 1754 4154 
Q 1536 4154 1488 4109 
Q 1440 4064 1440 3898 
L 1440 2362 
L 2016 2362 
Q 2458 2362 2582 2515 
Q 2707 2669 2707 3110 
L 2867 3110 
L 2867 1414 
L 2707 1414 
Q 2707 1850 2582 2006 
Q 2458 2163 2016 2163 
L 1440 2163 
L 1440 454 
Q 1440 288 1488 243 
Q 1536 198 1754 198 
L 2605 198 
Q 2880 198 3081 233 
Q 3283 269 3424 358 
Q 3565 448 3661 550 
Q 3757 653 3824 838 
Q 3891 1024 3929 1197 
Q 3968 1370 4013 1651 
L 4173 1651 
L 3904 0 
L 211 0 
z
" id="CMUSerif-Roman-45" transform="scale(0.015625)"/>
      </defs>
      <use xlink:href="#CMUSerif-Roman-4d"/>
      <use x="91.599991" xlink:href="#CMUSerif-Roman-45"/>
      <use x="159.599976" xlink:href="#CMUSerif-Roman-4d"/>
     </g>
    </g>
    <g id="patch_36">
     <path d="M 183.93716 25.858281 
L 200.59716 25.858281 
L 200.59716 20.027281 
L 183.93716 20.027281 
z
" style="fill:#ccebc5;stroke:#9bb994;stroke-linejoin:miter;"/>
    </g>
    <g id="text_13">
     <!-- FESOM -->
     <g transform="translate(204.76216 25.858281)scale(0.0833 -0.0833)">
      <defs>
       <path d="M 211 0 
L 211 198 
L 365 198 
Q 710 198 790 256 
Q 870 314 870 499 
L 870 3853 
Q 870 4038 790 4096 
Q 710 4154 365 4154 
L 211 4154 
L 211 4352 
L 3725 4352 
L 3904 2912 
L 3744 2912 
Q 3699 3277 3641 3485 
Q 3584 3693 3453 3859 
Q 3322 4026 3101 4090 
Q 2880 4154 2522 4154 
L 1754 4154 
Q 1536 4154 1488 4109 
Q 1440 4064 1440 3898 
L 1440 2278 
L 1990 2278 
Q 2426 2278 2547 2435 
Q 2669 2592 2669 3027 
L 2829 3027 
L 2829 1331 
L 2669 1331 
Q 2669 1773 2547 1926 
Q 2426 2080 1990 2080 
L 1440 2080 
L 1440 506 
Q 1440 371 1462 320 
Q 1485 269 1619 233 
Q 1754 198 2048 198 
L 2259 198 
L 2259 0 
Q 2029 19 1184 19 
Q 435 19 211 0 
z
" id="CMUSerif-Roman-46" transform="scale(0.015625)"/>
       <path d="M 358 13 
L 358 1293 
Q 358 1363 361 1388 
Q 365 1414 384 1433 
Q 403 1453 442 1453 
Q 512 1453 518 1389 
Q 538 755 915 403 
Q 1286 58 1926 58 
Q 2310 58 2547 333 
Q 2784 608 2784 973 
Q 2784 1318 2586 1562 
Q 2502 1670 2396 1740 
Q 2291 1811 2227 1833 
Q 2163 1856 2042 1888 
Q 1248 2080 1197 2099 
Q 819 2227 588 2550 
Q 358 2874 358 3270 
Q 358 3782 720 4147 
Q 1082 4512 1606 4512 
Q 1869 4512 2089 4429 
Q 2310 4346 2400 4272 
Q 2490 4198 2630 4064 
L 2854 4429 
Q 2906 4512 2950 4512 
Q 3002 4512 3011 4483 
Q 3021 4454 3021 4358 
L 3021 3072 
Q 3021 3002 3017 2976 
Q 3014 2950 2995 2934 
Q 2976 2918 2938 2918 
Q 2874 2918 2861 2995 
Q 2682 4333 1613 4333 
Q 1248 4333 1008 4086 
Q 768 3840 768 3494 
Q 768 3213 944 2982 
Q 1120 2752 1414 2682 
L 2234 2483 
Q 2643 2387 2918 2025 
Q 3194 1664 3194 1190 
Q 3194 646 2838 252 
Q 2483 -141 1933 -141 
Q 1536 -141 1229 -9 
Q 922 122 755 307 
Q 627 96 544 -26 
L 525 -58 
Q 474 -141 429 -141 
Q 378 -141 368 -109 
Q 358 -77 358 13 
z
" id="CMUSerif-Roman-53" transform="scale(0.015625)"/>
       <path d="M 358 2170 
Q 358 3149 985 3830 
Q 1613 4512 2483 4512 
Q 3360 4512 3987 3827 
Q 4614 3142 4614 2170 
Q 4614 1203 3987 531 
Q 3360 -141 2483 -141 
Q 1619 -141 988 528 
Q 358 1197 358 2170 
z
M 1018 2259 
Q 1018 1664 1158 1209 
Q 1299 755 1526 508 
Q 1754 262 1997 144 
Q 2240 26 2490 26 
Q 2733 26 2973 141 
Q 3213 256 3440 499 
Q 3667 742 3811 1200 
Q 3955 1658 3955 2259 
Q 3955 2726 3856 3104 
Q 3757 3482 3600 3709 
Q 3443 3936 3241 4086 
Q 3040 4237 2851 4294 
Q 2662 4352 2483 4352 
Q 2259 4352 2025 4253 
Q 1792 4154 1555 3933 
Q 1318 3712 1168 3280 
Q 1018 2848 1018 2259 
z
" id="CMUSerif-Roman-4f" transform="scale(0.015625)"/>
      </defs>
      <use xlink:href="#CMUSerif-Roman-46"/>
      <use x="65.199997" xlink:href="#CMUSerif-Roman-45"/>
      <use x="133.199982" xlink:href="#CMUSerif-Roman-53"/>
      <use x="188.699966" xlink:href="#CMUSerif-Roman-4f"/>
      <use x="266.399948" xlink:href="#CMUSerif-Roman-4d"/>
     </g>
    </g>
    <g id="patch_37">
     <path d="M 183.93716 35.388321 
L 200.59716 35.388321 
L 200.59716 29.557321 
L 183.93716 29.557321 
z
" style="fill:#decbe4;stroke:#ac9ab2;stroke-linejoin:miter;"/>
    </g>
    <g id="text_14">
     <!-- DEAC -->
     <g transform="translate(204.76216 35.388321)scale(0.0833 -0.0833)">
      <defs>
       <path d="M 224 0 
L 224 198 
L 378 198 
Q 723 198 803 256 
Q 883 314 883 499 
L 883 3872 
Q 883 4058 803 4115 
Q 723 4173 378 4173 
L 224 4173 
L 224 4371 
L 2566 4371 
Q 3386 4371 3955 3718 
Q 4525 3066 4525 2150 
Q 4525 1254 3952 627 
Q 3379 0 2566 0 
L 224 0 
z
M 1434 454 
Q 1434 288 1482 243 
Q 1530 198 1747 198 
L 2394 198 
Q 2816 198 3101 371 
Q 3386 544 3533 742 
Q 3885 1222 3885 2150 
Q 3885 3123 3552 3578 
Q 3123 4173 2387 4173 
L 1747 4173 
Q 1530 4173 1482 4128 
Q 1434 4083 1434 3917 
L 1434 454 
z
" id="CMUSerif-Roman-44" transform="scale(0.015625)"/>
       <path d="M 205 0 
L 205 198 
Q 774 211 922 627 
L 2246 4454 
Q 2272 4531 2301 4556 
Q 2330 4582 2400 4582 
Q 2438 4582 2460 4576 
Q 2483 4570 2499 4547 
Q 2515 4525 2521 4512 
Q 2528 4499 2547 4454 
L 3930 454 
Q 3981 294 4083 246 
Q 4186 198 4474 198 
L 4589 198 
L 4589 0 
Q 4186 19 3750 19 
Q 3059 19 2829 0 
L 2829 198 
Q 3360 198 3360 390 
Q 3360 403 3341 480 
L 3002 1459 
L 1421 1459 
L 1126 621 
Q 1114 595 1114 525 
Q 1114 390 1238 294 
Q 1363 198 1594 198 
L 1594 0 
Q 979 19 858 19 
Q 646 19 205 0 
z
M 1491 1658 
L 2931 1658 
L 2208 3738 
L 1491 1658 
z
" id="CMUSerif-Roman-41" transform="scale(0.015625)"/>
      </defs>
      <use xlink:href="#CMUSerif-Roman-44"/>
      <use x="76.299988" xlink:href="#CMUSerif-Roman-45"/>
      <use x="144.299973" xlink:href="#CMUSerif-Roman-41"/>
      <use x="219.299957" xlink:href="#CMUSerif-Roman-43"/>
     </g>
    </g>
   </g>
  </g>
 </g>
 <defs>
  <clipPath id="pac2f7bcb04">
   <rect height="128.289377" width="211.087327" x="30.993233" y="3.00024"/>
  </clipPath>
 </defs>
</svg>
