<?xml version="1.0" encoding="utf-8" standalone="no"?>
<!DOCTYPE svg PUBLIC "-//W3C//DTD SVG 1.1//EN"
  "http://www.w3.org/Graphics/SVG/1.1/DTD/svg11.dtd">
<svg height="151.46856pt" version="1.1" viewBox="0 0 245.0808 151.46856" width="245.0808pt" xmlns="http://www.w3.org/2000/svg" xmlns:xlink="http://www.w3.org/1999/xlink">
 <metadata>
  <rdf:RDF xmlns:cc="http://creativecommons.org/ns#" xmlns:dc="http://purl.org/dc/elements/1.1/" xmlns:rdf="http://www.w3.org/1999/02/22-rdf-syntax-ns#">
   <cc:Work>
    <dc:type rdf:resource="http://purl.org/dc/dcmitype/StillImage"/>
    <dc:date>2022-01-10T22:32:16.881782</dc:date>
    <dc:format>image/svg+xml</dc:format>
    <dc:creator>
     <cc:Agent>
      <dc:title>Matplotlib v3.4.2, https://matplotlib.org/</dc:title>
     </cc:Agent>
    </dc:creator>
   </cc:Work>
  </rdf:RDF>
 </metadata>
 <defs>
  <style type="text/css">*{stroke-linecap:butt;stroke-linejoin:round;}</style>
 </defs>
 <g id="figure_1">
  <g id="patch_1">
   <path d="M 0 151.46856 
L 245.0808 151.46856 
L 245.0808 0 
L 0 0 
z
" style="fill:none;"/>
  </g>
  <g id="axes_1">
   <g id="patch_2">
    <path d="M 29.42124 124.52082 
L 242.08056 124.52082 
L 242.08056 3.00024 
L 29.42124 3.00024 
z
" style="fill:none;"/>
   </g>
   <g id="matplotlib.axis_1">
    <g id="xtick_1">
     <g id="line2d_1">
      <defs>
       <path d="M 0 0 
L 0 -4 
" id="m2f5cccd9d6" style="stroke:#000000;stroke-width:0.5;"/>
      </defs>
      <g>
       <use style="stroke:#000000;stroke-width:0.5;" x="66.993334" xlink:href="#m2f5cccd9d6" y="124.52082"/>
      </g>
     </g>
     <g id="text_1">
      <!-- 0.6 -->
      <g transform="translate(61.881459 134.07332)scale(0.08 -0.08)">
       <defs>
        <path d="M 250 2048 
Q 250 2989 486 3501 
Q 819 4262 1600 4262 
Q 1766 4262 1939 4217 
Q 2112 4173 2333 4000 
Q 2554 3827 2688 3546 
Q 2944 3002 2944 2048 
Q 2944 1114 2707 602 
Q 2362 -141 1594 -141 
Q 1306 -141 1014 6 
Q 723 154 538 506 
Q 250 1037 250 2048 
z
M 781 2125 
Q 781 1158 851 774 
Q 928 358 1142 179 
Q 1357 0 1594 0 
Q 1850 0 2064 192 
Q 2278 384 2342 800 
Q 2413 1210 2413 2125 
Q 2413 3014 2349 3373 
Q 2266 3789 2042 3955 
Q 1818 4122 1594 4122 
Q 1510 4122 1420 4096 
Q 1331 4070 1203 4000 
Q 1075 3930 976 3750 
Q 877 3571 832 3302 
Q 781 2957 781 2125 
z
" id="CMUSerif-Roman-30" transform="scale(0.015625)"/>
        <path d="M 640 102 
Q 544 205 544 339 
Q 544 474 640 573 
Q 736 672 883 672 
Q 1024 672 1120 579 
Q 1216 486 1216 339 
Q 1216 192 1113 96 
Q 1011 0 883 0 
Q 736 0 640 102 
z
" id="CMUSerif-Roman-2e" transform="scale(0.015625)"/>
        <path d="M 269 2022 
Q 269 3027 781 3644 
Q 1293 4262 1952 4262 
Q 2336 4262 2550 4067 
Q 2765 3872 2765 3571 
Q 2765 3405 2669 3334 
Q 2573 3264 2470 3264 
Q 2355 3264 2265 3341 
Q 2176 3418 2176 3558 
Q 2176 3846 2528 3846 
Q 2362 4102 1965 4102 
Q 1843 4102 1718 4067 
Q 1594 4032 1430 3913 
Q 1267 3795 1142 3606 
Q 1018 3418 931 3066 
Q 845 2714 845 2253 
L 845 2099 
Q 1107 2733 1644 2733 
Q 2182 2733 2553 2323 
Q 2925 1914 2925 1306 
Q 2925 685 2537 272 
Q 2150 -141 1606 -141 
Q 1363 -141 1142 -38 
Q 922 64 717 294 
Q 512 525 390 969 
Q 269 1414 269 2022 
z
M 858 1446 
Q 858 819 973 518 
Q 992 467 1033 400 
Q 1075 333 1148 243 
Q 1222 154 1344 96 
Q 1466 38 1606 38 
Q 2035 38 2240 454 
Q 2349 685 2349 1312 
Q 2349 1952 2234 2189 
Q 2035 2586 1638 2586 
Q 1370 2586 1184 2400 
Q 998 2214 928 1968 
Q 858 1722 858 1446 
z
" id="CMUSerif-Roman-36" transform="scale(0.015625)"/>
       </defs>
       <use xlink:href="#CMUSerif-Roman-30"/>
       <use x="49.999985" xlink:href="#CMUSerif-Roman-2e"/>
       <use x="77.799973" xlink:href="#CMUSerif-Roman-36"/>
      </g>
     </g>
    </g>
    <g id="xtick_2">
     <g id="line2d_2">
      <g>
       <use style="stroke:#000000;stroke-width:0.5;" x="106.503709" xlink:href="#m2f5cccd9d6" y="124.52082"/>
      </g>
     </g>
     <g id="text_2">
      <!-- 0.8 -->
      <g transform="translate(101.391834 134.07332)scale(0.08 -0.08)">
       <defs>
        <path d="M 269 966 
Q 269 1683 1190 2144 
Q 794 2413 723 2490 
Q 442 2803 442 3194 
Q 442 3642 781 3952 
Q 1120 4262 1600 4262 
Q 2061 4262 2406 3996 
Q 2752 3731 2752 3309 
Q 2752 2714 1978 2317 
Q 2490 1997 2611 1862 
Q 2925 1517 2925 1075 
Q 2925 563 2531 211 
Q 2138 -141 1594 -141 
Q 1062 -141 665 169 
Q 269 480 269 966 
z
M 589 966 
Q 589 570 886 304 
Q 1184 38 1600 38 
Q 2003 38 2304 268 
Q 2605 499 2605 845 
Q 2605 979 2560 1094 
Q 2515 1210 2425 1302 
Q 2336 1395 2281 1436 
Q 2227 1478 2125 1549 
L 1338 2048 
Q 589 1632 589 966 
z
M 723 3443 
Q 723 3136 1043 2925 
L 1837 2413 
Q 2470 2784 2470 3309 
Q 2470 3648 2211 3875 
Q 1952 4102 1594 4102 
Q 1242 4102 982 3916 
Q 723 3731 723 3443 
z
" id="CMUSerif-Roman-38" transform="scale(0.015625)"/>
       </defs>
       <use xlink:href="#CMUSerif-Roman-30"/>
       <use x="49.999985" xlink:href="#CMUSerif-Roman-2e"/>
       <use x="77.799973" xlink:href="#CMUSerif-Roman-38"/>
      </g>
     </g>
    </g>
    <g id="xtick_3">
     <g id="line2d_3">
      <g>
       <use style="stroke:#000000;stroke-width:0.5;" x="146.014084" xlink:href="#m2f5cccd9d6" y="124.52082"/>
      </g>
     </g>
     <g id="text_3">
      <!-- 1.0 -->
      <g transform="translate(140.902209 134.07332)scale(0.08 -0.08)">
       <defs>
        <path d="M 570 3654 
L 570 3853 
Q 1338 3853 1734 4262 
Q 1843 4262 1862 4236 
Q 1882 4211 1882 4096 
L 1882 506 
Q 1882 314 1974 256 
Q 2067 198 2477 198 
L 2682 198 
L 2682 0 
Q 2458 19 1645 19 
Q 832 19 608 0 
L 608 198 
L 813 198 
Q 1216 198 1312 256 
Q 1408 314 1408 506 
L 1408 3821 
Q 1075 3654 570 3654 
z
" id="CMUSerif-Roman-31" transform="scale(0.015625)"/>
       </defs>
       <use xlink:href="#CMUSerif-Roman-31"/>
       <use x="49.999985" xlink:href="#CMUSerif-Roman-2e"/>
       <use x="77.799973" xlink:href="#CMUSerif-Roman-30"/>
      </g>
     </g>
    </g>
    <g id="xtick_4">
     <g id="line2d_4">
      <g>
       <use style="stroke:#000000;stroke-width:0.5;" x="185.524459" xlink:href="#m2f5cccd9d6" y="124.52082"/>
      </g>
     </g>
     <g id="text_4">
      <!-- 1.2 -->
      <g transform="translate(180.412584 134.07332)scale(0.08 -0.08)">
       <defs>
        <path d="M 320 0 
Q 320 115 329 150 
Q 339 186 390 237 
L 1619 1606 
Q 2291 2362 2291 3021 
Q 2291 3450 2067 3757 
Q 1843 4064 1434 4064 
Q 1152 4064 915 3891 
Q 678 3718 570 3411 
Q 589 3418 653 3418 
Q 813 3418 902 3318 
Q 992 3219 992 3085 
Q 992 2912 880 2829 
Q 768 2746 659 2746 
Q 614 2746 556 2755 
Q 499 2765 409 2854 
Q 320 2944 320 3104 
Q 320 3552 659 3907 
Q 998 4262 1517 4262 
Q 2106 4262 2490 3913 
Q 2874 3565 2874 3021 
Q 2874 2829 2816 2656 
Q 2758 2483 2681 2348 
Q 2605 2214 2400 2000 
Q 2195 1786 2028 1632 
Q 1862 1478 1491 1152 
L 813 493 
L 1965 493 
Q 2528 493 2573 544 
Q 2637 634 2714 1114 
L 2874 1114 
L 2694 0 
L 320 0 
z
" id="CMUSerif-Roman-32" transform="scale(0.015625)"/>
       </defs>
       <use xlink:href="#CMUSerif-Roman-31"/>
       <use x="49.999985" xlink:href="#CMUSerif-Roman-2e"/>
       <use x="77.799973" xlink:href="#CMUSerif-Roman-32"/>
      </g>
     </g>
    </g>
    <g id="xtick_5">
     <g id="line2d_5">
      <g>
       <use style="stroke:#000000;stroke-width:0.5;" x="225.034833" xlink:href="#m2f5cccd9d6" y="124.52082"/>
      </g>
     </g>
     <g id="text_5">
      <!-- 1.4 -->
      <g transform="translate(219.922958 134.07332)scale(0.08 -0.08)">
       <defs>
        <path d="M 179 1056 
L 179 1254 
L 2144 4256 
Q 2195 4333 2272 4333 
Q 2342 4333 2358 4304 
Q 2374 4275 2374 4166 
L 2374 1254 
L 3014 1254 
L 3014 1056 
L 2374 1056 
L 2374 499 
Q 2374 314 2451 256 
Q 2528 198 2861 198 
L 2995 198 
L 2995 0 
Q 2733 19 2125 19 
Q 1523 19 1261 0 
L 1261 198 
L 1395 198 
Q 1728 198 1805 256 
Q 1882 314 1882 499 
L 1882 1056 
L 179 1056 
z
M 358 1254 
L 1920 1254 
L 1920 3642 
L 358 1254 
z
" id="CMUSerif-Roman-34" transform="scale(0.015625)"/>
       </defs>
       <use xlink:href="#CMUSerif-Roman-31"/>
       <use x="49.999985" xlink:href="#CMUSerif-Roman-2e"/>
       <use x="77.799973" xlink:href="#CMUSerif-Roman-34"/>
      </g>
     </g>
    </g>
    <g id="text_6">
     <!-- Energy Transfer $\hbar\omega\ [\mathrm{meV}]$ -->
     <g transform="translate(78.4009 145.12582)scale(0.1 -0.1)">
      <defs>
       <path d="M 211 0 
L 211 198 
L 365 198 
Q 710 198 790 256 
Q 870 314 870 499 
L 870 3853 
Q 870 4038 790 4096 
Q 710 4154 365 4154 
L 211 4154 
L 211 4352 
L 3814 4352 
L 3994 2912 
L 3834 2912 
Q 3789 3277 3731 3488 
Q 3674 3699 3536 3862 
Q 3398 4026 3171 4090 
Q 2944 4154 2579 4154 
L 1754 4154 
Q 1536 4154 1488 4109 
Q 1440 4064 1440 3898 
L 1440 2362 
L 2016 2362 
Q 2458 2362 2582 2515 
Q 2707 2669 2707 3110 
L 2867 3110 
L 2867 1414 
L 2707 1414 
Q 2707 1850 2582 2006 
Q 2458 2163 2016 2163 
L 1440 2163 
L 1440 454 
Q 1440 288 1488 243 
Q 1536 198 1754 198 
L 2605 198 
Q 2880 198 3081 233 
Q 3283 269 3424 358 
Q 3565 448 3661 550 
Q 3757 653 3824 838 
Q 3891 1024 3929 1197 
Q 3968 1370 4013 1651 
L 4173 1651 
L 3904 0 
L 211 0 
z
" id="CMUSerif-Roman-45" transform="scale(0.015625)"/>
       <path d="M 205 0 
L 205 198 
Q 544 198 624 240 
Q 704 282 704 486 
L 704 2202 
Q 704 2438 621 2499 
Q 538 2560 205 2560 
L 205 2758 
L 1107 2829 
L 1107 2157 
Q 1408 2829 2054 2829 
Q 2534 2829 2726 2592 
Q 2867 2432 2896 2253 
Q 2925 2074 2925 1613 
L 2925 390 
Q 2931 256 3033 227 
Q 3136 198 3424 198 
L 3424 0 
Q 2771 19 2707 19 
Q 2656 19 1984 0 
L 1984 198 
Q 2323 198 2403 240 
Q 2483 282 2483 486 
L 2483 1978 
Q 2483 2304 2384 2496 
Q 2285 2688 2010 2688 
Q 1677 2688 1411 2409 
Q 1146 2131 1146 1664 
L 1146 486 
Q 1146 282 1226 240 
Q 1306 198 1645 198 
L 1645 0 
Q 992 19 928 19 
Q 877 19 205 0 
z
" id="CMUSerif-Roman-6e" transform="scale(0.015625)"/>
       <path d="M 179 1408 
Q 179 2010 566 2438 
Q 954 2867 1510 2867 
Q 2074 2867 2365 2502 
Q 2656 2138 2656 1613 
Q 2656 1517 2630 1497 
Q 2605 1478 2496 1478 
L 710 1478 
Q 710 826 902 518 
Q 1171 90 1626 90 
Q 1690 90 1763 102 
Q 1837 115 1990 169 
Q 2144 224 2278 371 
Q 2413 518 2490 749 
Q 2509 838 2573 838 
Q 2656 838 2656 762 
Q 2656 704 2595 579 
Q 2534 454 2419 304 
Q 2304 154 2080 42 
Q 1856 -70 1587 -70 
Q 1024 -70 601 355 
Q 179 781 179 1408 
z
M 717 1613 
L 2234 1613 
Q 2234 1747 2211 1897 
Q 2189 2048 2121 2256 
Q 2054 2464 1897 2595 
Q 1741 2726 1510 2726 
Q 1408 2726 1296 2681 
Q 1184 2637 1049 2531 
Q 915 2426 822 2186 
Q 730 1946 717 1613 
z
" id="CMUSerif-Roman-65" transform="scale(0.015625)"/>
       <path d="M 179 0 
L 179 198 
Q 518 198 598 240 
Q 678 282 678 486 
L 678 2202 
Q 678 2438 595 2499 
Q 512 2560 179 2560 
L 179 2758 
L 1069 2829 
L 1069 2125 
Q 1158 2400 1350 2614 
Q 1542 2829 1856 2829 
Q 2061 2829 2195 2713 
Q 2330 2598 2330 2438 
Q 2330 2298 2243 2227 
Q 2157 2157 2054 2157 
Q 1939 2157 1859 2230 
Q 1779 2304 1779 2432 
Q 1779 2509 1814 2569 
Q 1850 2630 1878 2652 
Q 1907 2675 1926 2682 
Q 1914 2688 1856 2688 
Q 1504 2688 1302 2336 
Q 1101 1984 1101 1485 
L 1101 499 
Q 1101 314 1177 256 
Q 1254 198 1587 198 
L 1722 198 
L 1722 0 
Q 1466 19 909 19 
Q 832 19 710 16 
Q 589 13 429 6 
Q 269 0 179 0 
z
" id="CMUSerif-Roman-72" transform="scale(0.015625)"/>
       <path d="M 179 -506 
Q 179 -301 336 -121 
Q 493 58 768 134 
Q 486 314 486 704 
Q 486 1005 685 1235 
Q 384 1485 384 1894 
Q 384 2272 685 2550 
Q 986 2829 1421 2829 
Q 1805 2829 2099 2598 
Q 2406 2899 2778 2899 
Q 2944 2899 3024 2796 
Q 3104 2694 3104 2586 
Q 3104 2490 3043 2442 
Q 2982 2394 2918 2394 
Q 2842 2394 2787 2445 
Q 2733 2496 2733 2579 
Q 2733 2714 2835 2752 
Q 2816 2758 2771 2758 
Q 2458 2758 2195 2509 
Q 2458 2266 2458 1888 
Q 2458 1510 2157 1232 
Q 1856 954 1421 954 
Q 1062 954 787 1152 
Q 678 1024 678 851 
Q 678 691 774 566 
Q 870 442 1018 422 
Q 1062 416 1498 416 
Q 1754 416 1894 409 
Q 2035 403 2236 361 
Q 2438 320 2598 237 
Q 3014 6 3014 -493 
Q 3014 -858 2595 -1088 
Q 2176 -1318 1594 -1318 
Q 1005 -1318 592 -1084 
Q 179 -851 179 -506 
z
M 512 -506 
Q 512 -768 822 -969 
Q 1133 -1171 1600 -1171 
Q 2061 -1171 2371 -972 
Q 2682 -774 2682 -506 
Q 2682 -314 2573 -192 
Q 2464 -70 2240 -22 
Q 2016 26 1859 35 
Q 1702 45 1414 45 
L 1037 45 
Q 819 32 665 -128 
Q 512 -288 512 -506 
z
M 864 1888 
Q 864 1101 1421 1101 
Q 1702 1101 1875 1357 
Q 1978 1530 1978 1894 
Q 1978 2682 1421 2682 
Q 1139 2682 966 2426 
Q 864 2253 864 1888 
z
" id="CMUSerif-Roman-67" transform="scale(0.015625)"/>
       <path d="M 122 -794 
Q 122 -659 202 -588 
Q 282 -518 390 -518 
Q 506 -518 582 -592 
Q 659 -666 659 -787 
Q 659 -1024 410 -1056 
Q 531 -1171 710 -1171 
Q 902 -1171 1056 -1030 
Q 1210 -890 1277 -755 
Q 1344 -621 1440 -378 
Q 1530 -186 1600 0 
L 640 2336 
Q 576 2490 480 2525 
Q 384 2560 122 2560 
L 122 2758 
Q 410 2739 742 2739 
Q 941 2739 1440 2758 
L 1440 2560 
Q 1082 2560 1082 2394 
Q 1082 2374 1120 2278 
L 1830 557 
L 2477 2131 
Q 2515 2221 2515 2285 
Q 2515 2547 2214 2560 
L 2214 2758 
Q 2637 2739 2771 2739 
Q 3034 2739 3251 2758 
L 3251 2560 
Q 2822 2560 2656 2150 
L 1530 -582 
Q 1222 -1312 710 -1312 
Q 467 -1312 294 -1161 
Q 122 -1011 122 -794 
z
" id="CMUSerif-Roman-79" transform="scale(0.015625)"/>
       <path id="CMUSerif-Roman-20" transform="scale(0.015625)"/>
       <path d="M 230 2893 
L 352 4333 
L 4262 4333 
L 4384 2893 
L 4224 2893 
Q 4198 3181 4176 3347 
Q 4154 3514 4099 3670 
Q 4045 3827 3977 3904 
Q 3910 3981 3782 4041 
Q 3654 4102 3488 4118 
Q 3322 4134 3072 4134 
Q 2778 4134 2707 4122 
Q 2630 4102 2611 4048 
Q 2592 3994 2592 3878 
L 2592 506 
Q 2592 378 2617 326 
Q 2643 275 2790 236 
Q 2938 198 3264 198 
L 3520 198 
L 3520 0 
Q 3258 19 2304 19 
Q 1357 19 1094 0 
L 1094 198 
L 1350 198 
Q 1677 198 1824 236 
Q 1971 275 1996 326 
Q 2022 378 2022 506 
L 2022 3878 
Q 2022 3968 2016 4006 
Q 2010 4045 1981 4077 
Q 1952 4109 1888 4121 
Q 1824 4134 1542 4134 
Q 1293 4134 1126 4118 
Q 960 4102 832 4041 
Q 704 3981 637 3904 
Q 570 3827 515 3670 
Q 461 3514 438 3347 
Q 416 3181 390 2893 
L 230 2893 
z
" id="CMUSerif-Roman-54" transform="scale(0.015625)"/>
       <path d="M 269 608 
Q 269 1152 909 1440 
Q 1293 1626 2086 1670 
L 2086 1907 
Q 2086 2304 1878 2515 
Q 1670 2726 1408 2726 
Q 941 2726 717 2432 
Q 909 2426 976 2330 
Q 1043 2234 1043 2138 
Q 1043 2010 963 1926 
Q 883 1843 749 1843 
Q 621 1843 537 1923 
Q 454 2003 454 2144 
Q 454 2458 736 2662 
Q 1018 2867 1421 2867 
Q 1946 2867 2298 2515 
Q 2406 2406 2460 2265 
Q 2515 2125 2521 2032 
Q 2528 1939 2528 1760 
L 2528 480 
Q 2528 442 2541 381 
Q 2554 320 2611 240 
Q 2669 160 2765 160 
Q 2995 160 2995 570 
L 2995 928 
L 3155 928 
L 3155 570 
Q 3155 230 2976 96 
Q 2797 -38 2630 -38 
Q 2419 -38 2284 118 
Q 2150 275 2131 486 
Q 2035 243 1814 86 
Q 1594 -70 1293 -70 
Q 1062 -70 844 -12 
Q 627 45 448 205 
Q 269 365 269 608 
z
M 762 614 
Q 762 378 931 224 
Q 1101 70 1338 70 
Q 1606 70 1846 278 
Q 2086 486 2086 896 
L 2086 1536 
Q 1376 1510 1069 1228 
Q 762 947 762 614 
z
" id="CMUSerif-Roman-61" transform="scale(0.015625)"/>
       <path d="M 211 83 
L 211 928 
Q 211 998 214 1024 
Q 218 1050 237 1069 
Q 256 1088 294 1088 
Q 339 1088 355 1069 
Q 371 1050 384 979 
Q 480 538 688 304 
Q 896 70 1274 70 
Q 1632 70 1814 230 
Q 1997 390 1997 653 
Q 1997 1120 1331 1242 
Q 947 1318 787 1369 
Q 627 1421 486 1536 
Q 211 1760 211 2080 
Q 211 2400 454 2633 
Q 698 2867 1235 2867 
Q 1594 2867 1837 2688 
Q 1907 2746 1946 2790 
Q 2029 2867 2074 2867 
Q 2125 2867 2134 2835 
Q 2144 2803 2144 2714 
L 2144 2067 
Q 2144 1997 2141 1971 
Q 2138 1946 2118 1930 
Q 2099 1914 2061 1914 
Q 1990 1914 1984 1971 
Q 1933 2746 1235 2746 
Q 858 2746 688 2602 
Q 518 2458 518 2259 
Q 518 2150 569 2067 
Q 621 1984 688 1936 
Q 755 1888 880 1843 
Q 1005 1798 1081 1782 
Q 1158 1766 1306 1734 
Q 1818 1638 2035 1427 
Q 2304 1158 2304 819 
Q 2304 442 2048 186 
Q 1792 -70 1274 -70 
Q 858 -70 570 205 
Q 531 166 502 134 
Q 474 102 464 89 
Q 454 77 451 70 
Q 448 64 442 58 
Q 314 -70 282 -70 
Q 230 -70 220 -38 
Q 211 -6 211 83 
z
" id="CMUSerif-Roman-73" transform="scale(0.015625)"/>
       <path d="M 211 2560 
L 211 2758 
L 717 2758 
L 717 3494 
Q 717 3968 1024 4240 
Q 1331 4512 1709 4512 
Q 1958 4512 2121 4377 
Q 2285 4243 2285 4064 
Q 2285 3942 2211 3862 
Q 2138 3782 2003 3782 
Q 1875 3782 1801 3862 
Q 1728 3942 1728 4058 
Q 1728 4262 1920 4326 
Q 1824 4371 1709 4371 
Q 1478 4371 1299 4134 
Q 1120 3898 1120 3501 
L 1120 2758 
L 1869 2758 
L 1869 2560 
L 1139 2560 
L 1139 499 
Q 1139 314 1216 256 
Q 1293 198 1626 198 
L 1760 198 
L 1760 0 
Q 1504 19 947 19 
Q 870 19 748 16 
Q 627 13 467 6 
Q 307 0 218 0 
L 218 198 
Q 557 198 637 240 
Q 717 282 717 486 
L 717 2560 
L 211 2560 
z
" id="CMUSerif-Roman-66" transform="scale(0.015625)"/>
       <path d="M 2976 755 
L 3059 672 
Q 2765 256 2566 99 
Q 2368 -58 2125 -58 
Q 1997 -58 1920 16 
Q 1843 90 1843 211 
Q 1843 320 1971 800 
L 2323 2125 
Q 2368 2304 2368 2336 
Q 2368 2496 2189 2496 
Q 2016 2496 1744 2240 
Q 1472 1984 1216 1600 
Q 1018 1293 902 1001 
Q 787 710 602 0 
L 122 0 
L 966 3200 
L 563 3200 
L 659 3546 
L 1056 3546 
Q 1139 3866 1139 3942 
Q 1139 4019 1056 4060 
Q 973 4102 877 4102 
L 704 4102 
L 704 4198 
Q 1190 4256 1709 4371 
L 1754 4333 
L 1542 3546 
L 2560 3546 
L 2464 3200 
L 1446 3200 
L 979 1472 
Q 1811 2822 2451 2822 
Q 2662 2822 2764 2704 
Q 2867 2586 2867 2394 
Q 2867 2118 2560 1158 
Q 2349 512 2349 358 
Q 2349 243 2451 243 
Q 2528 243 2621 336 
Q 2714 429 2976 755 
z
" id="STIXGeneral-Italic-127" transform="scale(0.015625)"/>
       <path d="M 775 -72 
Q 413 -72 252 193 
Q 91 459 91 844 
Q 91 1097 136 1339 
Q 181 1581 273 1829 
Q 366 2078 484 2295 
Q 603 2513 750 2719 
Q 778 2759 825 2759 
Q 866 2759 891 2734 
Q 916 2709 916 2675 
Q 916 2641 897 2613 
Q 313 1809 313 1131 
Q 313 838 448 627 
Q 584 416 863 416 
Q 1103 416 1308 556 
Q 1513 697 1663 916 
Q 1663 1028 1702 1265 
Q 1741 1503 1823 1689 
Q 1906 1875 2022 1875 
Q 2169 1875 2169 1703 
Q 2169 1603 2126 1451 
Q 2084 1300 2032 1169 
Q 1981 1038 1906 872 
Q 1981 416 2363 416 
Q 2584 416 2807 544 
Q 3031 672 3203 880 
Q 3375 1088 3473 1328 
Q 3572 1569 3572 1784 
Q 3572 1978 3511 2086 
Q 3450 2194 3350 2312 
Q 3250 2431 3250 2503 
Q 3250 2628 3356 2731 
Q 3463 2834 3584 2834 
Q 3741 2834 3806 2692 
Q 3872 2550 3872 2369 
Q 3872 2075 3755 1628 
Q 3638 1181 3488 884 
Q 3281 481 2970 204 
Q 2659 -72 2272 -72 
Q 2025 -72 1873 76 
Q 1722 225 1678 481 
Q 1500 228 1272 78 
Q 1044 -72 775 -72 
z
" id="Cmmi10-21" transform="scale(0.015625)"/>
       <path d="M 756 -1600 
L 756 4800 
L 1631 4800 
L 1631 4544 
L 1013 4544 
L 1013 -1344 
L 1631 -1344 
L 1631 -1600 
L 756 -1600 
z
" id="Cmr10-5b" transform="scale(0.015625)"/>
       <path d="M 191 0 
L 191 225 
Q 409 225 550 259 
Q 691 294 691 428 
L 691 2175 
Q 691 2347 639 2423 
Q 588 2500 491 2517 
Q 394 2534 191 2534 
L 191 2759 
L 1119 2828 
L 1119 2203 
Q 1247 2478 1498 2653 
Q 1750 2828 2047 2828 
Q 2784 2828 2913 2228 
Q 3041 2497 3287 2662 
Q 3534 2828 3828 2828 
Q 4119 2828 4317 2734 
Q 4516 2641 4616 2448 
Q 4716 2256 4716 1966 
L 4716 428 
Q 4716 294 4858 259 
Q 5000 225 5216 225 
L 5216 0 
L 3750 0 
L 3750 225 
Q 3969 225 4109 259 
Q 4250 294 4250 428 
L 4250 1947 
Q 4250 2269 4159 2466 
Q 4069 2663 3788 2663 
Q 3419 2663 3178 2366 
Q 2938 2069 2938 1691 
L 2938 428 
Q 2938 294 3078 259 
Q 3219 225 3438 225 
L 3438 0 
L 1972 0 
L 1972 225 
Q 2191 225 2331 259 
Q 2472 294 2472 428 
L 2472 1947 
Q 2472 2259 2381 2461 
Q 2291 2663 2009 2663 
Q 1638 2663 1398 2366 
Q 1159 2069 1159 1691 
L 1159 428 
Q 1159 294 1300 259 
Q 1441 225 1656 225 
L 1656 0 
L 191 0 
z
" id="Cmr10-6d" transform="scale(0.015625)"/>
       <path d="M 1594 -72 
Q 1203 -72 876 133 
Q 550 338 364 680 
Q 178 1022 178 1403 
Q 178 1778 348 2115 
Q 519 2453 823 2661 
Q 1128 2869 1503 2869 
Q 1797 2869 2014 2770 
Q 2231 2672 2372 2497 
Q 2513 2322 2584 2084 
Q 2656 1847 2656 1563 
Q 2656 1478 2591 1478 
L 738 1478 
L 738 1409 
Q 738 878 952 497 
Q 1166 116 1650 116 
Q 1847 116 2014 203 
Q 2181 291 2304 447 
Q 2428 603 2472 781 
Q 2478 803 2495 820 
Q 2513 838 2534 838 
L 2591 838 
Q 2656 838 2656 756 
Q 2566 394 2266 161 
Q 1966 -72 1594 -72 
z
M 744 1638 
L 2203 1638 
Q 2203 1878 2136 2125 
Q 2069 2372 1912 2536 
Q 1756 2700 1503 2700 
Q 1141 2700 942 2361 
Q 744 2022 744 1638 
z
" id="Cmr10-65" transform="scale(0.015625)"/>
       <path d="M 2253 -72 
L 744 3944 
Q 688 4078 528 4112 
Q 369 4147 122 4147 
L 122 4372 
L 1881 4372 
L 1881 4147 
Q 1350 4147 1350 3981 
Q 1353 3972 1354 3964 
Q 1356 3956 1356 3944 
L 2584 678 
L 3744 3769 
Q 3756 3794 3756 3847 
Q 3756 4003 3612 4075 
Q 3469 4147 3291 4147 
L 3291 4372 
L 4672 4372 
L 4672 4147 
Q 4431 4147 4248 4058 
Q 4066 3969 3988 3769 
L 2541 -72 
Q 2522 -141 2438 -141 
L 2356 -141 
Q 2272 -141 2253 -72 
z
" id="Cmr10-56" transform="scale(0.015625)"/>
       <path d="M 141 -1600 
L 141 -1344 
L 763 -1344 
L 763 4544 
L 141 4544 
L 141 4800 
L 1019 4800 
L 1019 -1600 
L 141 -1600 
z
" id="Cmr10-5d" transform="scale(0.015625)"/>
      </defs>
      <use xlink:href="#CMUSerif-Roman-45"/>
      <use transform="translate(67.999985 0)" xlink:href="#CMUSerif-Roman-6e"/>
      <use transform="translate(123.499969 0)" xlink:href="#CMUSerif-Roman-65"/>
      <use transform="translate(167.899963 0)" xlink:href="#CMUSerif-Roman-72"/>
      <use transform="translate(206.999954 0)" xlink:href="#CMUSerif-Roman-67"/>
      <use transform="translate(256.999939 0)" xlink:href="#CMUSerif-Roman-79"/>
      <use transform="translate(309.699936 0)" xlink:href="#CMUSerif-Roman-20"/>
      <use transform="translate(342.999924 0)" xlink:href="#CMUSerif-Roman-54"/>
      <use transform="translate(415.199905 0)" xlink:href="#CMUSerif-Roman-72"/>
      <use transform="translate(454.299896 0)" xlink:href="#CMUSerif-Roman-61"/>
      <use transform="translate(504.299881 0)" xlink:href="#CMUSerif-Roman-6e"/>
      <use transform="translate(559.799866 0)" xlink:href="#CMUSerif-Roman-73"/>
      <use transform="translate(599.19986 0)" xlink:href="#CMUSerif-Roman-66"/>
      <use transform="translate(629.699844 0)" xlink:href="#CMUSerif-Roman-65"/>
      <use transform="translate(674.099838 0)" xlink:href="#CMUSerif-Roman-72"/>
      <use transform="translate(713.199829 0)" xlink:href="#CMUSerif-Roman-20"/>
      <use transform="translate(746.499817 0)" xlink:href="#STIXGeneral-Italic-127"/>
      <use transform="translate(796.499802 0)" xlink:href="#Cmmi10-21"/>
      <use transform="translate(887.970863 0)" xlink:href="#Cmr10-5b"/>
      <use transform="translate(915.65641 0)" xlink:href="#Cmr10-6d"/>
      <use transform="translate(998.957191 0)" xlink:href="#Cmr10-65"/>
      <use transform="translate(1043.341957 0)" xlink:href="#Cmr10-56"/>
      <use transform="translate(1118.341957 0)" xlink:href="#Cmr10-5d"/>
     </g>
    </g>
   </g>
   <g id="matplotlib.axis_2">
    <g id="ytick_1">
     <g id="line2d_6">
      <defs>
       <path d="M 0 0 
L 4 0 
" id="m7d5202cbf3" style="stroke:#000000;stroke-width:0.5;"/>
      </defs>
      <g>
       <use style="stroke:#000000;stroke-width:0.5;" x="29.42124" xlink:href="#m7d5202cbf3" y="118.095335"/>
      </g>
     </g>
     <g id="text_7">
      <!-- 0 -->
      <g transform="translate(21.42124 120.871585)scale(0.08 -0.08)">
       <use xlink:href="#CMUSerif-Roman-30"/>
      </g>
     </g>
    </g>
    <g id="ytick_2">
     <g id="line2d_7">
      <g>
       <use style="stroke:#000000;stroke-width:0.5;" x="29.42124" xlink:href="#m7d5202cbf3" y="96.257968"/>
      </g>
     </g>
     <g id="text_8">
      <!-- 2 -->
      <g transform="translate(21.42124 99.034218)scale(0.08 -0.08)">
       <use xlink:href="#CMUSerif-Roman-32"/>
      </g>
     </g>
    </g>
    <g id="ytick_3">
     <g id="line2d_8">
      <g>
       <use style="stroke:#000000;stroke-width:0.5;" x="29.42124" xlink:href="#m7d5202cbf3" y="74.420601"/>
      </g>
     </g>
     <g id="text_9">
      <!-- 4 -->
      <g transform="translate(21.42124 77.196851)scale(0.08 -0.08)">
       <use xlink:href="#CMUSerif-Roman-34"/>
      </g>
     </g>
    </g>
    <g id="ytick_4">
     <g id="line2d_9">
      <g>
       <use style="stroke:#000000;stroke-width:0.5;" x="29.42124" xlink:href="#m7d5202cbf3" y="52.583234"/>
      </g>
     </g>
     <g id="text_10">
      <!-- 6 -->
      <g transform="translate(21.42124 55.359484)scale(0.08 -0.08)">
       <use xlink:href="#CMUSerif-Roman-36"/>
      </g>
     </g>
    </g>
    <g id="ytick_5">
     <g id="line2d_10">
      <g>
       <use style="stroke:#000000;stroke-width:0.5;" x="29.42124" xlink:href="#m7d5202cbf3" y="30.745868"/>
      </g>
     </g>
     <g id="text_11">
      <!-- 8 -->
      <g transform="translate(21.42124 33.522118)scale(0.08 -0.08)">
       <use xlink:href="#CMUSerif-Roman-38"/>
      </g>
     </g>
    </g>
    <g id="ytick_6">
     <g id="line2d_11">
      <g>
       <use style="stroke:#000000;stroke-width:0.5;" x="29.42124" xlink:href="#m7d5202cbf3" y="8.908501"/>
      </g>
     </g>
     <g id="text_12">
      <!-- 10 -->
      <g transform="translate(17.42124 11.684751)scale(0.08 -0.08)">
       <use xlink:href="#CMUSerif-Roman-31"/>
       <use x="49.999985" xlink:href="#CMUSerif-Roman-30"/>
      </g>
     </g>
    </g>
    <g id="text_13">
     <!-- $S(q,\hbar\omega)\ [\mathrm{meV^{-1}}]$ -->
     <g transform="translate(12.92124 100.21053)rotate(-90)scale(0.1 -0.1)">
      <defs>
       <path d="M 391 -141 
Q 372 -141 356 -119 
Q 341 -97 341 -78 
L 709 1416 
Q 722 1453 763 1453 
L 838 1453 
Q 863 1453 877 1434 
Q 891 1416 891 1388 
Q 838 1169 838 997 
Q 838 534 1156 309 
Q 1475 84 1959 84 
Q 2169 84 2372 187 
Q 2575 291 2726 456 
Q 2878 622 2968 826 
Q 3059 1031 3059 1241 
Q 3059 1466 2940 1642 
Q 2822 1819 2613 1869 
L 1831 2075 
Q 1516 2159 1328 2414 
Q 1141 2669 1141 2988 
Q 1141 3372 1369 3728 
Q 1597 4084 1964 4298 
Q 2331 4513 2713 4513 
Q 3006 4513 3251 4405 
Q 3497 4297 3628 4063 
L 3994 4494 
Q 4031 4513 4038 4513 
L 4078 4513 
Q 4103 4513 4118 4491 
Q 4134 4469 4134 4447 
L 3763 2963 
Q 3753 2919 3713 2919 
L 3634 2919 
Q 3578 2919 3578 2988 
Q 3609 3191 3609 3341 
Q 3609 3638 3507 3858 
Q 3406 4078 3201 4192 
Q 2997 4306 2694 4306 
Q 2438 4306 2184 4159 
Q 1931 4013 1775 3769 
Q 1619 3525 1619 3263 
Q 1619 3056 1739 2897 
Q 1859 2738 2059 2681 
L 2841 2478 
Q 3053 2422 3211 2280 
Q 3369 2138 3450 1942 
Q 3531 1747 3531 1516 
Q 3531 1213 3403 917 
Q 3275 622 3045 378 
Q 2816 134 2525 -3 
Q 2234 -141 1931 -141 
Q 1169 -141 838 306 
L 481 -122 
Q 444 -141 434 -141 
L 391 -141 
z
" id="Cmmi10-53" transform="scale(0.015625)"/>
       <path d="M 1984 -1588 
Q 1628 -1306 1370 -942 
Q 1113 -578 948 -165 
Q 784 247 703 697 
Q 622 1147 622 1600 
Q 622 2059 703 2509 
Q 784 2959 951 3375 
Q 1119 3791 1378 4153 
Q 1638 4516 1984 4788 
Q 1984 4800 2016 4800 
L 2075 4800 
Q 2094 4800 2109 4783 
Q 2125 4766 2125 4744 
Q 2125 4716 2113 4703 
Q 1800 4397 1592 4047 
Q 1384 3697 1257 3301 
Q 1131 2906 1075 2482 
Q 1019 2059 1019 1600 
Q 1019 -434 2106 -1491 
Q 2125 -1509 2125 -1544 
Q 2125 -1559 2108 -1579 
Q 2091 -1600 2075 -1600 
L 2016 -1600 
Q 1984 -1600 1984 -1588 
z
" id="Cmr10-28" transform="scale(0.015625)"/>
       <path d="M 941 -1159 
Q 963 -1019 1025 -1019 
Q 1256 -1019 1389 -981 
Q 1522 -944 1563 -800 
L 1838 288 
Q 1472 -72 1106 -72 
Q 703 -72 473 233 
Q 244 538 244 953 
Q 244 1363 455 1803 
Q 666 2244 1027 2536 
Q 1388 2828 1806 2828 
Q 2000 2828 2156 2712 
Q 2313 2597 2394 2406 
Q 2431 2481 2601 2654 
Q 2772 2828 2841 2828 
Q 2913 2828 2913 2747 
L 2016 -825 
Q 2000 -919 1997 -934 
Q 1997 -1019 2419 -1019 
Q 2450 -1019 2467 -1044 
Q 2484 -1069 2484 -1100 
Q 2463 -1184 2448 -1212 
Q 2434 -1241 2375 -1241 
L 1006 -1241 
Q 941 -1241 941 -1159 
z
M 1119 97 
Q 1344 97 1558 267 
Q 1772 438 1931 672 
L 2291 2113 
Q 2253 2338 2126 2500 
Q 2000 2663 1791 2663 
Q 1575 2663 1389 2486 
Q 1203 2309 1075 2069 
Q 950 1813 836 1366 
Q 722 919 722 672 
Q 722 450 817 273 
Q 913 97 1119 97 
z
" id="Cmmi10-71" transform="scale(0.015625)"/>
       <path d="M 634 -1153 
Q 634 -1125 659 -1100 
Q 891 -878 1019 -587 
Q 1147 -297 1147 25 
L 1147 103 
Q 1044 0 891 0 
Q 744 0 641 103 
Q 538 206 538 353 
Q 538 503 641 603 
Q 744 703 891 703 
Q 1119 703 1216 492 
Q 1313 281 1313 25 
Q 1313 -331 1170 -651 
Q 1028 -972 769 -1228 
Q 744 -1241 728 -1241 
Q 697 -1241 665 -1212 
Q 634 -1184 634 -1153 
z
" id="Cmmi10-3b" transform="scale(0.015625)"/>
       <path d="M 416 -1600 
Q 359 -1600 359 -1544 
Q 359 -1516 372 -1503 
Q 1466 -434 1466 1600 
Q 1466 3634 384 4691 
Q 359 4706 359 4744 
Q 359 4766 376 4783 
Q 394 4800 416 4800 
L 475 4800 
Q 494 4800 506 4788 
Q 966 4425 1272 3906 
Q 1578 3388 1720 2800 
Q 1863 2213 1863 1600 
Q 1863 1147 1786 708 
Q 1709 269 1542 -157 
Q 1375 -584 1119 -945 
Q 863 -1306 506 -1588 
Q 494 -1600 475 -1600 
L 416 -1600 
z
" id="Cmr10-29" transform="scale(0.015625)"/>
       <path d="M 653 1472 
Q 600 1472 565 1512 
Q 531 1553 531 1600 
Q 531 1647 565 1687 
Q 600 1728 653 1728 
L 4325 1728 
Q 4375 1728 4408 1687 
Q 4441 1647 4441 1600 
Q 4441 1553 4408 1512 
Q 4375 1472 4325 1472 
L 653 1472 
z
" id="Cmsy10-a1" transform="scale(0.015625)"/>
       <path d="M 594 0 
L 594 225 
Q 1394 225 1394 428 
L 1394 3788 
Q 1063 3628 556 3628 
L 556 3853 
Q 1341 3853 1741 4263 
L 1831 4263 
Q 1853 4263 1873 4245 
Q 1894 4228 1894 4206 
L 1894 428 
Q 1894 225 2694 225 
L 2694 0 
L 594 0 
z
" id="Cmr10-31" transform="scale(0.015625)"/>
      </defs>
      <use transform="translate(0 0.223438)" xlink:href="#Cmmi10-53"/>
      <use transform="translate(61.279297 0.223438)" xlink:href="#Cmr10-28"/>
      <use transform="translate(100.097656 0.223438)" xlink:href="#Cmmi10-71"/>
      <use transform="translate(144.677734 0.223438)" xlink:href="#Cmmi10-3b"/>
      <use transform="translate(189.921875 0.223438)" xlink:href="#STIXGeneral-Italic-127"/>
      <use transform="translate(239.92186 0.223438)" xlink:href="#Cmmi10-21"/>
      <use transform="translate(302.128891 0.223438)" xlink:href="#Cmr10-29"/>
      <use transform="translate(370.211281 0.223438)" xlink:href="#Cmr10-5b"/>
      <use transform="translate(397.896828 0.223438)" xlink:href="#Cmr10-6d"/>
      <use transform="translate(481.197609 0.223438)" xlink:href="#Cmr10-65"/>
      <use transform="translate(525.582374 0.223438)" xlink:href="#Cmr10-56"/>
      <use transform="translate(605.149874 39.373438)scale(0.7)" xlink:href="#Cmsy10-a1"/>
      <use transform="translate(659.529757 39.373438)scale(0.7)" xlink:href="#Cmr10-31"/>
      <use transform="translate(701.054757 0.223438)" xlink:href="#Cmr10-5d"/>
     </g>
    </g>
   </g>
   <g id="line2d_12">
    <path clip-path="url(#pc2677f6f57)" d="M 91.528406 117.91497 
L 94.88283 116.29169 
L 98.349069 110.069115 
L 102.709821 98.615969 
L 107.2942 63.174345 
L 112.996722 8.523903 
L 117.469287 27.101446 
L 120.935526 80.399155 
L 125.408092 101.231254 
L 128.87433 112.323671 
L 133.45871 115.840779 
L 136.813134 118.095335 
L 142.515656 118.997157 
" style="fill:none;stroke:#ac9ab2;stroke-dasharray:1.5,2.475;stroke-dashoffset:0;stroke-opacity:0.8;stroke-width:1.5;"/>
    <defs>
     <path d="M 0 -3 
L -0.673542 -0.927051 
L -2.85317 -0.927051 
L -1.089814 0.354102 
L -1.763356 2.427051 
L -0 1.145898 
L 1.763356 2.427051 
L 1.089814 0.354102 
L 2.85317 -0.927051 
L 0.673542 -0.927051 
z
" id="m7c2e8e7ce5" style="stroke:#ac9ab2;stroke-linejoin:bevel;stroke-opacity:0.8;"/>
    </defs>
    <g clip-path="url(#pc2677f6f57)">
     <use style="fill:#ac9ab2;fill-opacity:0.8;stroke:#ac9ab2;stroke-linejoin:bevel;stroke-opacity:0.8;" x="91.528406" xlink:href="#m7c2e8e7ce5" y="117.91497"/>
     <use style="fill:#ac9ab2;fill-opacity:0.8;stroke:#ac9ab2;stroke-linejoin:bevel;stroke-opacity:0.8;" x="94.88283" xlink:href="#m7c2e8e7ce5" y="116.29169"/>
     <use style="fill:#ac9ab2;fill-opacity:0.8;stroke:#ac9ab2;stroke-linejoin:bevel;stroke-opacity:0.8;" x="98.349069" xlink:href="#m7c2e8e7ce5" y="110.069115"/>
     <use style="fill:#ac9ab2;fill-opacity:0.8;stroke:#ac9ab2;stroke-linejoin:bevel;stroke-opacity:0.8;" x="102.709821" xlink:href="#m7c2e8e7ce5" y="98.615969"/>
     <use style="fill:#ac9ab2;fill-opacity:0.8;stroke:#ac9ab2;stroke-linejoin:bevel;stroke-opacity:0.8;" x="107.2942" xlink:href="#m7c2e8e7ce5" y="63.174345"/>
     <use style="fill:#ac9ab2;fill-opacity:0.8;stroke:#ac9ab2;stroke-linejoin:bevel;stroke-opacity:0.8;" x="112.996722" xlink:href="#m7c2e8e7ce5" y="8.523903"/>
     <use style="fill:#ac9ab2;fill-opacity:0.8;stroke:#ac9ab2;stroke-linejoin:bevel;stroke-opacity:0.8;" x="117.469287" xlink:href="#m7c2e8e7ce5" y="27.101446"/>
     <use style="fill:#ac9ab2;fill-opacity:0.8;stroke:#ac9ab2;stroke-linejoin:bevel;stroke-opacity:0.8;" x="120.935526" xlink:href="#m7c2e8e7ce5" y="80.399155"/>
     <use style="fill:#ac9ab2;fill-opacity:0.8;stroke:#ac9ab2;stroke-linejoin:bevel;stroke-opacity:0.8;" x="125.408092" xlink:href="#m7c2e8e7ce5" y="101.231254"/>
     <use style="fill:#ac9ab2;fill-opacity:0.8;stroke:#ac9ab2;stroke-linejoin:bevel;stroke-opacity:0.8;" x="128.87433" xlink:href="#m7c2e8e7ce5" y="112.323671"/>
     <use style="fill:#ac9ab2;fill-opacity:0.8;stroke:#ac9ab2;stroke-linejoin:bevel;stroke-opacity:0.8;" x="133.45871" xlink:href="#m7c2e8e7ce5" y="115.840779"/>
     <use style="fill:#ac9ab2;fill-opacity:0.8;stroke:#ac9ab2;stroke-linejoin:bevel;stroke-opacity:0.8;" x="136.813134" xlink:href="#m7c2e8e7ce5" y="118.095335"/>
     <use style="fill:#ac9ab2;fill-opacity:0.8;stroke:#ac9ab2;stroke-linejoin:bevel;stroke-opacity:0.8;" x="142.515656" xlink:href="#m7c2e8e7ce5" y="118.997157"/>
    </g>
   </g>
   <g id="line2d_13">
    <path clip-path="url(#pc2677f6f57)" d="M 39.087573 118.185517 
L 50.380801 118.095335 
L 62.009472 118.185517 
L 73.302701 117.644424 
L 84.707743 115.750596 
L 96.112786 102.764353 
L 107.2942 69.487103 
L 118.699243 80.489337 
L 130.104286 100.780343 
L 141.2857 112.143306 
L 152.914371 115.209503 
L 164.095785 116.29169 
L 175.500828 116.742601 
L 186.905871 117.193512 
L 198.310913 117.373877 
L 209.715956 117.373877 
L 221.009185 117.644424 
L 232.414227 117.554241 
" style="fill:none;stroke:#839cb1;stroke-dasharray:1.5,2.475;stroke-dashoffset:0;stroke-opacity:0.8;stroke-width:1.5;"/>
    <defs>
     <path d="M 0 -3 
L -2.598076 -1.5 
L -2.598076 1.5 
L -0 3 
L 2.598076 1.5 
L 2.598076 -1.5 
z
" id="m2d3f2ac67a" style="stroke:#839cb1;stroke-linejoin:miter;stroke-opacity:0.8;"/>
    </defs>
    <g clip-path="url(#pc2677f6f57)">
     <use style="fill:#839cb1;fill-opacity:0.8;stroke:#839cb1;stroke-linejoin:miter;stroke-opacity:0.8;" x="39.087573" xlink:href="#m2d3f2ac67a" y="118.185517"/>
     <use style="fill:#839cb1;fill-opacity:0.8;stroke:#839cb1;stroke-linejoin:miter;stroke-opacity:0.8;" x="50.380801" xlink:href="#m2d3f2ac67a" y="118.095335"/>
     <use style="fill:#839cb1;fill-opacity:0.8;stroke:#839cb1;stroke-linejoin:miter;stroke-opacity:0.8;" x="62.009472" xlink:href="#m2d3f2ac67a" y="118.185517"/>
     <use style="fill:#839cb1;fill-opacity:0.8;stroke:#839cb1;stroke-linejoin:miter;stroke-opacity:0.8;" x="73.302701" xlink:href="#m2d3f2ac67a" y="117.644424"/>
     <use style="fill:#839cb1;fill-opacity:0.8;stroke:#839cb1;stroke-linejoin:miter;stroke-opacity:0.8;" x="84.707743" xlink:href="#m2d3f2ac67a" y="115.750596"/>
     <use style="fill:#839cb1;fill-opacity:0.8;stroke:#839cb1;stroke-linejoin:miter;stroke-opacity:0.8;" x="96.112786" xlink:href="#m2d3f2ac67a" y="102.764353"/>
     <use style="fill:#839cb1;fill-opacity:0.8;stroke:#839cb1;stroke-linejoin:miter;stroke-opacity:0.8;" x="107.2942" xlink:href="#m2d3f2ac67a" y="69.487103"/>
     <use style="fill:#839cb1;fill-opacity:0.8;stroke:#839cb1;stroke-linejoin:miter;stroke-opacity:0.8;" x="118.699243" xlink:href="#m2d3f2ac67a" y="80.489337"/>
     <use style="fill:#839cb1;fill-opacity:0.8;stroke:#839cb1;stroke-linejoin:miter;stroke-opacity:0.8;" x="130.104286" xlink:href="#m2d3f2ac67a" y="100.780343"/>
     <use style="fill:#839cb1;fill-opacity:0.8;stroke:#839cb1;stroke-linejoin:miter;stroke-opacity:0.8;" x="141.2857" xlink:href="#m2d3f2ac67a" y="112.143306"/>
     <use style="fill:#839cb1;fill-opacity:0.8;stroke:#839cb1;stroke-linejoin:miter;stroke-opacity:0.8;" x="152.914371" xlink:href="#m2d3f2ac67a" y="115.209503"/>
     <use style="fill:#839cb1;fill-opacity:0.8;stroke:#839cb1;stroke-linejoin:miter;stroke-opacity:0.8;" x="164.095785" xlink:href="#m2d3f2ac67a" y="116.29169"/>
     <use style="fill:#839cb1;fill-opacity:0.8;stroke:#839cb1;stroke-linejoin:miter;stroke-opacity:0.8;" x="175.500828" xlink:href="#m2d3f2ac67a" y="116.742601"/>
     <use style="fill:#839cb1;fill-opacity:0.8;stroke:#839cb1;stroke-linejoin:miter;stroke-opacity:0.8;" x="186.905871" xlink:href="#m2d3f2ac67a" y="117.193512"/>
     <use style="fill:#839cb1;fill-opacity:0.8;stroke:#839cb1;stroke-linejoin:miter;stroke-opacity:0.8;" x="198.310913" xlink:href="#m2d3f2ac67a" y="117.373877"/>
     <use style="fill:#839cb1;fill-opacity:0.8;stroke:#839cb1;stroke-linejoin:miter;stroke-opacity:0.8;" x="209.715956" xlink:href="#m2d3f2ac67a" y="117.373877"/>
     <use style="fill:#839cb1;fill-opacity:0.8;stroke:#839cb1;stroke-linejoin:miter;stroke-opacity:0.8;" x="221.009185" xlink:href="#m2d3f2ac67a" y="117.644424"/>
     <use style="fill:#839cb1;fill-opacity:0.8;stroke:#839cb1;stroke-linejoin:miter;stroke-opacity:0.8;" x="232.414227" xlink:href="#m2d3f2ac67a" y="117.554241"/>
    </g>
   </g>
   <g id="line2d_14">
    <path clip-path="url(#pc2677f6f57)" d="M 92.422919 115.570232 
L 95.889158 113.856769 
L 99.019954 109.798568 
L 101.479865 102.493806 
L 106.287873 92.483576 
L 107.2942 81.300977 
L 114.450306 74.627491 
L 123.395437 81.751889 
L 127.979817 92.663941 
L 131.669684 102.944717 
L 137.707648 110.339661 
L 141.062072 114.488045 
L 152.914371 116.922966 
" style="fill:none;stroke:#9bb994;stroke-dasharray:1.5,2.475;stroke-dashoffset:0;stroke-opacity:0.8;stroke-width:1.5;"/>
    <defs>
     <path d="M -0 4.242641 
L 2.545584 0 
L 0 -4.242641 
L -2.545584 -0 
z
" id="m0379ea48b8" style="stroke:#9bb994;stroke-linejoin:miter;stroke-opacity:0.8;"/>
    </defs>
    <g clip-path="url(#pc2677f6f57)">
     <use style="fill:#9bb994;fill-opacity:0.8;stroke:#9bb994;stroke-linejoin:miter;stroke-opacity:0.8;" x="92.422919" xlink:href="#m0379ea48b8" y="115.570232"/>
     <use style="fill:#9bb994;fill-opacity:0.8;stroke:#9bb994;stroke-linejoin:miter;stroke-opacity:0.8;" x="95.889158" xlink:href="#m0379ea48b8" y="113.856769"/>
     <use style="fill:#9bb994;fill-opacity:0.8;stroke:#9bb994;stroke-linejoin:miter;stroke-opacity:0.8;" x="99.019954" xlink:href="#m0379ea48b8" y="109.798568"/>
     <use style="fill:#9bb994;fill-opacity:0.8;stroke:#9bb994;stroke-linejoin:miter;stroke-opacity:0.8;" x="101.479865" xlink:href="#m0379ea48b8" y="102.493806"/>
     <use style="fill:#9bb994;fill-opacity:0.8;stroke:#9bb994;stroke-linejoin:miter;stroke-opacity:0.8;" x="106.287873" xlink:href="#m0379ea48b8" y="92.483576"/>
     <use style="fill:#9bb994;fill-opacity:0.8;stroke:#9bb994;stroke-linejoin:miter;stroke-opacity:0.8;" x="107.2942" xlink:href="#m0379ea48b8" y="81.300977"/>
     <use style="fill:#9bb994;fill-opacity:0.8;stroke:#9bb994;stroke-linejoin:miter;stroke-opacity:0.8;" x="114.450306" xlink:href="#m0379ea48b8" y="74.627491"/>
     <use style="fill:#9bb994;fill-opacity:0.8;stroke:#9bb994;stroke-linejoin:miter;stroke-opacity:0.8;" x="123.395437" xlink:href="#m0379ea48b8" y="81.751889"/>
     <use style="fill:#9bb994;fill-opacity:0.8;stroke:#9bb994;stroke-linejoin:miter;stroke-opacity:0.8;" x="127.979817" xlink:href="#m0379ea48b8" y="92.663941"/>
     <use style="fill:#9bb994;fill-opacity:0.8;stroke:#9bb994;stroke-linejoin:miter;stroke-opacity:0.8;" x="131.669684" xlink:href="#m0379ea48b8" y="102.944717"/>
     <use style="fill:#9bb994;fill-opacity:0.8;stroke:#9bb994;stroke-linejoin:miter;stroke-opacity:0.8;" x="137.707648" xlink:href="#m0379ea48b8" y="110.339661"/>
     <use style="fill:#9bb994;fill-opacity:0.8;stroke:#9bb994;stroke-linejoin:miter;stroke-opacity:0.8;" x="141.062072" xlink:href="#m0379ea48b8" y="114.488045"/>
     <use style="fill:#9bb994;fill-opacity:0.8;stroke:#9bb994;stroke-linejoin:miter;stroke-opacity:0.8;" x="152.914371" xlink:href="#m0379ea48b8" y="116.922966"/>
    </g>
   </g>
   <g id="patch_3">
    <path d="M 29.42124 124.52082 
L 29.42124 3.00024 
" style="fill:none;stroke:#000000;stroke-linecap:square;stroke-linejoin:miter;stroke-width:0.75;"/>
   </g>
   <g id="patch_4">
    <path d="M 242.08056 124.52082 
L 242.08056 3.00024 
" style="fill:none;stroke:#000000;stroke-linecap:square;stroke-linejoin:miter;stroke-width:0.75;"/>
   </g>
   <g id="patch_5">
    <path d="M 29.42124 124.52082 
L 242.08056 124.52082 
" style="fill:none;stroke:#000000;stroke-linecap:square;stroke-linejoin:miter;stroke-width:0.75;"/>
   </g>
   <g id="patch_6">
    <path d="M 29.42124 3.00024 
L 242.08056 3.00024 
" style="fill:none;stroke:#000000;stroke-linecap:square;stroke-linejoin:miter;stroke-width:0.75;"/>
   </g>
   <g id="legend_1">
    <g id="line2d_15">
     <path d="M 157.139935 15.50024 
L 177.139935 15.50024 
" style="fill:none;stroke:#ac9ab2;stroke-dasharray:1.5,2.475;stroke-dashoffset:0;stroke-opacity:0.8;stroke-width:1.5;"/>
    </g>
    <g id="line2d_16">
     <g>
      <use style="fill:#ac9ab2;fill-opacity:0.8;stroke:#ac9ab2;stroke-linejoin:bevel;stroke-opacity:0.8;" x="167.139935" xlink:href="#m7c2e8e7ce5" y="15.50024"/>
     </g>
    </g>
    <g id="text_14">
     <!-- GIFT -->
     <g transform="translate(182.139935 19.00024)scale(0.1 -0.1)">
      <defs>
       <path d="M 1017 537 
Q 358 1216 358 2189 
Q 358 3162 1020 3837 
Q 1683 4512 2586 4512 
Q 2810 4512 3002 4461 
Q 3194 4410 3347 4307 
Q 3501 4205 3581 4137 
Q 3661 4070 3770 3962 
L 4090 4435 
Q 4141 4512 4192 4512 
Q 4243 4512 4252 4483 
Q 4262 4454 4262 4358 
L 4262 2842 
Q 4262 2739 4249 2713 
Q 4237 2688 4160 2688 
Q 4096 2688 4083 2707 
Q 4070 2726 4058 2797 
Q 3962 3488 3574 3901 
Q 3187 4314 2662 4314 
Q 2509 4314 2339 4278 
Q 2170 4243 1920 4112 
Q 1670 3981 1481 3766 
Q 1293 3552 1155 3142 
Q 1018 2733 1018 2189 
Q 1018 1651 1155 1238 
Q 1293 826 1485 611 
Q 1677 397 1929 262 
Q 2182 128 2361 93 
Q 2541 58 2701 58 
Q 2810 58 2938 80 
Q 3066 102 3258 172 
Q 3450 243 3571 412 
Q 3693 582 3693 832 
L 3693 1242 
Q 3693 1434 3600 1491 
Q 3507 1549 3098 1549 
L 2893 1549 
L 2893 1747 
Q 3123 1728 3923 1728 
Q 3994 1728 4704 1747 
L 4704 1549 
Q 4397 1549 4329 1504 
Q 4262 1459 4262 1267 
L 4262 154 
Q 4262 6 4205 6 
Q 4154 6 4006 150 
Q 3859 294 3795 403 
Q 3642 134 3309 -3 
Q 2976 -141 2598 -141 
Q 1677 -141 1017 537 
z
" id="CMUSerif-Roman-47" transform="scale(0.015625)"/>
       <path d="M 179 0 
L 179 198 
L 346 198 
Q 704 198 787 256 
Q 870 314 870 499 
L 870 3872 
Q 870 4058 787 4115 
Q 704 4173 346 4173 
L 179 4173 
L 179 4371 
Q 403 4352 1158 4352 
Q 1907 4352 2131 4371 
L 2131 4173 
L 1965 4173 
Q 1606 4173 1523 4115 
Q 1440 4058 1440 3872 
L 1440 499 
Q 1440 314 1523 256 
Q 1606 198 1965 198 
L 2131 198 
L 2131 0 
Q 1907 19 1152 19 
Q 403 19 179 0 
z
" id="CMUSerif-Roman-49" transform="scale(0.015625)"/>
       <path d="M 211 0 
L 211 198 
L 365 198 
Q 710 198 790 256 
Q 870 314 870 499 
L 870 3853 
Q 870 4038 790 4096 
Q 710 4154 365 4154 
L 211 4154 
L 211 4352 
L 3725 4352 
L 3904 2912 
L 3744 2912 
Q 3699 3277 3641 3485 
Q 3584 3693 3453 3859 
Q 3322 4026 3101 4090 
Q 2880 4154 2522 4154 
L 1754 4154 
Q 1536 4154 1488 4109 
Q 1440 4064 1440 3898 
L 1440 2278 
L 1990 2278 
Q 2426 2278 2547 2435 
Q 2669 2592 2669 3027 
L 2829 3027 
L 2829 1331 
L 2669 1331 
Q 2669 1773 2547 1926 
Q 2426 2080 1990 2080 
L 1440 2080 
L 1440 506 
Q 1440 371 1462 320 
Q 1485 269 1619 233 
Q 1754 198 2048 198 
L 2259 198 
L 2259 0 
Q 2029 19 1184 19 
Q 435 19 211 0 
z
" id="CMUSerif-Roman-46" transform="scale(0.015625)"/>
      </defs>
      <use xlink:href="#CMUSerif-Roman-47"/>
      <use x="78.399994" xlink:href="#CMUSerif-Roman-49"/>
      <use x="114.499985" xlink:href="#CMUSerif-Roman-46"/>
      <use x="179.699982" xlink:href="#CMUSerif-Roman-54"/>
     </g>
    </g>
    <g id="line2d_17">
     <path d="M 157.139935 26.940865 
L 177.139935 26.940865 
" style="fill:none;stroke:#839cb1;stroke-dasharray:1.5,2.475;stroke-dashoffset:0;stroke-opacity:0.8;stroke-width:1.5;"/>
    </g>
    <g id="line2d_18">
     <g>
      <use style="fill:#839cb1;fill-opacity:0.8;stroke:#839cb1;stroke-linejoin:miter;stroke-opacity:0.8;" x="167.139935" xlink:href="#m2d3f2ac67a" y="26.940865"/>
     </g>
    </g>
    <g id="text_15">
     <!-- MEM -->
     <g transform="translate(182.139935 30.440865)scale(0.1 -0.1)">
      <defs>
       <path d="M 237 0 
L 237 198 
Q 467 198 614 243 
Q 762 288 816 374 
Q 870 461 883 518 
Q 896 576 896 672 
L 896 3872 
Q 896 4058 816 4115 
Q 736 4173 390 4173 
L 237 4173 
L 237 4371 
L 1318 4371 
Q 1434 4371 1466 4352 
Q 1498 4333 1542 4230 
L 2931 646 
L 4333 4250 
Q 4365 4339 4393 4355 
Q 4422 4371 4544 4371 
L 5626 4371 
L 5626 4173 
L 5472 4173 
Q 5126 4173 5046 4115 
Q 4966 4058 4966 3872 
L 4966 499 
Q 4966 314 5046 256 
Q 5126 198 5472 198 
L 5626 198 
L 5626 0 
Q 5389 19 4710 19 
Q 4026 19 3789 0 
L 3789 198 
L 3942 198 
Q 4288 198 4368 256 
Q 4448 314 4448 499 
L 4448 4173 
L 4442 4173 
L 2867 122 
Q 2822 0 2752 0 
Q 2675 0 2624 141 
L 1082 4122 
L 1075 4122 
L 1075 672 
Q 1075 576 1088 518 
Q 1101 461 1155 374 
Q 1210 288 1357 243 
Q 1504 198 1734 198 
L 1734 0 
Q 1062 19 985 19 
Q 909 19 237 0 
z
" id="CMUSerif-Roman-4d" transform="scale(0.015625)"/>
      </defs>
      <use xlink:href="#CMUSerif-Roman-4d"/>
      <use x="91.599991" xlink:href="#CMUSerif-Roman-45"/>
      <use x="159.599976" xlink:href="#CMUSerif-Roman-4d"/>
     </g>
    </g>
    <g id="line2d_19">
     <path d="M 157.139935 38.38149 
L 177.139935 38.38149 
" style="fill:none;stroke:#9bb994;stroke-dasharray:1.5,2.475;stroke-dashoffset:0;stroke-opacity:0.8;stroke-width:1.5;"/>
    </g>
    <g id="line2d_20">
     <g>
      <use style="fill:#9bb994;fill-opacity:0.8;stroke:#9bb994;stroke-linejoin:miter;stroke-opacity:0.8;" x="167.139935" xlink:href="#m0379ea48b8" y="38.38149"/>
     </g>
    </g>
    <g id="text_16">
     <!-- Experiment -->
     <g transform="translate(182.139935 41.88149)scale(0.1 -0.1)">
      <defs>
       <path d="M 77 0 
L 77 198 
Q 576 198 896 582 
Q 896 582 1498 1344 
L 864 2170 
Q 640 2458 541 2509 
Q 442 2560 109 2560 
L 109 2758 
Q 371 2739 717 2739 
Q 909 2739 1408 2758 
L 1408 2560 
Q 1184 2547 1184 2400 
Q 1184 2349 1242 2285 
L 1741 1638 
L 2138 2138 
Q 2234 2253 2234 2362 
Q 2234 2541 2048 2560 
L 2048 2758 
Q 2298 2739 2662 2739 
Q 2938 2739 3187 2758 
L 3187 2560 
Q 2701 2547 2426 2227 
Q 2304 2093 1837 1504 
L 2694 397 
Q 2797 262 2912 230 
Q 3027 198 3302 198 
L 3302 0 
Q 3014 19 2688 19 
Q 2573 19 1997 0 
L 1997 198 
Q 2112 205 2169 256 
Q 2227 307 2227 358 
Q 2227 384 2093 570 
L 1606 1210 
Q 1120 634 1056 499 
Q 1030 442 1030 397 
Q 1030 224 1216 198 
L 1216 0 
Q 755 19 608 19 
Q 326 19 77 0 
z
" id="CMUSerif-Roman-78" transform="scale(0.015625)"/>
       <path d="M 179 -1043 
Q 518 -1043 598 -1001 
Q 678 -960 678 -755 
L 678 2240 
Q 678 2451 598 2505 
Q 518 2560 179 2560 
L 179 2758 
L 1101 2829 
L 1101 2406 
Q 1485 2829 1997 2829 
Q 2541 2829 2937 2406 
Q 3334 1984 3334 1382 
Q 3334 774 2912 352 
Q 2490 -70 1907 -70 
Q 1587 -70 1372 93 
Q 1158 256 1120 378 
L 1120 320 
L 1120 -755 
Q 1120 -960 1200 -1001 
Q 1280 -1043 1619 -1043 
L 1619 -1242 
Q 947 -1222 896 -1222 
Q 832 -1222 179 -1242 
L 179 -1043 
z
M 1120 730 
Q 1120 634 1133 598 
Q 1146 563 1210 461 
Q 1466 70 1882 70 
Q 2246 70 2524 444 
Q 2803 819 2803 1382 
Q 2803 1920 2550 2294 
Q 2298 2669 1946 2669 
Q 1696 2669 1478 2534 
Q 1261 2400 1120 2157 
L 1120 730 
z
" id="CMUSerif-Roman-70" transform="scale(0.015625)"/>
       <path d="M 211 0 
L 211 198 
Q 550 198 630 240 
Q 710 282 710 486 
L 710 2208 
Q 710 2445 630 2502 
Q 550 2560 237 2560 
L 237 2758 
L 1133 2829 
L 1133 480 
Q 1133 288 1200 243 
Q 1267 198 1581 198 
L 1581 0 
Q 928 19 915 19 
Q 826 19 211 0 
z
M 480 3942 
Q 480 4070 579 4176 
Q 678 4282 819 4282 
Q 960 4282 1059 4186 
Q 1158 4090 1158 3942 
Q 1158 3795 1059 3699 
Q 960 3603 819 3603 
Q 672 3603 576 3705 
Q 480 3808 480 3942 
z
" id="CMUSerif-Roman-69" transform="scale(0.015625)"/>
       <path d="M 205 0 
L 205 198 
Q 544 198 624 240 
Q 704 282 704 486 
L 704 2202 
Q 704 2438 621 2499 
Q 538 2560 205 2560 
L 205 2758 
L 1107 2829 
L 1107 2157 
Q 1408 2829 2054 2829 
Q 2803 2829 2906 2202 
Q 3014 2445 3244 2637 
Q 3475 2829 3834 2829 
Q 4314 2829 4506 2592 
Q 4646 2432 4675 2253 
Q 4704 2074 4704 1613 
L 4704 390 
Q 4710 256 4812 227 
Q 4915 198 5203 198 
L 5203 0 
Q 4550 19 4486 19 
Q 4435 19 3763 0 
L 3763 198 
Q 4102 198 4182 240 
Q 4262 282 4262 486 
L 4262 1978 
Q 4262 2304 4163 2496 
Q 4064 2688 3789 2688 
Q 3456 2688 3190 2409 
Q 2925 2131 2925 1664 
L 2925 486 
Q 2925 282 3005 240 
Q 3085 198 3424 198 
L 3424 0 
Q 2771 19 2707 19 
Q 2656 19 1984 0 
L 1984 198 
Q 2323 198 2403 240 
Q 2483 282 2483 486 
L 2483 1978 
Q 2483 2304 2384 2496 
Q 2285 2688 2010 2688 
Q 1677 2688 1411 2409 
Q 1146 2131 1146 1664 
L 1146 486 
Q 1146 282 1226 240 
Q 1306 198 1645 198 
L 1645 0 
Q 992 19 928 19 
Q 877 19 205 0 
z
" id="CMUSerif-Roman-6d" transform="scale(0.015625)"/>
       <path d="M 122 2560 
L 122 2701 
Q 416 2714 611 2922 
Q 806 3130 873 3386 
Q 941 3642 947 3936 
L 1107 3936 
L 1107 2758 
L 2022 2758 
L 2022 2560 
L 1107 2560 
L 1107 781 
Q 1107 90 1536 90 
Q 1722 90 1843 278 
Q 1965 467 1965 806 
L 1965 1158 
L 2125 1158 
L 2125 794 
Q 2125 448 1965 189 
Q 1805 -70 1491 -70 
Q 1376 -70 1261 -41 
Q 1146 -13 998 64 
Q 851 141 758 329 
Q 666 518 666 794 
L 666 2560 
L 122 2560 
z
" id="CMUSerif-Roman-74" transform="scale(0.015625)"/>
      </defs>
      <use xlink:href="#CMUSerif-Roman-45"/>
      <use x="67.999985" xlink:href="#CMUSerif-Roman-78"/>
      <use x="120.699982" xlink:href="#CMUSerif-Roman-70"/>
      <use x="176.199966" xlink:href="#CMUSerif-Roman-65"/>
      <use x="220.59996" xlink:href="#CMUSerif-Roman-72"/>
      <use x="259.699951" xlink:href="#CMUSerif-Roman-69"/>
      <use x="287.399948" xlink:href="#CMUSerif-Roman-6d"/>
      <use x="370.699936" xlink:href="#CMUSerif-Roman-65"/>
      <use x="415.09993" xlink:href="#CMUSerif-Roman-6e"/>
      <use x="470.599915" xlink:href="#CMUSerif-Roman-74"/>
     </g>
    </g>
   </g>
  </g>
 </g>
 <defs>
  <clipPath id="pc2677f6f57">
   <rect height="121.52058" width="212.65932" x="29.42124" y="3.00024"/>
  </clipPath>
 </defs>
</svg>
