<?xml version="1.0" encoding="utf-8" standalone="no"?>
<!DOCTYPE svg PUBLIC "-//W3C//DTD SVG 1.1//EN"
  "http://www.w3.org/Graphics/SVG/1.1/DTD/svg11.dtd">
<svg height="151.46856pt" version="1.1" viewBox="0 0 245.0808 151.46856" width="245.0808pt" xmlns="http://www.w3.org/2000/svg" xmlns:xlink="http://www.w3.org/1999/xlink">
 <metadata>
  <rdf:RDF xmlns:cc="http://creativecommons.org/ns#" xmlns:dc="http://purl.org/dc/elements/1.1/" xmlns:rdf="http://www.w3.org/1999/02/22-rdf-syntax-ns#">
   <cc:Work>
    <dc:type rdf:resource="http://purl.org/dc/dcmitype/StillImage"/>
    <dc:date>2022-01-10T22:31:31.943954</dc:date>
    <dc:format>image/svg+xml</dc:format>
    <dc:creator>
     <cc:Agent>
      <dc:title>Matplotlib v3.4.2, https://matplotlib.org/</dc:title>
     </cc:Agent>
    </dc:creator>
   </cc:Work>
  </rdf:RDF>
 </metadata>
 <defs>
  <style type="text/css">*{stroke-linecap:butt;stroke-linejoin:round;}</style>
 </defs>
 <g id="figure_1">
  <g id="patch_1">
   <path d="M 0 151.46856 
L 245.0808 151.46856 
L 245.0808 0 
L 0 0 
z
" style="fill:none;"/>
  </g>
  <g id="axes_1">
   <g id="patch_2">
    <path d="M 30.15024 123.32082 
L 242.08056 123.32082 
L 242.08056 5.80899 
L 30.15024 5.80899 
z
" style="fill:none;"/>
   </g>
   <g id="matplotlib.axis_1">
    <g id="xtick_1">
     <g id="line2d_1">
      <defs>
       <path d="M 0 0 
L 0 -4 
" id="m6a257e3c94" style="stroke:#000000;stroke-width:0.5;"/>
      </defs>
      <g>
       <use style="stroke:#000000;stroke-width:0.5;" x="30.15024" xlink:href="#m6a257e3c94" y="123.32082"/>
      </g>
     </g>
     <g id="text_1">
      <!-- 0.0 -->
      <g transform="translate(25.038365 132.87332)scale(0.08 -0.08)">
       <defs>
        <path d="M 250 2048 
Q 250 2989 486 3501 
Q 819 4262 1600 4262 
Q 1766 4262 1939 4217 
Q 2112 4173 2333 4000 
Q 2554 3827 2688 3546 
Q 2944 3002 2944 2048 
Q 2944 1114 2707 602 
Q 2362 -141 1594 -141 
Q 1306 -141 1014 6 
Q 723 154 538 506 
Q 250 1037 250 2048 
z
M 781 2125 
Q 781 1158 851 774 
Q 928 358 1142 179 
Q 1357 0 1594 0 
Q 1850 0 2064 192 
Q 2278 384 2342 800 
Q 2413 1210 2413 2125 
Q 2413 3014 2349 3373 
Q 2266 3789 2042 3955 
Q 1818 4122 1594 4122 
Q 1510 4122 1420 4096 
Q 1331 4070 1203 4000 
Q 1075 3930 976 3750 
Q 877 3571 832 3302 
Q 781 2957 781 2125 
z
" id="CMUSerif-Roman-30" transform="scale(0.015625)"/>
        <path d="M 640 102 
Q 544 205 544 339 
Q 544 474 640 573 
Q 736 672 883 672 
Q 1024 672 1120 579 
Q 1216 486 1216 339 
Q 1216 192 1113 96 
Q 1011 0 883 0 
Q 736 0 640 102 
z
" id="CMUSerif-Roman-2e" transform="scale(0.015625)"/>
       </defs>
       <use xlink:href="#CMUSerif-Roman-30"/>
       <use x="49.999985" xlink:href="#CMUSerif-Roman-2e"/>
       <use x="77.799973" xlink:href="#CMUSerif-Roman-30"/>
      </g>
     </g>
    </g>
    <g id="xtick_2">
     <g id="line2d_2">
      <g>
       <use style="stroke:#000000;stroke-width:0.5;" x="66.68995" xlink:href="#m6a257e3c94" y="123.32082"/>
      </g>
     </g>
     <g id="text_2">
      <!-- 0.5 -->
      <g transform="translate(61.578075 132.87332)scale(0.08 -0.08)">
       <defs>
        <path d="M 320 1030 
Q 320 1222 422 1296 
Q 525 1370 634 1370 
Q 781 1370 867 1277 
Q 954 1184 954 1056 
Q 954 928 867 835 
Q 781 742 634 742 
Q 563 742 525 755 
Q 608 461 867 249 
Q 1126 38 1466 38 
Q 1894 38 2150 454 
Q 2304 723 2304 1331 
Q 2304 1869 2189 2138 
Q 2010 2547 1645 2547 
Q 1126 2547 819 2099 
Q 781 2042 736 2042 
Q 672 2042 659 2077 
Q 646 2112 646 2208 
L 646 4102 
Q 646 4256 710 4256 
Q 736 4256 787 4237 
Q 1190 4058 1638 4058 
Q 2099 4058 2509 4243 
Q 2541 4262 2560 4262 
Q 2624 4262 2624 4192 
Q 2624 4166 2573 4092 
Q 2522 4019 2413 3923 
Q 2304 3827 2163 3737 
Q 2022 3648 1817 3587 
Q 1613 3526 1389 3526 
Q 1120 3526 845 3610 
L 845 2362 
Q 1178 2688 1658 2688 
Q 2170 2688 2522 2275 
Q 2874 1862 2874 1286 
Q 2874 685 2458 272 
Q 2042 -141 1478 -141 
Q 966 -141 643 224 
Q 320 589 320 1030 
z
" id="CMUSerif-Roman-35" transform="scale(0.015625)"/>
       </defs>
       <use xlink:href="#CMUSerif-Roman-30"/>
       <use x="49.999985" xlink:href="#CMUSerif-Roman-2e"/>
       <use x="77.799973" xlink:href="#CMUSerif-Roman-35"/>
      </g>
     </g>
    </g>
    <g id="xtick_3">
     <g id="line2d_3">
      <g>
       <use style="stroke:#000000;stroke-width:0.5;" x="103.229661" xlink:href="#m6a257e3c94" y="123.32082"/>
      </g>
     </g>
     <g id="text_3">
      <!-- 1.0 -->
      <g transform="translate(98.117786 132.87332)scale(0.08 -0.08)">
       <defs>
        <path d="M 570 3654 
L 570 3853 
Q 1338 3853 1734 4262 
Q 1843 4262 1862 4236 
Q 1882 4211 1882 4096 
L 1882 506 
Q 1882 314 1974 256 
Q 2067 198 2477 198 
L 2682 198 
L 2682 0 
Q 2458 19 1645 19 
Q 832 19 608 0 
L 608 198 
L 813 198 
Q 1216 198 1312 256 
Q 1408 314 1408 506 
L 1408 3821 
Q 1075 3654 570 3654 
z
" id="CMUSerif-Roman-31" transform="scale(0.015625)"/>
       </defs>
       <use xlink:href="#CMUSerif-Roman-31"/>
       <use x="49.999985" xlink:href="#CMUSerif-Roman-2e"/>
       <use x="77.799973" xlink:href="#CMUSerif-Roman-30"/>
      </g>
     </g>
    </g>
    <g id="xtick_4">
     <g id="line2d_4">
      <g>
       <use style="stroke:#000000;stroke-width:0.5;" x="139.769371" xlink:href="#m6a257e3c94" y="123.32082"/>
      </g>
     </g>
     <g id="text_4">
      <!-- 1.5 -->
      <g transform="translate(134.657496 132.87332)scale(0.08 -0.08)">
       <use xlink:href="#CMUSerif-Roman-31"/>
       <use x="49.999985" xlink:href="#CMUSerif-Roman-2e"/>
       <use x="77.799973" xlink:href="#CMUSerif-Roman-35"/>
      </g>
     </g>
    </g>
    <g id="xtick_5">
     <g id="line2d_5">
      <g>
       <use style="stroke:#000000;stroke-width:0.5;" x="176.309081" xlink:href="#m6a257e3c94" y="123.32082"/>
      </g>
     </g>
     <g id="text_5">
      <!-- 2.0 -->
      <g transform="translate(171.197206 132.87332)scale(0.08 -0.08)">
       <defs>
        <path d="M 320 0 
Q 320 115 329 150 
Q 339 186 390 237 
L 1619 1606 
Q 2291 2362 2291 3021 
Q 2291 3450 2067 3757 
Q 1843 4064 1434 4064 
Q 1152 4064 915 3891 
Q 678 3718 570 3411 
Q 589 3418 653 3418 
Q 813 3418 902 3318 
Q 992 3219 992 3085 
Q 992 2912 880 2829 
Q 768 2746 659 2746 
Q 614 2746 556 2755 
Q 499 2765 409 2854 
Q 320 2944 320 3104 
Q 320 3552 659 3907 
Q 998 4262 1517 4262 
Q 2106 4262 2490 3913 
Q 2874 3565 2874 3021 
Q 2874 2829 2816 2656 
Q 2758 2483 2681 2348 
Q 2605 2214 2400 2000 
Q 2195 1786 2028 1632 
Q 1862 1478 1491 1152 
L 813 493 
L 1965 493 
Q 2528 493 2573 544 
Q 2637 634 2714 1114 
L 2874 1114 
L 2694 0 
L 320 0 
z
" id="CMUSerif-Roman-32" transform="scale(0.015625)"/>
       </defs>
       <use xlink:href="#CMUSerif-Roman-32"/>
       <use x="49.999985" xlink:href="#CMUSerif-Roman-2e"/>
       <use x="77.799973" xlink:href="#CMUSerif-Roman-30"/>
      </g>
     </g>
    </g>
    <g id="xtick_6">
     <g id="line2d_6">
      <g>
       <use style="stroke:#000000;stroke-width:0.5;" x="212.848792" xlink:href="#m6a257e3c94" y="123.32082"/>
      </g>
     </g>
     <g id="text_6">
      <!-- 2.5 -->
      <g transform="translate(207.736917 132.87332)scale(0.08 -0.08)">
       <use xlink:href="#CMUSerif-Roman-32"/>
       <use x="49.999985" xlink:href="#CMUSerif-Roman-2e"/>
       <use x="77.799973" xlink:href="#CMUSerif-Roman-35"/>
      </g>
     </g>
    </g>
    <g id="text_7">
     <!-- Wavevector $q\ [\mathrm{Å^{-1}}]$ -->
     <g transform="translate(93.3654 145.22582)scale(0.1 -0.1)">
      <defs>
       <path d="M 115 4173 
L 115 4371 
Q 205 4371 368 4364 
Q 531 4358 659 4355 
Q 787 4352 896 4352 
Q 1574 4352 1805 4371 
L 1805 4173 
Q 1267 4173 1267 3981 
Q 1267 3936 1280 3898 
L 2310 749 
L 3200 3494 
L 3059 3942 
Q 3008 4102 2899 4137 
Q 2790 4173 2483 4173 
L 2483 4371 
Q 2573 4371 2736 4364 
Q 2899 4358 3027 4355 
Q 3155 4352 3264 4352 
Q 3942 4352 4173 4371 
L 4173 4173 
Q 3635 4173 3635 3981 
Q 3635 3962 3654 3885 
L 4678 749 
L 5638 3706 
Q 5670 3802 5670 3834 
Q 5670 3949 5536 4057 
Q 5402 4166 5114 4173 
L 5114 4371 
Q 5613 4352 5875 4352 
Q 6170 4352 6458 4371 
L 6458 4173 
Q 5952 4173 5818 3744 
L 4595 -13 
Q 4582 -64 4572 -86 
Q 4563 -109 4537 -125 
Q 4512 -141 4467 -141 
Q 4384 -141 4346 -19 
L 3283 3238 
L 2227 -13 
Q 2214 -64 2204 -86 
Q 2195 -109 2169 -125 
Q 2144 -141 2099 -141 
Q 2016 -141 1978 -19 
L 698 3904 
Q 640 4090 553 4131 
Q 467 4173 115 4173 
z
" id="CMUSerif-Roman-57" transform="scale(0.015625)"/>
       <path d="M 269 608 
Q 269 1152 909 1440 
Q 1293 1626 2086 1670 
L 2086 1907 
Q 2086 2304 1878 2515 
Q 1670 2726 1408 2726 
Q 941 2726 717 2432 
Q 909 2426 976 2330 
Q 1043 2234 1043 2138 
Q 1043 2010 963 1926 
Q 883 1843 749 1843 
Q 621 1843 537 1923 
Q 454 2003 454 2144 
Q 454 2458 736 2662 
Q 1018 2867 1421 2867 
Q 1946 2867 2298 2515 
Q 2406 2406 2460 2265 
Q 2515 2125 2521 2032 
Q 2528 1939 2528 1760 
L 2528 480 
Q 2528 442 2541 381 
Q 2554 320 2611 240 
Q 2669 160 2765 160 
Q 2995 160 2995 570 
L 2995 928 
L 3155 928 
L 3155 570 
Q 3155 230 2976 96 
Q 2797 -38 2630 -38 
Q 2419 -38 2284 118 
Q 2150 275 2131 486 
Q 2035 243 1814 86 
Q 1594 -70 1293 -70 
Q 1062 -70 844 -12 
Q 627 45 448 205 
Q 269 365 269 608 
z
M 762 614 
Q 762 378 931 224 
Q 1101 70 1338 70 
Q 1606 70 1846 278 
Q 2086 486 2086 896 
L 2086 1536 
Q 1376 1510 1069 1228 
Q 762 947 762 614 
z
" id="CMUSerif-Roman-61" transform="scale(0.015625)"/>
       <path d="M 122 2560 
L 122 2758 
Q 410 2739 742 2739 
Q 864 2739 1440 2758 
L 1440 2560 
Q 1075 2560 1075 2394 
Q 1075 2368 1114 2285 
L 1830 499 
L 2483 2131 
Q 2522 2240 2522 2285 
Q 2522 2394 2448 2474 
Q 2374 2554 2214 2560 
L 2214 2758 
Q 2541 2739 2771 2739 
Q 3034 2739 3251 2758 
L 3251 2560 
Q 3059 2560 2924 2473 
Q 2790 2387 2748 2313 
Q 2707 2240 2662 2131 
L 1824 51 
Q 1773 -70 1690 -70 
Q 1632 -70 1609 -48 
Q 1587 -26 1555 51 
L 634 2323 
Q 570 2483 490 2521 
Q 410 2560 122 2560 
z
" id="CMUSerif-Roman-76" transform="scale(0.015625)"/>
       <path d="M 179 1408 
Q 179 2010 566 2438 
Q 954 2867 1510 2867 
Q 2074 2867 2365 2502 
Q 2656 2138 2656 1613 
Q 2656 1517 2630 1497 
Q 2605 1478 2496 1478 
L 710 1478 
Q 710 826 902 518 
Q 1171 90 1626 90 
Q 1690 90 1763 102 
Q 1837 115 1990 169 
Q 2144 224 2278 371 
Q 2413 518 2490 749 
Q 2509 838 2573 838 
Q 2656 838 2656 762 
Q 2656 704 2595 579 
Q 2534 454 2419 304 
Q 2304 154 2080 42 
Q 1856 -70 1587 -70 
Q 1024 -70 601 355 
Q 179 781 179 1408 
z
M 717 1613 
L 2234 1613 
Q 2234 1747 2211 1897 
Q 2189 2048 2121 2256 
Q 2054 2464 1897 2595 
Q 1741 2726 1510 2726 
Q 1408 2726 1296 2681 
Q 1184 2637 1049 2531 
Q 915 2426 822 2186 
Q 730 1946 717 1613 
z
" id="CMUSerif-Roman-65" transform="scale(0.015625)"/>
       <path d="M 624 352 
Q 218 774 218 1382 
Q 218 1990 618 2428 
Q 1018 2867 1606 2867 
Q 1997 2867 2291 2681 
Q 2586 2496 2586 2182 
Q 2586 2042 2502 1962 
Q 2419 1882 2291 1882 
Q 2157 1882 2077 1965 
Q 1997 2048 1997 2176 
Q 1997 2234 2016 2288 
Q 2035 2342 2105 2403 
Q 2176 2464 2298 2470 
Q 2067 2707 1613 2707 
Q 1286 2707 1017 2400 
Q 749 2093 749 1395 
Q 749 1030 838 761 
Q 928 493 1075 355 
Q 1222 218 1366 154 
Q 1510 90 1651 90 
Q 2278 90 2490 762 
Q 2509 826 2573 826 
Q 2656 826 2656 762 
Q 2656 730 2630 650 
Q 2605 570 2528 442 
Q 2451 314 2339 202 
Q 2227 90 2032 10 
Q 1837 -70 1594 -70 
Q 1030 -70 624 352 
z
" id="CMUSerif-Roman-63" transform="scale(0.015625)"/>
       <path d="M 122 2560 
L 122 2701 
Q 416 2714 611 2922 
Q 806 3130 873 3386 
Q 941 3642 947 3936 
L 1107 3936 
L 1107 2758 
L 2022 2758 
L 2022 2560 
L 1107 2560 
L 1107 781 
Q 1107 90 1536 90 
Q 1722 90 1843 278 
Q 1965 467 1965 806 
L 1965 1158 
L 2125 1158 
L 2125 794 
Q 2125 448 1965 189 
Q 1805 -70 1491 -70 
Q 1376 -70 1261 -41 
Q 1146 -13 998 64 
Q 851 141 758 329 
Q 666 518 666 794 
L 666 2560 
L 122 2560 
z
" id="CMUSerif-Roman-74" transform="scale(0.015625)"/>
       <path d="M 601 346 
Q 179 762 179 1370 
Q 179 1978 592 2422 
Q 1005 2867 1600 2867 
Q 2182 2867 2598 2425 
Q 3014 1984 3014 1370 
Q 3014 768 2595 349 
Q 2176 -70 1594 -70 
Q 1024 -70 601 346 
z
M 710 1421 
Q 710 800 870 518 
Q 1120 90 1600 90 
Q 1837 90 2035 218 
Q 2234 346 2342 563 
Q 2483 845 2483 1421 
Q 2483 2035 2317 2310 
Q 2067 2726 1594 2726 
Q 1389 2726 1187 2617 
Q 986 2509 864 2298 
Q 710 2016 710 1421 
z
" id="CMUSerif-Roman-6f" transform="scale(0.015625)"/>
       <path d="M 179 0 
L 179 198 
Q 518 198 598 240 
Q 678 282 678 486 
L 678 2202 
Q 678 2438 595 2499 
Q 512 2560 179 2560 
L 179 2758 
L 1069 2829 
L 1069 2125 
Q 1158 2400 1350 2614 
Q 1542 2829 1856 2829 
Q 2061 2829 2195 2713 
Q 2330 2598 2330 2438 
Q 2330 2298 2243 2227 
Q 2157 2157 2054 2157 
Q 1939 2157 1859 2230 
Q 1779 2304 1779 2432 
Q 1779 2509 1814 2569 
Q 1850 2630 1878 2652 
Q 1907 2675 1926 2682 
Q 1914 2688 1856 2688 
Q 1504 2688 1302 2336 
Q 1101 1984 1101 1485 
L 1101 499 
Q 1101 314 1177 256 
Q 1254 198 1587 198 
L 1722 198 
L 1722 0 
Q 1466 19 909 19 
Q 832 19 710 16 
Q 589 13 429 6 
Q 269 0 179 0 
z
" id="CMUSerif-Roman-72" transform="scale(0.015625)"/>
       <path id="CMUSerif-Roman-20" transform="scale(0.015625)"/>
       <path d="M 941 -1159 
Q 963 -1019 1025 -1019 
Q 1256 -1019 1389 -981 
Q 1522 -944 1563 -800 
L 1838 288 
Q 1472 -72 1106 -72 
Q 703 -72 473 233 
Q 244 538 244 953 
Q 244 1363 455 1803 
Q 666 2244 1027 2536 
Q 1388 2828 1806 2828 
Q 2000 2828 2156 2712 
Q 2313 2597 2394 2406 
Q 2431 2481 2601 2654 
Q 2772 2828 2841 2828 
Q 2913 2828 2913 2747 
L 2016 -825 
Q 2000 -919 1997 -934 
Q 1997 -1019 2419 -1019 
Q 2450 -1019 2467 -1044 
Q 2484 -1069 2484 -1100 
Q 2463 -1184 2448 -1212 
Q 2434 -1241 2375 -1241 
L 1006 -1241 
Q 941 -1241 941 -1159 
z
M 1119 97 
Q 1344 97 1558 267 
Q 1772 438 1931 672 
L 2291 2113 
Q 2253 2338 2126 2500 
Q 2000 2663 1791 2663 
Q 1575 2663 1389 2486 
Q 1203 2309 1075 2069 
Q 950 1813 836 1366 
Q 722 919 722 672 
Q 722 450 817 273 
Q 913 97 1119 97 
z
" id="Cmmi10-71" transform="scale(0.015625)"/>
       <path d="M 756 -1600 
L 756 4800 
L 1631 4800 
L 1631 4544 
L 1013 4544 
L 1013 -1344 
L 1631 -1344 
L 1631 -1600 
L 756 -1600 
z
" id="Cmr10-5b" transform="scale(0.015625)"/>
       <path d="M 902 1190 
L 2214 4307 
Q 1978 4333 1821 4512 
Q 1664 4691 1664 4941 
Q 1664 5203 1853 5388 
Q 2042 5574 2310 5574 
Q 2566 5574 2752 5385 
Q 2938 5197 2938 4934 
Q 2938 4685 2771 4505 
Q 2605 4326 2355 4301 
L 3923 710 
Q 4064 378 4176 262 
Q 4288 147 4525 122 
L 4525 0 
L 2893 0 
L 2893 122 
Q 3149 122 3245 179 
Q 3334 224 3334 333 
Q 3334 499 3213 781 
L 2950 1382 
L 1274 1382 
L 979 653 
Q 922 506 922 384 
Q 922 237 1027 179 
Q 1133 122 1370 122 
L 1370 0 
L 96 0 
L 96 122 
Q 365 147 486 316 
Q 608 486 902 1190 
z
M 2720 4941 
Q 2720 5114 2595 5235 
Q 2470 5357 2291 5357 
Q 2125 5357 2003 5232 
Q 1882 5107 1882 4941 
Q 1882 4762 2003 4640 
Q 2125 4518 2291 4518 
Q 2470 4518 2595 4640 
Q 2720 4762 2720 4941 
z
M 2861 1645 
L 2118 3405 
L 1382 1645 
L 2861 1645 
z
" id="STIXGeneral-Regular-212b" transform="scale(0.015625)"/>
       <path d="M 653 1472 
Q 600 1472 565 1512 
Q 531 1553 531 1600 
Q 531 1647 565 1687 
Q 600 1728 653 1728 
L 4325 1728 
Q 4375 1728 4408 1687 
Q 4441 1647 4441 1600 
Q 4441 1553 4408 1512 
Q 4375 1472 4325 1472 
L 653 1472 
z
" id="Cmsy10-a1" transform="scale(0.015625)"/>
       <path d="M 594 0 
L 594 225 
Q 1394 225 1394 428 
L 1394 3788 
Q 1063 3628 556 3628 
L 556 3853 
Q 1341 3853 1741 4263 
L 1831 4263 
Q 1853 4263 1873 4245 
Q 1894 4228 1894 4206 
L 1894 428 
Q 1894 225 2694 225 
L 2694 0 
L 594 0 
z
" id="Cmr10-31" transform="scale(0.015625)"/>
       <path d="M 141 -1600 
L 141 -1344 
L 763 -1344 
L 763 4544 
L 141 4544 
L 141 4800 
L 1019 4800 
L 1019 -1600 
L 141 -1600 
z
" id="Cmr10-5d" transform="scale(0.015625)"/>
      </defs>
      <use transform="translate(0 0.90625)" xlink:href="#CMUSerif-Roman-57"/>
      <use transform="translate(102.699982 0.90625)" xlink:href="#CMUSerif-Roman-61"/>
      <use transform="translate(152.699966 0.90625)" xlink:href="#CMUSerif-Roman-76"/>
      <use transform="translate(205.399963 0.90625)" xlink:href="#CMUSerif-Roman-65"/>
      <use transform="translate(249.799957 0.90625)" xlink:href="#CMUSerif-Roman-76"/>
      <use transform="translate(302.499954 0.90625)" xlink:href="#CMUSerif-Roman-65"/>
      <use transform="translate(346.899948 0.90625)" xlink:href="#CMUSerif-Roman-63"/>
      <use transform="translate(391.299942 0.90625)" xlink:href="#CMUSerif-Roman-74"/>
      <use transform="translate(430.09993 0.90625)" xlink:href="#CMUSerif-Roman-6f"/>
      <use transform="translate(480.099915 0.90625)" xlink:href="#CMUSerif-Roman-72"/>
      <use transform="translate(519.199905 0.90625)" xlink:href="#CMUSerif-Roman-20"/>
      <use transform="translate(552.499893 0.90625)" xlink:href="#Cmmi10-71"/>
      <use transform="translate(626.344002 0.90625)" xlink:href="#Cmr10-5b"/>
      <use transform="translate(654.029548 0.90625)" xlink:href="#STIXGeneral-Regular-212b"/>
      <use transform="translate(730.79703 40.05625)scale(0.7)" xlink:href="#Cmsy10-a1"/>
      <use transform="translate(785.176913 40.05625)scale(0.7)" xlink:href="#Cmr10-31"/>
      <use transform="translate(826.701913 0.90625)" xlink:href="#Cmr10-5d"/>
     </g>
    </g>
   </g>
   <g id="matplotlib.axis_2">
    <g id="ytick_1">
     <g id="line2d_7">
      <defs>
       <path d="M 0 0 
L 4 0 
" id="m008d5b10ba" style="stroke:#000000;stroke-width:0.5;"/>
      </defs>
      <g>
       <use style="stroke:#000000;stroke-width:0.5;" x="30.15024" xlink:href="#m008d5b10ba" y="123.32082"/>
      </g>
     </g>
     <g id="text_8">
      <!-- 0.0 -->
      <g transform="translate(15.92649 126.09707)scale(0.08 -0.08)">
       <use xlink:href="#CMUSerif-Roman-30"/>
       <use x="49.999985" xlink:href="#CMUSerif-Roman-2e"/>
       <use x="77.799973" xlink:href="#CMUSerif-Roman-30"/>
      </g>
     </g>
    </g>
    <g id="ytick_2">
     <g id="line2d_8">
      <g>
       <use style="stroke:#000000;stroke-width:0.5;" x="30.15024" xlink:href="#m008d5b10ba" y="93.942862"/>
      </g>
     </g>
     <g id="text_9">
      <!-- 0.5 -->
      <g transform="translate(15.92649 96.719112)scale(0.08 -0.08)">
       <use xlink:href="#CMUSerif-Roman-30"/>
       <use x="49.999985" xlink:href="#CMUSerif-Roman-2e"/>
       <use x="77.799973" xlink:href="#CMUSerif-Roman-35"/>
      </g>
     </g>
    </g>
    <g id="ytick_3">
     <g id="line2d_9">
      <g>
       <use style="stroke:#000000;stroke-width:0.5;" x="30.15024" xlink:href="#m008d5b10ba" y="64.564905"/>
      </g>
     </g>
     <g id="text_10">
      <!-- 1.0 -->
      <g transform="translate(15.92649 67.341155)scale(0.08 -0.08)">
       <use xlink:href="#CMUSerif-Roman-31"/>
       <use x="49.999985" xlink:href="#CMUSerif-Roman-2e"/>
       <use x="77.799973" xlink:href="#CMUSerif-Roman-30"/>
      </g>
     </g>
    </g>
    <g id="ytick_4">
     <g id="line2d_10">
      <g>
       <use style="stroke:#000000;stroke-width:0.5;" x="30.15024" xlink:href="#m008d5b10ba" y="35.186948"/>
      </g>
     </g>
     <g id="text_11">
      <!-- 1.5 -->
      <g transform="translate(15.92649 37.963198)scale(0.08 -0.08)">
       <use xlink:href="#CMUSerif-Roman-31"/>
       <use x="49.999985" xlink:href="#CMUSerif-Roman-2e"/>
       <use x="77.799973" xlink:href="#CMUSerif-Roman-35"/>
      </g>
     </g>
    </g>
    <g id="ytick_5">
     <g id="line2d_11">
      <g>
       <use style="stroke:#000000;stroke-width:0.5;" x="30.15024" xlink:href="#m008d5b10ba" y="5.80899"/>
      </g>
     </g>
     <g id="text_12">
      <!-- 2.0 -->
      <g transform="translate(15.92649 8.58524)scale(0.08 -0.08)">
       <use xlink:href="#CMUSerif-Roman-32"/>
       <use x="49.999985" xlink:href="#CMUSerif-Roman-2e"/>
       <use x="77.799973" xlink:href="#CMUSerif-Roman-30"/>
      </g>
     </g>
    </g>
    <g id="text_13">
     <!-- Energy Transfer $\hbar\omega\ [\mathrm{meV}]$ -->
     <g transform="translate(11.42649 121.914905)rotate(-90)scale(0.1 -0.1)">
      <defs>
       <path d="M 211 0 
L 211 198 
L 365 198 
Q 710 198 790 256 
Q 870 314 870 499 
L 870 3853 
Q 870 4038 790 4096 
Q 710 4154 365 4154 
L 211 4154 
L 211 4352 
L 3814 4352 
L 3994 2912 
L 3834 2912 
Q 3789 3277 3731 3488 
Q 3674 3699 3536 3862 
Q 3398 4026 3171 4090 
Q 2944 4154 2579 4154 
L 1754 4154 
Q 1536 4154 1488 4109 
Q 1440 4064 1440 3898 
L 1440 2362 
L 2016 2362 
Q 2458 2362 2582 2515 
Q 2707 2669 2707 3110 
L 2867 3110 
L 2867 1414 
L 2707 1414 
Q 2707 1850 2582 2006 
Q 2458 2163 2016 2163 
L 1440 2163 
L 1440 454 
Q 1440 288 1488 243 
Q 1536 198 1754 198 
L 2605 198 
Q 2880 198 3081 233 
Q 3283 269 3424 358 
Q 3565 448 3661 550 
Q 3757 653 3824 838 
Q 3891 1024 3929 1197 
Q 3968 1370 4013 1651 
L 4173 1651 
L 3904 0 
L 211 0 
z
" id="CMUSerif-Roman-45" transform="scale(0.015625)"/>
       <path d="M 205 0 
L 205 198 
Q 544 198 624 240 
Q 704 282 704 486 
L 704 2202 
Q 704 2438 621 2499 
Q 538 2560 205 2560 
L 205 2758 
L 1107 2829 
L 1107 2157 
Q 1408 2829 2054 2829 
Q 2534 2829 2726 2592 
Q 2867 2432 2896 2253 
Q 2925 2074 2925 1613 
L 2925 390 
Q 2931 256 3033 227 
Q 3136 198 3424 198 
L 3424 0 
Q 2771 19 2707 19 
Q 2656 19 1984 0 
L 1984 198 
Q 2323 198 2403 240 
Q 2483 282 2483 486 
L 2483 1978 
Q 2483 2304 2384 2496 
Q 2285 2688 2010 2688 
Q 1677 2688 1411 2409 
Q 1146 2131 1146 1664 
L 1146 486 
Q 1146 282 1226 240 
Q 1306 198 1645 198 
L 1645 0 
Q 992 19 928 19 
Q 877 19 205 0 
z
" id="CMUSerif-Roman-6e" transform="scale(0.015625)"/>
       <path d="M 179 -506 
Q 179 -301 336 -121 
Q 493 58 768 134 
Q 486 314 486 704 
Q 486 1005 685 1235 
Q 384 1485 384 1894 
Q 384 2272 685 2550 
Q 986 2829 1421 2829 
Q 1805 2829 2099 2598 
Q 2406 2899 2778 2899 
Q 2944 2899 3024 2796 
Q 3104 2694 3104 2586 
Q 3104 2490 3043 2442 
Q 2982 2394 2918 2394 
Q 2842 2394 2787 2445 
Q 2733 2496 2733 2579 
Q 2733 2714 2835 2752 
Q 2816 2758 2771 2758 
Q 2458 2758 2195 2509 
Q 2458 2266 2458 1888 
Q 2458 1510 2157 1232 
Q 1856 954 1421 954 
Q 1062 954 787 1152 
Q 678 1024 678 851 
Q 678 691 774 566 
Q 870 442 1018 422 
Q 1062 416 1498 416 
Q 1754 416 1894 409 
Q 2035 403 2236 361 
Q 2438 320 2598 237 
Q 3014 6 3014 -493 
Q 3014 -858 2595 -1088 
Q 2176 -1318 1594 -1318 
Q 1005 -1318 592 -1084 
Q 179 -851 179 -506 
z
M 512 -506 
Q 512 -768 822 -969 
Q 1133 -1171 1600 -1171 
Q 2061 -1171 2371 -972 
Q 2682 -774 2682 -506 
Q 2682 -314 2573 -192 
Q 2464 -70 2240 -22 
Q 2016 26 1859 35 
Q 1702 45 1414 45 
L 1037 45 
Q 819 32 665 -128 
Q 512 -288 512 -506 
z
M 864 1888 
Q 864 1101 1421 1101 
Q 1702 1101 1875 1357 
Q 1978 1530 1978 1894 
Q 1978 2682 1421 2682 
Q 1139 2682 966 2426 
Q 864 2253 864 1888 
z
" id="CMUSerif-Roman-67" transform="scale(0.015625)"/>
       <path d="M 122 -794 
Q 122 -659 202 -588 
Q 282 -518 390 -518 
Q 506 -518 582 -592 
Q 659 -666 659 -787 
Q 659 -1024 410 -1056 
Q 531 -1171 710 -1171 
Q 902 -1171 1056 -1030 
Q 1210 -890 1277 -755 
Q 1344 -621 1440 -378 
Q 1530 -186 1600 0 
L 640 2336 
Q 576 2490 480 2525 
Q 384 2560 122 2560 
L 122 2758 
Q 410 2739 742 2739 
Q 941 2739 1440 2758 
L 1440 2560 
Q 1082 2560 1082 2394 
Q 1082 2374 1120 2278 
L 1830 557 
L 2477 2131 
Q 2515 2221 2515 2285 
Q 2515 2547 2214 2560 
L 2214 2758 
Q 2637 2739 2771 2739 
Q 3034 2739 3251 2758 
L 3251 2560 
Q 2822 2560 2656 2150 
L 1530 -582 
Q 1222 -1312 710 -1312 
Q 467 -1312 294 -1161 
Q 122 -1011 122 -794 
z
" id="CMUSerif-Roman-79" transform="scale(0.015625)"/>
       <path d="M 230 2893 
L 352 4333 
L 4262 4333 
L 4384 2893 
L 4224 2893 
Q 4198 3181 4176 3347 
Q 4154 3514 4099 3670 
Q 4045 3827 3977 3904 
Q 3910 3981 3782 4041 
Q 3654 4102 3488 4118 
Q 3322 4134 3072 4134 
Q 2778 4134 2707 4122 
Q 2630 4102 2611 4048 
Q 2592 3994 2592 3878 
L 2592 506 
Q 2592 378 2617 326 
Q 2643 275 2790 236 
Q 2938 198 3264 198 
L 3520 198 
L 3520 0 
Q 3258 19 2304 19 
Q 1357 19 1094 0 
L 1094 198 
L 1350 198 
Q 1677 198 1824 236 
Q 1971 275 1996 326 
Q 2022 378 2022 506 
L 2022 3878 
Q 2022 3968 2016 4006 
Q 2010 4045 1981 4077 
Q 1952 4109 1888 4121 
Q 1824 4134 1542 4134 
Q 1293 4134 1126 4118 
Q 960 4102 832 4041 
Q 704 3981 637 3904 
Q 570 3827 515 3670 
Q 461 3514 438 3347 
Q 416 3181 390 2893 
L 230 2893 
z
" id="CMUSerif-Roman-54" transform="scale(0.015625)"/>
       <path d="M 211 83 
L 211 928 
Q 211 998 214 1024 
Q 218 1050 237 1069 
Q 256 1088 294 1088 
Q 339 1088 355 1069 
Q 371 1050 384 979 
Q 480 538 688 304 
Q 896 70 1274 70 
Q 1632 70 1814 230 
Q 1997 390 1997 653 
Q 1997 1120 1331 1242 
Q 947 1318 787 1369 
Q 627 1421 486 1536 
Q 211 1760 211 2080 
Q 211 2400 454 2633 
Q 698 2867 1235 2867 
Q 1594 2867 1837 2688 
Q 1907 2746 1946 2790 
Q 2029 2867 2074 2867 
Q 2125 2867 2134 2835 
Q 2144 2803 2144 2714 
L 2144 2067 
Q 2144 1997 2141 1971 
Q 2138 1946 2118 1930 
Q 2099 1914 2061 1914 
Q 1990 1914 1984 1971 
Q 1933 2746 1235 2746 
Q 858 2746 688 2602 
Q 518 2458 518 2259 
Q 518 2150 569 2067 
Q 621 1984 688 1936 
Q 755 1888 880 1843 
Q 1005 1798 1081 1782 
Q 1158 1766 1306 1734 
Q 1818 1638 2035 1427 
Q 2304 1158 2304 819 
Q 2304 442 2048 186 
Q 1792 -70 1274 -70 
Q 858 -70 570 205 
Q 531 166 502 134 
Q 474 102 464 89 
Q 454 77 451 70 
Q 448 64 442 58 
Q 314 -70 282 -70 
Q 230 -70 220 -38 
Q 211 -6 211 83 
z
" id="CMUSerif-Roman-73" transform="scale(0.015625)"/>
       <path d="M 211 2560 
L 211 2758 
L 717 2758 
L 717 3494 
Q 717 3968 1024 4240 
Q 1331 4512 1709 4512 
Q 1958 4512 2121 4377 
Q 2285 4243 2285 4064 
Q 2285 3942 2211 3862 
Q 2138 3782 2003 3782 
Q 1875 3782 1801 3862 
Q 1728 3942 1728 4058 
Q 1728 4262 1920 4326 
Q 1824 4371 1709 4371 
Q 1478 4371 1299 4134 
Q 1120 3898 1120 3501 
L 1120 2758 
L 1869 2758 
L 1869 2560 
L 1139 2560 
L 1139 499 
Q 1139 314 1216 256 
Q 1293 198 1626 198 
L 1760 198 
L 1760 0 
Q 1504 19 947 19 
Q 870 19 748 16 
Q 627 13 467 6 
Q 307 0 218 0 
L 218 198 
Q 557 198 637 240 
Q 717 282 717 486 
L 717 2560 
L 211 2560 
z
" id="CMUSerif-Roman-66" transform="scale(0.015625)"/>
       <path d="M 2976 755 
L 3059 672 
Q 2765 256 2566 99 
Q 2368 -58 2125 -58 
Q 1997 -58 1920 16 
Q 1843 90 1843 211 
Q 1843 320 1971 800 
L 2323 2125 
Q 2368 2304 2368 2336 
Q 2368 2496 2189 2496 
Q 2016 2496 1744 2240 
Q 1472 1984 1216 1600 
Q 1018 1293 902 1001 
Q 787 710 602 0 
L 122 0 
L 966 3200 
L 563 3200 
L 659 3546 
L 1056 3546 
Q 1139 3866 1139 3942 
Q 1139 4019 1056 4060 
Q 973 4102 877 4102 
L 704 4102 
L 704 4198 
Q 1190 4256 1709 4371 
L 1754 4333 
L 1542 3546 
L 2560 3546 
L 2464 3200 
L 1446 3200 
L 979 1472 
Q 1811 2822 2451 2822 
Q 2662 2822 2764 2704 
Q 2867 2586 2867 2394 
Q 2867 2118 2560 1158 
Q 2349 512 2349 358 
Q 2349 243 2451 243 
Q 2528 243 2621 336 
Q 2714 429 2976 755 
z
" id="STIXGeneral-Italic-127" transform="scale(0.015625)"/>
       <path d="M 775 -72 
Q 413 -72 252 193 
Q 91 459 91 844 
Q 91 1097 136 1339 
Q 181 1581 273 1829 
Q 366 2078 484 2295 
Q 603 2513 750 2719 
Q 778 2759 825 2759 
Q 866 2759 891 2734 
Q 916 2709 916 2675 
Q 916 2641 897 2613 
Q 313 1809 313 1131 
Q 313 838 448 627 
Q 584 416 863 416 
Q 1103 416 1308 556 
Q 1513 697 1663 916 
Q 1663 1028 1702 1265 
Q 1741 1503 1823 1689 
Q 1906 1875 2022 1875 
Q 2169 1875 2169 1703 
Q 2169 1603 2126 1451 
Q 2084 1300 2032 1169 
Q 1981 1038 1906 872 
Q 1981 416 2363 416 
Q 2584 416 2807 544 
Q 3031 672 3203 880 
Q 3375 1088 3473 1328 
Q 3572 1569 3572 1784 
Q 3572 1978 3511 2086 
Q 3450 2194 3350 2312 
Q 3250 2431 3250 2503 
Q 3250 2628 3356 2731 
Q 3463 2834 3584 2834 
Q 3741 2834 3806 2692 
Q 3872 2550 3872 2369 
Q 3872 2075 3755 1628 
Q 3638 1181 3488 884 
Q 3281 481 2970 204 
Q 2659 -72 2272 -72 
Q 2025 -72 1873 76 
Q 1722 225 1678 481 
Q 1500 228 1272 78 
Q 1044 -72 775 -72 
z
" id="Cmmi10-21" transform="scale(0.015625)"/>
       <path d="M 191 0 
L 191 225 
Q 409 225 550 259 
Q 691 294 691 428 
L 691 2175 
Q 691 2347 639 2423 
Q 588 2500 491 2517 
Q 394 2534 191 2534 
L 191 2759 
L 1119 2828 
L 1119 2203 
Q 1247 2478 1498 2653 
Q 1750 2828 2047 2828 
Q 2784 2828 2913 2228 
Q 3041 2497 3287 2662 
Q 3534 2828 3828 2828 
Q 4119 2828 4317 2734 
Q 4516 2641 4616 2448 
Q 4716 2256 4716 1966 
L 4716 428 
Q 4716 294 4858 259 
Q 5000 225 5216 225 
L 5216 0 
L 3750 0 
L 3750 225 
Q 3969 225 4109 259 
Q 4250 294 4250 428 
L 4250 1947 
Q 4250 2269 4159 2466 
Q 4069 2663 3788 2663 
Q 3419 2663 3178 2366 
Q 2938 2069 2938 1691 
L 2938 428 
Q 2938 294 3078 259 
Q 3219 225 3438 225 
L 3438 0 
L 1972 0 
L 1972 225 
Q 2191 225 2331 259 
Q 2472 294 2472 428 
L 2472 1947 
Q 2472 2259 2381 2461 
Q 2291 2663 2009 2663 
Q 1638 2663 1398 2366 
Q 1159 2069 1159 1691 
L 1159 428 
Q 1159 294 1300 259 
Q 1441 225 1656 225 
L 1656 0 
L 191 0 
z
" id="Cmr10-6d" transform="scale(0.015625)"/>
       <path d="M 1594 -72 
Q 1203 -72 876 133 
Q 550 338 364 680 
Q 178 1022 178 1403 
Q 178 1778 348 2115 
Q 519 2453 823 2661 
Q 1128 2869 1503 2869 
Q 1797 2869 2014 2770 
Q 2231 2672 2372 2497 
Q 2513 2322 2584 2084 
Q 2656 1847 2656 1563 
Q 2656 1478 2591 1478 
L 738 1478 
L 738 1409 
Q 738 878 952 497 
Q 1166 116 1650 116 
Q 1847 116 2014 203 
Q 2181 291 2304 447 
Q 2428 603 2472 781 
Q 2478 803 2495 820 
Q 2513 838 2534 838 
L 2591 838 
Q 2656 838 2656 756 
Q 2566 394 2266 161 
Q 1966 -72 1594 -72 
z
M 744 1638 
L 2203 1638 
Q 2203 1878 2136 2125 
Q 2069 2372 1912 2536 
Q 1756 2700 1503 2700 
Q 1141 2700 942 2361 
Q 744 2022 744 1638 
z
" id="Cmr10-65" transform="scale(0.015625)"/>
       <path d="M 2253 -72 
L 744 3944 
Q 688 4078 528 4112 
Q 369 4147 122 4147 
L 122 4372 
L 1881 4372 
L 1881 4147 
Q 1350 4147 1350 3981 
Q 1353 3972 1354 3964 
Q 1356 3956 1356 3944 
L 2584 678 
L 3744 3769 
Q 3756 3794 3756 3847 
Q 3756 4003 3612 4075 
Q 3469 4147 3291 4147 
L 3291 4372 
L 4672 4372 
L 4672 4147 
Q 4431 4147 4248 4058 
Q 4066 3969 3988 3769 
L 2541 -72 
Q 2522 -141 2438 -141 
L 2356 -141 
Q 2272 -141 2253 -72 
z
" id="Cmr10-56" transform="scale(0.015625)"/>
      </defs>
      <use xlink:href="#CMUSerif-Roman-45"/>
      <use transform="translate(67.999985 0)" xlink:href="#CMUSerif-Roman-6e"/>
      <use transform="translate(123.499969 0)" xlink:href="#CMUSerif-Roman-65"/>
      <use transform="translate(167.899963 0)" xlink:href="#CMUSerif-Roman-72"/>
      <use transform="translate(206.999954 0)" xlink:href="#CMUSerif-Roman-67"/>
      <use transform="translate(256.999939 0)" xlink:href="#CMUSerif-Roman-79"/>
      <use transform="translate(309.699936 0)" xlink:href="#CMUSerif-Roman-20"/>
      <use transform="translate(342.999924 0)" xlink:href="#CMUSerif-Roman-54"/>
      <use transform="translate(415.199905 0)" xlink:href="#CMUSerif-Roman-72"/>
      <use transform="translate(454.299896 0)" xlink:href="#CMUSerif-Roman-61"/>
      <use transform="translate(504.299881 0)" xlink:href="#CMUSerif-Roman-6e"/>
      <use transform="translate(559.799866 0)" xlink:href="#CMUSerif-Roman-73"/>
      <use transform="translate(599.19986 0)" xlink:href="#CMUSerif-Roman-66"/>
      <use transform="translate(629.699844 0)" xlink:href="#CMUSerif-Roman-65"/>
      <use transform="translate(674.099838 0)" xlink:href="#CMUSerif-Roman-72"/>
      <use transform="translate(713.199829 0)" xlink:href="#CMUSerif-Roman-20"/>
      <use transform="translate(746.499817 0)" xlink:href="#STIXGeneral-Italic-127"/>
      <use transform="translate(796.499802 0)" xlink:href="#Cmmi10-21"/>
      <use transform="translate(887.970863 0)" xlink:href="#Cmr10-5b"/>
      <use transform="translate(915.65641 0)" xlink:href="#Cmr10-6d"/>
      <use transform="translate(998.957191 0)" xlink:href="#Cmr10-65"/>
      <use transform="translate(1043.341957 0)" xlink:href="#Cmr10-56"/>
      <use transform="translate(1118.341957 0)" xlink:href="#Cmr10-5d"/>
     </g>
    </g>
   </g>
   <g id="LineCollection_1">
    <path clip-path="url(#pb650451170)" d="M 63.035979 84.87005 
L 63.035979 71.674388 
" style="fill:none;stroke:#ac9ab2;stroke-opacity:0.8;stroke-width:1.5;"/>
    <path clip-path="url(#pb650451170)" d="M 77.651863 72.985703 
L 77.651863 57.675815 
" style="fill:none;stroke:#ac9ab2;stroke-opacity:0.8;stroke-width:1.5;"/>
    <path clip-path="url(#pb650451170)" d="M 84.959806 65.283742 
L 84.959806 48.505368 
" style="fill:none;stroke:#ac9ab2;stroke-opacity:0.8;stroke-width:1.5;"/>
    <path clip-path="url(#pb650451170)" d="M 92.267748 57.13482 
L 92.267748 40.891724 
" style="fill:none;stroke:#ac9ab2;stroke-opacity:0.8;stroke-width:1.5;"/>
    <path clip-path="url(#pb650451170)" d="M 99.57569 57.403094 
L 99.57569 38.451832 
" style="fill:none;stroke:#ac9ab2;stroke-opacity:0.8;stroke-width:1.5;"/>
    <path clip-path="url(#pb650451170)" d="M 106.883632 55.676539 
L 106.883632 38.996099 
" style="fill:none;stroke:#ac9ab2;stroke-opacity:0.8;stroke-width:1.5;"/>
    <path clip-path="url(#pb650451170)" d="M 121.499516 57.089014 
L 121.499516 39.438314 
" style="fill:none;stroke:#ac9ab2;stroke-opacity:0.8;stroke-width:1.5;"/>
    <path clip-path="url(#pb650451170)" d="M 128.807458 60.290818 
L 128.807458 41.934894 
" style="fill:none;stroke:#ac9ab2;stroke-opacity:0.8;stroke-width:1.5;"/>
    <path clip-path="url(#pb650451170)" d="M 136.1154 63.894999 
L 136.1154 44.778586 
" style="fill:none;stroke:#ac9ab2;stroke-opacity:0.8;stroke-width:1.5;"/>
    <path clip-path="url(#pb650451170)" d="M 143.423342 69.440935 
L 143.423342 53.172609 
" style="fill:none;stroke:#ac9ab2;stroke-opacity:0.8;stroke-width:1.5;"/>
    <path clip-path="url(#pb650451170)" d="M 150.731284 73.635708 
L 150.731284 55.385639 
" style="fill:none;stroke:#ac9ab2;stroke-opacity:0.8;stroke-width:1.5;"/>
    <path clip-path="url(#pb650451170)" d="M 158.039226 81.701779 
L 158.039226 61.510637 
" style="fill:none;stroke:#ac9ab2;stroke-opacity:0.8;stroke-width:1.5;"/>
    <path clip-path="url(#pb650451170)" d="M 165.347168 83.658051 
L 165.347168 64.407862 
" style="fill:none;stroke:#ac9ab2;stroke-opacity:0.8;stroke-width:1.5;"/>
    <path clip-path="url(#pb650451170)" d="M 172.65511 85.657133 
L 172.65511 65.096346 
" style="fill:none;stroke:#ac9ab2;stroke-opacity:0.8;stroke-width:1.5;"/>
    <path clip-path="url(#pb650451170)" d="M 179.963052 83.43697 
L 179.963052 61.479368 
" style="fill:none;stroke:#ac9ab2;stroke-opacity:0.8;stroke-width:1.5;"/>
    <path clip-path="url(#pb650451170)" d="M 187.270994 73.225421 
L 187.270994 49.058385 
" style="fill:none;stroke:#ac9ab2;stroke-opacity:0.8;stroke-width:1.5;"/>
    <path clip-path="url(#pb650451170)" d="M 194.578937 66.101877 
L 194.578937 41.083421 
" style="fill:none;stroke:#ac9ab2;stroke-opacity:0.8;stroke-width:1.5;"/>
    <path clip-path="url(#pb650451170)" d="M 201.886879 53.271907 
L 201.886879 22.211638 
" style="fill:none;stroke:#ac9ab2;stroke-opacity:0.8;stroke-width:1.5;"/>
    <path clip-path="url(#pb650451170)" d="M 209.194821 50.394753 
L 209.194821 19.03329 
" style="fill:none;stroke:#ac9ab2;stroke-opacity:0.8;stroke-width:1.5;"/>
    <path clip-path="url(#pb650451170)" d="M 216.502763 38.037955 
L 216.502763 -1 
" style="fill:none;stroke:#ac9ab2;stroke-opacity:0.8;stroke-width:1.5;"/>
    <path clip-path="url(#pb650451170)" d="M 223.810705 31.561784 
L 223.810705 -1 
" style="fill:none;stroke:#ac9ab2;stroke-opacity:0.8;stroke-width:1.5;"/>
    <path clip-path="url(#pb650451170)" d="M 231.118647 27.850202 
L 231.118647 -1 
" style="fill:none;stroke:#ac9ab2;stroke-opacity:0.8;stroke-width:1.5;"/>
    <path clip-path="url(#pb650451170)" d="M 238.426589 24.959775 
L 238.426589 -1 
" style="fill:none;stroke:#ac9ab2;stroke-opacity:0.8;stroke-width:1.5;"/>
    <path clip-path="url(#pb650451170)" d="M 245.734531 18.821257 
L 245.734531 -1 
" style="fill:none;stroke:#ac9ab2;stroke-opacity:0.8;stroke-width:1.5;"/>
   </g>
   <g id="line2d_12">
    <path clip-path="url(#pb650451170)" d="M 30.15024 123.318176 
L 32.123384 121.232047 
L 34.535005 118.34067 
L 37.604341 114.275215 
L 44.400727 104.734566 
L 51.63559 94.798929 
L 56.897308 87.940101 
L 61.282073 82.568182 
L 65.228362 78.06802 
L 68.955412 74.160272 
L 72.463225 70.80916 
L 75.971037 67.7719 
L 79.259611 65.205474 
L 82.548185 62.907166 
L 85.836759 60.873236 
L 89.125332 59.099944 
L 92.413906 57.58355 
L 95.70248 56.320316 
L 98.991054 55.3065 
L 102.279628 54.538365 
L 105.568202 54.012169 
L 108.856776 53.724173 
L 112.14535 53.670638 
L 115.433924 53.847824 
L 118.722498 54.251991 
L 122.011072 54.8794 
L 125.299646 55.72631 
L 128.807458 56.867408 
L 132.31527 58.249456 
L 135.823082 59.867917 
L 139.550133 61.841492 
L 143.277183 64.071387 
L 147.004234 66.552158 
L 151.827475 70.059248 
L 157.52767 74.151783 
L 160.597006 76.097409 
L 163.227865 77.511684 
L 165.420248 78.458045 
L 167.393392 79.093465 
L 169.366536 79.49331 
L 171.120443 79.627069 
L 172.874349 79.530582 
L 174.409016 79.240963 
L 175.943684 78.745262 
L 177.478352 78.029572 
L 179.01302 77.081794 
L 180.766926 75.72666 
L 182.74007 73.895577 
L 184.932453 71.536956 
L 187.563312 68.346616 
L 190.851886 63.971781 
L 201.813799 49.04563 
L 204.444658 46.016912 
L 206.637041 43.831459 
L 208.610185 42.178684 
L 210.58333 40.813176 
L 212.556474 39.700624 
L 214.748857 38.719291 
L 217.160478 37.895146 
L 219.791337 37.229508 
L 223.299149 36.583476 
L 234.4803 34.904 
L 242.153639 33.838962 
L 242.153639 33.838962 
" style="fill:none;stroke:#ff0000;stroke-linecap:square;stroke-width:1.5;"/>
   </g>
   <g id="line2d_13">
    <defs>
     <path d="M 0 3 
C 0.795609 3 1.55874 2.683901 2.12132 2.12132 
C 2.683901 1.55874 3 0.795609 3 0 
C 3 -0.795609 2.683901 -1.55874 2.12132 -2.12132 
C 1.55874 -2.683901 0.795609 -3 0 -3 
C -0.795609 -3 -1.55874 -2.683901 -2.12132 -2.12132 
C -2.683901 -1.55874 -3 -0.795609 -3 0 
C -3 0.795609 -2.683901 1.55874 -2.12132 2.12132 
C -1.55874 2.683901 -0.795609 3 0 3 
z
" id="m08dc30d337" style="stroke:#ac9ab2;stroke-opacity:0.8;"/>
    </defs>
    <g clip-path="url(#pb650451170)">
     <use style="fill:#ac9ab2;fill-opacity:0.8;stroke:#ac9ab2;stroke-opacity:0.8;" x="63.035979" xlink:href="#m08dc30d337" y="78.272219"/>
     <use style="fill:#ac9ab2;fill-opacity:0.8;stroke:#ac9ab2;stroke-opacity:0.8;" x="77.651863" xlink:href="#m08dc30d337" y="65.330759"/>
     <use style="fill:#ac9ab2;fill-opacity:0.8;stroke:#ac9ab2;stroke-opacity:0.8;" x="84.959806" xlink:href="#m08dc30d337" y="56.894555"/>
     <use style="fill:#ac9ab2;fill-opacity:0.8;stroke:#ac9ab2;stroke-opacity:0.8;" x="92.267748" xlink:href="#m08dc30d337" y="49.013272"/>
     <use style="fill:#ac9ab2;fill-opacity:0.8;stroke:#ac9ab2;stroke-opacity:0.8;" x="99.57569" xlink:href="#m08dc30d337" y="47.927463"/>
     <use style="fill:#ac9ab2;fill-opacity:0.8;stroke:#ac9ab2;stroke-opacity:0.8;" x="106.883632" xlink:href="#m08dc30d337" y="47.336319"/>
     <use style="fill:#ac9ab2;fill-opacity:0.8;stroke:#ac9ab2;stroke-opacity:0.8;" x="121.499516" xlink:href="#m08dc30d337" y="48.263664"/>
     <use style="fill:#ac9ab2;fill-opacity:0.8;stroke:#ac9ab2;stroke-opacity:0.8;" x="128.807458" xlink:href="#m08dc30d337" y="51.112856"/>
     <use style="fill:#ac9ab2;fill-opacity:0.8;stroke:#ac9ab2;stroke-opacity:0.8;" x="136.1154" xlink:href="#m08dc30d337" y="54.336793"/>
     <use style="fill:#ac9ab2;fill-opacity:0.8;stroke:#ac9ab2;stroke-opacity:0.8;" x="143.423342" xlink:href="#m08dc30d337" y="61.306772"/>
     <use style="fill:#ac9ab2;fill-opacity:0.8;stroke:#ac9ab2;stroke-opacity:0.8;" x="150.731284" xlink:href="#m08dc30d337" y="64.510673"/>
     <use style="fill:#ac9ab2;fill-opacity:0.8;stroke:#ac9ab2;stroke-opacity:0.8;" x="158.039226" xlink:href="#m08dc30d337" y="71.606208"/>
     <use style="fill:#ac9ab2;fill-opacity:0.8;stroke:#ac9ab2;stroke-opacity:0.8;" x="165.347168" xlink:href="#m08dc30d337" y="74.032957"/>
     <use style="fill:#ac9ab2;fill-opacity:0.8;stroke:#ac9ab2;stroke-opacity:0.8;" x="172.65511" xlink:href="#m08dc30d337" y="75.37674"/>
     <use style="fill:#ac9ab2;fill-opacity:0.8;stroke:#ac9ab2;stroke-opacity:0.8;" x="179.963052" xlink:href="#m08dc30d337" y="72.458169"/>
     <use style="fill:#ac9ab2;fill-opacity:0.8;stroke:#ac9ab2;stroke-opacity:0.8;" x="187.270994" xlink:href="#m08dc30d337" y="61.141903"/>
     <use style="fill:#ac9ab2;fill-opacity:0.8;stroke:#ac9ab2;stroke-opacity:0.8;" x="194.578937" xlink:href="#m08dc30d337" y="53.592649"/>
     <use style="fill:#ac9ab2;fill-opacity:0.8;stroke:#ac9ab2;stroke-opacity:0.8;" x="201.886879" xlink:href="#m08dc30d337" y="37.741772"/>
     <use style="fill:#ac9ab2;fill-opacity:0.8;stroke:#ac9ab2;stroke-opacity:0.8;" x="209.194821" xlink:href="#m08dc30d337" y="34.714021"/>
     <use style="fill:#ac9ab2;fill-opacity:0.8;stroke:#ac9ab2;stroke-opacity:0.8;" x="216.502763" xlink:href="#m08dc30d337" y="13.165524"/>
     <use style="fill:#ac9ab2;fill-opacity:0.8;stroke:#ac9ab2;stroke-opacity:0.8;" x="223.810705" xlink:href="#m08dc30d337" y="10.887851"/>
     <use style="fill:#ac9ab2;fill-opacity:0.8;stroke:#ac9ab2;stroke-opacity:0.8;" x="230.468038" xlink:href="#m08dc30d337" y="-1"/>
    </g>
   </g>
   <g id="patch_3">
    <path d="M 30.15024 123.32082 
L 30.15024 5.80899 
" style="fill:none;stroke:#000000;stroke-linecap:square;stroke-linejoin:miter;stroke-width:0.75;"/>
   </g>
   <g id="patch_4">
    <path d="M 242.08056 123.32082 
L 242.08056 5.80899 
" style="fill:none;stroke:#000000;stroke-linecap:square;stroke-linejoin:miter;stroke-width:0.75;"/>
   </g>
   <g id="patch_5">
    <path d="M 30.15024 123.32082 
L 242.08056 123.32082 
" style="fill:none;stroke:#000000;stroke-linecap:square;stroke-linejoin:miter;stroke-width:0.75;"/>
   </g>
   <g id="patch_6">
    <path d="M 30.15024 5.80899 
L 242.08056 5.80899 
" style="fill:none;stroke:#000000;stroke-linecap:square;stroke-linejoin:miter;stroke-width:0.75;"/>
   </g>
   <g id="legend_1">
    <g id="line2d_14">
     <path d="M 140.341498 97.280195 
L 160.341498 97.280195 
" style="fill:none;stroke:#ff0000;stroke-linecap:square;stroke-width:1.5;"/>
    </g>
    <g id="line2d_15"/>
    <g id="text_14">
     <!-- Experiment -->
     <g transform="translate(165.341498 100.780195)scale(0.1 -0.1)">
      <defs>
       <path d="M 77 0 
L 77 198 
Q 576 198 896 582 
Q 896 582 1498 1344 
L 864 2170 
Q 640 2458 541 2509 
Q 442 2560 109 2560 
L 109 2758 
Q 371 2739 717 2739 
Q 909 2739 1408 2758 
L 1408 2560 
Q 1184 2547 1184 2400 
Q 1184 2349 1242 2285 
L 1741 1638 
L 2138 2138 
Q 2234 2253 2234 2362 
Q 2234 2541 2048 2560 
L 2048 2758 
Q 2298 2739 2662 2739 
Q 2938 2739 3187 2758 
L 3187 2560 
Q 2701 2547 2426 2227 
Q 2304 2093 1837 1504 
L 2694 397 
Q 2797 262 2912 230 
Q 3027 198 3302 198 
L 3302 0 
Q 3014 19 2688 19 
Q 2573 19 1997 0 
L 1997 198 
Q 2112 205 2169 256 
Q 2227 307 2227 358 
Q 2227 384 2093 570 
L 1606 1210 
Q 1120 634 1056 499 
Q 1030 442 1030 397 
Q 1030 224 1216 198 
L 1216 0 
Q 755 19 608 19 
Q 326 19 77 0 
z
" id="CMUSerif-Roman-78" transform="scale(0.015625)"/>
       <path d="M 179 -1043 
Q 518 -1043 598 -1001 
Q 678 -960 678 -755 
L 678 2240 
Q 678 2451 598 2505 
Q 518 2560 179 2560 
L 179 2758 
L 1101 2829 
L 1101 2406 
Q 1485 2829 1997 2829 
Q 2541 2829 2937 2406 
Q 3334 1984 3334 1382 
Q 3334 774 2912 352 
Q 2490 -70 1907 -70 
Q 1587 -70 1372 93 
Q 1158 256 1120 378 
L 1120 320 
L 1120 -755 
Q 1120 -960 1200 -1001 
Q 1280 -1043 1619 -1043 
L 1619 -1242 
Q 947 -1222 896 -1222 
Q 832 -1222 179 -1242 
L 179 -1043 
z
M 1120 730 
Q 1120 634 1133 598 
Q 1146 563 1210 461 
Q 1466 70 1882 70 
Q 2246 70 2524 444 
Q 2803 819 2803 1382 
Q 2803 1920 2550 2294 
Q 2298 2669 1946 2669 
Q 1696 2669 1478 2534 
Q 1261 2400 1120 2157 
L 1120 730 
z
" id="CMUSerif-Roman-70" transform="scale(0.015625)"/>
       <path d="M 211 0 
L 211 198 
Q 550 198 630 240 
Q 710 282 710 486 
L 710 2208 
Q 710 2445 630 2502 
Q 550 2560 237 2560 
L 237 2758 
L 1133 2829 
L 1133 480 
Q 1133 288 1200 243 
Q 1267 198 1581 198 
L 1581 0 
Q 928 19 915 19 
Q 826 19 211 0 
z
M 480 3942 
Q 480 4070 579 4176 
Q 678 4282 819 4282 
Q 960 4282 1059 4186 
Q 1158 4090 1158 3942 
Q 1158 3795 1059 3699 
Q 960 3603 819 3603 
Q 672 3603 576 3705 
Q 480 3808 480 3942 
z
" id="CMUSerif-Roman-69" transform="scale(0.015625)"/>
       <path d="M 205 0 
L 205 198 
Q 544 198 624 240 
Q 704 282 704 486 
L 704 2202 
Q 704 2438 621 2499 
Q 538 2560 205 2560 
L 205 2758 
L 1107 2829 
L 1107 2157 
Q 1408 2829 2054 2829 
Q 2803 2829 2906 2202 
Q 3014 2445 3244 2637 
Q 3475 2829 3834 2829 
Q 4314 2829 4506 2592 
Q 4646 2432 4675 2253 
Q 4704 2074 4704 1613 
L 4704 390 
Q 4710 256 4812 227 
Q 4915 198 5203 198 
L 5203 0 
Q 4550 19 4486 19 
Q 4435 19 3763 0 
L 3763 198 
Q 4102 198 4182 240 
Q 4262 282 4262 486 
L 4262 1978 
Q 4262 2304 4163 2496 
Q 4064 2688 3789 2688 
Q 3456 2688 3190 2409 
Q 2925 2131 2925 1664 
L 2925 486 
Q 2925 282 3005 240 
Q 3085 198 3424 198 
L 3424 0 
Q 2771 19 2707 19 
Q 2656 19 1984 0 
L 1984 198 
Q 2323 198 2403 240 
Q 2483 282 2483 486 
L 2483 1978 
Q 2483 2304 2384 2496 
Q 2285 2688 2010 2688 
Q 1677 2688 1411 2409 
Q 1146 2131 1146 1664 
L 1146 486 
Q 1146 282 1226 240 
Q 1306 198 1645 198 
L 1645 0 
Q 992 19 928 19 
Q 877 19 205 0 
z
" id="CMUSerif-Roman-6d" transform="scale(0.015625)"/>
      </defs>
      <use xlink:href="#CMUSerif-Roman-45"/>
      <use x="67.999985" xlink:href="#CMUSerif-Roman-78"/>
      <use x="120.699982" xlink:href="#CMUSerif-Roman-70"/>
      <use x="176.199966" xlink:href="#CMUSerif-Roman-65"/>
      <use x="220.59996" xlink:href="#CMUSerif-Roman-72"/>
      <use x="259.699951" xlink:href="#CMUSerif-Roman-69"/>
      <use x="287.399948" xlink:href="#CMUSerif-Roman-6d"/>
      <use x="370.699936" xlink:href="#CMUSerif-Roman-65"/>
      <use x="415.09993" xlink:href="#CMUSerif-Roman-6e"/>
      <use x="470.599915" xlink:href="#CMUSerif-Roman-74"/>
     </g>
    </g>
    <g id="LineCollection_2">
     <path d="M 150.341498 113.880195 
L 150.341498 103.880195 
" style="fill:none;stroke:#ac9ab2;stroke-opacity:0.8;stroke-width:1.5;"/>
    </g>
    <g id="line2d_16"/>
    <g id="line2d_17">
     <g>
      <use style="fill:#ac9ab2;fill-opacity:0.8;stroke:#ac9ab2;stroke-opacity:0.8;" x="150.341498" xlink:href="#m08dc30d337" y="108.880195"/>
     </g>
    </g>
    <g id="text_15">
     <!-- QMC + DEAC -->
     <g transform="translate(165.341498 112.380195)scale(0.1 -0.1)">
      <defs>
       <path d="M 358 2170 
Q 358 3149 985 3830 
Q 1613 4512 2483 4512 
Q 3360 4512 3987 3827 
Q 4614 3142 4614 2170 
Q 4614 1459 4252 883 
Q 3891 307 3315 45 
Q 3437 -282 3574 -432 
Q 3712 -582 3929 -582 
Q 4147 -582 4316 -438 
Q 4486 -294 4512 -45 
Q 4525 70 4582 70 
Q 4653 70 4653 -64 
Q 4653 -218 4621 -390 
Q 4589 -563 4512 -768 
Q 4435 -973 4272 -1107 
Q 4109 -1242 3878 -1242 
Q 3706 -1242 3578 -1168 
Q 3450 -1094 3376 -1004 
Q 3302 -915 3241 -723 
Q 3181 -531 3158 -409 
Q 3136 -288 3098 -45 
Q 2790 -141 2490 -141 
Q 1613 -141 985 531 
Q 358 1203 358 2170 
z
M 998 2170 
Q 998 1651 1110 1251 
Q 1222 851 1404 624 
Q 1587 397 1744 278 
Q 1901 160 2061 102 
Q 1971 282 1971 410 
Q 1971 621 2118 784 
Q 2266 947 2496 947 
Q 2950 947 3219 269 
Q 3974 826 3974 2170 
Q 3974 2752 3830 3193 
Q 3686 3635 3456 3878 
Q 3226 4122 2979 4237 
Q 2733 4352 2483 4352 
Q 2240 4352 1997 4240 
Q 1754 4128 1523 3891 
Q 1293 3654 1145 3206 
Q 998 2758 998 2170 
z
M 2112 410 
Q 2112 339 2134 262 
Q 2157 186 2249 102 
Q 2342 19 2490 19 
Q 2790 19 3053 166 
Q 2931 806 2496 806 
Q 2323 806 2217 684 
Q 2112 563 2112 410 
z
" id="CMUSerif-Roman-51" transform="scale(0.015625)"/>
       <path d="M 237 0 
L 237 198 
Q 467 198 614 243 
Q 762 288 816 374 
Q 870 461 883 518 
Q 896 576 896 672 
L 896 3872 
Q 896 4058 816 4115 
Q 736 4173 390 4173 
L 237 4173 
L 237 4371 
L 1318 4371 
Q 1434 4371 1466 4352 
Q 1498 4333 1542 4230 
L 2931 646 
L 4333 4250 
Q 4365 4339 4393 4355 
Q 4422 4371 4544 4371 
L 5626 4371 
L 5626 4173 
L 5472 4173 
Q 5126 4173 5046 4115 
Q 4966 4058 4966 3872 
L 4966 499 
Q 4966 314 5046 256 
Q 5126 198 5472 198 
L 5626 198 
L 5626 0 
Q 5389 19 4710 19 
Q 4026 19 3789 0 
L 3789 198 
L 3942 198 
Q 4288 198 4368 256 
Q 4448 314 4448 499 
L 4448 4173 
L 4442 4173 
L 2867 122 
Q 2822 0 2752 0 
Q 2675 0 2624 141 
L 1082 4122 
L 1075 4122 
L 1075 672 
Q 1075 576 1088 518 
Q 1101 461 1155 374 
Q 1210 288 1357 243 
Q 1504 198 1734 198 
L 1734 0 
Q 1062 19 985 19 
Q 909 19 237 0 
z
" id="CMUSerif-Roman-4d" transform="scale(0.015625)"/>
       <path d="M 358 2189 
Q 358 3155 1017 3833 
Q 1677 4512 2586 4512 
Q 2867 4512 3116 4409 
Q 3366 4307 3481 4217 
Q 3597 4128 3763 3962 
L 4083 4435 
Q 4134 4512 4185 4512 
Q 4237 4512 4246 4483 
Q 4256 4454 4256 4358 
L 4256 2842 
Q 4256 2739 4243 2713 
Q 4230 2688 4154 2688 
Q 4090 2688 4077 2707 
Q 4064 2726 4051 2797 
Q 3955 3488 3571 3901 
Q 3187 4314 2656 4314 
Q 2502 4314 2332 4278 
Q 2163 4243 1916 4112 
Q 1670 3981 1481 3763 
Q 1293 3546 1155 3136 
Q 1018 2726 1018 2182 
Q 1018 1645 1155 1232 
Q 1293 819 1481 604 
Q 1670 390 1916 259 
Q 2163 128 2336 93 
Q 2509 58 2662 58 
Q 3213 58 3635 448 
Q 4058 838 4096 1498 
Q 4102 1530 4102 1542 
Q 4102 1555 4108 1571 
Q 4115 1587 4131 1593 
Q 4147 1600 4173 1600 
Q 4256 1600 4256 1491 
Q 4256 883 3789 371 
Q 3322 -141 2586 -141 
Q 1677 -141 1017 534 
Q 358 1210 358 2189 
z
" id="CMUSerif-Roman-43" transform="scale(0.015625)"/>
       <path d="M 512 1523 
Q 365 1523 365 1600 
Q 365 1677 518 1677 
Q 538 1677 570 1673 
Q 602 1670 608 1670 
L 2413 1670 
L 2413 3482 
Q 2413 3488 2409 3517 
Q 2406 3546 2406 3565 
Q 2406 3718 2483 3718 
Q 2560 3718 2560 3565 
L 2560 1670 
L 4365 1670 
Q 4371 1670 4403 1673 
Q 4435 1677 4454 1677 
Q 4602 1677 4602 1600 
Q 4602 1523 4448 1523 
Q 4429 1523 4400 1526 
Q 4371 1530 4365 1530 
L 2560 1530 
L 2560 -371 
Q 2560 -518 2483 -518 
Q 2406 -518 2406 -365 
Q 2406 -346 2409 -317 
Q 2413 -288 2413 -282 
L 2413 1530 
L 608 1530 
Q 602 1530 566 1526 
Q 531 1523 512 1523 
z
" id="CMUSerif-Roman-2b" transform="scale(0.015625)"/>
       <path d="M 224 0 
L 224 198 
L 378 198 
Q 723 198 803 256 
Q 883 314 883 499 
L 883 3872 
Q 883 4058 803 4115 
Q 723 4173 378 4173 
L 224 4173 
L 224 4371 
L 2566 4371 
Q 3386 4371 3955 3718 
Q 4525 3066 4525 2150 
Q 4525 1254 3952 627 
Q 3379 0 2566 0 
L 224 0 
z
M 1434 454 
Q 1434 288 1482 243 
Q 1530 198 1747 198 
L 2394 198 
Q 2816 198 3101 371 
Q 3386 544 3533 742 
Q 3885 1222 3885 2150 
Q 3885 3123 3552 3578 
Q 3123 4173 2387 4173 
L 1747 4173 
Q 1530 4173 1482 4128 
Q 1434 4083 1434 3917 
L 1434 454 
z
" id="CMUSerif-Roman-44" transform="scale(0.015625)"/>
       <path d="M 205 0 
L 205 198 
Q 774 211 922 627 
L 2246 4454 
Q 2272 4531 2301 4556 
Q 2330 4582 2400 4582 
Q 2438 4582 2460 4576 
Q 2483 4570 2499 4547 
Q 2515 4525 2521 4512 
Q 2528 4499 2547 4454 
L 3930 454 
Q 3981 294 4083 246 
Q 4186 198 4474 198 
L 4589 198 
L 4589 0 
Q 4186 19 3750 19 
Q 3059 19 2829 0 
L 2829 198 
Q 3360 198 3360 390 
Q 3360 403 3341 480 
L 3002 1459 
L 1421 1459 
L 1126 621 
Q 1114 595 1114 525 
Q 1114 390 1238 294 
Q 1363 198 1594 198 
L 1594 0 
Q 979 19 858 19 
Q 646 19 205 0 
z
M 1491 1658 
L 2931 1658 
L 2208 3738 
L 1491 1658 
z
" id="CMUSerif-Roman-41" transform="scale(0.015625)"/>
      </defs>
      <use xlink:href="#CMUSerif-Roman-51"/>
      <use x="77.699982" xlink:href="#CMUSerif-Roman-4d"/>
      <use x="169.299973" xlink:href="#CMUSerif-Roman-43"/>
      <use x="241.499954" xlink:href="#CMUSerif-Roman-20"/>
      <use x="274.799942" xlink:href="#CMUSerif-Roman-2b"/>
      <use x="352.59993" xlink:href="#CMUSerif-Roman-20"/>
      <use x="385.899918" xlink:href="#CMUSerif-Roman-44"/>
      <use x="462.199905" xlink:href="#CMUSerif-Roman-45"/>
      <use x="530.19989" xlink:href="#CMUSerif-Roman-41"/>
      <use x="605.199875" xlink:href="#CMUSerif-Roman-43"/>
     </g>
    </g>
   </g>
  </g>
 </g>
 <defs>
  <clipPath id="pb650451170">
   <rect height="117.51183" width="211.93032" x="30.15024" y="5.80899"/>
  </clipPath>
 </defs>
</svg>
