<?xml version="1.0" encoding="utf-8" standalone="no"?>
<!DOCTYPE svg PUBLIC "-//W3C//DTD SVG 1.1//EN"
  "http://www.w3.org/Graphics/SVG/1.1/DTD/svg11.dtd">
<svg height="151.46856pt" version="1.1" viewBox="0 0 245.0808 151.46856" width="245.0808pt" xmlns="http://www.w3.org/2000/svg" xmlns:xlink="http://www.w3.org/1999/xlink">
 <metadata>
  <rdf:RDF xmlns:cc="http://creativecommons.org/ns#" xmlns:dc="http://purl.org/dc/elements/1.1/" xmlns:rdf="http://www.w3.org/1999/02/22-rdf-syntax-ns#">
   <cc:Work>
    <dc:type rdf:resource="http://purl.org/dc/dcmitype/StillImage"/>
    <dc:date>2022-01-10T22:28:58.921016</dc:date>
    <dc:format>image/svg+xml</dc:format>
    <dc:creator>
     <cc:Agent>
      <dc:title>Matplotlib v3.4.2, https://matplotlib.org/</dc:title>
     </cc:Agent>
    </dc:creator>
   </cc:Work>
  </rdf:RDF>
 </metadata>
 <defs>
  <style type="text/css">*{stroke-linecap:butt;stroke-linejoin:round;}</style>
 </defs>
 <g id="figure_1">
  <g id="patch_1">
   <path d="M 0 151.46856 
L 245.0808 151.46856 
L 245.0808 0 
L 0 0 
z
" style="fill:none;"/>
  </g>
  <g id="axes_1">
   <g id="patch_2">
    <path d="M 23.58024 131.289617 
L 242.08056 131.289617 
L 242.08056 11.61774 
L 23.58024 11.61774 
z
" style="fill:none;"/>
   </g>
   <g id="patch_3">
    <path clip-path="url(#p335fbee6d4)" d="M 33.512073 131.289617 
L 39.919707 131.289617 
L 39.919707 83.454548 
L 33.512073 83.454548 
z
" style="fill:#b3cde3;stroke:#839cb1;stroke-linejoin:miter;"/>
   </g>
   <g id="patch_4">
    <path clip-path="url(#p335fbee6d4)" d="M 55.938792 131.289617 
L 62.346426 131.289617 
L 62.346426 102.208046 
L 55.938792 102.208046 
z
" style="fill:#b3cde3;stroke:#839cb1;stroke-linejoin:miter;"/>
   </g>
   <g id="patch_5">
    <path clip-path="url(#p335fbee6d4)" d="M 78.365511 131.289617 
L 84.773145 131.289617 
L 84.773145 94.877736 
L 78.365511 94.877736 
z
" style="fill:#b3cde3;stroke:#839cb1;stroke-linejoin:miter;"/>
   </g>
   <g id="patch_6">
    <path clip-path="url(#p335fbee6d4)" d="M 100.79223 131.289617 
L 107.199864 131.289617 
L 107.199864 17.316401 
L 100.79223 17.316401 
z
" style="fill:#b3cde3;stroke:#839cb1;stroke-linejoin:miter;"/>
   </g>
   <g id="patch_7">
    <path clip-path="url(#p335fbee6d4)" d="M 123.218949 131.289617 
L 129.626583 131.289617 
L 129.626583 69.375194 
L 123.218949 69.375194 
z
" style="fill:#b3cde3;stroke:#839cb1;stroke-linejoin:miter;"/>
   </g>
   <g id="patch_8">
    <path clip-path="url(#p335fbee6d4)" d="M 145.645668 131.289617 
L 152.053302 131.289617 
L 152.053302 114.898635 
L 145.645668 114.898635 
z
" style="fill:#b3cde3;stroke:#839cb1;stroke-linejoin:miter;"/>
   </g>
   <g id="patch_9">
    <path clip-path="url(#p335fbee6d4)" d="M 168.072387 131.289617 
L 174.480021 131.289617 
L 174.480021 37.207134 
L 168.072387 37.207134 
z
" style="fill:#b3cde3;stroke:#839cb1;stroke-linejoin:miter;"/>
   </g>
   <g id="patch_10">
    <path clip-path="url(#p335fbee6d4)" d="M 190.499106 131.289617 
L 196.90674 131.289617 
L 196.90674 72.768039 
L 190.499106 72.768039 
z
" style="fill:#b3cde3;stroke:#839cb1;stroke-linejoin:miter;"/>
   </g>
   <g id="patch_11">
    <path clip-path="url(#p335fbee6d4)" d="M 212.925825 131.289617 
L 219.333459 131.289617 
L 219.333459 120.525421 
L 212.925825 120.525421 
z
" style="fill:#b3cde3;stroke:#839cb1;stroke-linejoin:miter;"/>
   </g>
   <g id="patch_12">
    <path clip-path="url(#p335fbee6d4)" d="M 39.919707 131.289617 
L 46.327341 131.289617 
L 46.327341 109.429851 
L 39.919707 109.429851 
z
" style="fill:#ccebc5;stroke:#9bb994;stroke-linejoin:miter;"/>
   </g>
   <g id="patch_13">
    <path clip-path="url(#p335fbee6d4)" d="M 62.346426 131.289617 
L 68.75406 131.289617 
L 68.75406 112.275225 
L 62.346426 112.275225 
z
" style="fill:#ccebc5;stroke:#9bb994;stroke-linejoin:miter;"/>
   </g>
   <g id="patch_14">
    <path clip-path="url(#p335fbee6d4)" d="M 84.773145 131.289617 
L 91.180779 131.289617 
L 91.180779 124.864989 
L 84.773145 124.864989 
z
" style="fill:#ccebc5;stroke:#9bb994;stroke-linejoin:miter;"/>
   </g>
   <g id="patch_15">
    <path clip-path="url(#p335fbee6d4)" d="M 107.199864 131.289617 
L 113.607498 131.289617 
L 113.607498 90.82721 
L 107.199864 90.82721 
z
" style="fill:#ccebc5;stroke:#9bb994;stroke-linejoin:miter;"/>
   </g>
   <g id="patch_16">
    <path clip-path="url(#p335fbee6d4)" d="M 129.626583 131.289617 
L 136.034217 131.289617 
L 136.034217 111.0899 
L 129.626583 111.0899 
z
" style="fill:#ccebc5;stroke:#9bb994;stroke-linejoin:miter;"/>
   </g>
   <g id="patch_17">
    <path clip-path="url(#p335fbee6d4)" d="M 152.053302 131.289617 
L 158.460936 131.289617 
L 158.460936 125.828023 
L 152.053302 125.828023 
z
" style="fill:#ccebc5;stroke:#9bb994;stroke-linejoin:miter;"/>
   </g>
   <g id="patch_18">
    <path clip-path="url(#p335fbee6d4)" d="M 174.480021 131.289617 
L 180.887655 131.289617 
L 180.887655 67.492853 
L 174.480021 67.492853 
z
" style="fill:#ccebc5;stroke:#9bb994;stroke-linejoin:miter;"/>
   </g>
   <g id="patch_19">
    <path clip-path="url(#p335fbee6d4)" d="M 196.90674 131.289617 
L 203.314374 131.289617 
L 203.314374 88.445234 
L 196.90674 88.445234 
z
" style="fill:#ccebc5;stroke:#9bb994;stroke-linejoin:miter;"/>
   </g>
   <g id="patch_20">
    <path clip-path="url(#p335fbee6d4)" d="M 219.333459 131.289617 
L 225.741093 131.289617 
L 225.741093 117.746508 
L 219.333459 117.746508 
z
" style="fill:#ccebc5;stroke:#9bb994;stroke-linejoin:miter;"/>
   </g>
   <g id="patch_21">
    <path clip-path="url(#p335fbee6d4)" d="M 46.327341 131.289617 
L 52.734975 131.289617 
L 52.734975 119.343124 
L 46.327341 119.343124 
z
" style="fill:#decbe4;stroke:#ac9ab2;stroke-linejoin:miter;"/>
   </g>
   <g id="patch_22">
    <path clip-path="url(#p335fbee6d4)" d="M 68.75406 131.289617 
L 75.161694 131.289617 
L 75.161694 120.966024 
L 68.75406 120.966024 
z
" style="fill:#decbe4;stroke:#ac9ab2;stroke-linejoin:miter;"/>
   </g>
   <g id="patch_23">
    <path clip-path="url(#p335fbee6d4)" d="M 91.180779 131.289617 
L 97.588413 131.289617 
L 97.588413 125.793219 
L 91.180779 125.793219 
z
" style="fill:#decbe4;stroke:#ac9ab2;stroke-linejoin:miter;"/>
   </g>
   <g id="patch_24">
    <path clip-path="url(#p335fbee6d4)" d="M 113.607498 131.289617 
L 120.015132 131.289617 
L 120.015132 129.233141 
L 113.607498 129.233141 
z
" style="fill:#decbe4;stroke:#ac9ab2;stroke-linejoin:miter;"/>
   </g>
   <g id="patch_25">
    <path clip-path="url(#p335fbee6d4)" d="M 136.034217 131.289617 
L 142.441851 131.289617 
L 142.441851 128.441187 
L 136.034217 128.441187 
z
" style="fill:#decbe4;stroke:#ac9ab2;stroke-linejoin:miter;"/>
   </g>
   <g id="patch_26">
    <path clip-path="url(#p335fbee6d4)" d="M 158.460936 131.289617 
L 164.86857 131.289617 
L 164.86857 128.686461 
L 158.460936 128.686461 
z
" style="fill:#decbe4;stroke:#ac9ab2;stroke-linejoin:miter;"/>
   </g>
   <g id="patch_27">
    <path clip-path="url(#p335fbee6d4)" d="M 180.887655 131.289617 
L 187.295289 131.289617 
L 187.295289 110.701984 
L 180.887655 110.701984 
z
" style="fill:#decbe4;stroke:#ac9ab2;stroke-linejoin:miter;"/>
   </g>
   <g id="patch_28">
    <path clip-path="url(#p335fbee6d4)" d="M 203.314374 131.289617 
L 209.722008 131.289617 
L 209.722008 115.789183 
L 203.314374 115.789183 
z
" style="fill:#decbe4;stroke:#ac9ab2;stroke-linejoin:miter;"/>
   </g>
   <g id="patch_29">
    <path clip-path="url(#p335fbee6d4)" d="M 225.741093 131.289617 
L 232.148727 131.289617 
L 232.148727 125.488215 
L 225.741093 125.488215 
z
" style="fill:#decbe4;stroke:#ac9ab2;stroke-linejoin:miter;"/>
   </g>
   <g id="matplotlib.axis_1">
    <g id="xtick_1">
     <g id="line2d_1">
      <defs>
       <path d="M 0 0 
L 0 -4 
" id="me439a7c113" style="stroke:#000000;stroke-width:0.5;"/>
      </defs>
      <g>
       <use style="stroke:#000000;stroke-width:0.5;" x="43.123524" xlink:href="#me439a7c113" y="131.289617"/>
      </g>
     </g>
     <g id="text_1">
      <!-- shf -->
      <g transform="translate(34.931692 146.309877)rotate(-45)scale(0.08 -0.08)">
       <defs>
        <path d="M 211 83 
L 211 928 
Q 211 998 214 1024 
Q 218 1050 237 1069 
Q 256 1088 294 1088 
Q 339 1088 355 1069 
Q 371 1050 384 979 
Q 480 538 688 304 
Q 896 70 1274 70 
Q 1632 70 1814 230 
Q 1997 390 1997 653 
Q 1997 1120 1331 1242 
Q 947 1318 787 1369 
Q 627 1421 486 1536 
Q 211 1760 211 2080 
Q 211 2400 454 2633 
Q 698 2867 1235 2867 
Q 1594 2867 1837 2688 
Q 1907 2746 1946 2790 
Q 2029 2867 2074 2867 
Q 2125 2867 2134 2835 
Q 2144 2803 2144 2714 
L 2144 2067 
Q 2144 1997 2141 1971 
Q 2138 1946 2118 1930 
Q 2099 1914 2061 1914 
Q 1990 1914 1984 1971 
Q 1933 2746 1235 2746 
Q 858 2746 688 2602 
Q 518 2458 518 2259 
Q 518 2150 569 2067 
Q 621 1984 688 1936 
Q 755 1888 880 1843 
Q 1005 1798 1081 1782 
Q 1158 1766 1306 1734 
Q 1818 1638 2035 1427 
Q 2304 1158 2304 819 
Q 2304 442 2048 186 
Q 1792 -70 1274 -70 
Q 858 -70 570 205 
Q 531 166 502 134 
Q 474 102 464 89 
Q 454 77 451 70 
Q 448 64 442 58 
Q 314 -70 282 -70 
Q 230 -70 220 -38 
Q 211 -6 211 83 
z
" id="CMUSerif-Roman-73" transform="scale(0.015625)"/>
        <path d="M 205 0 
L 205 198 
Q 544 198 624 240 
Q 704 282 704 486 
L 704 3814 
Q 704 4051 621 4112 
Q 538 4173 205 4173 
L 205 4371 
L 1126 4442 
L 1126 2214 
L 1133 2214 
Q 1235 2445 1465 2637 
Q 1696 2829 2054 2829 
Q 2534 2829 2726 2592 
Q 2867 2432 2896 2253 
Q 2925 2074 2925 1613 
L 2925 390 
Q 2931 256 3033 227 
Q 3136 198 3424 198 
L 3424 0 
Q 2771 19 2707 19 
Q 2656 19 1984 0 
L 1984 198 
Q 2323 198 2403 240 
Q 2483 282 2483 486 
L 2483 1978 
Q 2483 2304 2384 2496 
Q 2285 2688 2010 2688 
Q 1677 2688 1411 2409 
Q 1146 2131 1146 1664 
L 1146 486 
Q 1146 282 1226 240 
Q 1306 198 1645 198 
L 1645 0 
Q 992 19 928 19 
Q 877 19 205 0 
z
" id="CMUSerif-Roman-68" transform="scale(0.015625)"/>
        <path d="M 211 2560 
L 211 2758 
L 717 2758 
L 717 3494 
Q 717 3968 1024 4240 
Q 1331 4512 1709 4512 
Q 1958 4512 2121 4377 
Q 2285 4243 2285 4064 
Q 2285 3942 2211 3862 
Q 2138 3782 2003 3782 
Q 1875 3782 1801 3862 
Q 1728 3942 1728 4058 
Q 1728 4262 1920 4326 
Q 1824 4371 1709 4371 
Q 1478 4371 1299 4134 
Q 1120 3898 1120 3501 
L 1120 2758 
L 1869 2758 
L 1869 2560 
L 1139 2560 
L 1139 499 
Q 1139 314 1216 256 
Q 1293 198 1626 198 
L 1760 198 
L 1760 0 
Q 1504 19 947 19 
Q 870 19 748 16 
Q 627 13 467 6 
Q 307 0 218 0 
L 218 198 
Q 557 198 637 240 
Q 717 282 717 486 
L 717 2560 
L 211 2560 
z
" id="CMUSerif-Roman-66" transform="scale(0.015625)"/>
       </defs>
       <use xlink:href="#CMUSerif-Roman-73"/>
       <use x="39.399994" xlink:href="#CMUSerif-Roman-68"/>
       <use x="94.899979" xlink:href="#CMUSerif-Roman-66"/>
      </g>
     </g>
    </g>
    <g id="xtick_2">
     <g id="line2d_2">
      <g>
       <use style="stroke:#000000;stroke-width:0.5;" x="65.550243" xlink:href="#me439a7c113" y="131.289617"/>
      </g>
     </g>
     <g id="text_2">
      <!-- shc -->
      <g transform="translate(56.571754 147.096533)rotate(-45)scale(0.08 -0.08)">
       <defs>
        <path d="M 624 352 
Q 218 774 218 1382 
Q 218 1990 618 2428 
Q 1018 2867 1606 2867 
Q 1997 2867 2291 2681 
Q 2586 2496 2586 2182 
Q 2586 2042 2502 1962 
Q 2419 1882 2291 1882 
Q 2157 1882 2077 1965 
Q 1997 2048 1997 2176 
Q 1997 2234 2016 2288 
Q 2035 2342 2105 2403 
Q 2176 2464 2298 2470 
Q 2067 2707 1613 2707 
Q 1286 2707 1017 2400 
Q 749 2093 749 1395 
Q 749 1030 838 761 
Q 928 493 1075 355 
Q 1222 218 1366 154 
Q 1510 90 1651 90 
Q 2278 90 2490 762 
Q 2509 826 2573 826 
Q 2656 826 2656 762 
Q 2656 730 2630 650 
Q 2605 570 2528 442 
Q 2451 314 2339 202 
Q 2227 90 2032 10 
Q 1837 -70 1594 -70 
Q 1030 -70 624 352 
z
" id="CMUSerif-Roman-63" transform="scale(0.015625)"/>
       </defs>
       <use xlink:href="#CMUSerif-Roman-73"/>
       <use x="39.399994" xlink:href="#CMUSerif-Roman-68"/>
       <use x="94.899979" xlink:href="#CMUSerif-Roman-63"/>
      </g>
     </g>
    </g>
    <g id="xtick_3">
     <g id="line2d_3">
      <g>
       <use style="stroke:#000000;stroke-width:0.5;" x="87.976962" xlink:href="#me439a7c113" y="131.289617"/>
      </g>
     </g>
     <g id="text_3">
      <!-- sho -->
      <g transform="translate(78.682043 147.412963)rotate(-45)scale(0.08 -0.08)">
       <defs>
        <path d="M 601 346 
Q 179 762 179 1370 
Q 179 1978 592 2422 
Q 1005 2867 1600 2867 
Q 2182 2867 2598 2425 
Q 3014 1984 3014 1370 
Q 3014 768 2595 349 
Q 2176 -70 1594 -70 
Q 1024 -70 601 346 
z
M 710 1421 
Q 710 800 870 518 
Q 1120 90 1600 90 
Q 1837 90 2035 218 
Q 2234 346 2342 563 
Q 2483 845 2483 1421 
Q 2483 2035 2317 2310 
Q 2067 2726 1594 2726 
Q 1389 2726 1187 2617 
Q 986 2509 864 2298 
Q 710 2016 710 1421 
z
" id="CMUSerif-Roman-6f" transform="scale(0.015625)"/>
       </defs>
       <use xlink:href="#CMUSerif-Roman-73"/>
       <use x="39.399994" xlink:href="#CMUSerif-Roman-68"/>
       <use x="94.899979" xlink:href="#CMUSerif-Roman-6f"/>
      </g>
     </g>
    </g>
    <g id="xtick_4">
     <g id="line2d_4">
      <g>
       <use style="stroke:#000000;stroke-width:0.5;" x="110.403681" xlink:href="#me439a7c113" y="131.289617"/>
      </g>
     </g>
     <g id="text_4">
      <!-- stf -->
      <g transform="translate(103.15672 145.365005)rotate(-45)scale(0.08 -0.08)">
       <defs>
        <path d="M 122 2560 
L 122 2701 
Q 416 2714 611 2922 
Q 806 3130 873 3386 
Q 941 3642 947 3936 
L 1107 3936 
L 1107 2758 
L 2022 2758 
L 2022 2560 
L 1107 2560 
L 1107 781 
Q 1107 90 1536 90 
Q 1722 90 1843 278 
Q 1965 467 1965 806 
L 1965 1158 
L 2125 1158 
L 2125 794 
Q 2125 448 1965 189 
Q 1805 -70 1491 -70 
Q 1376 -70 1261 -41 
Q 1146 -13 998 64 
Q 851 141 758 329 
Q 666 518 666 794 
L 666 2560 
L 122 2560 
z
" id="CMUSerif-Roman-74" transform="scale(0.015625)"/>
       </defs>
       <use xlink:href="#CMUSerif-Roman-73"/>
       <use x="39.399994" xlink:href="#CMUSerif-Roman-74"/>
       <use x="78.199982" xlink:href="#CMUSerif-Roman-66"/>
      </g>
     </g>
    </g>
    <g id="xtick_5">
     <g id="line2d_5">
      <g>
       <use style="stroke:#000000;stroke-width:0.5;" x="132.8304" xlink:href="#me439a7c113" y="131.289617"/>
      </g>
     </g>
     <g id="text_5">
      <!-- stc -->
      <g transform="translate(124.796783 146.151661)rotate(-45)scale(0.08 -0.08)">
       <use xlink:href="#CMUSerif-Roman-73"/>
       <use x="39.399994" xlink:href="#CMUSerif-Roman-74"/>
       <use x="78.199982" xlink:href="#CMUSerif-Roman-63"/>
      </g>
     </g>
    </g>
    <g id="xtick_6">
     <g id="line2d_6">
      <g>
       <use style="stroke:#000000;stroke-width:0.5;" x="155.257119" xlink:href="#me439a7c113" y="131.289617"/>
      </g>
     </g>
     <g id="text_6">
      <!-- sto -->
      <g transform="translate(146.907072 146.468092)rotate(-45)scale(0.08 -0.08)">
       <use xlink:href="#CMUSerif-Roman-73"/>
       <use x="39.399994" xlink:href="#CMUSerif-Roman-74"/>
       <use x="78.199982" xlink:href="#CMUSerif-Roman-6f"/>
      </g>
     </g>
    </g>
    <g id="xtick_7">
     <g id="line2d_7">
      <g>
       <use style="stroke:#000000;stroke-width:0.5;" x="177.683838" xlink:href="#me439a7c113" y="131.289617"/>
      </g>
     </g>
     <g id="text_7">
      <!-- tsf -->
      <g transform="translate(170.436877 145.365005)rotate(-45)scale(0.08 -0.08)">
       <use xlink:href="#CMUSerif-Roman-74"/>
       <use x="38.799988" xlink:href="#CMUSerif-Roman-73"/>
       <use x="78.199982" xlink:href="#CMUSerif-Roman-66"/>
      </g>
     </g>
    </g>
    <g id="xtick_8">
     <g id="line2d_8">
      <g>
       <use style="stroke:#000000;stroke-width:0.5;" x="200.110557" xlink:href="#me439a7c113" y="131.289617"/>
      </g>
     </g>
     <g id="text_8">
      <!-- tsc -->
      <g transform="translate(192.07694 146.151661)rotate(-45)scale(0.08 -0.08)">
       <use xlink:href="#CMUSerif-Roman-74"/>
       <use x="38.799988" xlink:href="#CMUSerif-Roman-73"/>
       <use x="78.199982" xlink:href="#CMUSerif-Roman-63"/>
      </g>
     </g>
    </g>
    <g id="xtick_9">
     <g id="line2d_9">
      <g>
       <use style="stroke:#000000;stroke-width:0.5;" x="222.537276" xlink:href="#me439a7c113" y="131.289617"/>
      </g>
     </g>
     <g id="text_9">
      <!-- tso -->
      <g transform="translate(214.187229 146.468092)rotate(-45)scale(0.08 -0.08)">
       <use xlink:href="#CMUSerif-Roman-74"/>
       <use x="38.799988" xlink:href="#CMUSerif-Roman-73"/>
       <use x="78.199982" xlink:href="#CMUSerif-Roman-6f"/>
      </g>
     </g>
    </g>
   </g>
   <g id="matplotlib.axis_2">
    <g id="ytick_1">
     <g id="line2d_10">
      <defs>
       <path d="M 0 0 
L 4 0 
" id="m90baac3ade" style="stroke:#000000;stroke-width:0.5;"/>
      </defs>
      <g>
       <use style="stroke:#000000;stroke-width:0.5;" x="23.58024" xlink:href="#m90baac3ade" y="131.289617"/>
      </g>
     </g>
     <g id="text_10">
      <!-- 0 -->
      <g transform="translate(15.58024 134.065867)scale(0.08 -0.08)">
       <defs>
        <path d="M 250 2048 
Q 250 2989 486 3501 
Q 819 4262 1600 4262 
Q 1766 4262 1939 4217 
Q 2112 4173 2333 4000 
Q 2554 3827 2688 3546 
Q 2944 3002 2944 2048 
Q 2944 1114 2707 602 
Q 2362 -141 1594 -141 
Q 1306 -141 1014 6 
Q 723 154 538 506 
Q 250 1037 250 2048 
z
M 781 2125 
Q 781 1158 851 774 
Q 928 358 1142 179 
Q 1357 0 1594 0 
Q 1850 0 2064 192 
Q 2278 384 2342 800 
Q 2413 1210 2413 2125 
Q 2413 3014 2349 3373 
Q 2266 3789 2042 3955 
Q 1818 4122 1594 4122 
Q 1510 4122 1420 4096 
Q 1331 4070 1203 4000 
Q 1075 3930 976 3750 
Q 877 3571 832 3302 
Q 781 2957 781 2125 
z
" id="CMUSerif-Roman-30" transform="scale(0.015625)"/>
       </defs>
       <use xlink:href="#CMUSerif-Roman-30"/>
      </g>
     </g>
    </g>
    <g id="ytick_2">
     <g id="line2d_11">
      <g>
       <use style="stroke:#000000;stroke-width:0.5;" x="23.58024" xlink:href="#m90baac3ade" y="113.578449"/>
      </g>
     </g>
     <g id="text_11">
      <!-- 1 -->
      <g transform="translate(15.58024 116.354699)scale(0.08 -0.08)">
       <defs>
        <path d="M 570 3654 
L 570 3853 
Q 1338 3853 1734 4262 
Q 1843 4262 1862 4236 
Q 1882 4211 1882 4096 
L 1882 506 
Q 1882 314 1974 256 
Q 2067 198 2477 198 
L 2682 198 
L 2682 0 
Q 2458 19 1645 19 
Q 832 19 608 0 
L 608 198 
L 813 198 
Q 1216 198 1312 256 
Q 1408 314 1408 506 
L 1408 3821 
Q 1075 3654 570 3654 
z
" id="CMUSerif-Roman-31" transform="scale(0.015625)"/>
       </defs>
       <use xlink:href="#CMUSerif-Roman-31"/>
      </g>
     </g>
    </g>
    <g id="ytick_3">
     <g id="line2d_12">
      <g>
       <use style="stroke:#000000;stroke-width:0.5;" x="23.58024" xlink:href="#m90baac3ade" y="95.867281"/>
      </g>
     </g>
     <g id="text_12">
      <!-- 2 -->
      <g transform="translate(15.58024 98.643531)scale(0.08 -0.08)">
       <defs>
        <path d="M 320 0 
Q 320 115 329 150 
Q 339 186 390 237 
L 1619 1606 
Q 2291 2362 2291 3021 
Q 2291 3450 2067 3757 
Q 1843 4064 1434 4064 
Q 1152 4064 915 3891 
Q 678 3718 570 3411 
Q 589 3418 653 3418 
Q 813 3418 902 3318 
Q 992 3219 992 3085 
Q 992 2912 880 2829 
Q 768 2746 659 2746 
Q 614 2746 556 2755 
Q 499 2765 409 2854 
Q 320 2944 320 3104 
Q 320 3552 659 3907 
Q 998 4262 1517 4262 
Q 2106 4262 2490 3913 
Q 2874 3565 2874 3021 
Q 2874 2829 2816 2656 
Q 2758 2483 2681 2348 
Q 2605 2214 2400 2000 
Q 2195 1786 2028 1632 
Q 1862 1478 1491 1152 
L 813 493 
L 1965 493 
Q 2528 493 2573 544 
Q 2637 634 2714 1114 
L 2874 1114 
L 2694 0 
L 320 0 
z
" id="CMUSerif-Roman-32" transform="scale(0.015625)"/>
       </defs>
       <use xlink:href="#CMUSerif-Roman-32"/>
      </g>
     </g>
    </g>
    <g id="ytick_4">
     <g id="line2d_13">
      <g>
       <use style="stroke:#000000;stroke-width:0.5;" x="23.58024" xlink:href="#m90baac3ade" y="78.156113"/>
      </g>
     </g>
     <g id="text_13">
      <!-- 3 -->
      <g transform="translate(15.58024 80.932363)scale(0.08 -0.08)">
       <defs>
        <path d="M 269 864 
Q 269 1056 377 1145 
Q 486 1235 627 1235 
Q 774 1235 880 1139 
Q 986 1043 986 877 
Q 986 698 861 598 
Q 736 499 563 525 
Q 717 269 998 153 
Q 1280 38 1542 38 
Q 1818 38 2042 275 
Q 2266 512 2266 1094 
Q 2266 1587 2074 1872 
Q 1882 2157 1504 2157 
L 1222 2157 
Q 1126 2157 1097 2166 
Q 1069 2176 1069 2227 
Q 1069 2291 1165 2304 
Q 1261 2304 1414 2323 
Q 1786 2336 1984 2656 
Q 2163 2957 2163 3386 
Q 2163 3776 1977 3939 
Q 1792 4102 1549 4102 
Q 1325 4102 1078 4009 
Q 832 3917 698 3706 
Q 1094 3706 1094 3386 
Q 1094 3245 1004 3152 
Q 915 3059 768 3059 
Q 627 3059 534 3148 
Q 442 3238 442 3392 
Q 442 3757 768 4009 
Q 1094 4262 1574 4262 
Q 2048 4262 2400 4012 
Q 2752 3763 2752 3379 
Q 2752 3002 2502 2691 
Q 2253 2381 1856 2253 
Q 2342 2157 2633 1827 
Q 2925 1498 2925 1094 
Q 2925 595 2531 227 
Q 2138 -141 1562 -141 
Q 1030 -141 649 147 
Q 269 435 269 864 
z
" id="CMUSerif-Roman-33" transform="scale(0.015625)"/>
       </defs>
       <use xlink:href="#CMUSerif-Roman-33"/>
      </g>
     </g>
    </g>
    <g id="ytick_5">
     <g id="line2d_14">
      <g>
       <use style="stroke:#000000;stroke-width:0.5;" x="23.58024" xlink:href="#m90baac3ade" y="60.444945"/>
      </g>
     </g>
     <g id="text_14">
      <!-- 4 -->
      <g transform="translate(15.58024 63.221195)scale(0.08 -0.08)">
       <defs>
        <path d="M 179 1056 
L 179 1254 
L 2144 4256 
Q 2195 4333 2272 4333 
Q 2342 4333 2358 4304 
Q 2374 4275 2374 4166 
L 2374 1254 
L 3014 1254 
L 3014 1056 
L 2374 1056 
L 2374 499 
Q 2374 314 2451 256 
Q 2528 198 2861 198 
L 2995 198 
L 2995 0 
Q 2733 19 2125 19 
Q 1523 19 1261 0 
L 1261 198 
L 1395 198 
Q 1728 198 1805 256 
Q 1882 314 1882 499 
L 1882 1056 
L 179 1056 
z
M 358 1254 
L 1920 1254 
L 1920 3642 
L 358 1254 
z
" id="CMUSerif-Roman-34" transform="scale(0.015625)"/>
       </defs>
       <use xlink:href="#CMUSerif-Roman-34"/>
      </g>
     </g>
    </g>
    <g id="ytick_6">
     <g id="line2d_15">
      <g>
       <use style="stroke:#000000;stroke-width:0.5;" x="23.58024" xlink:href="#m90baac3ade" y="42.733777"/>
      </g>
     </g>
     <g id="text_15">
      <!-- 5 -->
      <g transform="translate(15.58024 45.510027)scale(0.08 -0.08)">
       <defs>
        <path d="M 320 1030 
Q 320 1222 422 1296 
Q 525 1370 634 1370 
Q 781 1370 867 1277 
Q 954 1184 954 1056 
Q 954 928 867 835 
Q 781 742 634 742 
Q 563 742 525 755 
Q 608 461 867 249 
Q 1126 38 1466 38 
Q 1894 38 2150 454 
Q 2304 723 2304 1331 
Q 2304 1869 2189 2138 
Q 2010 2547 1645 2547 
Q 1126 2547 819 2099 
Q 781 2042 736 2042 
Q 672 2042 659 2077 
Q 646 2112 646 2208 
L 646 4102 
Q 646 4256 710 4256 
Q 736 4256 787 4237 
Q 1190 4058 1638 4058 
Q 2099 4058 2509 4243 
Q 2541 4262 2560 4262 
Q 2624 4262 2624 4192 
Q 2624 4166 2573 4092 
Q 2522 4019 2413 3923 
Q 2304 3827 2163 3737 
Q 2022 3648 1817 3587 
Q 1613 3526 1389 3526 
Q 1120 3526 845 3610 
L 845 2362 
Q 1178 2688 1658 2688 
Q 2170 2688 2522 2275 
Q 2874 1862 2874 1286 
Q 2874 685 2458 272 
Q 2042 -141 1478 -141 
Q 966 -141 643 224 
Q 320 589 320 1030 
z
" id="CMUSerif-Roman-35" transform="scale(0.015625)"/>
       </defs>
       <use xlink:href="#CMUSerif-Roman-35"/>
      </g>
     </g>
    </g>
    <g id="ytick_7">
     <g id="line2d_16">
      <g>
       <use style="stroke:#000000;stroke-width:0.5;" x="23.58024" xlink:href="#m90baac3ade" y="25.022609"/>
      </g>
     </g>
     <g id="text_16">
      <!-- 6 -->
      <g transform="translate(15.58024 27.798859)scale(0.08 -0.08)">
       <defs>
        <path d="M 269 2022 
Q 269 3027 781 3644 
Q 1293 4262 1952 4262 
Q 2336 4262 2550 4067 
Q 2765 3872 2765 3571 
Q 2765 3405 2669 3334 
Q 2573 3264 2470 3264 
Q 2355 3264 2265 3341 
Q 2176 3418 2176 3558 
Q 2176 3846 2528 3846 
Q 2362 4102 1965 4102 
Q 1843 4102 1718 4067 
Q 1594 4032 1430 3913 
Q 1267 3795 1142 3606 
Q 1018 3418 931 3066 
Q 845 2714 845 2253 
L 845 2099 
Q 1107 2733 1644 2733 
Q 2182 2733 2553 2323 
Q 2925 1914 2925 1306 
Q 2925 685 2537 272 
Q 2150 -141 1606 -141 
Q 1363 -141 1142 -38 
Q 922 64 717 294 
Q 512 525 390 969 
Q 269 1414 269 2022 
z
M 858 1446 
Q 858 819 973 518 
Q 992 467 1033 400 
Q 1075 333 1148 243 
Q 1222 154 1344 96 
Q 1466 38 1606 38 
Q 2035 38 2240 454 
Q 2349 685 2349 1312 
Q 2349 1952 2234 2189 
Q 2035 2586 1638 2586 
Q 1370 2586 1184 2400 
Q 998 2214 928 1968 
Q 858 1722 858 1446 
z
" id="CMUSerif-Roman-36" transform="scale(0.015625)"/>
       </defs>
       <use xlink:href="#CMUSerif-Roman-36"/>
      </g>
     </g>
    </g>
    <g id="text_17">
     <!-- Goodness of Fit $\varphi_\mathrm{lof}$ -->
     <g transform="translate(11.38024 115.103679)rotate(-90)scale(0.1 -0.1)">
      <defs>
       <path d="M 1017 537 
Q 358 1216 358 2189 
Q 358 3162 1020 3837 
Q 1683 4512 2586 4512 
Q 2810 4512 3002 4461 
Q 3194 4410 3347 4307 
Q 3501 4205 3581 4137 
Q 3661 4070 3770 3962 
L 4090 4435 
Q 4141 4512 4192 4512 
Q 4243 4512 4252 4483 
Q 4262 4454 4262 4358 
L 4262 2842 
Q 4262 2739 4249 2713 
Q 4237 2688 4160 2688 
Q 4096 2688 4083 2707 
Q 4070 2726 4058 2797 
Q 3962 3488 3574 3901 
Q 3187 4314 2662 4314 
Q 2509 4314 2339 4278 
Q 2170 4243 1920 4112 
Q 1670 3981 1481 3766 
Q 1293 3552 1155 3142 
Q 1018 2733 1018 2189 
Q 1018 1651 1155 1238 
Q 1293 826 1485 611 
Q 1677 397 1929 262 
Q 2182 128 2361 93 
Q 2541 58 2701 58 
Q 2810 58 2938 80 
Q 3066 102 3258 172 
Q 3450 243 3571 412 
Q 3693 582 3693 832 
L 3693 1242 
Q 3693 1434 3600 1491 
Q 3507 1549 3098 1549 
L 2893 1549 
L 2893 1747 
Q 3123 1728 3923 1728 
Q 3994 1728 4704 1747 
L 4704 1549 
Q 4397 1549 4329 1504 
Q 4262 1459 4262 1267 
L 4262 154 
Q 4262 6 4205 6 
Q 4154 6 4006 150 
Q 3859 294 3795 403 
Q 3642 134 3309 -3 
Q 2976 -141 2598 -141 
Q 1677 -141 1017 537 
z
" id="CMUSerif-Roman-47" transform="scale(0.015625)"/>
       <path d="M 218 1376 
Q 218 1984 643 2406 
Q 1069 2829 1645 2829 
Q 2131 2829 2451 2432 
L 2451 3814 
Q 2451 4051 2368 4112 
Q 2285 4173 1952 4173 
L 1952 4371 
L 2874 4442 
L 2874 557 
Q 2874 320 2957 259 
Q 3040 198 3373 198 
L 3373 0 
L 2432 -70 
L 2432 352 
Q 2099 -70 1574 -70 
Q 1024 -70 621 352 
Q 218 774 218 1376 
z
M 749 1370 
Q 749 774 934 480 
Q 1190 70 1606 70 
Q 2080 70 2362 518 
Q 2432 627 2432 755 
L 2432 2067 
Q 2432 2195 2362 2304 
Q 2099 2688 1670 2688 
Q 1222 2688 947 2278 
Q 749 1971 749 1370 
z
" id="CMUSerif-Roman-64" transform="scale(0.015625)"/>
       <path d="M 205 0 
L 205 198 
Q 544 198 624 240 
Q 704 282 704 486 
L 704 2202 
Q 704 2438 621 2499 
Q 538 2560 205 2560 
L 205 2758 
L 1107 2829 
L 1107 2157 
Q 1408 2829 2054 2829 
Q 2534 2829 2726 2592 
Q 2867 2432 2896 2253 
Q 2925 2074 2925 1613 
L 2925 390 
Q 2931 256 3033 227 
Q 3136 198 3424 198 
L 3424 0 
Q 2771 19 2707 19 
Q 2656 19 1984 0 
L 1984 198 
Q 2323 198 2403 240 
Q 2483 282 2483 486 
L 2483 1978 
Q 2483 2304 2384 2496 
Q 2285 2688 2010 2688 
Q 1677 2688 1411 2409 
Q 1146 2131 1146 1664 
L 1146 486 
Q 1146 282 1226 240 
Q 1306 198 1645 198 
L 1645 0 
Q 992 19 928 19 
Q 877 19 205 0 
z
" id="CMUSerif-Roman-6e" transform="scale(0.015625)"/>
       <path d="M 179 1408 
Q 179 2010 566 2438 
Q 954 2867 1510 2867 
Q 2074 2867 2365 2502 
Q 2656 2138 2656 1613 
Q 2656 1517 2630 1497 
Q 2605 1478 2496 1478 
L 710 1478 
Q 710 826 902 518 
Q 1171 90 1626 90 
Q 1690 90 1763 102 
Q 1837 115 1990 169 
Q 2144 224 2278 371 
Q 2413 518 2490 749 
Q 2509 838 2573 838 
Q 2656 838 2656 762 
Q 2656 704 2595 579 
Q 2534 454 2419 304 
Q 2304 154 2080 42 
Q 1856 -70 1587 -70 
Q 1024 -70 601 355 
Q 179 781 179 1408 
z
M 717 1613 
L 2234 1613 
Q 2234 1747 2211 1897 
Q 2189 2048 2121 2256 
Q 2054 2464 1897 2595 
Q 1741 2726 1510 2726 
Q 1408 2726 1296 2681 
Q 1184 2637 1049 2531 
Q 915 2426 822 2186 
Q 730 1946 717 1613 
z
" id="CMUSerif-Roman-65" transform="scale(0.015625)"/>
       <path id="CMUSerif-Roman-20" transform="scale(0.015625)"/>
       <path d="M 211 0 
L 211 198 
L 365 198 
Q 710 198 790 256 
Q 870 314 870 499 
L 870 3853 
Q 870 4038 790 4096 
Q 710 4154 365 4154 
L 211 4154 
L 211 4352 
L 3725 4352 
L 3904 2912 
L 3744 2912 
Q 3699 3277 3641 3485 
Q 3584 3693 3453 3859 
Q 3322 4026 3101 4090 
Q 2880 4154 2522 4154 
L 1754 4154 
Q 1536 4154 1488 4109 
Q 1440 4064 1440 3898 
L 1440 2278 
L 1990 2278 
Q 2426 2278 2547 2435 
Q 2669 2592 2669 3027 
L 2829 3027 
L 2829 1331 
L 2669 1331 
Q 2669 1773 2547 1926 
Q 2426 2080 1990 2080 
L 1440 2080 
L 1440 506 
Q 1440 371 1462 320 
Q 1485 269 1619 233 
Q 1754 198 2048 198 
L 2259 198 
L 2259 0 
Q 2029 19 1184 19 
Q 435 19 211 0 
z
" id="CMUSerif-Roman-46" transform="scale(0.015625)"/>
       <path d="M 211 0 
L 211 198 
Q 550 198 630 240 
Q 710 282 710 486 
L 710 2208 
Q 710 2445 630 2502 
Q 550 2560 237 2560 
L 237 2758 
L 1133 2829 
L 1133 480 
Q 1133 288 1200 243 
Q 1267 198 1581 198 
L 1581 0 
Q 928 19 915 19 
Q 826 19 211 0 
z
M 480 3942 
Q 480 4070 579 4176 
Q 678 4282 819 4282 
Q 960 4282 1059 4186 
Q 1158 4090 1158 3942 
Q 1158 3795 1059 3699 
Q 960 3603 819 3603 
Q 672 3603 576 3705 
Q 480 3808 480 3942 
z
" id="CMUSerif-Roman-69" transform="scale(0.015625)"/>
       <path d="M 1044 -1216 
Q 1044 -1191 1056 -1141 
L 1416 -13 
Q 938 106 628 428 
Q 319 750 319 1216 
Q 319 1450 406 1744 
Q 494 2038 631 2302 
Q 769 2566 928 2741 
Q 966 2759 972 2759 
L 1050 2759 
Q 1069 2759 1084 2740 
Q 1100 2722 1100 2700 
Q 1100 2675 1088 2663 
Q 981 2547 879 2380 
Q 778 2213 698 2028 
Q 619 1844 566 1641 
Q 513 1438 513 1288 
Q 513 909 814 676 
Q 1116 444 1528 366 
L 1709 941 
Q 1828 1313 1945 1605 
Q 2063 1897 2239 2176 
Q 2416 2456 2666 2642 
Q 2916 2828 3225 2828 
Q 3469 2828 3633 2706 
Q 3797 2584 3876 2381 
Q 3956 2178 3956 1947 
Q 3956 1566 3787 1202 
Q 3619 838 3325 548 
Q 3031 259 2662 93 
Q 2294 -72 1919 -72 
Q 1869 -69 1811 -66 
Q 1753 -63 1716 -63 
L 1503 -1178 
Q 1484 -1272 1407 -1333 
Q 1331 -1394 1234 -1394 
Q 1156 -1394 1100 -1345 
Q 1044 -1297 1044 -1216 
z
M 1784 331 
Q 1856 325 1991 325 
Q 2388 325 2798 520 
Q 3209 716 3479 1056 
Q 3750 1397 3750 1797 
Q 3750 1978 3676 2122 
Q 3603 2266 3470 2348 
Q 3338 2431 3163 2431 
Q 2666 2431 2331 1950 
Q 1997 1469 1894 916 
L 1784 331 
z
" id="Cmmi10-27" transform="scale(0.015625)"/>
       <path d="M 197 0 
L 197 225 
Q 416 225 556 259 
Q 697 294 697 428 
L 697 3788 
Q 697 3959 645 4036 
Q 594 4113 497 4130 
Q 400 4147 197 4147 
L 197 4372 
L 1147 4441 
L 1147 428 
Q 1147 294 1287 259 
Q 1428 225 1644 225 
L 1644 0 
L 197 0 
z
" id="Cmr10-6c" transform="scale(0.015625)"/>
       <path d="M 1600 -72 
Q 1216 -72 887 123 
Q 559 319 368 647 
Q 178 975 178 1363 
Q 178 1656 283 1928 
Q 388 2200 583 2414 
Q 778 2628 1037 2748 
Q 1297 2869 1600 2869 
Q 1994 2869 2317 2661 
Q 2641 2453 2828 2104 
Q 3016 1756 3016 1363 
Q 3016 978 2825 648 
Q 2634 319 2307 123 
Q 1981 -72 1600 -72 
z
M 1600 116 
Q 2113 116 2284 487 
Q 2456 859 2456 1434 
Q 2456 1756 2422 1967 
Q 2388 2178 2272 2350 
Q 2200 2456 2089 2536 
Q 1978 2616 1854 2658 
Q 1731 2700 1600 2700 
Q 1400 2700 1220 2609 
Q 1041 2519 922 2350 
Q 803 2169 770 1951 
Q 738 1734 738 1434 
Q 738 1075 800 789 
Q 863 503 1052 309 
Q 1241 116 1600 116 
z
" id="Cmr10-6f" transform="scale(0.015625)"/>
       <path d="M 206 0 
L 206 225 
Q 422 225 562 259 
Q 703 294 703 428 
L 703 2534 
L 213 2534 
L 213 2759 
L 703 2759 
L 703 3525 
Q 703 3731 789 3911 
Q 875 4091 1020 4225 
Q 1166 4359 1355 4436 
Q 1544 4513 1747 4513 
Q 1963 4513 2136 4384 
Q 2309 4256 2309 4044 
Q 2309 3922 2226 3839 
Q 2144 3756 2022 3756 
Q 1900 3756 1814 3839 
Q 1728 3922 1728 4044 
Q 1728 4244 1900 4313 
Q 1797 4347 1716 4347 
Q 1528 4347 1395 4214 
Q 1263 4081 1197 3890 
Q 1131 3700 1131 3513 
L 1131 2759 
L 1869 2759 
L 1869 2534 
L 1153 2534 
L 1153 428 
Q 1153 297 1340 261 
Q 1528 225 1772 225 
L 1772 0 
L 206 0 
z
" id="Cmr10-66" transform="scale(0.015625)"/>
      </defs>
      <use transform="translate(0 0.5)" xlink:href="#CMUSerif-Roman-47"/>
      <use transform="translate(78.399994 0.5)" xlink:href="#CMUSerif-Roman-6f"/>
      <use transform="translate(128.399979 0.5)" xlink:href="#CMUSerif-Roman-6f"/>
      <use transform="translate(178.399963 0.5)" xlink:href="#CMUSerif-Roman-64"/>
      <use transform="translate(233.899948 0.5)" xlink:href="#CMUSerif-Roman-6e"/>
      <use transform="translate(289.399933 0.5)" xlink:href="#CMUSerif-Roman-65"/>
      <use transform="translate(333.799927 0.5)" xlink:href="#CMUSerif-Roman-73"/>
      <use transform="translate(373.199921 0.5)" xlink:href="#CMUSerif-Roman-73"/>
      <use transform="translate(412.599915 0.5)" xlink:href="#CMUSerif-Roman-20"/>
      <use transform="translate(445.899902 0.5)" xlink:href="#CMUSerif-Roman-6f"/>
      <use transform="translate(495.899887 0.5)" xlink:href="#CMUSerif-Roman-66"/>
      <use transform="translate(526.399872 0.5)" xlink:href="#CMUSerif-Roman-20"/>
      <use transform="translate(559.69986 0.5)" xlink:href="#CMUSerif-Roman-46"/>
      <use transform="translate(624.899857 0.5)" xlink:href="#CMUSerif-Roman-69"/>
      <use transform="translate(652.599854 0.5)" xlink:href="#CMUSerif-Roman-74"/>
      <use transform="translate(691.399841 0.5)" xlink:href="#CMUSerif-Roman-20"/>
      <use transform="translate(724.699829 0.5)" xlink:href="#Cmmi10-27"/>
      <use transform="translate(790.080688 -16.50625)scale(0.7)" xlink:href="#Cmr10-6c"/>
      <use transform="translate(809.460571 -16.50625)scale(0.7)" xlink:href="#Cmr10-6f"/>
      <use transform="translate(844.460571 -16.50625)scale(0.7)" xlink:href="#Cmr10-66"/>
     </g>
    </g>
    <g id="text_18">
     <!-- 1e−4 -->
     <g transform="translate(23.58024 8.61774)scale(0.08 -0.08)">
      <defs>
       <path d="M 365 1594 
Q 365 1670 493 1670 
L 4416 1670 
Q 4422 1670 4451 1670 
Q 4480 1670 4489 1670 
Q 4499 1670 4521 1670 
Q 4544 1670 4553 1664 
Q 4563 1658 4576 1651 
Q 4589 1645 4595 1632 
Q 4602 1619 4602 1600 
Q 4602 1523 4435 1523 
L 4422 1523 
Q 4403 1523 4368 1526 
Q 4333 1530 4314 1530 
L 710 1530 
Q 685 1530 637 1526 
Q 589 1523 563 1523 
L 531 1523 
Q 365 1523 365 1594 
z
" id="CMUSerif-Roman-2212" transform="scale(0.015625)"/>
      </defs>
      <use xlink:href="#CMUSerif-Roman-31"/>
      <use x="49.999985" xlink:href="#CMUSerif-Roman-65"/>
      <use x="94.399979" xlink:href="#CMUSerif-Roman-2212"/>
      <use x="172.199966" xlink:href="#CMUSerif-Roman-34"/>
     </g>
    </g>
   </g>
   <g id="patch_30">
    <path d="M 23.58024 131.289617 
L 23.58024 11.61774 
" style="fill:none;stroke:#000000;stroke-linecap:square;stroke-linejoin:miter;stroke-width:0.75;"/>
   </g>
   <g id="patch_31">
    <path d="M 242.08056 131.289617 
L 242.08056 11.61774 
" style="fill:none;stroke:#000000;stroke-linecap:square;stroke-linejoin:miter;stroke-width:0.75;"/>
   </g>
   <g id="patch_32">
    <path d="M 23.58024 131.289617 
L 242.08056 131.289617 
" style="fill:none;stroke:#000000;stroke-linecap:square;stroke-linejoin:miter;stroke-width:0.75;"/>
   </g>
   <g id="patch_33">
    <path d="M 23.58024 11.61774 
L 242.08056 11.61774 
" style="fill:none;stroke:#000000;stroke-linecap:square;stroke-linejoin:miter;stroke-width:0.75;"/>
   </g>
   <g id="legend_1">
    <g id="patch_34">
     <path d="M 183.93716 24.94574 
L 200.59716 24.94574 
L 200.59716 19.11474 
L 183.93716 19.11474 
z
" style="fill:#b3cde3;stroke:#839cb1;stroke-linejoin:miter;"/>
    </g>
    <g id="text_19">
     <!-- MEM -->
     <g transform="translate(204.76216 24.94574)scale(0.0833 -0.0833)">
      <defs>
       <path d="M 237 0 
L 237 198 
Q 467 198 614 243 
Q 762 288 816 374 
Q 870 461 883 518 
Q 896 576 896 672 
L 896 3872 
Q 896 4058 816 4115 
Q 736 4173 390 4173 
L 237 4173 
L 237 4371 
L 1318 4371 
Q 1434 4371 1466 4352 
Q 1498 4333 1542 4230 
L 2931 646 
L 4333 4250 
Q 4365 4339 4393 4355 
Q 4422 4371 4544 4371 
L 5626 4371 
L 5626 4173 
L 5472 4173 
Q 5126 4173 5046 4115 
Q 4966 4058 4966 3872 
L 4966 499 
Q 4966 314 5046 256 
Q 5126 198 5472 198 
L 5626 198 
L 5626 0 
Q 5389 19 4710 19 
Q 4026 19 3789 0 
L 3789 198 
L 3942 198 
Q 4288 198 4368 256 
Q 4448 314 4448 499 
L 4448 4173 
L 4442 4173 
L 2867 122 
Q 2822 0 2752 0 
Q 2675 0 2624 141 
L 1082 4122 
L 1075 4122 
L 1075 672 
Q 1075 576 1088 518 
Q 1101 461 1155 374 
Q 1210 288 1357 243 
Q 1504 198 1734 198 
L 1734 0 
Q 1062 19 985 19 
Q 909 19 237 0 
z
" id="CMUSerif-Roman-4d" transform="scale(0.015625)"/>
       <path d="M 211 0 
L 211 198 
L 365 198 
Q 710 198 790 256 
Q 870 314 870 499 
L 870 3853 
Q 870 4038 790 4096 
Q 710 4154 365 4154 
L 211 4154 
L 211 4352 
L 3814 4352 
L 3994 2912 
L 3834 2912 
Q 3789 3277 3731 3488 
Q 3674 3699 3536 3862 
Q 3398 4026 3171 4090 
Q 2944 4154 2579 4154 
L 1754 4154 
Q 1536 4154 1488 4109 
Q 1440 4064 1440 3898 
L 1440 2362 
L 2016 2362 
Q 2458 2362 2582 2515 
Q 2707 2669 2707 3110 
L 2867 3110 
L 2867 1414 
L 2707 1414 
Q 2707 1850 2582 2006 
Q 2458 2163 2016 2163 
L 1440 2163 
L 1440 454 
Q 1440 288 1488 243 
Q 1536 198 1754 198 
L 2605 198 
Q 2880 198 3081 233 
Q 3283 269 3424 358 
Q 3565 448 3661 550 
Q 3757 653 3824 838 
Q 3891 1024 3929 1197 
Q 3968 1370 4013 1651 
L 4173 1651 
L 3904 0 
L 211 0 
z
" id="CMUSerif-Roman-45" transform="scale(0.015625)"/>
      </defs>
      <use xlink:href="#CMUSerif-Roman-4d"/>
      <use x="91.599991" xlink:href="#CMUSerif-Roman-45"/>
      <use x="159.599976" xlink:href="#CMUSerif-Roman-4d"/>
     </g>
    </g>
    <g id="patch_35">
     <path d="M 183.93716 34.475781 
L 200.59716 34.475781 
L 200.59716 28.644781 
L 183.93716 28.644781 
z
" style="fill:#ccebc5;stroke:#9bb994;stroke-linejoin:miter;"/>
    </g>
    <g id="text_20">
     <!-- FESOM -->
     <g transform="translate(204.76216 34.475781)scale(0.0833 -0.0833)">
      <defs>
       <path d="M 358 13 
L 358 1293 
Q 358 1363 361 1388 
Q 365 1414 384 1433 
Q 403 1453 442 1453 
Q 512 1453 518 1389 
Q 538 755 915 403 
Q 1286 58 1926 58 
Q 2310 58 2547 333 
Q 2784 608 2784 973 
Q 2784 1318 2586 1562 
Q 2502 1670 2396 1740 
Q 2291 1811 2227 1833 
Q 2163 1856 2042 1888 
Q 1248 2080 1197 2099 
Q 819 2227 588 2550 
Q 358 2874 358 3270 
Q 358 3782 720 4147 
Q 1082 4512 1606 4512 
Q 1869 4512 2089 4429 
Q 2310 4346 2400 4272 
Q 2490 4198 2630 4064 
L 2854 4429 
Q 2906 4512 2950 4512 
Q 3002 4512 3011 4483 
Q 3021 4454 3021 4358 
L 3021 3072 
Q 3021 3002 3017 2976 
Q 3014 2950 2995 2934 
Q 2976 2918 2938 2918 
Q 2874 2918 2861 2995 
Q 2682 4333 1613 4333 
Q 1248 4333 1008 4086 
Q 768 3840 768 3494 
Q 768 3213 944 2982 
Q 1120 2752 1414 2682 
L 2234 2483 
Q 2643 2387 2918 2025 
Q 3194 1664 3194 1190 
Q 3194 646 2838 252 
Q 2483 -141 1933 -141 
Q 1536 -141 1229 -9 
Q 922 122 755 307 
Q 627 96 544 -26 
L 525 -58 
Q 474 -141 429 -141 
Q 378 -141 368 -109 
Q 358 -77 358 13 
z
" id="CMUSerif-Roman-53" transform="scale(0.015625)"/>
       <path d="M 358 2170 
Q 358 3149 985 3830 
Q 1613 4512 2483 4512 
Q 3360 4512 3987 3827 
Q 4614 3142 4614 2170 
Q 4614 1203 3987 531 
Q 3360 -141 2483 -141 
Q 1619 -141 988 528 
Q 358 1197 358 2170 
z
M 1018 2259 
Q 1018 1664 1158 1209 
Q 1299 755 1526 508 
Q 1754 262 1997 144 
Q 2240 26 2490 26 
Q 2733 26 2973 141 
Q 3213 256 3440 499 
Q 3667 742 3811 1200 
Q 3955 1658 3955 2259 
Q 3955 2726 3856 3104 
Q 3757 3482 3600 3709 
Q 3443 3936 3241 4086 
Q 3040 4237 2851 4294 
Q 2662 4352 2483 4352 
Q 2259 4352 2025 4253 
Q 1792 4154 1555 3933 
Q 1318 3712 1168 3280 
Q 1018 2848 1018 2259 
z
" id="CMUSerif-Roman-4f" transform="scale(0.015625)"/>
      </defs>
      <use xlink:href="#CMUSerif-Roman-46"/>
      <use x="65.199997" xlink:href="#CMUSerif-Roman-45"/>
      <use x="133.199982" xlink:href="#CMUSerif-Roman-53"/>
      <use x="188.699966" xlink:href="#CMUSerif-Roman-4f"/>
      <use x="266.399948" xlink:href="#CMUSerif-Roman-4d"/>
     </g>
    </g>
    <g id="patch_36">
     <path d="M 183.93716 44.005821 
L 200.59716 44.005821 
L 200.59716 38.174821 
L 183.93716 38.174821 
z
" style="fill:#decbe4;stroke:#ac9ab2;stroke-linejoin:miter;"/>
    </g>
    <g id="text_21">
     <!-- DEAC -->
     <g transform="translate(204.76216 44.005821)scale(0.0833 -0.0833)">
      <defs>
       <path d="M 224 0 
L 224 198 
L 378 198 
Q 723 198 803 256 
Q 883 314 883 499 
L 883 3872 
Q 883 4058 803 4115 
Q 723 4173 378 4173 
L 224 4173 
L 224 4371 
L 2566 4371 
Q 3386 4371 3955 3718 
Q 4525 3066 4525 2150 
Q 4525 1254 3952 627 
Q 3379 0 2566 0 
L 224 0 
z
M 1434 454 
Q 1434 288 1482 243 
Q 1530 198 1747 198 
L 2394 198 
Q 2816 198 3101 371 
Q 3386 544 3533 742 
Q 3885 1222 3885 2150 
Q 3885 3123 3552 3578 
Q 3123 4173 2387 4173 
L 1747 4173 
Q 1530 4173 1482 4128 
Q 1434 4083 1434 3917 
L 1434 454 
z
" id="CMUSerif-Roman-44" transform="scale(0.015625)"/>
       <path d="M 205 0 
L 205 198 
Q 774 211 922 627 
L 2246 4454 
Q 2272 4531 2301 4556 
Q 2330 4582 2400 4582 
Q 2438 4582 2460 4576 
Q 2483 4570 2499 4547 
Q 2515 4525 2521 4512 
Q 2528 4499 2547 4454 
L 3930 454 
Q 3981 294 4083 246 
Q 4186 198 4474 198 
L 4589 198 
L 4589 0 
Q 4186 19 3750 19 
Q 3059 19 2829 0 
L 2829 198 
Q 3360 198 3360 390 
Q 3360 403 3341 480 
L 3002 1459 
L 1421 1459 
L 1126 621 
Q 1114 595 1114 525 
Q 1114 390 1238 294 
Q 1363 198 1594 198 
L 1594 0 
Q 979 19 858 19 
Q 646 19 205 0 
z
M 1491 1658 
L 2931 1658 
L 2208 3738 
L 1491 1658 
z
" id="CMUSerif-Roman-41" transform="scale(0.015625)"/>
       <path d="M 358 2189 
Q 358 3155 1017 3833 
Q 1677 4512 2586 4512 
Q 2867 4512 3116 4409 
Q 3366 4307 3481 4217 
Q 3597 4128 3763 3962 
L 4083 4435 
Q 4134 4512 4185 4512 
Q 4237 4512 4246 4483 
Q 4256 4454 4256 4358 
L 4256 2842 
Q 4256 2739 4243 2713 
Q 4230 2688 4154 2688 
Q 4090 2688 4077 2707 
Q 4064 2726 4051 2797 
Q 3955 3488 3571 3901 
Q 3187 4314 2656 4314 
Q 2502 4314 2332 4278 
Q 2163 4243 1916 4112 
Q 1670 3981 1481 3763 
Q 1293 3546 1155 3136 
Q 1018 2726 1018 2182 
Q 1018 1645 1155 1232 
Q 1293 819 1481 604 
Q 1670 390 1916 259 
Q 2163 128 2336 93 
Q 2509 58 2662 58 
Q 3213 58 3635 448 
Q 4058 838 4096 1498 
Q 4102 1530 4102 1542 
Q 4102 1555 4108 1571 
Q 4115 1587 4131 1593 
Q 4147 1600 4173 1600 
Q 4256 1600 4256 1491 
Q 4256 883 3789 371 
Q 3322 -141 2586 -141 
Q 1677 -141 1017 534 
Q 358 1210 358 2189 
z
" id="CMUSerif-Roman-43" transform="scale(0.015625)"/>
      </defs>
      <use xlink:href="#CMUSerif-Roman-44"/>
      <use x="76.299988" xlink:href="#CMUSerif-Roman-45"/>
      <use x="144.299973" xlink:href="#CMUSerif-Roman-41"/>
      <use x="219.299957" xlink:href="#CMUSerif-Roman-43"/>
     </g>
    </g>
   </g>
  </g>
 </g>
 <defs>
  <clipPath id="p335fbee6d4">
   <rect height="119.671877" width="218.50032" x="23.58024" y="11.61774"/>
  </clipPath>
 </defs>
</svg>
