<?xml version="1.0" encoding="utf-8" standalone="no"?>
<!DOCTYPE svg PUBLIC "-//W3C//DTD SVG 1.1//EN"
  "http://www.w3.org/Graphics/SVG/1.1/DTD/svg11.dtd">
<svg height="151.46856pt" version="1.1" viewBox="0 0 245.0808 151.46856" width="245.0808pt" xmlns="http://www.w3.org/2000/svg" xmlns:xlink="http://www.w3.org/1999/xlink">
 <metadata>
  <rdf:RDF xmlns:cc="http://creativecommons.org/ns#" xmlns:dc="http://purl.org/dc/elements/1.1/" xmlns:rdf="http://www.w3.org/1999/02/22-rdf-syntax-ns#">
   <cc:Work>
    <dc:type rdf:resource="http://purl.org/dc/dcmitype/StillImage"/>
    <dc:date>2022-01-10T22:58:24.954966</dc:date>
    <dc:format>image/svg+xml</dc:format>
    <dc:creator>
     <cc:Agent>
      <dc:title>Matplotlib v3.4.2, https://matplotlib.org/</dc:title>
     </cc:Agent>
    </dc:creator>
   </cc:Work>
  </rdf:RDF>
 </metadata>
 <defs>
  <style type="text/css">*{stroke-linecap:butt;stroke-linejoin:round;}</style>
 </defs>
 <g id="figure_1">
  <g id="patch_1">
   <path d="M 0 151.46856 
L 245.0808 151.46856 
L 245.0808 0 
L 0 0 
z
" style="fill:none;"/>
  </g>
  <g id="axes_1">
   <g id="patch_2">
    <path d="M 35.63124 124.52082 
L 242.08056 124.52082 
L 242.08056 5.80899 
L 35.63124 5.80899 
z
" style="fill:none;"/>
   </g>
   <g id="matplotlib.axis_1">
    <g id="xtick_1">
     <g id="line2d_1">
      <defs>
       <path d="M 0 0 
L 0 -4 
" id="m936214dd36" style="stroke:#000000;stroke-width:0.5;"/>
      </defs>
      <g>
       <use style="stroke:#000000;stroke-width:0.5;" x="35.63124" xlink:href="#m936214dd36" y="124.52082"/>
      </g>
     </g>
     <g id="text_1">
      <!-- 0 -->
      <g transform="translate(33.63124 134.07332)scale(0.08 -0.08)">
       <defs>
        <path d="M 250 2048 
Q 250 2989 486 3501 
Q 819 4262 1600 4262 
Q 1766 4262 1939 4217 
Q 2112 4173 2333 4000 
Q 2554 3827 2688 3546 
Q 2944 3002 2944 2048 
Q 2944 1114 2707 602 
Q 2362 -141 1594 -141 
Q 1306 -141 1014 6 
Q 723 154 538 506 
Q 250 1037 250 2048 
z
M 781 2125 
Q 781 1158 851 774 
Q 928 358 1142 179 
Q 1357 0 1594 0 
Q 1850 0 2064 192 
Q 2278 384 2342 800 
Q 2413 1210 2413 2125 
Q 2413 3014 2349 3373 
Q 2266 3789 2042 3955 
Q 1818 4122 1594 4122 
Q 1510 4122 1420 4096 
Q 1331 4070 1203 4000 
Q 1075 3930 976 3750 
Q 877 3571 832 3302 
Q 781 2957 781 2125 
z
" id="CMUSerif-Roman-30" transform="scale(0.015625)"/>
       </defs>
       <use xlink:href="#CMUSerif-Roman-30"/>
      </g>
     </g>
    </g>
    <g id="xtick_2">
     <g id="line2d_2">
      <g>
       <use style="stroke:#000000;stroke-width:0.5;" x="104.44768" xlink:href="#m936214dd36" y="124.52082"/>
      </g>
     </g>
     <g id="text_2">
      <!-- 16 -->
      <g transform="translate(100.44768 134.07332)scale(0.08 -0.08)">
       <defs>
        <path d="M 570 3654 
L 570 3853 
Q 1338 3853 1734 4262 
Q 1843 4262 1862 4236 
Q 1882 4211 1882 4096 
L 1882 506 
Q 1882 314 1974 256 
Q 2067 198 2477 198 
L 2682 198 
L 2682 0 
Q 2458 19 1645 19 
Q 832 19 608 0 
L 608 198 
L 813 198 
Q 1216 198 1312 256 
Q 1408 314 1408 506 
L 1408 3821 
Q 1075 3654 570 3654 
z
" id="CMUSerif-Roman-31" transform="scale(0.015625)"/>
        <path d="M 269 2022 
Q 269 3027 781 3644 
Q 1293 4262 1952 4262 
Q 2336 4262 2550 4067 
Q 2765 3872 2765 3571 
Q 2765 3405 2669 3334 
Q 2573 3264 2470 3264 
Q 2355 3264 2265 3341 
Q 2176 3418 2176 3558 
Q 2176 3846 2528 3846 
Q 2362 4102 1965 4102 
Q 1843 4102 1718 4067 
Q 1594 4032 1430 3913 
Q 1267 3795 1142 3606 
Q 1018 3418 931 3066 
Q 845 2714 845 2253 
L 845 2099 
Q 1107 2733 1644 2733 
Q 2182 2733 2553 2323 
Q 2925 1914 2925 1306 
Q 2925 685 2537 272 
Q 2150 -141 1606 -141 
Q 1363 -141 1142 -38 
Q 922 64 717 294 
Q 512 525 390 969 
Q 269 1414 269 2022 
z
M 858 1446 
Q 858 819 973 518 
Q 992 467 1033 400 
Q 1075 333 1148 243 
Q 1222 154 1344 96 
Q 1466 38 1606 38 
Q 2035 38 2240 454 
Q 2349 685 2349 1312 
Q 2349 1952 2234 2189 
Q 2035 2586 1638 2586 
Q 1370 2586 1184 2400 
Q 998 2214 928 1968 
Q 858 1722 858 1446 
z
" id="CMUSerif-Roman-36" transform="scale(0.015625)"/>
       </defs>
       <use xlink:href="#CMUSerif-Roman-31"/>
       <use x="49.999985" xlink:href="#CMUSerif-Roman-36"/>
      </g>
     </g>
    </g>
    <g id="xtick_3">
     <g id="line2d_3">
      <g>
       <use style="stroke:#000000;stroke-width:0.5;" x="173.26412" xlink:href="#m936214dd36" y="124.52082"/>
      </g>
     </g>
     <g id="text_3">
      <!-- 32 -->
      <g transform="translate(169.26412 134.07332)scale(0.08 -0.08)">
       <defs>
        <path d="M 269 864 
Q 269 1056 377 1145 
Q 486 1235 627 1235 
Q 774 1235 880 1139 
Q 986 1043 986 877 
Q 986 698 861 598 
Q 736 499 563 525 
Q 717 269 998 153 
Q 1280 38 1542 38 
Q 1818 38 2042 275 
Q 2266 512 2266 1094 
Q 2266 1587 2074 1872 
Q 1882 2157 1504 2157 
L 1222 2157 
Q 1126 2157 1097 2166 
Q 1069 2176 1069 2227 
Q 1069 2291 1165 2304 
Q 1261 2304 1414 2323 
Q 1786 2336 1984 2656 
Q 2163 2957 2163 3386 
Q 2163 3776 1977 3939 
Q 1792 4102 1549 4102 
Q 1325 4102 1078 4009 
Q 832 3917 698 3706 
Q 1094 3706 1094 3386 
Q 1094 3245 1004 3152 
Q 915 3059 768 3059 
Q 627 3059 534 3148 
Q 442 3238 442 3392 
Q 442 3757 768 4009 
Q 1094 4262 1574 4262 
Q 2048 4262 2400 4012 
Q 2752 3763 2752 3379 
Q 2752 3002 2502 2691 
Q 2253 2381 1856 2253 
Q 2342 2157 2633 1827 
Q 2925 1498 2925 1094 
Q 2925 595 2531 227 
Q 2138 -141 1562 -141 
Q 1030 -141 649 147 
Q 269 435 269 864 
z
" id="CMUSerif-Roman-33" transform="scale(0.015625)"/>
        <path d="M 320 0 
Q 320 115 329 150 
Q 339 186 390 237 
L 1619 1606 
Q 2291 2362 2291 3021 
Q 2291 3450 2067 3757 
Q 1843 4064 1434 4064 
Q 1152 4064 915 3891 
Q 678 3718 570 3411 
Q 589 3418 653 3418 
Q 813 3418 902 3318 
Q 992 3219 992 3085 
Q 992 2912 880 2829 
Q 768 2746 659 2746 
Q 614 2746 556 2755 
Q 499 2765 409 2854 
Q 320 2944 320 3104 
Q 320 3552 659 3907 
Q 998 4262 1517 4262 
Q 2106 4262 2490 3913 
Q 2874 3565 2874 3021 
Q 2874 2829 2816 2656 
Q 2758 2483 2681 2348 
Q 2605 2214 2400 2000 
Q 2195 1786 2028 1632 
Q 1862 1478 1491 1152 
L 813 493 
L 1965 493 
Q 2528 493 2573 544 
Q 2637 634 2714 1114 
L 2874 1114 
L 2694 0 
L 320 0 
z
" id="CMUSerif-Roman-32" transform="scale(0.015625)"/>
       </defs>
       <use xlink:href="#CMUSerif-Roman-33"/>
       <use x="49.999985" xlink:href="#CMUSerif-Roman-32"/>
      </g>
     </g>
    </g>
    <g id="text_4">
     <!-- Frequency $\omega\ \mathrm{[K]}$ -->
     <g transform="translate(103.2559 145.12582)scale(0.1 -0.1)">
      <defs>
       <path d="M 211 0 
L 211 198 
L 365 198 
Q 710 198 790 256 
Q 870 314 870 499 
L 870 3853 
Q 870 4038 790 4096 
Q 710 4154 365 4154 
L 211 4154 
L 211 4352 
L 3725 4352 
L 3904 2912 
L 3744 2912 
Q 3699 3277 3641 3485 
Q 3584 3693 3453 3859 
Q 3322 4026 3101 4090 
Q 2880 4154 2522 4154 
L 1754 4154 
Q 1536 4154 1488 4109 
Q 1440 4064 1440 3898 
L 1440 2278 
L 1990 2278 
Q 2426 2278 2547 2435 
Q 2669 2592 2669 3027 
L 2829 3027 
L 2829 1331 
L 2669 1331 
Q 2669 1773 2547 1926 
Q 2426 2080 1990 2080 
L 1440 2080 
L 1440 506 
Q 1440 371 1462 320 
Q 1485 269 1619 233 
Q 1754 198 2048 198 
L 2259 198 
L 2259 0 
Q 2029 19 1184 19 
Q 435 19 211 0 
z
" id="CMUSerif-Roman-46" transform="scale(0.015625)"/>
       <path d="M 179 0 
L 179 198 
Q 518 198 598 240 
Q 678 282 678 486 
L 678 2202 
Q 678 2438 595 2499 
Q 512 2560 179 2560 
L 179 2758 
L 1069 2829 
L 1069 2125 
Q 1158 2400 1350 2614 
Q 1542 2829 1856 2829 
Q 2061 2829 2195 2713 
Q 2330 2598 2330 2438 
Q 2330 2298 2243 2227 
Q 2157 2157 2054 2157 
Q 1939 2157 1859 2230 
Q 1779 2304 1779 2432 
Q 1779 2509 1814 2569 
Q 1850 2630 1878 2652 
Q 1907 2675 1926 2682 
Q 1914 2688 1856 2688 
Q 1504 2688 1302 2336 
Q 1101 1984 1101 1485 
L 1101 499 
Q 1101 314 1177 256 
Q 1254 198 1587 198 
L 1722 198 
L 1722 0 
Q 1466 19 909 19 
Q 832 19 710 16 
Q 589 13 429 6 
Q 269 0 179 0 
z
" id="CMUSerif-Roman-72" transform="scale(0.015625)"/>
       <path d="M 179 1408 
Q 179 2010 566 2438 
Q 954 2867 1510 2867 
Q 2074 2867 2365 2502 
Q 2656 2138 2656 1613 
Q 2656 1517 2630 1497 
Q 2605 1478 2496 1478 
L 710 1478 
Q 710 826 902 518 
Q 1171 90 1626 90 
Q 1690 90 1763 102 
Q 1837 115 1990 169 
Q 2144 224 2278 371 
Q 2413 518 2490 749 
Q 2509 838 2573 838 
Q 2656 838 2656 762 
Q 2656 704 2595 579 
Q 2534 454 2419 304 
Q 2304 154 2080 42 
Q 1856 -70 1587 -70 
Q 1024 -70 601 355 
Q 179 781 179 1408 
z
M 717 1613 
L 2234 1613 
Q 2234 1747 2211 1897 
Q 2189 2048 2121 2256 
Q 2054 2464 1897 2595 
Q 1741 2726 1510 2726 
Q 1408 2726 1296 2681 
Q 1184 2637 1049 2531 
Q 915 2426 822 2186 
Q 730 1946 717 1613 
z
" id="CMUSerif-Roman-65" transform="scale(0.015625)"/>
       <path d="M 218 1376 
Q 218 1990 640 2409 
Q 1062 2829 1632 2829 
Q 1869 2829 2064 2713 
Q 2259 2598 2345 2483 
Q 2432 2368 2490 2246 
L 2733 2829 
L 2874 2829 
L 2874 -755 
Q 2874 -960 2954 -1001 
Q 3034 -1043 3373 -1043 
L 3373 -1242 
Q 2701 -1222 2650 -1222 
Q 2586 -1222 1933 -1242 
L 1933 -1043 
Q 2272 -1043 2352 -1001 
Q 2432 -960 2432 -755 
L 2432 390 
Q 2080 -70 1581 -70 
Q 1024 -70 621 355 
Q 218 781 218 1376 
z
M 749 1376 
Q 749 826 1001 448 
Q 1254 70 1606 70 
Q 1952 70 2195 333 
Q 2451 614 2451 870 
L 2451 1773 
Q 2451 2074 2236 2371 
Q 2022 2669 1670 2669 
Q 1306 2669 1027 2301 
Q 749 1933 749 1376 
z
" id="CMUSerif-Roman-71" transform="scale(0.015625)"/>
       <path d="M 205 2560 
L 205 2758 
L 1146 2829 
L 1146 704 
Q 1146 550 1158 460 
Q 1171 371 1222 268 
Q 1274 166 1395 118 
Q 1517 70 1709 70 
Q 2054 70 2268 355 
Q 2483 640 2483 1062 
L 2483 2202 
Q 2483 2438 2400 2499 
Q 2317 2560 1984 2560 
L 1984 2758 
L 2925 2829 
L 2925 557 
Q 2925 320 3008 259 
Q 3091 198 3424 198 
L 3424 0 
L 2502 -70 
L 2502 506 
Q 2234 -70 1677 -70 
Q 1395 -70 1203 0 
Q 1011 70 915 160 
Q 819 250 768 422 
Q 717 595 710 700 
Q 704 806 704 1011 
L 704 1971 
Q 704 2406 640 2483 
Q 576 2560 205 2560 
z
" id="CMUSerif-Roman-75" transform="scale(0.015625)"/>
       <path d="M 205 0 
L 205 198 
Q 544 198 624 240 
Q 704 282 704 486 
L 704 2202 
Q 704 2438 621 2499 
Q 538 2560 205 2560 
L 205 2758 
L 1107 2829 
L 1107 2157 
Q 1408 2829 2054 2829 
Q 2534 2829 2726 2592 
Q 2867 2432 2896 2253 
Q 2925 2074 2925 1613 
L 2925 390 
Q 2931 256 3033 227 
Q 3136 198 3424 198 
L 3424 0 
Q 2771 19 2707 19 
Q 2656 19 1984 0 
L 1984 198 
Q 2323 198 2403 240 
Q 2483 282 2483 486 
L 2483 1978 
Q 2483 2304 2384 2496 
Q 2285 2688 2010 2688 
Q 1677 2688 1411 2409 
Q 1146 2131 1146 1664 
L 1146 486 
Q 1146 282 1226 240 
Q 1306 198 1645 198 
L 1645 0 
Q 992 19 928 19 
Q 877 19 205 0 
z
" id="CMUSerif-Roman-6e" transform="scale(0.015625)"/>
       <path d="M 624 352 
Q 218 774 218 1382 
Q 218 1990 618 2428 
Q 1018 2867 1606 2867 
Q 1997 2867 2291 2681 
Q 2586 2496 2586 2182 
Q 2586 2042 2502 1962 
Q 2419 1882 2291 1882 
Q 2157 1882 2077 1965 
Q 1997 2048 1997 2176 
Q 1997 2234 2016 2288 
Q 2035 2342 2105 2403 
Q 2176 2464 2298 2470 
Q 2067 2707 1613 2707 
Q 1286 2707 1017 2400 
Q 749 2093 749 1395 
Q 749 1030 838 761 
Q 928 493 1075 355 
Q 1222 218 1366 154 
Q 1510 90 1651 90 
Q 2278 90 2490 762 
Q 2509 826 2573 826 
Q 2656 826 2656 762 
Q 2656 730 2630 650 
Q 2605 570 2528 442 
Q 2451 314 2339 202 
Q 2227 90 2032 10 
Q 1837 -70 1594 -70 
Q 1030 -70 624 352 
z
" id="CMUSerif-Roman-63" transform="scale(0.015625)"/>
       <path d="M 122 -794 
Q 122 -659 202 -588 
Q 282 -518 390 -518 
Q 506 -518 582 -592 
Q 659 -666 659 -787 
Q 659 -1024 410 -1056 
Q 531 -1171 710 -1171 
Q 902 -1171 1056 -1030 
Q 1210 -890 1277 -755 
Q 1344 -621 1440 -378 
Q 1530 -186 1600 0 
L 640 2336 
Q 576 2490 480 2525 
Q 384 2560 122 2560 
L 122 2758 
Q 410 2739 742 2739 
Q 941 2739 1440 2758 
L 1440 2560 
Q 1082 2560 1082 2394 
Q 1082 2374 1120 2278 
L 1830 557 
L 2477 2131 
Q 2515 2221 2515 2285 
Q 2515 2547 2214 2560 
L 2214 2758 
Q 2637 2739 2771 2739 
Q 3034 2739 3251 2758 
L 3251 2560 
Q 2822 2560 2656 2150 
L 1530 -582 
Q 1222 -1312 710 -1312 
Q 467 -1312 294 -1161 
Q 122 -1011 122 -794 
z
" id="CMUSerif-Roman-79" transform="scale(0.015625)"/>
       <path id="CMUSerif-Roman-20" transform="scale(0.015625)"/>
       <path d="M 775 -72 
Q 413 -72 252 193 
Q 91 459 91 844 
Q 91 1097 136 1339 
Q 181 1581 273 1829 
Q 366 2078 484 2295 
Q 603 2513 750 2719 
Q 778 2759 825 2759 
Q 866 2759 891 2734 
Q 916 2709 916 2675 
Q 916 2641 897 2613 
Q 313 1809 313 1131 
Q 313 838 448 627 
Q 584 416 863 416 
Q 1103 416 1308 556 
Q 1513 697 1663 916 
Q 1663 1028 1702 1265 
Q 1741 1503 1823 1689 
Q 1906 1875 2022 1875 
Q 2169 1875 2169 1703 
Q 2169 1603 2126 1451 
Q 2084 1300 2032 1169 
Q 1981 1038 1906 872 
Q 1981 416 2363 416 
Q 2584 416 2807 544 
Q 3031 672 3203 880 
Q 3375 1088 3473 1328 
Q 3572 1569 3572 1784 
Q 3572 1978 3511 2086 
Q 3450 2194 3350 2312 
Q 3250 2431 3250 2503 
Q 3250 2628 3356 2731 
Q 3463 2834 3584 2834 
Q 3741 2834 3806 2692 
Q 3872 2550 3872 2369 
Q 3872 2075 3755 1628 
Q 3638 1181 3488 884 
Q 3281 481 2970 204 
Q 2659 -72 2272 -72 
Q 2025 -72 1873 76 
Q 1722 225 1678 481 
Q 1500 228 1272 78 
Q 1044 -72 775 -72 
z
" id="Cmmi10-21" transform="scale(0.015625)"/>
       <path d="M 756 -1600 
L 756 4800 
L 1631 4800 
L 1631 4544 
L 1013 4544 
L 1013 -1344 
L 1631 -1344 
L 1631 -1600 
L 756 -1600 
z
" id="Cmr10-5b" transform="scale(0.015625)"/>
       <path d="M 197 0 
L 197 225 
Q 856 225 856 428 
L 856 3944 
Q 856 4147 197 4147 
L 197 4372 
L 2113 4372 
L 2113 4147 
Q 1453 4147 1453 3944 
L 1453 1869 
L 3431 3769 
Q 3513 3856 3513 3944 
Q 3513 4044 3427 4095 
Q 3341 4147 3231 4147 
L 3231 4372 
L 4622 4372 
L 4622 4147 
Q 4097 4147 3700 3769 
L 2566 2681 
L 3969 603 
Q 4141 350 4270 287 
Q 4400 225 4709 225 
L 4709 0 
L 3034 0 
L 3034 225 
Q 3188 225 3292 256 
Q 3397 288 3397 403 
Q 3397 481 3316 603 
L 2169 2303 
L 1453 1613 
L 1453 428 
Q 1453 225 2113 225 
L 2113 0 
L 197 0 
z
" id="Cmr10-4b" transform="scale(0.015625)"/>
       <path d="M 141 -1600 
L 141 -1344 
L 763 -1344 
L 763 4544 
L 141 4544 
L 141 4800 
L 1019 4800 
L 1019 -1600 
L 141 -1600 
z
" id="Cmr10-5d" transform="scale(0.015625)"/>
      </defs>
      <use xlink:href="#CMUSerif-Roman-46"/>
      <use transform="translate(65.199997 0)" xlink:href="#CMUSerif-Roman-72"/>
      <use transform="translate(104.299988 0)" xlink:href="#CMUSerif-Roman-65"/>
      <use transform="translate(148.699982 0)" xlink:href="#CMUSerif-Roman-71"/>
      <use transform="translate(201.399979 0)" xlink:href="#CMUSerif-Roman-75"/>
      <use transform="translate(256.899963 0)" xlink:href="#CMUSerif-Roman-65"/>
      <use transform="translate(301.299957 0)" xlink:href="#CMUSerif-Roman-6e"/>
      <use transform="translate(356.799942 0)" xlink:href="#CMUSerif-Roman-63"/>
      <use transform="translate(401.199936 0)" xlink:href="#CMUSerif-Roman-79"/>
      <use transform="translate(453.899933 0)" xlink:href="#CMUSerif-Roman-20"/>
      <use transform="translate(487.199921 0)" xlink:href="#Cmmi10-21"/>
      <use transform="translate(578.670982 0)" xlink:href="#Cmr10-5b"/>
      <use transform="translate(606.356529 0)" xlink:href="#Cmr10-4b"/>
      <use transform="translate(684.042076 0)" xlink:href="#Cmr10-5d"/>
     </g>
    </g>
   </g>
   <g id="matplotlib.axis_2">
    <g id="ytick_1">
     <g id="line2d_4">
      <defs>
       <path d="M 0 0 
L 4 0 
" id="m09b98e5dd6" style="stroke:#000000;stroke-width:0.5;"/>
      </defs>
      <g>
       <use style="stroke:#000000;stroke-width:0.5;" x="35.63124" xlink:href="#m09b98e5dd6" y="124.52082"/>
      </g>
     </g>
     <g id="text_5">
      <!-- 0.00 -->
      <g transform="translate(17.40749 127.29707)scale(0.08 -0.08)">
       <defs>
        <path d="M 640 102 
Q 544 205 544 339 
Q 544 474 640 573 
Q 736 672 883 672 
Q 1024 672 1120 579 
Q 1216 486 1216 339 
Q 1216 192 1113 96 
Q 1011 0 883 0 
Q 736 0 640 102 
z
" id="CMUSerif-Roman-2e" transform="scale(0.015625)"/>
       </defs>
       <use xlink:href="#CMUSerif-Roman-30"/>
       <use x="49.999985" xlink:href="#CMUSerif-Roman-2e"/>
       <use x="77.799973" xlink:href="#CMUSerif-Roman-30"/>
       <use x="127.799957" xlink:href="#CMUSerif-Roman-30"/>
      </g>
     </g>
    </g>
    <g id="ytick_2">
     <g id="line2d_5">
      <g>
       <use style="stroke:#000000;stroke-width:0.5;" x="35.63124" xlink:href="#m09b98e5dd6" y="104.735515"/>
      </g>
     </g>
     <g id="text_6">
      <!-- 0.02 -->
      <g transform="translate(17.40749 107.511765)scale(0.08 -0.08)">
       <use xlink:href="#CMUSerif-Roman-30"/>
       <use x="49.999985" xlink:href="#CMUSerif-Roman-2e"/>
       <use x="77.799973" xlink:href="#CMUSerif-Roman-30"/>
       <use x="127.799957" xlink:href="#CMUSerif-Roman-32"/>
      </g>
     </g>
    </g>
    <g id="ytick_3">
     <g id="line2d_6">
      <g>
       <use style="stroke:#000000;stroke-width:0.5;" x="35.63124" xlink:href="#m09b98e5dd6" y="84.95021"/>
      </g>
     </g>
     <g id="text_7">
      <!-- 0.04 -->
      <g transform="translate(17.40749 87.72646)scale(0.08 -0.08)">
       <defs>
        <path d="M 179 1056 
L 179 1254 
L 2144 4256 
Q 2195 4333 2272 4333 
Q 2342 4333 2358 4304 
Q 2374 4275 2374 4166 
L 2374 1254 
L 3014 1254 
L 3014 1056 
L 2374 1056 
L 2374 499 
Q 2374 314 2451 256 
Q 2528 198 2861 198 
L 2995 198 
L 2995 0 
Q 2733 19 2125 19 
Q 1523 19 1261 0 
L 1261 198 
L 1395 198 
Q 1728 198 1805 256 
Q 1882 314 1882 499 
L 1882 1056 
L 179 1056 
z
M 358 1254 
L 1920 1254 
L 1920 3642 
L 358 1254 
z
" id="CMUSerif-Roman-34" transform="scale(0.015625)"/>
       </defs>
       <use xlink:href="#CMUSerif-Roman-30"/>
       <use x="49.999985" xlink:href="#CMUSerif-Roman-2e"/>
       <use x="77.799973" xlink:href="#CMUSerif-Roman-30"/>
       <use x="127.799957" xlink:href="#CMUSerif-Roman-34"/>
      </g>
     </g>
    </g>
    <g id="ytick_4">
     <g id="line2d_7">
      <g>
       <use style="stroke:#000000;stroke-width:0.5;" x="35.63124" xlink:href="#m09b98e5dd6" y="65.164905"/>
      </g>
     </g>
     <g id="text_8">
      <!-- 0.06 -->
      <g transform="translate(17.40749 67.941155)scale(0.08 -0.08)">
       <use xlink:href="#CMUSerif-Roman-30"/>
       <use x="49.999985" xlink:href="#CMUSerif-Roman-2e"/>
       <use x="77.799973" xlink:href="#CMUSerif-Roman-30"/>
       <use x="127.799957" xlink:href="#CMUSerif-Roman-36"/>
      </g>
     </g>
    </g>
    <g id="ytick_5">
     <g id="line2d_8">
      <g>
       <use style="stroke:#000000;stroke-width:0.5;" x="35.63124" xlink:href="#m09b98e5dd6" y="45.3796"/>
      </g>
     </g>
     <g id="text_9">
      <!-- 0.08 -->
      <g transform="translate(17.40749 48.15585)scale(0.08 -0.08)">
       <defs>
        <path d="M 269 966 
Q 269 1683 1190 2144 
Q 794 2413 723 2490 
Q 442 2803 442 3194 
Q 442 3642 781 3952 
Q 1120 4262 1600 4262 
Q 2061 4262 2406 3996 
Q 2752 3731 2752 3309 
Q 2752 2714 1978 2317 
Q 2490 1997 2611 1862 
Q 2925 1517 2925 1075 
Q 2925 563 2531 211 
Q 2138 -141 1594 -141 
Q 1062 -141 665 169 
Q 269 480 269 966 
z
M 589 966 
Q 589 570 886 304 
Q 1184 38 1600 38 
Q 2003 38 2304 268 
Q 2605 499 2605 845 
Q 2605 979 2560 1094 
Q 2515 1210 2425 1302 
Q 2336 1395 2281 1436 
Q 2227 1478 2125 1549 
L 1338 2048 
Q 589 1632 589 966 
z
M 723 3443 
Q 723 3136 1043 2925 
L 1837 2413 
Q 2470 2784 2470 3309 
Q 2470 3648 2211 3875 
Q 1952 4102 1594 4102 
Q 1242 4102 982 3916 
Q 723 3731 723 3443 
z
" id="CMUSerif-Roman-38" transform="scale(0.015625)"/>
       </defs>
       <use xlink:href="#CMUSerif-Roman-30"/>
       <use x="49.999985" xlink:href="#CMUSerif-Roman-2e"/>
       <use x="77.799973" xlink:href="#CMUSerif-Roman-30"/>
       <use x="127.799957" xlink:href="#CMUSerif-Roman-38"/>
      </g>
     </g>
    </g>
    <g id="ytick_6">
     <g id="line2d_9">
      <g>
       <use style="stroke:#000000;stroke-width:0.5;" x="35.63124" xlink:href="#m09b98e5dd6" y="25.594295"/>
      </g>
     </g>
     <g id="text_10">
      <!-- 0.10 -->
      <g transform="translate(17.40749 28.370545)scale(0.08 -0.08)">
       <use xlink:href="#CMUSerif-Roman-30"/>
       <use x="49.999985" xlink:href="#CMUSerif-Roman-2e"/>
       <use x="77.799973" xlink:href="#CMUSerif-Roman-31"/>
       <use x="127.799957" xlink:href="#CMUSerif-Roman-30"/>
      </g>
     </g>
    </g>
    <g id="ytick_7">
     <g id="line2d_10">
      <g>
       <use style="stroke:#000000;stroke-width:0.5;" x="35.63124" xlink:href="#m09b98e5dd6" y="5.80899"/>
      </g>
     </g>
     <g id="text_11">
      <!-- 0.12 -->
      <g transform="translate(17.40749 8.58524)scale(0.08 -0.08)">
       <use xlink:href="#CMUSerif-Roman-30"/>
       <use x="49.999985" xlink:href="#CMUSerif-Roman-2e"/>
       <use x="77.799973" xlink:href="#CMUSerif-Roman-31"/>
       <use x="127.799957" xlink:href="#CMUSerif-Roman-32"/>
      </g>
     </g>
    </g>
    <g id="text_12">
     <!-- $S(\mathbf{q},\omega)\ \mathrm{[K^{-1}]}$ -->
     <g transform="translate(12.90749 93.264905)rotate(-90)scale(0.1 -0.1)">
      <defs>
       <path d="M 391 -141 
Q 372 -141 356 -119 
Q 341 -97 341 -78 
L 709 1416 
Q 722 1453 763 1453 
L 838 1453 
Q 863 1453 877 1434 
Q 891 1416 891 1388 
Q 838 1169 838 997 
Q 838 534 1156 309 
Q 1475 84 1959 84 
Q 2169 84 2372 187 
Q 2575 291 2726 456 
Q 2878 622 2968 826 
Q 3059 1031 3059 1241 
Q 3059 1466 2940 1642 
Q 2822 1819 2613 1869 
L 1831 2075 
Q 1516 2159 1328 2414 
Q 1141 2669 1141 2988 
Q 1141 3372 1369 3728 
Q 1597 4084 1964 4298 
Q 2331 4513 2713 4513 
Q 3006 4513 3251 4405 
Q 3497 4297 3628 4063 
L 3994 4494 
Q 4031 4513 4038 4513 
L 4078 4513 
Q 4103 4513 4118 4491 
Q 4134 4469 4134 4447 
L 3763 2963 
Q 3753 2919 3713 2919 
L 3634 2919 
Q 3578 2919 3578 2988 
Q 3609 3191 3609 3341 
Q 3609 3638 3507 3858 
Q 3406 4078 3201 4192 
Q 2997 4306 2694 4306 
Q 2438 4306 2184 4159 
Q 1931 4013 1775 3769 
Q 1619 3525 1619 3263 
Q 1619 3056 1739 2897 
Q 1859 2738 2059 2681 
L 2841 2478 
Q 3053 2422 3211 2280 
Q 3369 2138 3450 1942 
Q 3531 1747 3531 1516 
Q 3531 1213 3403 917 
Q 3275 622 3045 378 
Q 2816 134 2525 -3 
Q 2234 -141 1931 -141 
Q 1169 -141 838 306 
L 481 -122 
Q 444 -141 434 -141 
L 391 -141 
z
" id="Cmmi10-53" transform="scale(0.015625)"/>
       <path d="M 1984 -1588 
Q 1628 -1306 1370 -942 
Q 1113 -578 948 -165 
Q 784 247 703 697 
Q 622 1147 622 1600 
Q 622 2059 703 2509 
Q 784 2959 951 3375 
Q 1119 3791 1378 4153 
Q 1638 4516 1984 4788 
Q 1984 4800 2016 4800 
L 2075 4800 
Q 2094 4800 2109 4783 
Q 2125 4766 2125 4744 
Q 2125 4716 2113 4703 
Q 1800 4397 1592 4047 
Q 1384 3697 1257 3301 
Q 1131 2906 1075 2482 
Q 1019 2059 1019 1600 
Q 1019 -434 2106 -1491 
Q 2125 -1509 2125 -1544 
Q 2125 -1559 2108 -1579 
Q 2091 -1600 2075 -1600 
L 2016 -1600 
Q 1984 -1600 1984 -1588 
z
" id="Cmr10-28" transform="scale(0.015625)"/>
       <path d="M 1825 -1241 
L 1825 -916 
L 2266 -916 
L 2266 231 
Q 1938 -38 1544 -38 
Q 1131 -38 829 154 
Q 528 347 370 681 
Q 213 1016 213 1422 
Q 213 1831 380 2167 
Q 547 2503 864 2692 
Q 1181 2881 1600 2881 
Q 1838 2881 2053 2761 
Q 2269 2641 2406 2444 
L 2731 2881 
L 3022 2881 
L 3022 -916 
L 3463 -916 
L 3463 -1241 
L 1825 -1241 
z
M 1600 219 
Q 1834 219 2015 364 
Q 2197 509 2303 738 
L 2303 1972 
Q 2231 2234 2072 2415 
Q 1913 2597 1672 2597 
Q 1441 2597 1300 2397 
Q 1159 2197 1107 1926 
Q 1056 1656 1056 1422 
Q 1056 1013 1176 616 
Q 1297 219 1600 219 
z
" id="Cmb10-71" transform="scale(0.015625)"/>
       <path d="M 634 -1153 
Q 634 -1125 659 -1100 
Q 891 -878 1019 -587 
Q 1147 -297 1147 25 
L 1147 103 
Q 1044 0 891 0 
Q 744 0 641 103 
Q 538 206 538 353 
Q 538 503 641 603 
Q 744 703 891 703 
Q 1119 703 1216 492 
Q 1313 281 1313 25 
Q 1313 -331 1170 -651 
Q 1028 -972 769 -1228 
Q 744 -1241 728 -1241 
Q 697 -1241 665 -1212 
Q 634 -1184 634 -1153 
z
" id="Cmmi10-3b" transform="scale(0.015625)"/>
       <path d="M 416 -1600 
Q 359 -1600 359 -1544 
Q 359 -1516 372 -1503 
Q 1466 -434 1466 1600 
Q 1466 3634 384 4691 
Q 359 4706 359 4744 
Q 359 4766 376 4783 
Q 394 4800 416 4800 
L 475 4800 
Q 494 4800 506 4788 
Q 966 4425 1272 3906 
Q 1578 3388 1720 2800 
Q 1863 2213 1863 1600 
Q 1863 1147 1786 708 
Q 1709 269 1542 -157 
Q 1375 -584 1119 -945 
Q 863 -1306 506 -1588 
Q 494 -1600 475 -1600 
L 416 -1600 
z
" id="Cmr10-29" transform="scale(0.015625)"/>
       <path d="M 653 1472 
Q 600 1472 565 1512 
Q 531 1553 531 1600 
Q 531 1647 565 1687 
Q 600 1728 653 1728 
L 4325 1728 
Q 4375 1728 4408 1687 
Q 4441 1647 4441 1600 
Q 4441 1553 4408 1512 
Q 4375 1472 4325 1472 
L 653 1472 
z
" id="Cmsy10-a1" transform="scale(0.015625)"/>
       <path d="M 594 0 
L 594 225 
Q 1394 225 1394 428 
L 1394 3788 
Q 1063 3628 556 3628 
L 556 3853 
Q 1341 3853 1741 4263 
L 1831 4263 
Q 1853 4263 1873 4245 
Q 1894 4228 1894 4206 
L 1894 428 
Q 1894 225 2694 225 
L 2694 0 
L 594 0 
z
" id="Cmr10-31" transform="scale(0.015625)"/>
      </defs>
      <use transform="translate(0 0.223438)" xlink:href="#Cmmi10-53"/>
      <use transform="translate(61.279297 0.223438)" xlink:href="#Cmr10-28"/>
      <use transform="translate(100.097656 0.223438)" xlink:href="#Cmb10-71"/>
      <use transform="translate(152.783203 0.223438)" xlink:href="#Cmmi10-3b"/>
      <use transform="translate(198.027344 0.223438)" xlink:href="#Cmmi10-21"/>
      <use transform="translate(260.234375 0.223438)" xlink:href="#Cmr10-29"/>
      <use transform="translate(328.316765 0.223438)" xlink:href="#Cmr10-5b"/>
      <use transform="translate(356.002312 0.223438)" xlink:href="#Cmr10-4b"/>
      <use transform="translate(438.255358 39.373438)scale(0.7)" xlink:href="#Cmsy10-a1"/>
      <use transform="translate(492.635241 39.373438)scale(0.7)" xlink:href="#Cmr10-31"/>
      <use transform="translate(534.160241 0.223438)" xlink:href="#Cmr10-5d"/>
     </g>
    </g>
   </g>
   <g id="line2d_11">
    <path clip-path="url(#pda91caa0ba)" d="M 35.63124 124.52082 
L 59.286891 124.52082 
L 61.437405 123.064089 
L 63.587919 122.473051 
L 65.738433 121.505797 
L 67.888946 119.989335 
L 70.03946 117.70653 
L 72.189974 114.421417 
L 74.340488 109.926071 
L 76.491001 104.102834 
L 78.641515 96.98475 
L 80.792029 88.791486 
L 87.24357 62.318353 
L 89.394084 54.682759 
L 91.544598 48.408503 
L 93.695111 43.74269 
L 95.845625 40.765993 
L 97.996139 39.415093 
L 100.146653 39.521288 
L 102.297166 40.853389 
L 104.44768 43.156171 
L 106.598194 46.179787 
L 108.748708 49.698957 
L 113.049735 57.499222 
L 119.501276 69.328351 
L 123.802304 76.585918 
L 128.103331 83.156106 
L 132.404359 89.046707 
L 136.705386 94.319144 
L 141.006414 99.043153 
L 145.307441 103.275683 
L 149.608469 107.054587 
L 153.909496 110.400782 
L 158.210524 113.324612 
L 162.511551 115.833501 
L 166.812579 117.93877 
L 171.113606 119.660255 
L 175.414634 121.028116 
L 179.715661 122.081936 
L 184.016689 122.867798 
L 188.317716 123.434351 
L 194.769257 123.975183 
L 201.220799 124.265996 
L 211.973367 124.459975 
L 233.478505 124.52082 
L 246.0808 124.52082 
L 246.0808 124.52082 
" style="fill:none;stroke:#b3cde3;stroke-linecap:square;stroke-width:1.5;"/>
   </g>
   <g id="line2d_12">
    <path clip-path="url(#pda91caa0ba)" d="M 35.63124 124.434164 
L 37.781754 124.472208 
L 48.534323 124.398067 
L 49.609579 124.349134 
L 55.523492 124.164012 
L 56.061121 124.067712 
L 58.211634 124.121777 
L 61.437405 123.642105 
L 61.975033 123.328775 
L 63.05029 123.21604 
L 63.587919 123.41239 
L 64.125547 123.118172 
L 65.200804 122.951335 
L 65.738433 122.949726 
L 66.276061 122.674723 
L 66.813689 122.188601 
L 67.351318 122.109685 
L 68.426575 121.504406 
L 69.501832 120.381887 
L 70.03946 120.638778 
L 71.114717 119.795821 
L 71.652345 119.666872 
L 72.189974 119.313289 
L 72.727602 118.719761 
L 73.265231 115.928381 
L 73.802859 115.445681 
L 74.340488 114.469467 
L 74.878116 114.070507 
L 75.415744 108.987815 
L 75.953373 106.888719 
L 76.491001 106.689329 
L 77.02863 111.350751 
L 77.566258 111.82947 
L 78.103887 110.404682 
L 78.641515 107.320463 
L 79.716772 98.905148 
L 80.2544 89.165392 
L 80.792029 87.025007 
L 81.329657 84.157574 
L 81.867286 86.737863 
L 82.404914 85.474719 
L 82.942543 81.994186 
L 83.480171 81.763387 
L 84.555428 75.837649 
L 85.093056 64.765302 
L 85.630685 62.440659 
L 86.168313 58.129761 
L 86.705942 55.762902 
L 87.24357 57.346606 
L 87.781198 47.970199 
L 88.318827 43.906874 
L 88.856455 27.680245 
L 89.394084 27.430864 
L 89.931712 18.597485 
L 90.469341 21.587661 
L 91.006969 21.843292 
L 91.544598 26.682522 
L 92.082226 24.543451 
L 93.157483 36.723834 
L 93.695111 40.260093 
L 94.23274 24.227551 
L 94.770368 20.306705 
L 95.307997 12.87659 
L 95.845625 26.848992 
L 96.383253 30.460364 
L 96.920882 26.539267 
L 97.45851 28.141295 
L 97.996139 11.534485 
L 98.533767 28.158322 
L 99.071396 24.3794 
L 99.609024 48.380041 
L 100.146653 50.080397 
L 100.684281 53.560599 
L 101.221909 46.942523 
L 101.759538 42.452005 
L 102.297166 58.791492 
L 102.834795 50.275578 
L 103.372423 54.781652 
L 103.910052 34.883547 
L 104.44768 50.50016 
L 104.985308 47.97794 
L 105.522937 61.969322 
L 106.060565 57.325992 
L 106.598194 66.571366 
L 107.135822 66.698632 
L 107.673451 73.452876 
L 108.211079 67.436508 
L 108.748708 70.48973 
L 109.286336 62.164564 
L 109.823964 66.373041 
L 110.361593 61.302256 
L 110.899221 72.425304 
L 111.43685 71.780139 
L 111.974478 75.544803 
L 112.512107 75.977336 
L 113.049735 80.138609 
L 113.587363 75.002402 
L 114.124992 72.94098 
L 114.66262 63.059103 
L 115.200249 73.096166 
L 115.737877 73.572474 
L 116.275506 76.77334 
L 116.813134 67.228757 
L 117.350763 69.397742 
L 117.888391 71.080682 
L 118.426019 79.003408 
L 118.963648 79.961414 
L 119.501276 84.092941 
L 120.038905 86.62203 
L 120.576533 92.191436 
L 121.114162 88.087886 
L 121.65179 85.338638 
L 122.189418 79.463385 
L 122.727047 87.250301 
L 123.264675 81.618732 
L 123.802304 84.89008 
L 124.339932 81.189312 
L 124.877561 80.965346 
L 125.415189 73.284537 
L 125.952818 68.772951 
L 127.028074 80.351923 
L 127.565703 87.540107 
L 128.103331 91.685434 
L 128.64096 97.80476 
L 129.178588 94.126188 
L 129.716217 87.025253 
L 130.253845 83.732993 
L 130.791473 86.848902 
L 131.329102 83.644244 
L 131.86673 74.487794 
L 132.941987 77.244371 
L 133.479616 84.385147 
L 134.017244 79.112957 
L 134.554872 84.48654 
L 135.092501 75.606725 
L 135.630129 70.964002 
L 136.167758 68.85443 
L 136.705386 79.579145 
L 137.243015 79.628586 
L 137.780643 77.861425 
L 138.318272 78.142407 
L 138.8559 87.783559 
L 139.393528 90.160004 
L 139.931157 87.163238 
L 140.468785 89.432378 
L 141.006414 92.641981 
L 141.544042 92.559878 
L 142.081671 92.671387 
L 142.619299 91.113748 
L 143.156927 92.625306 
L 143.694556 92.096486 
L 144.232184 92.610319 
L 144.769813 99.30241 
L 145.307441 98.067504 
L 145.84507 101.685922 
L 146.382698 99.258753 
L 146.920327 101.654709 
L 147.457955 101.270444 
L 147.995583 100.59014 
L 148.533212 103.254107 
L 149.07084 106.519996 
L 149.608469 109.056147 
L 150.146097 107.217841 
L 150.683726 104.208769 
L 151.221354 104.336893 
L 151.758983 104.887708 
L 152.296611 107.753264 
L 152.834239 109.046016 
L 153.371868 111.646644 
L 153.909496 110.573959 
L 154.447125 111.025544 
L 154.984753 112.365481 
L 155.522382 115.986847 
L 156.597638 112.567215 
L 157.135267 109.641897 
L 157.672895 114.287069 
L 158.210524 114.586083 
L 158.748152 116.430438 
L 159.285781 113.750323 
L 159.823409 112.160797 
L 160.361038 112.270297 
L 160.898666 112.93025 
L 161.436294 116.189863 
L 162.511551 117.830422 
L 163.04918 118.183706 
L 163.586808 117.7456 
L 164.124437 118.375417 
L 164.662065 118.517361 
L 165.199693 119.381442 
L 165.737322 119.806592 
L 166.27495 119.61371 
L 166.812579 119.628691 
L 167.350207 120.806745 
L 167.887836 119.750577 
L 168.425464 120.401291 
L 168.963093 119.212241 
L 169.500721 120.569275 
L 170.038349 120.161319 
L 170.575978 121.085405 
L 171.113606 121.329338 
L 171.651235 122.702511 
L 172.188863 122.734621 
L 172.726492 121.797788 
L 173.26412 120.0767 
L 173.801748 119.786541 
L 174.339377 120.445051 
L 174.877005 121.374898 
L 175.414634 121.176836 
L 175.952262 121.302095 
L 176.489891 121.809246 
L 177.027519 121.928983 
L 177.565148 122.215935 
L 178.102776 122.276399 
L 178.640404 122.177158 
L 179.715661 122.402913 
L 180.25329 123.231682 
L 180.790918 122.895265 
L 181.866175 123.153064 
L 182.403803 123.900733 
L 182.941432 123.793285 
L 183.47906 124.09713 
L 184.016689 124.00687 
L 184.554317 123.770833 
L 185.091946 123.413241 
L 185.629574 123.515211 
L 186.167203 123.994941 
L 186.704831 124.249974 
L 187.780088 124.326789 
L 188.855345 124.120152 
L 189.392973 124.017923 
L 189.930602 124.301086 
L 190.46823 124.115332 
L 191.543487 123.452493 
L 192.081115 123.609811 
L 192.618744 124.102709 
L 193.156372 124.40523 
L 194.231629 124.443444 
L 194.769257 124.408367 
L 195.306886 124.029684 
L 196.382143 123.905555 
L 196.919771 124.343819 
L 197.4574 123.943801 
L 197.995028 124.095859 
L 198.532657 124.074194 
L 199.070285 124.490812 
L 199.607913 124.477767 
L 200.145542 124.11884 
L 201.220799 124.10198 
L 201.758427 124.47635 
L 204.446569 124.506683 
L 231.327991 124.520509 
L 246.0808 124.520816 
L 246.0808 124.520816 
" style="fill:none;stroke:#ccebc5;stroke-linecap:square;stroke-width:1.5;"/>
   </g>
   <g id="line2d_13">
    <path clip-path="url(#pda91caa0ba)" d="M 35.63124 124.476959 
L 44.233295 124.453076 
L 56.598749 124.23675 
L 60.362148 123.927406 
L 61.975033 123.604137 
L 63.05029 123.479675 
L 65.200804 123.155962 
L 65.738433 122.964039 
L 66.813689 122.25084 
L 67.888946 121.385091 
L 68.426575 121.055305 
L 68.964203 120.927802 
L 69.501832 120.655689 
L 70.577088 119.655204 
L 72.189974 118.679079 
L 72.727602 117.573142 
L 73.265231 116.027819 
L 73.802859 114.090048 
L 74.878116 111.558166 
L 75.415744 111.044514 
L 76.491001 108.620981 
L 77.02863 107.074941 
L 77.566258 106.381865 
L 78.103887 105.290414 
L 78.641515 102.606178 
L 79.179143 99.352236 
L 79.716772 97.117457 
L 80.2544 96.972889 
L 80.792029 95.434622 
L 81.329657 91.393853 
L 81.867286 85.526532 
L 82.942543 77.923484 
L 83.480171 74.158342 
L 84.017799 67.255908 
L 85.093056 57.453342 
L 85.630685 56.693175 
L 86.168313 54.936679 
L 86.705942 54.912618 
L 87.24357 52.166805 
L 87.781198 48.170536 
L 88.856455 37.273545 
L 89.931712 29.210699 
L 90.469341 28.566085 
L 91.006969 30.476673 
L 91.544598 33.862388 
L 92.082226 35.98742 
L 92.619854 35.302158 
L 93.157483 34.865239 
L 93.695111 33.554565 
L 94.23274 33.490197 
L 94.770368 31.171278 
L 95.307997 27.831073 
L 95.845625 25.285367 
L 96.383253 26.94317 
L 96.920882 32.592336 
L 97.996139 45.291657 
L 98.533767 45.901052 
L 99.071396 44.38786 
L 99.609024 40.300274 
L 100.684281 34.814627 
L 101.221909 33.392672 
L 101.759538 37.234606 
L 102.297166 38.750278 
L 102.834795 41.373658 
L 103.372423 41.126664 
L 103.910052 47.645672 
L 104.985308 65.372265 
L 105.522937 64.036495 
L 106.598194 56.835422 
L 107.135822 62.407729 
L 108.211079 69.720777 
L 108.748708 66.989018 
L 109.286336 64.863178 
L 109.823964 60.877825 
L 110.361593 62.38575 
L 110.899221 68.091145 
L 111.974478 82.104512 
L 112.512107 83.081421 
L 113.049735 85.560199 
L 113.587363 82.583617 
L 114.124992 83.552424 
L 114.66262 79.599967 
L 115.200249 79.304957 
L 115.737877 74.436022 
L 116.275506 73.739891 
L 116.813134 72.132511 
L 117.350763 73.85331 
L 117.888391 73.580128 
L 118.426019 71.781986 
L 118.963648 72.145135 
L 119.501276 73.046564 
L 120.038905 78.102716 
L 120.576533 77.968073 
L 121.114162 78.516036 
L 121.65179 74.720179 
L 122.727047 73.603458 
L 123.264675 78.23935 
L 123.802304 80.580969 
L 124.339932 82.364992 
L 124.877561 80.394726 
L 125.415189 80.319018 
L 127.028074 74.826689 
L 127.565703 73.680529 
L 128.103331 73.235054 
L 128.64096 73.425024 
L 129.178588 75.082996 
L 129.716217 77.213679 
L 130.253845 78.305846 
L 130.791473 77.314503 
L 131.329102 74.542204 
L 131.86673 72.602466 
L 132.404359 73.674696 
L 133.479616 80.695704 
L 134.017244 81.812404 
L 134.554872 80.728397 
L 135.092501 80.5773 
L 135.630129 80.771241 
L 136.167758 81.155499 
L 136.705386 82.700469 
L 137.243015 85.39646 
L 137.780643 89.519612 
L 138.318272 92.39439 
L 138.8559 92.175434 
L 139.931157 88.034294 
L 140.468785 88.532555 
L 141.544042 92.597288 
L 142.081671 94.418232 
L 143.156927 95.58543 
L 143.694556 95.060699 
L 144.769813 97.387205 
L 145.307441 99.753941 
L 145.84507 100.228004 
L 146.382698 101.596995 
L 146.920327 102.112838 
L 147.457955 103.64284 
L 147.995583 104.13481 
L 150.146097 108.746339 
L 151.221354 109.720476 
L 151.758983 109.255593 
L 152.296611 109.666882 
L 153.371868 111.106461 
L 153.909496 111.383427 
L 154.447125 111.858413 
L 155.522382 113.430982 
L 156.06001 113.661276 
L 156.597638 113.614077 
L 157.135267 113.859078 
L 159.285781 116.250876 
L 159.823409 116.400521 
L 161.973923 116.426405 
L 162.511551 116.818481 
L 163.586808 117.949082 
L 164.124437 118.246282 
L 165.199693 118.668818 
L 167.350207 120.069959 
L 168.425464 120.246939 
L 168.963093 120.438488 
L 170.038349 121.29637 
L 170.575978 121.504275 
L 173.801748 121.869296 
L 175.952262 122.394436 
L 177.565148 122.87106 
L 179.178033 123.070192 
L 184.016689 123.403452 
L 186.167203 123.666261 
L 193.156372 124.039993 
L 196.382143 124.090202 
L 199.607913 124.169251 
L 203.371312 124.232979 
L 246.0808 124.43473 
L 246.0808 124.43473 
" style="fill:none;stroke:#decbe4;stroke-linecap:square;stroke-width:1.5;"/>
   </g>
   <g id="line2d_14">
    <path clip-path="url(#pda91caa0ba)" d="M 35.63124 124.520452 
L 52.684142 124.407045 
L 56.951568 124.157209 
L 59.807719 123.776402 
L 62.042237 123.260638 
L 63.923937 122.602813 
L 65.587225 121.789307 
L 67.116105 120.795337 
L 68.560982 119.589622 
L 69.955456 118.133622 
L 71.333128 116.367518 
L 72.710801 114.231048 
L 74.105275 111.648147 
L 75.533351 108.524569 
L 77.02863 104.700689 
L 78.591112 100.078218 
L 80.271201 94.395209 
L 82.1361 87.274001 
L 84.337016 77.943219 
L 87.680393 62.649164 
L 91.057372 47.525552 
L 92.939071 40.091368 
L 94.43435 35.039594 
L 95.694417 31.520121 
L 96.786475 29.093781 
L 97.727325 27.508207 
L 98.550568 26.52431 
L 99.273006 25.980565 
L 99.928241 25.749869 
L 100.549874 25.763018 
L 101.171507 26.001457 
L 101.843542 26.510015 
L 102.582781 27.36447 
L 103.422826 28.698571 
L 104.380476 30.667196 
L 105.472534 33.450482 
L 106.749402 37.349882 
L 108.278283 42.774251 
L 110.294389 50.817827 
L 117.014745 78.315908 
L 118.745236 84.113553 
L 120.240515 88.38155 
L 121.584586 91.574562 
L 122.811051 93.938114 
L 123.936711 95.646255 
L 124.978366 96.844272 
L 125.969618 97.658441 
L 126.927269 98.161995 
L 127.868119 98.407148 
L 128.825769 98.427341 
L 129.850624 98.223983 
L 131.009885 97.758889 
L 132.404359 96.945317 
L 134.353262 95.524029 
L 138.116661 92.74888 
L 139.679144 91.902403 
L 141.006414 91.430504 
L 142.199277 91.235816 
L 143.341737 91.272271 
L 144.467397 91.531204 
L 145.626658 92.031612 
L 146.836322 92.801269 
L 148.146791 93.904535 
L 149.62527 95.45264 
L 151.33896 97.584743 
L 153.506275 100.659746 
L 158.076117 107.661459 
L 160.98267 111.854484 
L 163.217189 114.698515 
L 165.216494 116.893553 
L 167.114995 118.653828 
L 168.963093 120.069805 
L 170.827991 121.22182 
L 172.760093 122.154624 
L 174.826603 122.903105 
L 177.111524 123.489648 
L 179.749263 123.931127 
L 183.008635 124.241788 
L 187.528074 124.431859 
L 195.626103 124.512379 
L 240.669285 124.52082 
L 242.097361 124.52082 
L 242.097361 124.52082 
" style="fill:none;stroke:#000000;stroke-dasharray:1.5,2.475;stroke-dashoffset:0;stroke-width:1.5;"/>
   </g>
   <g id="line2d_15"/>
   <g id="line2d_16"/>
   <g id="line2d_17"/>
   <g id="line2d_18"/>
   <g id="patch_3">
    <path d="M 35.63124 124.52082 
L 35.63124 5.80899 
" style="fill:none;stroke:#000000;stroke-linecap:square;stroke-linejoin:miter;stroke-width:0.75;"/>
   </g>
   <g id="patch_4">
    <path d="M 242.08056 124.52082 
L 242.08056 5.80899 
" style="fill:none;stroke:#000000;stroke-linecap:square;stroke-linejoin:miter;stroke-width:0.75;"/>
   </g>
   <g id="patch_5">
    <path d="M 35.63124 124.52082 
L 242.08056 124.52082 
" style="fill:none;stroke:#000000;stroke-linecap:square;stroke-linejoin:miter;stroke-width:0.75;"/>
   </g>
   <g id="patch_6">
    <path d="M 35.63124 5.80899 
L 242.08056 5.80899 
" style="fill:none;stroke:#000000;stroke-linecap:square;stroke-linejoin:miter;stroke-width:0.75;"/>
   </g>
   <g id="text_13">
    <!-- tso medium -->
    <g transform="translate(180.637781 18.685206)scale(0.1 -0.1)">
     <defs>
      <path d="M 122 2560 
L 122 2701 
Q 416 2714 611 2922 
Q 806 3130 873 3386 
Q 941 3642 947 3936 
L 1107 3936 
L 1107 2758 
L 2022 2758 
L 2022 2560 
L 1107 2560 
L 1107 781 
Q 1107 90 1536 90 
Q 1722 90 1843 278 
Q 1965 467 1965 806 
L 1965 1158 
L 2125 1158 
L 2125 794 
Q 2125 448 1965 189 
Q 1805 -70 1491 -70 
Q 1376 -70 1261 -41 
Q 1146 -13 998 64 
Q 851 141 758 329 
Q 666 518 666 794 
L 666 2560 
L 122 2560 
z
" id="CMUSerif-Roman-74" transform="scale(0.015625)"/>
      <path d="M 211 83 
L 211 928 
Q 211 998 214 1024 
Q 218 1050 237 1069 
Q 256 1088 294 1088 
Q 339 1088 355 1069 
Q 371 1050 384 979 
Q 480 538 688 304 
Q 896 70 1274 70 
Q 1632 70 1814 230 
Q 1997 390 1997 653 
Q 1997 1120 1331 1242 
Q 947 1318 787 1369 
Q 627 1421 486 1536 
Q 211 1760 211 2080 
Q 211 2400 454 2633 
Q 698 2867 1235 2867 
Q 1594 2867 1837 2688 
Q 1907 2746 1946 2790 
Q 2029 2867 2074 2867 
Q 2125 2867 2134 2835 
Q 2144 2803 2144 2714 
L 2144 2067 
Q 2144 1997 2141 1971 
Q 2138 1946 2118 1930 
Q 2099 1914 2061 1914 
Q 1990 1914 1984 1971 
Q 1933 2746 1235 2746 
Q 858 2746 688 2602 
Q 518 2458 518 2259 
Q 518 2150 569 2067 
Q 621 1984 688 1936 
Q 755 1888 880 1843 
Q 1005 1798 1081 1782 
Q 1158 1766 1306 1734 
Q 1818 1638 2035 1427 
Q 2304 1158 2304 819 
Q 2304 442 2048 186 
Q 1792 -70 1274 -70 
Q 858 -70 570 205 
Q 531 166 502 134 
Q 474 102 464 89 
Q 454 77 451 70 
Q 448 64 442 58 
Q 314 -70 282 -70 
Q 230 -70 220 -38 
Q 211 -6 211 83 
z
" id="CMUSerif-Roman-73" transform="scale(0.015625)"/>
      <path d="M 601 346 
Q 179 762 179 1370 
Q 179 1978 592 2422 
Q 1005 2867 1600 2867 
Q 2182 2867 2598 2425 
Q 3014 1984 3014 1370 
Q 3014 768 2595 349 
Q 2176 -70 1594 -70 
Q 1024 -70 601 346 
z
M 710 1421 
Q 710 800 870 518 
Q 1120 90 1600 90 
Q 1837 90 2035 218 
Q 2234 346 2342 563 
Q 2483 845 2483 1421 
Q 2483 2035 2317 2310 
Q 2067 2726 1594 2726 
Q 1389 2726 1187 2617 
Q 986 2509 864 2298 
Q 710 2016 710 1421 
z
" id="CMUSerif-Roman-6f" transform="scale(0.015625)"/>
      <path d="M 205 0 
L 205 198 
Q 544 198 624 240 
Q 704 282 704 486 
L 704 2202 
Q 704 2438 621 2499 
Q 538 2560 205 2560 
L 205 2758 
L 1107 2829 
L 1107 2157 
Q 1408 2829 2054 2829 
Q 2803 2829 2906 2202 
Q 3014 2445 3244 2637 
Q 3475 2829 3834 2829 
Q 4314 2829 4506 2592 
Q 4646 2432 4675 2253 
Q 4704 2074 4704 1613 
L 4704 390 
Q 4710 256 4812 227 
Q 4915 198 5203 198 
L 5203 0 
Q 4550 19 4486 19 
Q 4435 19 3763 0 
L 3763 198 
Q 4102 198 4182 240 
Q 4262 282 4262 486 
L 4262 1978 
Q 4262 2304 4163 2496 
Q 4064 2688 3789 2688 
Q 3456 2688 3190 2409 
Q 2925 2131 2925 1664 
L 2925 486 
Q 2925 282 3005 240 
Q 3085 198 3424 198 
L 3424 0 
Q 2771 19 2707 19 
Q 2656 19 1984 0 
L 1984 198 
Q 2323 198 2403 240 
Q 2483 282 2483 486 
L 2483 1978 
Q 2483 2304 2384 2496 
Q 2285 2688 2010 2688 
Q 1677 2688 1411 2409 
Q 1146 2131 1146 1664 
L 1146 486 
Q 1146 282 1226 240 
Q 1306 198 1645 198 
L 1645 0 
Q 992 19 928 19 
Q 877 19 205 0 
z
" id="CMUSerif-Roman-6d" transform="scale(0.015625)"/>
      <path d="M 218 1376 
Q 218 1984 643 2406 
Q 1069 2829 1645 2829 
Q 2131 2829 2451 2432 
L 2451 3814 
Q 2451 4051 2368 4112 
Q 2285 4173 1952 4173 
L 1952 4371 
L 2874 4442 
L 2874 557 
Q 2874 320 2957 259 
Q 3040 198 3373 198 
L 3373 0 
L 2432 -70 
L 2432 352 
Q 2099 -70 1574 -70 
Q 1024 -70 621 352 
Q 218 774 218 1376 
z
M 749 1370 
Q 749 774 934 480 
Q 1190 70 1606 70 
Q 2080 70 2362 518 
Q 2432 627 2432 755 
L 2432 2067 
Q 2432 2195 2362 2304 
Q 2099 2688 1670 2688 
Q 1222 2688 947 2278 
Q 749 1971 749 1370 
z
" id="CMUSerif-Roman-64" transform="scale(0.015625)"/>
      <path d="M 211 0 
L 211 198 
Q 550 198 630 240 
Q 710 282 710 486 
L 710 2208 
Q 710 2445 630 2502 
Q 550 2560 237 2560 
L 237 2758 
L 1133 2829 
L 1133 480 
Q 1133 288 1200 243 
Q 1267 198 1581 198 
L 1581 0 
Q 928 19 915 19 
Q 826 19 211 0 
z
M 480 3942 
Q 480 4070 579 4176 
Q 678 4282 819 4282 
Q 960 4282 1059 4186 
Q 1158 4090 1158 3942 
Q 1158 3795 1059 3699 
Q 960 3603 819 3603 
Q 672 3603 576 3705 
Q 480 3808 480 3942 
z
" id="CMUSerif-Roman-69" transform="scale(0.015625)"/>
     </defs>
     <use xlink:href="#CMUSerif-Roman-74"/>
     <use x="38.799988" xlink:href="#CMUSerif-Roman-73"/>
     <use x="78.199982" xlink:href="#CMUSerif-Roman-6f"/>
     <use x="128.199966" xlink:href="#CMUSerif-Roman-20"/>
     <use x="161.499954" xlink:href="#CMUSerif-Roman-6d"/>
     <use x="244.799942" xlink:href="#CMUSerif-Roman-65"/>
     <use x="289.199936" xlink:href="#CMUSerif-Roman-64"/>
     <use x="344.699921" xlink:href="#CMUSerif-Roman-69"/>
     <use x="372.399918" xlink:href="#CMUSerif-Roman-75"/>
     <use x="427.899902" xlink:href="#CMUSerif-Roman-6d"/>
    </g>
   </g>
   <g id="text_14">
    <!-- $ϵ=0.001$ -->
    <g transform="translate(45.953706 18.685206)scale(0.1 -0.1)">
     <defs>
      <path d="M 2688 2822 
L 2573 1997 
L 2470 1997 
Q 2368 2682 1837 2682 
Q 1530 2682 1232 2314 
Q 934 1946 851 1568 
L 1997 1568 
L 1958 1363 
L 806 1363 
Q 742 1165 742 928 
Q 742 570 889 365 
Q 1037 160 1312 160 
Q 1568 160 1763 275 
Q 1958 390 2253 685 
L 2355 621 
Q 2054 250 1788 90 
Q 1523 -70 1075 -70 
Q 653 -70 422 205 
Q 192 480 192 896 
Q 192 1350 419 1795 
Q 646 2240 1043 2531 
Q 1440 2822 1875 2822 
Q 2048 2822 2214 2768 
Q 2381 2714 2451 2714 
Q 2547 2714 2586 2822 
L 2688 2822 
z
" id="STIXGeneral-Italic-3f5" transform="scale(0.015625)"/>
      <path d="M 481 850 
Q 428 850 393 890 
Q 359 931 359 978 
Q 359 1031 393 1068 
Q 428 1106 481 1106 
L 4500 1106 
Q 4547 1106 4581 1068 
Q 4616 1031 4616 978 
Q 4616 931 4581 890 
Q 4547 850 4500 850 
L 481 850 
z
M 481 2094 
Q 428 2094 393 2131 
Q 359 2169 359 2222 
Q 359 2269 393 2309 
Q 428 2350 481 2350 
L 4500 2350 
Q 4547 2350 4581 2309 
Q 4616 2269 4616 2222 
Q 4616 2169 4581 2131 
Q 4547 2094 4500 2094 
L 481 2094 
z
" id="Cmr10-3d" transform="scale(0.015625)"/>
      <path d="M 1600 -141 
Q 816 -141 533 504 
Q 250 1150 250 2041 
Q 250 2597 351 3087 
Q 453 3578 754 3920 
Q 1056 4263 1600 4263 
Q 2022 4263 2290 4056 
Q 2559 3850 2700 3523 
Q 2841 3197 2892 2823 
Q 2944 2450 2944 2041 
Q 2944 1491 2842 1011 
Q 2741 531 2444 195 
Q 2147 -141 1600 -141 
z
M 1600 25 
Q 1956 25 2131 390 
Q 2306 756 2347 1200 
Q 2388 1644 2388 2144 
Q 2388 2625 2347 3031 
Q 2306 3438 2132 3767 
Q 1959 4097 1600 4097 
Q 1238 4097 1063 3765 
Q 888 3434 847 3029 
Q 806 2625 806 2144 
Q 806 1788 823 1472 
Q 841 1156 916 820 
Q 991 484 1158 254 
Q 1325 25 1600 25 
z
" id="Cmr10-30" transform="scale(0.015625)"/>
      <path d="M 538 353 
Q 538 497 644 600 
Q 750 703 891 703 
Q 978 703 1062 656 
Q 1147 609 1194 525 
Q 1241 441 1241 353 
Q 1241 213 1137 106 
Q 1034 0 891 0 
Q 750 0 644 106 
Q 538 213 538 353 
z
" id="Cmmi10-3a" transform="scale(0.015625)"/>
     </defs>
     <use transform="translate(0 0.390625)" xlink:href="#STIXGeneral-Italic-3f5"/>
     <use transform="translate(61.958588 0.390625)" xlink:href="#Cmr10-3d"/>
     <use transform="translate(157.202728 0.390625)" xlink:href="#Cmr10-30"/>
     <use transform="translate(207.202728 0.390625)" xlink:href="#Cmmi10-3a"/>
     <use transform="translate(234.888275 0.390625)" xlink:href="#Cmr10-30"/>
     <use transform="translate(284.888275 0.390625)" xlink:href="#Cmr10-30"/>
     <use transform="translate(334.888275 0.390625)" xlink:href="#Cmr10-31"/>
    </g>
   </g>
   <g id="legend_1">
    <g id="line2d_19">
     <path d="M 182.28056 75.75832 
L 192.28056 75.75832 
" style="fill:none;stroke:#decbe4;stroke-linecap:square;stroke-width:1.5;"/>
    </g>
    <g id="line2d_20"/>
    <g id="text_15">
     <!-- DEAC -->
     <g transform="translate(197.28056 79.25832)scale(0.1 -0.1)">
      <defs>
       <path d="M 224 0 
L 224 198 
L 378 198 
Q 723 198 803 256 
Q 883 314 883 499 
L 883 3872 
Q 883 4058 803 4115 
Q 723 4173 378 4173 
L 224 4173 
L 224 4371 
L 2566 4371 
Q 3386 4371 3955 3718 
Q 4525 3066 4525 2150 
Q 4525 1254 3952 627 
Q 3379 0 2566 0 
L 224 0 
z
M 1434 454 
Q 1434 288 1482 243 
Q 1530 198 1747 198 
L 2394 198 
Q 2816 198 3101 371 
Q 3386 544 3533 742 
Q 3885 1222 3885 2150 
Q 3885 3123 3552 3578 
Q 3123 4173 2387 4173 
L 1747 4173 
Q 1530 4173 1482 4128 
Q 1434 4083 1434 3917 
L 1434 454 
z
" id="CMUSerif-Roman-44" transform="scale(0.015625)"/>
       <path d="M 211 0 
L 211 198 
L 365 198 
Q 710 198 790 256 
Q 870 314 870 499 
L 870 3853 
Q 870 4038 790 4096 
Q 710 4154 365 4154 
L 211 4154 
L 211 4352 
L 3814 4352 
L 3994 2912 
L 3834 2912 
Q 3789 3277 3731 3488 
Q 3674 3699 3536 3862 
Q 3398 4026 3171 4090 
Q 2944 4154 2579 4154 
L 1754 4154 
Q 1536 4154 1488 4109 
Q 1440 4064 1440 3898 
L 1440 2362 
L 2016 2362 
Q 2458 2362 2582 2515 
Q 2707 2669 2707 3110 
L 2867 3110 
L 2867 1414 
L 2707 1414 
Q 2707 1850 2582 2006 
Q 2458 2163 2016 2163 
L 1440 2163 
L 1440 454 
Q 1440 288 1488 243 
Q 1536 198 1754 198 
L 2605 198 
Q 2880 198 3081 233 
Q 3283 269 3424 358 
Q 3565 448 3661 550 
Q 3757 653 3824 838 
Q 3891 1024 3929 1197 
Q 3968 1370 4013 1651 
L 4173 1651 
L 3904 0 
L 211 0 
z
" id="CMUSerif-Roman-45" transform="scale(0.015625)"/>
       <path d="M 205 0 
L 205 198 
Q 774 211 922 627 
L 2246 4454 
Q 2272 4531 2301 4556 
Q 2330 4582 2400 4582 
Q 2438 4582 2460 4576 
Q 2483 4570 2499 4547 
Q 2515 4525 2521 4512 
Q 2528 4499 2547 4454 
L 3930 454 
Q 3981 294 4083 246 
Q 4186 198 4474 198 
L 4589 198 
L 4589 0 
Q 4186 19 3750 19 
Q 3059 19 2829 0 
L 2829 198 
Q 3360 198 3360 390 
Q 3360 403 3341 480 
L 3002 1459 
L 1421 1459 
L 1126 621 
Q 1114 595 1114 525 
Q 1114 390 1238 294 
Q 1363 198 1594 198 
L 1594 0 
Q 979 19 858 19 
Q 646 19 205 0 
z
M 1491 1658 
L 2931 1658 
L 2208 3738 
L 1491 1658 
z
" id="CMUSerif-Roman-41" transform="scale(0.015625)"/>
       <path d="M 358 2189 
Q 358 3155 1017 3833 
Q 1677 4512 2586 4512 
Q 2867 4512 3116 4409 
Q 3366 4307 3481 4217 
Q 3597 4128 3763 3962 
L 4083 4435 
Q 4134 4512 4185 4512 
Q 4237 4512 4246 4483 
Q 4256 4454 4256 4358 
L 4256 2842 
Q 4256 2739 4243 2713 
Q 4230 2688 4154 2688 
Q 4090 2688 4077 2707 
Q 4064 2726 4051 2797 
Q 3955 3488 3571 3901 
Q 3187 4314 2656 4314 
Q 2502 4314 2332 4278 
Q 2163 4243 1916 4112 
Q 1670 3981 1481 3763 
Q 1293 3546 1155 3136 
Q 1018 2726 1018 2182 
Q 1018 1645 1155 1232 
Q 1293 819 1481 604 
Q 1670 390 1916 259 
Q 2163 128 2336 93 
Q 2509 58 2662 58 
Q 3213 58 3635 448 
Q 4058 838 4096 1498 
Q 4102 1530 4102 1542 
Q 4102 1555 4108 1571 
Q 4115 1587 4131 1593 
Q 4147 1600 4173 1600 
Q 4256 1600 4256 1491 
Q 4256 883 3789 371 
Q 3322 -141 2586 -141 
Q 1677 -141 1017 534 
Q 358 1210 358 2189 
z
" id="CMUSerif-Roman-43" transform="scale(0.015625)"/>
      </defs>
      <use xlink:href="#CMUSerif-Roman-44"/>
      <use x="76.299988" xlink:href="#CMUSerif-Roman-45"/>
      <use x="144.299973" xlink:href="#CMUSerif-Roman-41"/>
      <use x="219.299957" xlink:href="#CMUSerif-Roman-43"/>
     </g>
    </g>
    <g id="line2d_21">
     <path d="M 182.28056 87.198945 
L 192.28056 87.198945 
" style="fill:none;stroke:#ccebc5;stroke-linecap:square;stroke-width:1.5;"/>
    </g>
    <g id="line2d_22"/>
    <g id="text_16">
     <!-- FESOM -->
     <g transform="translate(197.28056 90.698945)scale(0.1 -0.1)">
      <defs>
       <path d="M 358 13 
L 358 1293 
Q 358 1363 361 1388 
Q 365 1414 384 1433 
Q 403 1453 442 1453 
Q 512 1453 518 1389 
Q 538 755 915 403 
Q 1286 58 1926 58 
Q 2310 58 2547 333 
Q 2784 608 2784 973 
Q 2784 1318 2586 1562 
Q 2502 1670 2396 1740 
Q 2291 1811 2227 1833 
Q 2163 1856 2042 1888 
Q 1248 2080 1197 2099 
Q 819 2227 588 2550 
Q 358 2874 358 3270 
Q 358 3782 720 4147 
Q 1082 4512 1606 4512 
Q 1869 4512 2089 4429 
Q 2310 4346 2400 4272 
Q 2490 4198 2630 4064 
L 2854 4429 
Q 2906 4512 2950 4512 
Q 3002 4512 3011 4483 
Q 3021 4454 3021 4358 
L 3021 3072 
Q 3021 3002 3017 2976 
Q 3014 2950 2995 2934 
Q 2976 2918 2938 2918 
Q 2874 2918 2861 2995 
Q 2682 4333 1613 4333 
Q 1248 4333 1008 4086 
Q 768 3840 768 3494 
Q 768 3213 944 2982 
Q 1120 2752 1414 2682 
L 2234 2483 
Q 2643 2387 2918 2025 
Q 3194 1664 3194 1190 
Q 3194 646 2838 252 
Q 2483 -141 1933 -141 
Q 1536 -141 1229 -9 
Q 922 122 755 307 
Q 627 96 544 -26 
L 525 -58 
Q 474 -141 429 -141 
Q 378 -141 368 -109 
Q 358 -77 358 13 
z
" id="CMUSerif-Roman-53" transform="scale(0.015625)"/>
       <path d="M 358 2170 
Q 358 3149 985 3830 
Q 1613 4512 2483 4512 
Q 3360 4512 3987 3827 
Q 4614 3142 4614 2170 
Q 4614 1203 3987 531 
Q 3360 -141 2483 -141 
Q 1619 -141 988 528 
Q 358 1197 358 2170 
z
M 1018 2259 
Q 1018 1664 1158 1209 
Q 1299 755 1526 508 
Q 1754 262 1997 144 
Q 2240 26 2490 26 
Q 2733 26 2973 141 
Q 3213 256 3440 499 
Q 3667 742 3811 1200 
Q 3955 1658 3955 2259 
Q 3955 2726 3856 3104 
Q 3757 3482 3600 3709 
Q 3443 3936 3241 4086 
Q 3040 4237 2851 4294 
Q 2662 4352 2483 4352 
Q 2259 4352 2025 4253 
Q 1792 4154 1555 3933 
Q 1318 3712 1168 3280 
Q 1018 2848 1018 2259 
z
" id="CMUSerif-Roman-4f" transform="scale(0.015625)"/>
       <path d="M 237 0 
L 237 198 
Q 467 198 614 243 
Q 762 288 816 374 
Q 870 461 883 518 
Q 896 576 896 672 
L 896 3872 
Q 896 4058 816 4115 
Q 736 4173 390 4173 
L 237 4173 
L 237 4371 
L 1318 4371 
Q 1434 4371 1466 4352 
Q 1498 4333 1542 4230 
L 2931 646 
L 4333 4250 
Q 4365 4339 4393 4355 
Q 4422 4371 4544 4371 
L 5626 4371 
L 5626 4173 
L 5472 4173 
Q 5126 4173 5046 4115 
Q 4966 4058 4966 3872 
L 4966 499 
Q 4966 314 5046 256 
Q 5126 198 5472 198 
L 5626 198 
L 5626 0 
Q 5389 19 4710 19 
Q 4026 19 3789 0 
L 3789 198 
L 3942 198 
Q 4288 198 4368 256 
Q 4448 314 4448 499 
L 4448 4173 
L 4442 4173 
L 2867 122 
Q 2822 0 2752 0 
Q 2675 0 2624 141 
L 1082 4122 
L 1075 4122 
L 1075 672 
Q 1075 576 1088 518 
Q 1101 461 1155 374 
Q 1210 288 1357 243 
Q 1504 198 1734 198 
L 1734 0 
Q 1062 19 985 19 
Q 909 19 237 0 
z
" id="CMUSerif-Roman-4d" transform="scale(0.015625)"/>
      </defs>
      <use xlink:href="#CMUSerif-Roman-46"/>
      <use x="65.199997" xlink:href="#CMUSerif-Roman-45"/>
      <use x="133.199982" xlink:href="#CMUSerif-Roman-53"/>
      <use x="188.699966" xlink:href="#CMUSerif-Roman-4f"/>
      <use x="266.399948" xlink:href="#CMUSerif-Roman-4d"/>
     </g>
    </g>
    <g id="line2d_23">
     <path d="M 182.28056 98.63957 
L 192.28056 98.63957 
" style="fill:none;stroke:#b3cde3;stroke-linecap:square;stroke-width:1.5;"/>
    </g>
    <g id="line2d_24"/>
    <g id="text_17">
     <!-- MEM -->
     <g transform="translate(197.28056 102.13957)scale(0.1 -0.1)">
      <use xlink:href="#CMUSerif-Roman-4d"/>
      <use x="91.599991" xlink:href="#CMUSerif-Roman-45"/>
      <use x="159.599976" xlink:href="#CMUSerif-Roman-4d"/>
     </g>
    </g>
    <g id="line2d_25">
     <path d="M 182.28056 110.080195 
L 192.28056 110.080195 
" style="fill:none;stroke:#000000;stroke-dasharray:1.5,2.475;stroke-dashoffset:0;stroke-width:1.5;"/>
    </g>
    <g id="line2d_26"/>
    <g id="text_18">
     <!-- Exact -->
     <g transform="translate(197.28056 113.580195)scale(0.1 -0.1)">
      <defs>
       <path d="M 77 0 
L 77 198 
Q 576 198 896 582 
Q 896 582 1498 1344 
L 864 2170 
Q 640 2458 541 2509 
Q 442 2560 109 2560 
L 109 2758 
Q 371 2739 717 2739 
Q 909 2739 1408 2758 
L 1408 2560 
Q 1184 2547 1184 2400 
Q 1184 2349 1242 2285 
L 1741 1638 
L 2138 2138 
Q 2234 2253 2234 2362 
Q 2234 2541 2048 2560 
L 2048 2758 
Q 2298 2739 2662 2739 
Q 2938 2739 3187 2758 
L 3187 2560 
Q 2701 2547 2426 2227 
Q 2304 2093 1837 1504 
L 2694 397 
Q 2797 262 2912 230 
Q 3027 198 3302 198 
L 3302 0 
Q 3014 19 2688 19 
Q 2573 19 1997 0 
L 1997 198 
Q 2112 205 2169 256 
Q 2227 307 2227 358 
Q 2227 384 2093 570 
L 1606 1210 
Q 1120 634 1056 499 
Q 1030 442 1030 397 
Q 1030 224 1216 198 
L 1216 0 
Q 755 19 608 19 
Q 326 19 77 0 
z
" id="CMUSerif-Roman-78" transform="scale(0.015625)"/>
       <path d="M 269 608 
Q 269 1152 909 1440 
Q 1293 1626 2086 1670 
L 2086 1907 
Q 2086 2304 1878 2515 
Q 1670 2726 1408 2726 
Q 941 2726 717 2432 
Q 909 2426 976 2330 
Q 1043 2234 1043 2138 
Q 1043 2010 963 1926 
Q 883 1843 749 1843 
Q 621 1843 537 1923 
Q 454 2003 454 2144 
Q 454 2458 736 2662 
Q 1018 2867 1421 2867 
Q 1946 2867 2298 2515 
Q 2406 2406 2460 2265 
Q 2515 2125 2521 2032 
Q 2528 1939 2528 1760 
L 2528 480 
Q 2528 442 2541 381 
Q 2554 320 2611 240 
Q 2669 160 2765 160 
Q 2995 160 2995 570 
L 2995 928 
L 3155 928 
L 3155 570 
Q 3155 230 2976 96 
Q 2797 -38 2630 -38 
Q 2419 -38 2284 118 
Q 2150 275 2131 486 
Q 2035 243 1814 86 
Q 1594 -70 1293 -70 
Q 1062 -70 844 -12 
Q 627 45 448 205 
Q 269 365 269 608 
z
M 762 614 
Q 762 378 931 224 
Q 1101 70 1338 70 
Q 1606 70 1846 278 
Q 2086 486 2086 896 
L 2086 1536 
Q 1376 1510 1069 1228 
Q 762 947 762 614 
z
" id="CMUSerif-Roman-61" transform="scale(0.015625)"/>
      </defs>
      <use xlink:href="#CMUSerif-Roman-45"/>
      <use x="67.999985" xlink:href="#CMUSerif-Roman-78"/>
      <use x="120.699982" xlink:href="#CMUSerif-Roman-61"/>
      <use x="170.699966" xlink:href="#CMUSerif-Roman-63"/>
      <use x="215.09996" xlink:href="#CMUSerif-Roman-74"/>
     </g>
    </g>
   </g>
  </g>
 </g>
 <defs>
  <clipPath id="pda91caa0ba">
   <rect height="118.71183" width="206.44932" x="35.63124" y="5.80899"/>
  </clipPath>
 </defs>
</svg>
