<?xml version="1.0" encoding="utf-8" standalone="no"?>
<!DOCTYPE svg PUBLIC "-//W3C//DTD SVG 1.1//EN"
  "http://www.w3.org/Graphics/SVG/1.1/DTD/svg11.dtd">
<svg height="151.46856pt" version="1.1" viewBox="0 0 245.0808 151.46856" width="245.0808pt" xmlns="http://www.w3.org/2000/svg" xmlns:xlink="http://www.w3.org/1999/xlink">
 <metadata>
  <rdf:RDF xmlns:cc="http://creativecommons.org/ns#" xmlns:dc="http://purl.org/dc/elements/1.1/" xmlns:rdf="http://www.w3.org/1999/02/22-rdf-syntax-ns#">
   <cc:Work>
    <dc:type rdf:resource="http://purl.org/dc/dcmitype/StillImage"/>
    <dc:date>2022-01-10T22:28:15.006470</dc:date>
    <dc:format>image/svg+xml</dc:format>
    <dc:creator>
     <cc:Agent>
      <dc:title>Matplotlib v3.4.2, https://matplotlib.org/</dc:title>
     </cc:Agent>
    </dc:creator>
   </cc:Work>
  </rdf:RDF>
 </metadata>
 <defs>
  <style type="text/css">*{stroke-linecap:butt;stroke-linejoin:round;}</style>
 </defs>
 <g id="figure_1">
  <g id="patch_1">
   <path d="M 0 151.46856 
L 245.0808 151.46856 
L 245.0808 0 
L 0 0 
z
" style="fill:none;"/>
  </g>
  <g id="axes_1">
   <g id="patch_2">
    <path d="M 31.89024 131.289617 
L 242.08056 131.289617 
L 242.08056 3.00024 
L 31.89024 3.00024 
z
" style="fill:none;"/>
   </g>
   <g id="patch_3">
    <path clip-path="url(#pa74e935b77)" d="M 41.444345 131.289617 
L 47.608284 131.289617 
L 47.608284 88.65594 
L 41.444345 88.65594 
z
" style="fill:#b3cde3;stroke:#839cb1;stroke-linejoin:miter;"/>
   </g>
   <g id="patch_4">
    <path clip-path="url(#pa74e935b77)" d="M 63.018132 131.289617 
L 69.182071 131.289617 
L 69.182071 103.113263 
L 63.018132 103.113263 
z
" style="fill:#b3cde3;stroke:#839cb1;stroke-linejoin:miter;"/>
   </g>
   <g id="patch_5">
    <path clip-path="url(#pa74e935b77)" d="M 84.591918 131.289617 
L 90.755857 131.289617 
L 90.755857 33.103943 
L 84.591918 33.103943 
z
" style="fill:#b3cde3;stroke:#839cb1;stroke-linejoin:miter;"/>
   </g>
   <g id="patch_6">
    <path clip-path="url(#pa74e935b77)" d="M 106.165705 131.289617 
L 112.329644 131.289617 
L 112.329644 86.880954 
L 106.165705 86.880954 
z
" style="fill:#b3cde3;stroke:#839cb1;stroke-linejoin:miter;"/>
   </g>
   <g id="patch_7">
    <path clip-path="url(#pa74e935b77)" d="M 127.739491 131.289617 
L 133.90343 131.289617 
L 133.90343 88.883837 
L 127.739491 88.883837 
z
" style="fill:#b3cde3;stroke:#839cb1;stroke-linejoin:miter;"/>
   </g>
   <g id="patch_8">
    <path clip-path="url(#pa74e935b77)" d="M 149.313278 131.289617 
L 155.477217 131.289617 
L 155.477217 26.743735 
L 149.313278 26.743735 
z
" style="fill:#b3cde3;stroke:#839cb1;stroke-linejoin:miter;"/>
   </g>
   <g id="patch_9">
    <path clip-path="url(#pa74e935b77)" d="M 170.887065 131.289617 
L 177.051004 131.289617 
L 177.051004 108.867676 
L 170.887065 108.867676 
z
" style="fill:#b3cde3;stroke:#839cb1;stroke-linejoin:miter;"/>
   </g>
   <g id="patch_10">
    <path clip-path="url(#pa74e935b77)" d="M 192.460851 131.289617 
L 198.62479 131.289617 
L 198.62479 102.427564 
L 192.460851 102.427564 
z
" style="fill:#b3cde3;stroke:#839cb1;stroke-linejoin:miter;"/>
   </g>
   <g id="patch_11">
    <path clip-path="url(#pa74e935b77)" d="M 214.034638 131.289617 
L 220.198577 131.289617 
L 220.198577 96.66049 
L 214.034638 96.66049 
z
" style="fill:#b3cde3;stroke:#839cb1;stroke-linejoin:miter;"/>
   </g>
   <g id="patch_12">
    <path clip-path="url(#pa74e935b77)" d="M 47.608284 131.289617 
L 53.772223 131.289617 
L 53.772223 52.871334 
L 47.608284 52.871334 
z
" style="fill:#ccebc5;stroke:#9bb994;stroke-linejoin:miter;"/>
   </g>
   <g id="patch_13">
    <path clip-path="url(#pa74e935b77)" d="M 69.182071 131.289617 
L 75.34601 131.289617 
L 75.34601 84.020909 
L 69.182071 84.020909 
z
" style="fill:#ccebc5;stroke:#9bb994;stroke-linejoin:miter;"/>
   </g>
   <g id="patch_14">
    <path clip-path="url(#pa74e935b77)" d="M 90.755857 131.289617 
L 96.919796 131.289617 
L 96.919796 98.553406 
L 90.755857 98.553406 
z
" style="fill:#ccebc5;stroke:#9bb994;stroke-linejoin:miter;"/>
   </g>
   <g id="patch_15">
    <path clip-path="url(#pa74e935b77)" d="M 112.329644 131.289617 
L 118.493583 131.289617 
L 118.493583 11.078709 
L 112.329644 11.078709 
z
" style="fill:#ccebc5;stroke:#9bb994;stroke-linejoin:miter;"/>
   </g>
   <g id="patch_16">
    <path clip-path="url(#pa74e935b77)" d="M 133.90343 131.289617 
L 140.06737 131.289617 
L 140.06737 61.482121 
L 133.90343 61.482121 
z
" style="fill:#ccebc5;stroke:#9bb994;stroke-linejoin:miter;"/>
   </g>
   <g id="patch_17">
    <path clip-path="url(#pa74e935b77)" d="M 155.477217 131.289617 
L 161.641156 131.289617 
L 161.641156 82.478621 
L 155.477217 82.478621 
z
" style="fill:#ccebc5;stroke:#9bb994;stroke-linejoin:miter;"/>
   </g>
   <g id="patch_18">
    <path clip-path="url(#pa74e935b77)" d="M 177.051004 131.289617 
L 183.214943 131.289617 
L 183.214943 9.109258 
L 177.051004 9.109258 
z
" style="fill:#ccebc5;stroke:#9bb994;stroke-linejoin:miter;"/>
   </g>
   <g id="patch_19">
    <path clip-path="url(#pa74e935b77)" d="M 198.62479 131.289617 
L 204.788729 131.289617 
L 204.788729 67.501214 
L 198.62479 67.501214 
z
" style="fill:#ccebc5;stroke:#9bb994;stroke-linejoin:miter;"/>
   </g>
   <g id="patch_20">
    <path clip-path="url(#pa74e935b77)" d="M 220.198577 131.289617 
L 226.362516 131.289617 
L 226.362516 109.05947 
L 220.198577 109.05947 
z
" style="fill:#ccebc5;stroke:#9bb994;stroke-linejoin:miter;"/>
   </g>
   <g id="patch_21">
    <path clip-path="url(#pa74e935b77)" d="M 53.772223 131.289617 
L 59.936162 131.289617 
L 59.936162 124.007397 
L 53.772223 124.007397 
z
" style="fill:#decbe4;stroke:#ac9ab2;stroke-linejoin:miter;"/>
   </g>
   <g id="patch_22">
    <path clip-path="url(#pa74e935b77)" d="M 75.34601 131.289617 
L 81.509949 131.289617 
L 81.509949 123.027602 
L 75.34601 123.027602 
z
" style="fill:#decbe4;stroke:#ac9ab2;stroke-linejoin:miter;"/>
   </g>
   <g id="patch_23">
    <path clip-path="url(#pa74e935b77)" d="M 96.919796 131.289617 
L 103.083735 131.289617 
L 103.083735 124.312421 
L 96.919796 124.312421 
z
" style="fill:#decbe4;stroke:#ac9ab2;stroke-linejoin:miter;"/>
   </g>
   <g id="patch_24">
    <path clip-path="url(#pa74e935b77)" d="M 118.493583 131.289617 
L 124.657522 131.289617 
L 124.657522 124.013746 
L 118.493583 124.013746 
z
" style="fill:#decbe4;stroke:#ac9ab2;stroke-linejoin:miter;"/>
   </g>
   <g id="patch_25">
    <path clip-path="url(#pa74e935b77)" d="M 140.06737 131.289617 
L 146.231309 131.289617 
L 146.231309 123.294779 
L 140.06737 123.294779 
z
" style="fill:#decbe4;stroke:#ac9ab2;stroke-linejoin:miter;"/>
   </g>
   <g id="patch_26">
    <path clip-path="url(#pa74e935b77)" d="M 161.641156 131.289617 
L 167.805095 131.289617 
L 167.805095 124.461932 
L 161.641156 124.461932 
z
" style="fill:#decbe4;stroke:#ac9ab2;stroke-linejoin:miter;"/>
   </g>
   <g id="patch_27">
    <path clip-path="url(#pa74e935b77)" d="M 183.214943 131.289617 
L 189.378882 131.289617 
L 189.378882 124.381084 
L 183.214943 124.381084 
z
" style="fill:#decbe4;stroke:#ac9ab2;stroke-linejoin:miter;"/>
   </g>
   <g id="patch_28">
    <path clip-path="url(#pa74e935b77)" d="M 204.788729 131.289617 
L 210.952668 131.289617 
L 210.952668 124.373712 
L 204.788729 124.373712 
z
" style="fill:#decbe4;stroke:#ac9ab2;stroke-linejoin:miter;"/>
   </g>
   <g id="patch_29">
    <path clip-path="url(#pa74e935b77)" d="M 226.362516 131.289617 
L 232.526455 131.289617 
L 232.526455 122.99485 
L 226.362516 122.99485 
z
" style="fill:#decbe4;stroke:#ac9ab2;stroke-linejoin:miter;"/>
   </g>
   <g id="matplotlib.axis_1">
    <g id="xtick_1">
     <g id="line2d_1">
      <defs>
       <path d="M 0 0 
L 0 -4 
" id="m12780517ff" style="stroke:#000000;stroke-width:0.5;"/>
      </defs>
      <g>
       <use style="stroke:#000000;stroke-width:0.5;" x="50.690254" xlink:href="#m12780517ff" y="131.289617"/>
      </g>
     </g>
     <g id="text_1">
      <!-- shf -->
      <g transform="translate(42.498422 146.309877)rotate(-45)scale(0.08 -0.08)">
       <defs>
        <path d="M 211 83 
L 211 928 
Q 211 998 214 1024 
Q 218 1050 237 1069 
Q 256 1088 294 1088 
Q 339 1088 355 1069 
Q 371 1050 384 979 
Q 480 538 688 304 
Q 896 70 1274 70 
Q 1632 70 1814 230 
Q 1997 390 1997 653 
Q 1997 1120 1331 1242 
Q 947 1318 787 1369 
Q 627 1421 486 1536 
Q 211 1760 211 2080 
Q 211 2400 454 2633 
Q 698 2867 1235 2867 
Q 1594 2867 1837 2688 
Q 1907 2746 1946 2790 
Q 2029 2867 2074 2867 
Q 2125 2867 2134 2835 
Q 2144 2803 2144 2714 
L 2144 2067 
Q 2144 1997 2141 1971 
Q 2138 1946 2118 1930 
Q 2099 1914 2061 1914 
Q 1990 1914 1984 1971 
Q 1933 2746 1235 2746 
Q 858 2746 688 2602 
Q 518 2458 518 2259 
Q 518 2150 569 2067 
Q 621 1984 688 1936 
Q 755 1888 880 1843 
Q 1005 1798 1081 1782 
Q 1158 1766 1306 1734 
Q 1818 1638 2035 1427 
Q 2304 1158 2304 819 
Q 2304 442 2048 186 
Q 1792 -70 1274 -70 
Q 858 -70 570 205 
Q 531 166 502 134 
Q 474 102 464 89 
Q 454 77 451 70 
Q 448 64 442 58 
Q 314 -70 282 -70 
Q 230 -70 220 -38 
Q 211 -6 211 83 
z
" id="CMUSerif-Roman-73" transform="scale(0.015625)"/>
        <path d="M 205 0 
L 205 198 
Q 544 198 624 240 
Q 704 282 704 486 
L 704 3814 
Q 704 4051 621 4112 
Q 538 4173 205 4173 
L 205 4371 
L 1126 4442 
L 1126 2214 
L 1133 2214 
Q 1235 2445 1465 2637 
Q 1696 2829 2054 2829 
Q 2534 2829 2726 2592 
Q 2867 2432 2896 2253 
Q 2925 2074 2925 1613 
L 2925 390 
Q 2931 256 3033 227 
Q 3136 198 3424 198 
L 3424 0 
Q 2771 19 2707 19 
Q 2656 19 1984 0 
L 1984 198 
Q 2323 198 2403 240 
Q 2483 282 2483 486 
L 2483 1978 
Q 2483 2304 2384 2496 
Q 2285 2688 2010 2688 
Q 1677 2688 1411 2409 
Q 1146 2131 1146 1664 
L 1146 486 
Q 1146 282 1226 240 
Q 1306 198 1645 198 
L 1645 0 
Q 992 19 928 19 
Q 877 19 205 0 
z
" id="CMUSerif-Roman-68" transform="scale(0.015625)"/>
        <path d="M 211 2560 
L 211 2758 
L 717 2758 
L 717 3494 
Q 717 3968 1024 4240 
Q 1331 4512 1709 4512 
Q 1958 4512 2121 4377 
Q 2285 4243 2285 4064 
Q 2285 3942 2211 3862 
Q 2138 3782 2003 3782 
Q 1875 3782 1801 3862 
Q 1728 3942 1728 4058 
Q 1728 4262 1920 4326 
Q 1824 4371 1709 4371 
Q 1478 4371 1299 4134 
Q 1120 3898 1120 3501 
L 1120 2758 
L 1869 2758 
L 1869 2560 
L 1139 2560 
L 1139 499 
Q 1139 314 1216 256 
Q 1293 198 1626 198 
L 1760 198 
L 1760 0 
Q 1504 19 947 19 
Q 870 19 748 16 
Q 627 13 467 6 
Q 307 0 218 0 
L 218 198 
Q 557 198 637 240 
Q 717 282 717 486 
L 717 2560 
L 211 2560 
z
" id="CMUSerif-Roman-66" transform="scale(0.015625)"/>
       </defs>
       <use xlink:href="#CMUSerif-Roman-73"/>
       <use x="39.399994" xlink:href="#CMUSerif-Roman-68"/>
       <use x="94.899979" xlink:href="#CMUSerif-Roman-66"/>
      </g>
     </g>
    </g>
    <g id="xtick_2">
     <g id="line2d_2">
      <g>
       <use style="stroke:#000000;stroke-width:0.5;" x="72.26404" xlink:href="#m12780517ff" y="131.289617"/>
      </g>
     </g>
     <g id="text_2">
      <!-- shc -->
      <g transform="translate(63.285552 147.096533)rotate(-45)scale(0.08 -0.08)">
       <defs>
        <path d="M 624 352 
Q 218 774 218 1382 
Q 218 1990 618 2428 
Q 1018 2867 1606 2867 
Q 1997 2867 2291 2681 
Q 2586 2496 2586 2182 
Q 2586 2042 2502 1962 
Q 2419 1882 2291 1882 
Q 2157 1882 2077 1965 
Q 1997 2048 1997 2176 
Q 1997 2234 2016 2288 
Q 2035 2342 2105 2403 
Q 2176 2464 2298 2470 
Q 2067 2707 1613 2707 
Q 1286 2707 1017 2400 
Q 749 2093 749 1395 
Q 749 1030 838 761 
Q 928 493 1075 355 
Q 1222 218 1366 154 
Q 1510 90 1651 90 
Q 2278 90 2490 762 
Q 2509 826 2573 826 
Q 2656 826 2656 762 
Q 2656 730 2630 650 
Q 2605 570 2528 442 
Q 2451 314 2339 202 
Q 2227 90 2032 10 
Q 1837 -70 1594 -70 
Q 1030 -70 624 352 
z
" id="CMUSerif-Roman-63" transform="scale(0.015625)"/>
       </defs>
       <use xlink:href="#CMUSerif-Roman-73"/>
       <use x="39.399994" xlink:href="#CMUSerif-Roman-68"/>
       <use x="94.899979" xlink:href="#CMUSerif-Roman-63"/>
      </g>
     </g>
    </g>
    <g id="xtick_3">
     <g id="line2d_3">
      <g>
       <use style="stroke:#000000;stroke-width:0.5;" x="93.837827" xlink:href="#m12780517ff" y="131.289617"/>
      </g>
     </g>
     <g id="text_3">
      <!-- sho -->
      <g transform="translate(84.542908 147.412963)rotate(-45)scale(0.08 -0.08)">
       <defs>
        <path d="M 601 346 
Q 179 762 179 1370 
Q 179 1978 592 2422 
Q 1005 2867 1600 2867 
Q 2182 2867 2598 2425 
Q 3014 1984 3014 1370 
Q 3014 768 2595 349 
Q 2176 -70 1594 -70 
Q 1024 -70 601 346 
z
M 710 1421 
Q 710 800 870 518 
Q 1120 90 1600 90 
Q 1837 90 2035 218 
Q 2234 346 2342 563 
Q 2483 845 2483 1421 
Q 2483 2035 2317 2310 
Q 2067 2726 1594 2726 
Q 1389 2726 1187 2617 
Q 986 2509 864 2298 
Q 710 2016 710 1421 
z
" id="CMUSerif-Roman-6f" transform="scale(0.015625)"/>
       </defs>
       <use xlink:href="#CMUSerif-Roman-73"/>
       <use x="39.399994" xlink:href="#CMUSerif-Roman-68"/>
       <use x="94.899979" xlink:href="#CMUSerif-Roman-6f"/>
      </g>
     </g>
    </g>
    <g id="xtick_4">
     <g id="line2d_4">
      <g>
       <use style="stroke:#000000;stroke-width:0.5;" x="115.411613" xlink:href="#m12780517ff" y="131.289617"/>
      </g>
     </g>
     <g id="text_4">
      <!-- stf -->
      <g transform="translate(108.164653 145.365005)rotate(-45)scale(0.08 -0.08)">
       <defs>
        <path d="M 122 2560 
L 122 2701 
Q 416 2714 611 2922 
Q 806 3130 873 3386 
Q 941 3642 947 3936 
L 1107 3936 
L 1107 2758 
L 2022 2758 
L 2022 2560 
L 1107 2560 
L 1107 781 
Q 1107 90 1536 90 
Q 1722 90 1843 278 
Q 1965 467 1965 806 
L 1965 1158 
L 2125 1158 
L 2125 794 
Q 2125 448 1965 189 
Q 1805 -70 1491 -70 
Q 1376 -70 1261 -41 
Q 1146 -13 998 64 
Q 851 141 758 329 
Q 666 518 666 794 
L 666 2560 
L 122 2560 
z
" id="CMUSerif-Roman-74" transform="scale(0.015625)"/>
       </defs>
       <use xlink:href="#CMUSerif-Roman-73"/>
       <use x="39.399994" xlink:href="#CMUSerif-Roman-74"/>
       <use x="78.199982" xlink:href="#CMUSerif-Roman-66"/>
      </g>
     </g>
    </g>
    <g id="xtick_5">
     <g id="line2d_5">
      <g>
       <use style="stroke:#000000;stroke-width:0.5;" x="136.9854" xlink:href="#m12780517ff" y="131.289617"/>
      </g>
     </g>
     <g id="text_5">
      <!-- stc -->
      <g transform="translate(128.951783 146.151661)rotate(-45)scale(0.08 -0.08)">
       <use xlink:href="#CMUSerif-Roman-73"/>
       <use x="39.399994" xlink:href="#CMUSerif-Roman-74"/>
       <use x="78.199982" xlink:href="#CMUSerif-Roman-63"/>
      </g>
     </g>
    </g>
    <g id="xtick_6">
     <g id="line2d_6">
      <g>
       <use style="stroke:#000000;stroke-width:0.5;" x="158.559187" xlink:href="#m12780517ff" y="131.289617"/>
      </g>
     </g>
     <g id="text_6">
      <!-- sto -->
      <g transform="translate(150.209139 146.468092)rotate(-45)scale(0.08 -0.08)">
       <use xlink:href="#CMUSerif-Roman-73"/>
       <use x="39.399994" xlink:href="#CMUSerif-Roman-74"/>
       <use x="78.199982" xlink:href="#CMUSerif-Roman-6f"/>
      </g>
     </g>
    </g>
    <g id="xtick_7">
     <g id="line2d_7">
      <g>
       <use style="stroke:#000000;stroke-width:0.5;" x="180.132973" xlink:href="#m12780517ff" y="131.289617"/>
      </g>
     </g>
     <g id="text_7">
      <!-- tsf -->
      <g transform="translate(172.886012 145.365005)rotate(-45)scale(0.08 -0.08)">
       <use xlink:href="#CMUSerif-Roman-74"/>
       <use x="38.799988" xlink:href="#CMUSerif-Roman-73"/>
       <use x="78.199982" xlink:href="#CMUSerif-Roman-66"/>
      </g>
     </g>
    </g>
    <g id="xtick_8">
     <g id="line2d_8">
      <g>
       <use style="stroke:#000000;stroke-width:0.5;" x="201.70676" xlink:href="#m12780517ff" y="131.289617"/>
      </g>
     </g>
     <g id="text_8">
      <!-- tsc -->
      <g transform="translate(193.673143 146.151661)rotate(-45)scale(0.08 -0.08)">
       <use xlink:href="#CMUSerif-Roman-74"/>
       <use x="38.799988" xlink:href="#CMUSerif-Roman-73"/>
       <use x="78.199982" xlink:href="#CMUSerif-Roman-63"/>
      </g>
     </g>
    </g>
    <g id="xtick_9">
     <g id="line2d_9">
      <g>
       <use style="stroke:#000000;stroke-width:0.5;" x="223.280546" xlink:href="#m12780517ff" y="131.289617"/>
      </g>
     </g>
     <g id="text_9">
      <!-- tso -->
      <g transform="translate(214.930499 146.468092)rotate(-45)scale(0.08 -0.08)">
       <use xlink:href="#CMUSerif-Roman-74"/>
       <use x="38.799988" xlink:href="#CMUSerif-Roman-73"/>
       <use x="78.199982" xlink:href="#CMUSerif-Roman-6f"/>
      </g>
     </g>
    </g>
   </g>
   <g id="matplotlib.axis_2">
    <g id="ytick_1">
     <g id="line2d_10">
      <defs>
       <path d="M 0 0 
L 4 0 
" id="mf8138ec522" style="stroke:#000000;stroke-width:0.5;"/>
      </defs>
      <g>
       <use style="stroke:#000000;stroke-width:0.5;" x="31.89024" xlink:href="#mf8138ec522" y="131.289617"/>
      </g>
     </g>
     <g id="text_10">
      <!-- 0 -->
      <g transform="translate(23.89024 134.065867)scale(0.08 -0.08)">
       <defs>
        <path d="M 250 2048 
Q 250 2989 486 3501 
Q 819 4262 1600 4262 
Q 1766 4262 1939 4217 
Q 2112 4173 2333 4000 
Q 2554 3827 2688 3546 
Q 2944 3002 2944 2048 
Q 2944 1114 2707 602 
Q 2362 -141 1594 -141 
Q 1306 -141 1014 6 
Q 723 154 538 506 
Q 250 1037 250 2048 
z
M 781 2125 
Q 781 1158 851 774 
Q 928 358 1142 179 
Q 1357 0 1594 0 
Q 1850 0 2064 192 
Q 2278 384 2342 800 
Q 2413 1210 2413 2125 
Q 2413 3014 2349 3373 
Q 2266 3789 2042 3955 
Q 1818 4122 1594 4122 
Q 1510 4122 1420 4096 
Q 1331 4070 1203 4000 
Q 1075 3930 976 3750 
Q 877 3571 832 3302 
Q 781 2957 781 2125 
z
" id="CMUSerif-Roman-30" transform="scale(0.015625)"/>
       </defs>
       <use xlink:href="#CMUSerif-Roman-30"/>
      </g>
     </g>
    </g>
    <g id="ytick_2">
     <g id="line2d_11">
      <g>
       <use style="stroke:#000000;stroke-width:0.5;" x="31.89024" xlink:href="#mf8138ec522" y="108.795908"/>
      </g>
     </g>
     <g id="text_11">
      <!-- 20 -->
      <g transform="translate(19.89024 111.572158)scale(0.08 -0.08)">
       <defs>
        <path d="M 320 0 
Q 320 115 329 150 
Q 339 186 390 237 
L 1619 1606 
Q 2291 2362 2291 3021 
Q 2291 3450 2067 3757 
Q 1843 4064 1434 4064 
Q 1152 4064 915 3891 
Q 678 3718 570 3411 
Q 589 3418 653 3418 
Q 813 3418 902 3318 
Q 992 3219 992 3085 
Q 992 2912 880 2829 
Q 768 2746 659 2746 
Q 614 2746 556 2755 
Q 499 2765 409 2854 
Q 320 2944 320 3104 
Q 320 3552 659 3907 
Q 998 4262 1517 4262 
Q 2106 4262 2490 3913 
Q 2874 3565 2874 3021 
Q 2874 2829 2816 2656 
Q 2758 2483 2681 2348 
Q 2605 2214 2400 2000 
Q 2195 1786 2028 1632 
Q 1862 1478 1491 1152 
L 813 493 
L 1965 493 
Q 2528 493 2573 544 
Q 2637 634 2714 1114 
L 2874 1114 
L 2694 0 
L 320 0 
z
" id="CMUSerif-Roman-32" transform="scale(0.015625)"/>
       </defs>
       <use xlink:href="#CMUSerif-Roman-32"/>
       <use x="49.999985" xlink:href="#CMUSerif-Roman-30"/>
      </g>
     </g>
    </g>
    <g id="ytick_3">
     <g id="line2d_12">
      <g>
       <use style="stroke:#000000;stroke-width:0.5;" x="31.89024" xlink:href="#mf8138ec522" y="86.302199"/>
      </g>
     </g>
     <g id="text_12">
      <!-- 40 -->
      <g transform="translate(19.89024 89.078449)scale(0.08 -0.08)">
       <defs>
        <path d="M 179 1056 
L 179 1254 
L 2144 4256 
Q 2195 4333 2272 4333 
Q 2342 4333 2358 4304 
Q 2374 4275 2374 4166 
L 2374 1254 
L 3014 1254 
L 3014 1056 
L 2374 1056 
L 2374 499 
Q 2374 314 2451 256 
Q 2528 198 2861 198 
L 2995 198 
L 2995 0 
Q 2733 19 2125 19 
Q 1523 19 1261 0 
L 1261 198 
L 1395 198 
Q 1728 198 1805 256 
Q 1882 314 1882 499 
L 1882 1056 
L 179 1056 
z
M 358 1254 
L 1920 1254 
L 1920 3642 
L 358 1254 
z
" id="CMUSerif-Roman-34" transform="scale(0.015625)"/>
       </defs>
       <use xlink:href="#CMUSerif-Roman-34"/>
       <use x="49.999985" xlink:href="#CMUSerif-Roman-30"/>
      </g>
     </g>
    </g>
    <g id="ytick_4">
     <g id="line2d_13">
      <g>
       <use style="stroke:#000000;stroke-width:0.5;" x="31.89024" xlink:href="#mf8138ec522" y="63.80849"/>
      </g>
     </g>
     <g id="text_13">
      <!-- 60 -->
      <g transform="translate(19.89024 66.58474)scale(0.08 -0.08)">
       <defs>
        <path d="M 269 2022 
Q 269 3027 781 3644 
Q 1293 4262 1952 4262 
Q 2336 4262 2550 4067 
Q 2765 3872 2765 3571 
Q 2765 3405 2669 3334 
Q 2573 3264 2470 3264 
Q 2355 3264 2265 3341 
Q 2176 3418 2176 3558 
Q 2176 3846 2528 3846 
Q 2362 4102 1965 4102 
Q 1843 4102 1718 4067 
Q 1594 4032 1430 3913 
Q 1267 3795 1142 3606 
Q 1018 3418 931 3066 
Q 845 2714 845 2253 
L 845 2099 
Q 1107 2733 1644 2733 
Q 2182 2733 2553 2323 
Q 2925 1914 2925 1306 
Q 2925 685 2537 272 
Q 2150 -141 1606 -141 
Q 1363 -141 1142 -38 
Q 922 64 717 294 
Q 512 525 390 969 
Q 269 1414 269 2022 
z
M 858 1446 
Q 858 819 973 518 
Q 992 467 1033 400 
Q 1075 333 1148 243 
Q 1222 154 1344 96 
Q 1466 38 1606 38 
Q 2035 38 2240 454 
Q 2349 685 2349 1312 
Q 2349 1952 2234 2189 
Q 2035 2586 1638 2586 
Q 1370 2586 1184 2400 
Q 998 2214 928 1968 
Q 858 1722 858 1446 
z
" id="CMUSerif-Roman-36" transform="scale(0.015625)"/>
       </defs>
       <use xlink:href="#CMUSerif-Roman-36"/>
       <use x="49.999985" xlink:href="#CMUSerif-Roman-30"/>
      </g>
     </g>
    </g>
    <g id="ytick_5">
     <g id="line2d_14">
      <g>
       <use style="stroke:#000000;stroke-width:0.5;" x="31.89024" xlink:href="#mf8138ec522" y="41.314781"/>
      </g>
     </g>
     <g id="text_14">
      <!-- 80 -->
      <g transform="translate(19.89024 44.091031)scale(0.08 -0.08)">
       <defs>
        <path d="M 269 966 
Q 269 1683 1190 2144 
Q 794 2413 723 2490 
Q 442 2803 442 3194 
Q 442 3642 781 3952 
Q 1120 4262 1600 4262 
Q 2061 4262 2406 3996 
Q 2752 3731 2752 3309 
Q 2752 2714 1978 2317 
Q 2490 1997 2611 1862 
Q 2925 1517 2925 1075 
Q 2925 563 2531 211 
Q 2138 -141 1594 -141 
Q 1062 -141 665 169 
Q 269 480 269 966 
z
M 589 966 
Q 589 570 886 304 
Q 1184 38 1600 38 
Q 2003 38 2304 268 
Q 2605 499 2605 845 
Q 2605 979 2560 1094 
Q 2515 1210 2425 1302 
Q 2336 1395 2281 1436 
Q 2227 1478 2125 1549 
L 1338 2048 
Q 589 1632 589 966 
z
M 723 3443 
Q 723 3136 1043 2925 
L 1837 2413 
Q 2470 2784 2470 3309 
Q 2470 3648 2211 3875 
Q 1952 4102 1594 4102 
Q 1242 4102 982 3916 
Q 723 3731 723 3443 
z
" id="CMUSerif-Roman-38" transform="scale(0.015625)"/>
       </defs>
       <use xlink:href="#CMUSerif-Roman-38"/>
       <use x="49.999985" xlink:href="#CMUSerif-Roman-30"/>
      </g>
     </g>
    </g>
    <g id="ytick_6">
     <g id="line2d_15">
      <g>
       <use style="stroke:#000000;stroke-width:0.5;" x="31.89024" xlink:href="#mf8138ec522" y="18.821072"/>
      </g>
     </g>
     <g id="text_15">
      <!-- 100 -->
      <g transform="translate(15.89024 21.597322)scale(0.08 -0.08)">
       <defs>
        <path d="M 570 3654 
L 570 3853 
Q 1338 3853 1734 4262 
Q 1843 4262 1862 4236 
Q 1882 4211 1882 4096 
L 1882 506 
Q 1882 314 1974 256 
Q 2067 198 2477 198 
L 2682 198 
L 2682 0 
Q 2458 19 1645 19 
Q 832 19 608 0 
L 608 198 
L 813 198 
Q 1216 198 1312 256 
Q 1408 314 1408 506 
L 1408 3821 
Q 1075 3654 570 3654 
z
" id="CMUSerif-Roman-31" transform="scale(0.015625)"/>
       </defs>
       <use xlink:href="#CMUSerif-Roman-31"/>
       <use x="49.999985" xlink:href="#CMUSerif-Roman-30"/>
       <use x="99.999969" xlink:href="#CMUSerif-Roman-30"/>
      </g>
     </g>
    </g>
    <g id="text_16">
     <!-- Wallclock Time $\mathrm{[hrs]}$ -->
     <g transform="translate(11.39024 112.694929)rotate(-90)scale(0.1 -0.1)">
      <defs>
       <path d="M 115 4173 
L 115 4371 
Q 205 4371 368 4364 
Q 531 4358 659 4355 
Q 787 4352 896 4352 
Q 1574 4352 1805 4371 
L 1805 4173 
Q 1267 4173 1267 3981 
Q 1267 3936 1280 3898 
L 2310 749 
L 3200 3494 
L 3059 3942 
Q 3008 4102 2899 4137 
Q 2790 4173 2483 4173 
L 2483 4371 
Q 2573 4371 2736 4364 
Q 2899 4358 3027 4355 
Q 3155 4352 3264 4352 
Q 3942 4352 4173 4371 
L 4173 4173 
Q 3635 4173 3635 3981 
Q 3635 3962 3654 3885 
L 4678 749 
L 5638 3706 
Q 5670 3802 5670 3834 
Q 5670 3949 5536 4057 
Q 5402 4166 5114 4173 
L 5114 4371 
Q 5613 4352 5875 4352 
Q 6170 4352 6458 4371 
L 6458 4173 
Q 5952 4173 5818 3744 
L 4595 -13 
Q 4582 -64 4572 -86 
Q 4563 -109 4537 -125 
Q 4512 -141 4467 -141 
Q 4384 -141 4346 -19 
L 3283 3238 
L 2227 -13 
Q 2214 -64 2204 -86 
Q 2195 -109 2169 -125 
Q 2144 -141 2099 -141 
Q 2016 -141 1978 -19 
L 698 3904 
Q 640 4090 553 4131 
Q 467 4173 115 4173 
z
" id="CMUSerif-Roman-57" transform="scale(0.015625)"/>
       <path d="M 269 608 
Q 269 1152 909 1440 
Q 1293 1626 2086 1670 
L 2086 1907 
Q 2086 2304 1878 2515 
Q 1670 2726 1408 2726 
Q 941 2726 717 2432 
Q 909 2426 976 2330 
Q 1043 2234 1043 2138 
Q 1043 2010 963 1926 
Q 883 1843 749 1843 
Q 621 1843 537 1923 
Q 454 2003 454 2144 
Q 454 2458 736 2662 
Q 1018 2867 1421 2867 
Q 1946 2867 2298 2515 
Q 2406 2406 2460 2265 
Q 2515 2125 2521 2032 
Q 2528 1939 2528 1760 
L 2528 480 
Q 2528 442 2541 381 
Q 2554 320 2611 240 
Q 2669 160 2765 160 
Q 2995 160 2995 570 
L 2995 928 
L 3155 928 
L 3155 570 
Q 3155 230 2976 96 
Q 2797 -38 2630 -38 
Q 2419 -38 2284 118 
Q 2150 275 2131 486 
Q 2035 243 1814 86 
Q 1594 -70 1293 -70 
Q 1062 -70 844 -12 
Q 627 45 448 205 
Q 269 365 269 608 
z
M 762 614 
Q 762 378 931 224 
Q 1101 70 1338 70 
Q 1606 70 1846 278 
Q 2086 486 2086 896 
L 2086 1536 
Q 1376 1510 1069 1228 
Q 762 947 762 614 
z
" id="CMUSerif-Roman-61" transform="scale(0.015625)"/>
       <path d="M 211 0 
L 211 198 
Q 550 198 630 240 
Q 710 282 710 486 
L 710 3814 
Q 710 4051 627 4112 
Q 544 4173 211 4173 
L 211 4371 
L 1133 4442 
L 1133 486 
Q 1133 282 1213 240 
Q 1293 198 1632 198 
L 1632 0 
Q 1555 0 1392 6 
Q 1229 13 1110 16 
Q 992 19 922 19 
Q 845 19 211 0 
z
" id="CMUSerif-Roman-6c" transform="scale(0.015625)"/>
       <path d="M 179 0 
L 179 198 
Q 518 198 598 240 
Q 678 282 678 486 
L 678 3814 
Q 678 4051 595 4112 
Q 512 4173 179 4173 
L 179 4371 
L 1101 4442 
L 1101 1370 
L 2003 2150 
Q 2144 2272 2144 2400 
Q 2144 2547 1958 2560 
L 1958 2758 
Q 2227 2739 2675 2739 
Q 2938 2739 3123 2758 
L 3123 2560 
Q 2720 2541 2317 2214 
Q 2227 2144 2012 1958 
Q 1798 1773 1798 1754 
Q 1798 1747 1804 1731 
Q 1811 1715 1824 1702 
Q 1837 1690 1837 1683 
L 2650 538 
Q 2816 307 2937 252 
Q 3059 198 3270 198 
L 3270 0 
Q 2995 19 2714 19 
Q 2560 19 2022 0 
L 2022 198 
Q 2253 198 2253 346 
Q 2253 448 1734 1165 
Q 1696 1216 1613 1325 
Q 1536 1440 1491 1498 
L 1082 1146 
L 1082 486 
Q 1082 282 1162 240 
Q 1242 198 1581 198 
L 1581 0 
Q 1197 19 877 19 
Q 813 19 179 0 
z
" id="CMUSerif-Roman-6b" transform="scale(0.015625)"/>
       <path id="CMUSerif-Roman-20" transform="scale(0.015625)"/>
       <path d="M 230 2893 
L 352 4333 
L 4262 4333 
L 4384 2893 
L 4224 2893 
Q 4198 3181 4176 3347 
Q 4154 3514 4099 3670 
Q 4045 3827 3977 3904 
Q 3910 3981 3782 4041 
Q 3654 4102 3488 4118 
Q 3322 4134 3072 4134 
Q 2778 4134 2707 4122 
Q 2630 4102 2611 4048 
Q 2592 3994 2592 3878 
L 2592 506 
Q 2592 378 2617 326 
Q 2643 275 2790 236 
Q 2938 198 3264 198 
L 3520 198 
L 3520 0 
Q 3258 19 2304 19 
Q 1357 19 1094 0 
L 1094 198 
L 1350 198 
Q 1677 198 1824 236 
Q 1971 275 1996 326 
Q 2022 378 2022 506 
L 2022 3878 
Q 2022 3968 2016 4006 
Q 2010 4045 1981 4077 
Q 1952 4109 1888 4121 
Q 1824 4134 1542 4134 
Q 1293 4134 1126 4118 
Q 960 4102 832 4041 
Q 704 3981 637 3904 
Q 570 3827 515 3670 
Q 461 3514 438 3347 
Q 416 3181 390 2893 
L 230 2893 
z
" id="CMUSerif-Roman-54" transform="scale(0.015625)"/>
       <path d="M 211 0 
L 211 198 
Q 550 198 630 240 
Q 710 282 710 486 
L 710 2208 
Q 710 2445 630 2502 
Q 550 2560 237 2560 
L 237 2758 
L 1133 2829 
L 1133 480 
Q 1133 288 1200 243 
Q 1267 198 1581 198 
L 1581 0 
Q 928 19 915 19 
Q 826 19 211 0 
z
M 480 3942 
Q 480 4070 579 4176 
Q 678 4282 819 4282 
Q 960 4282 1059 4186 
Q 1158 4090 1158 3942 
Q 1158 3795 1059 3699 
Q 960 3603 819 3603 
Q 672 3603 576 3705 
Q 480 3808 480 3942 
z
" id="CMUSerif-Roman-69" transform="scale(0.015625)"/>
       <path d="M 205 0 
L 205 198 
Q 544 198 624 240 
Q 704 282 704 486 
L 704 2202 
Q 704 2438 621 2499 
Q 538 2560 205 2560 
L 205 2758 
L 1107 2829 
L 1107 2157 
Q 1408 2829 2054 2829 
Q 2803 2829 2906 2202 
Q 3014 2445 3244 2637 
Q 3475 2829 3834 2829 
Q 4314 2829 4506 2592 
Q 4646 2432 4675 2253 
Q 4704 2074 4704 1613 
L 4704 390 
Q 4710 256 4812 227 
Q 4915 198 5203 198 
L 5203 0 
Q 4550 19 4486 19 
Q 4435 19 3763 0 
L 3763 198 
Q 4102 198 4182 240 
Q 4262 282 4262 486 
L 4262 1978 
Q 4262 2304 4163 2496 
Q 4064 2688 3789 2688 
Q 3456 2688 3190 2409 
Q 2925 2131 2925 1664 
L 2925 486 
Q 2925 282 3005 240 
Q 3085 198 3424 198 
L 3424 0 
Q 2771 19 2707 19 
Q 2656 19 1984 0 
L 1984 198 
Q 2323 198 2403 240 
Q 2483 282 2483 486 
L 2483 1978 
Q 2483 2304 2384 2496 
Q 2285 2688 2010 2688 
Q 1677 2688 1411 2409 
Q 1146 2131 1146 1664 
L 1146 486 
Q 1146 282 1226 240 
Q 1306 198 1645 198 
L 1645 0 
Q 992 19 928 19 
Q 877 19 205 0 
z
" id="CMUSerif-Roman-6d" transform="scale(0.015625)"/>
       <path d="M 179 1408 
Q 179 2010 566 2438 
Q 954 2867 1510 2867 
Q 2074 2867 2365 2502 
Q 2656 2138 2656 1613 
Q 2656 1517 2630 1497 
Q 2605 1478 2496 1478 
L 710 1478 
Q 710 826 902 518 
Q 1171 90 1626 90 
Q 1690 90 1763 102 
Q 1837 115 1990 169 
Q 2144 224 2278 371 
Q 2413 518 2490 749 
Q 2509 838 2573 838 
Q 2656 838 2656 762 
Q 2656 704 2595 579 
Q 2534 454 2419 304 
Q 2304 154 2080 42 
Q 1856 -70 1587 -70 
Q 1024 -70 601 355 
Q 179 781 179 1408 
z
M 717 1613 
L 2234 1613 
Q 2234 1747 2211 1897 
Q 2189 2048 2121 2256 
Q 2054 2464 1897 2595 
Q 1741 2726 1510 2726 
Q 1408 2726 1296 2681 
Q 1184 2637 1049 2531 
Q 915 2426 822 2186 
Q 730 1946 717 1613 
z
" id="CMUSerif-Roman-65" transform="scale(0.015625)"/>
       <path d="M 756 -1600 
L 756 4800 
L 1631 4800 
L 1631 4544 
L 1013 4544 
L 1013 -1344 
L 1631 -1344 
L 1631 -1600 
L 756 -1600 
z
" id="Cmr10-5b" transform="scale(0.015625)"/>
       <path d="M 191 0 
L 191 225 
Q 409 225 550 259 
Q 691 294 691 428 
L 691 3788 
Q 691 3959 639 4036 
Q 588 4113 491 4130 
Q 394 4147 191 4147 
L 191 4372 
L 1141 4441 
L 1141 2241 
Q 1275 2506 1515 2667 
Q 1756 2828 2047 2828 
Q 2491 2828 2714 2615 
Q 2938 2403 2938 1966 
L 2938 428 
Q 2938 294 3078 259 
Q 3219 225 3438 225 
L 3438 0 
L 1972 0 
L 1972 225 
Q 2191 225 2331 259 
Q 2472 294 2472 428 
L 2472 1947 
Q 2472 2259 2381 2461 
Q 2291 2663 2009 2663 
Q 1638 2663 1398 2366 
Q 1159 2069 1159 1691 
L 1159 428 
Q 1159 294 1300 259 
Q 1441 225 1656 225 
L 1656 0 
L 191 0 
z
" id="Cmr10-68" transform="scale(0.015625)"/>
       <path d="M 166 0 
L 166 225 
Q 384 225 525 259 
Q 666 294 666 428 
L 666 2175 
Q 666 2347 614 2423 
Q 563 2500 466 2517 
Q 369 2534 166 2534 
L 166 2759 
L 1081 2828 
L 1081 2203 
Q 1184 2481 1375 2654 
Q 1566 2828 1838 2828 
Q 2028 2828 2178 2715 
Q 2328 2603 2328 2419 
Q 2328 2303 2245 2217 
Q 2163 2131 2041 2131 
Q 1922 2131 1837 2215 
Q 1753 2300 1753 2419 
Q 1753 2591 1875 2663 
L 1838 2663 
Q 1578 2663 1414 2475 
Q 1250 2288 1181 2009 
Q 1113 1731 1113 1478 
L 1113 428 
Q 1113 225 1734 225 
L 1734 0 
L 166 0 
z
" id="Cmr10-72" transform="scale(0.015625)"/>
       <path d="M 213 -19 
L 213 1025 
Q 213 1075 269 1075 
L 347 1075 
Q 384 1075 397 1025 
Q 575 97 1259 97 
Q 1563 97 1767 234 
Q 1972 372 1972 659 
Q 1972 866 1812 1011 
Q 1653 1156 1434 1209 
L 1006 1294 
Q 791 1341 614 1437 
Q 438 1534 325 1695 
Q 213 1856 213 2069 
Q 213 2350 361 2529 
Q 509 2709 746 2789 
Q 984 2869 1259 2869 
Q 1588 2869 1831 2694 
L 2016 2853 
Q 2016 2869 2047 2869 
L 2094 2869 
Q 2113 2869 2128 2851 
Q 2144 2834 2144 2816 
L 2144 1978 
Q 2144 1919 2094 1919 
L 2016 1919 
Q 1959 1919 1959 1978 
Q 1959 2313 1773 2516 
Q 1588 2719 1253 2719 
Q 966 2719 755 2612 
Q 544 2506 544 2247 
Q 544 2069 695 1955 
Q 847 1841 1050 1791 
L 1484 1709 
Q 1703 1659 1892 1540 
Q 2081 1422 2192 1240 
Q 2303 1059 2303 831 
Q 2303 600 2223 429 
Q 2144 259 2001 146 
Q 1859 34 1665 -19 
Q 1472 -72 1259 -72 
Q 859 -72 575 197 
L 341 -56 
Q 341 -72 306 -72 
L 269 -72 
Q 213 -72 213 -19 
z
" id="Cmr10-73" transform="scale(0.015625)"/>
       <path d="M 141 -1600 
L 141 -1344 
L 763 -1344 
L 763 4544 
L 141 4544 
L 141 4800 
L 1019 4800 
L 1019 -1600 
L 141 -1600 
z
" id="Cmr10-5d" transform="scale(0.015625)"/>
      </defs>
      <use xlink:href="#CMUSerif-Roman-57"/>
      <use transform="translate(102.699982 0)" xlink:href="#CMUSerif-Roman-61"/>
      <use transform="translate(152.699966 0)" xlink:href="#CMUSerif-Roman-6c"/>
      <use transform="translate(180.399963 0)" xlink:href="#CMUSerif-Roman-6c"/>
      <use transform="translate(208.09996 0)" xlink:href="#CMUSerif-Roman-63"/>
      <use transform="translate(252.499954 0)" xlink:href="#CMUSerif-Roman-6c"/>
      <use transform="translate(280.199951 0)" xlink:href="#CMUSerif-Roman-6f"/>
      <use transform="translate(330.199936 0)" xlink:href="#CMUSerif-Roman-63"/>
      <use transform="translate(374.59993 0)" xlink:href="#CMUSerif-Roman-6b"/>
      <use transform="translate(427.299927 0)" xlink:href="#CMUSerif-Roman-20"/>
      <use transform="translate(460.599915 0)" xlink:href="#CMUSerif-Roman-54"/>
      <use transform="translate(532.799896 0)" xlink:href="#CMUSerif-Roman-69"/>
      <use transform="translate(560.499893 0)" xlink:href="#CMUSerif-Roman-6d"/>
      <use transform="translate(643.799881 0)" xlink:href="#CMUSerif-Roman-65"/>
      <use transform="translate(688.199875 0)" xlink:href="#CMUSerif-Roman-20"/>
      <use transform="translate(721.499863 0)" xlink:href="#Cmr10-5b"/>
      <use transform="translate(749.18541 0)" xlink:href="#Cmr10-68"/>
      <use transform="translate(804.702988 0)" xlink:href="#Cmr10-72"/>
      <use transform="translate(843.814316 0)" xlink:href="#Cmr10-73"/>
      <use transform="translate(883.218613 0)" xlink:href="#Cmr10-5d"/>
     </g>
    </g>
   </g>
   <g id="patch_30">
    <path d="M 31.89024 131.289617 
L 31.89024 3.00024 
" style="fill:none;stroke:#000000;stroke-linecap:square;stroke-linejoin:miter;stroke-width:0.75;"/>
   </g>
   <g id="patch_31">
    <path d="M 242.08056 131.289617 
L 242.08056 3.00024 
" style="fill:none;stroke:#000000;stroke-linecap:square;stroke-linejoin:miter;stroke-width:0.75;"/>
   </g>
   <g id="patch_32">
    <path d="M 31.89024 131.289617 
L 242.08056 131.289617 
" style="fill:none;stroke:#000000;stroke-linecap:square;stroke-linejoin:miter;stroke-width:0.75;"/>
   </g>
   <g id="patch_33">
    <path d="M 31.89024 3.00024 
L 242.08056 3.00024 
" style="fill:none;stroke:#000000;stroke-linecap:square;stroke-linejoin:miter;stroke-width:0.75;"/>
   </g>
   <g id="legend_1">
    <g id="patch_34">
     <path d="M 183.93716 16.32824 
L 200.59716 16.32824 
L 200.59716 10.49724 
L 183.93716 10.49724 
z
" style="fill:#b3cde3;stroke:#839cb1;stroke-linejoin:miter;"/>
    </g>
    <g id="text_17">
     <!-- MEM -->
     <g transform="translate(204.76216 16.32824)scale(0.0833 -0.0833)">
      <defs>
       <path d="M 237 0 
L 237 198 
Q 467 198 614 243 
Q 762 288 816 374 
Q 870 461 883 518 
Q 896 576 896 672 
L 896 3872 
Q 896 4058 816 4115 
Q 736 4173 390 4173 
L 237 4173 
L 237 4371 
L 1318 4371 
Q 1434 4371 1466 4352 
Q 1498 4333 1542 4230 
L 2931 646 
L 4333 4250 
Q 4365 4339 4393 4355 
Q 4422 4371 4544 4371 
L 5626 4371 
L 5626 4173 
L 5472 4173 
Q 5126 4173 5046 4115 
Q 4966 4058 4966 3872 
L 4966 499 
Q 4966 314 5046 256 
Q 5126 198 5472 198 
L 5626 198 
L 5626 0 
Q 5389 19 4710 19 
Q 4026 19 3789 0 
L 3789 198 
L 3942 198 
Q 4288 198 4368 256 
Q 4448 314 4448 499 
L 4448 4173 
L 4442 4173 
L 2867 122 
Q 2822 0 2752 0 
Q 2675 0 2624 141 
L 1082 4122 
L 1075 4122 
L 1075 672 
Q 1075 576 1088 518 
Q 1101 461 1155 374 
Q 1210 288 1357 243 
Q 1504 198 1734 198 
L 1734 0 
Q 1062 19 985 19 
Q 909 19 237 0 
z
" id="CMUSerif-Roman-4d" transform="scale(0.015625)"/>
       <path d="M 211 0 
L 211 198 
L 365 198 
Q 710 198 790 256 
Q 870 314 870 499 
L 870 3853 
Q 870 4038 790 4096 
Q 710 4154 365 4154 
L 211 4154 
L 211 4352 
L 3814 4352 
L 3994 2912 
L 3834 2912 
Q 3789 3277 3731 3488 
Q 3674 3699 3536 3862 
Q 3398 4026 3171 4090 
Q 2944 4154 2579 4154 
L 1754 4154 
Q 1536 4154 1488 4109 
Q 1440 4064 1440 3898 
L 1440 2362 
L 2016 2362 
Q 2458 2362 2582 2515 
Q 2707 2669 2707 3110 
L 2867 3110 
L 2867 1414 
L 2707 1414 
Q 2707 1850 2582 2006 
Q 2458 2163 2016 2163 
L 1440 2163 
L 1440 454 
Q 1440 288 1488 243 
Q 1536 198 1754 198 
L 2605 198 
Q 2880 198 3081 233 
Q 3283 269 3424 358 
Q 3565 448 3661 550 
Q 3757 653 3824 838 
Q 3891 1024 3929 1197 
Q 3968 1370 4013 1651 
L 4173 1651 
L 3904 0 
L 211 0 
z
" id="CMUSerif-Roman-45" transform="scale(0.015625)"/>
      </defs>
      <use xlink:href="#CMUSerif-Roman-4d"/>
      <use x="91.599991" xlink:href="#CMUSerif-Roman-45"/>
      <use x="159.599976" xlink:href="#CMUSerif-Roman-4d"/>
     </g>
    </g>
    <g id="patch_35">
     <path d="M 183.93716 25.858281 
L 200.59716 25.858281 
L 200.59716 20.027281 
L 183.93716 20.027281 
z
" style="fill:#ccebc5;stroke:#9bb994;stroke-linejoin:miter;"/>
    </g>
    <g id="text_18">
     <!-- FESOM -->
     <g transform="translate(204.76216 25.858281)scale(0.0833 -0.0833)">
      <defs>
       <path d="M 211 0 
L 211 198 
L 365 198 
Q 710 198 790 256 
Q 870 314 870 499 
L 870 3853 
Q 870 4038 790 4096 
Q 710 4154 365 4154 
L 211 4154 
L 211 4352 
L 3725 4352 
L 3904 2912 
L 3744 2912 
Q 3699 3277 3641 3485 
Q 3584 3693 3453 3859 
Q 3322 4026 3101 4090 
Q 2880 4154 2522 4154 
L 1754 4154 
Q 1536 4154 1488 4109 
Q 1440 4064 1440 3898 
L 1440 2278 
L 1990 2278 
Q 2426 2278 2547 2435 
Q 2669 2592 2669 3027 
L 2829 3027 
L 2829 1331 
L 2669 1331 
Q 2669 1773 2547 1926 
Q 2426 2080 1990 2080 
L 1440 2080 
L 1440 506 
Q 1440 371 1462 320 
Q 1485 269 1619 233 
Q 1754 198 2048 198 
L 2259 198 
L 2259 0 
Q 2029 19 1184 19 
Q 435 19 211 0 
z
" id="CMUSerif-Roman-46" transform="scale(0.015625)"/>
       <path d="M 358 13 
L 358 1293 
Q 358 1363 361 1388 
Q 365 1414 384 1433 
Q 403 1453 442 1453 
Q 512 1453 518 1389 
Q 538 755 915 403 
Q 1286 58 1926 58 
Q 2310 58 2547 333 
Q 2784 608 2784 973 
Q 2784 1318 2586 1562 
Q 2502 1670 2396 1740 
Q 2291 1811 2227 1833 
Q 2163 1856 2042 1888 
Q 1248 2080 1197 2099 
Q 819 2227 588 2550 
Q 358 2874 358 3270 
Q 358 3782 720 4147 
Q 1082 4512 1606 4512 
Q 1869 4512 2089 4429 
Q 2310 4346 2400 4272 
Q 2490 4198 2630 4064 
L 2854 4429 
Q 2906 4512 2950 4512 
Q 3002 4512 3011 4483 
Q 3021 4454 3021 4358 
L 3021 3072 
Q 3021 3002 3017 2976 
Q 3014 2950 2995 2934 
Q 2976 2918 2938 2918 
Q 2874 2918 2861 2995 
Q 2682 4333 1613 4333 
Q 1248 4333 1008 4086 
Q 768 3840 768 3494 
Q 768 3213 944 2982 
Q 1120 2752 1414 2682 
L 2234 2483 
Q 2643 2387 2918 2025 
Q 3194 1664 3194 1190 
Q 3194 646 2838 252 
Q 2483 -141 1933 -141 
Q 1536 -141 1229 -9 
Q 922 122 755 307 
Q 627 96 544 -26 
L 525 -58 
Q 474 -141 429 -141 
Q 378 -141 368 -109 
Q 358 -77 358 13 
z
" id="CMUSerif-Roman-53" transform="scale(0.015625)"/>
       <path d="M 358 2170 
Q 358 3149 985 3830 
Q 1613 4512 2483 4512 
Q 3360 4512 3987 3827 
Q 4614 3142 4614 2170 
Q 4614 1203 3987 531 
Q 3360 -141 2483 -141 
Q 1619 -141 988 528 
Q 358 1197 358 2170 
z
M 1018 2259 
Q 1018 1664 1158 1209 
Q 1299 755 1526 508 
Q 1754 262 1997 144 
Q 2240 26 2490 26 
Q 2733 26 2973 141 
Q 3213 256 3440 499 
Q 3667 742 3811 1200 
Q 3955 1658 3955 2259 
Q 3955 2726 3856 3104 
Q 3757 3482 3600 3709 
Q 3443 3936 3241 4086 
Q 3040 4237 2851 4294 
Q 2662 4352 2483 4352 
Q 2259 4352 2025 4253 
Q 1792 4154 1555 3933 
Q 1318 3712 1168 3280 
Q 1018 2848 1018 2259 
z
" id="CMUSerif-Roman-4f" transform="scale(0.015625)"/>
      </defs>
      <use xlink:href="#CMUSerif-Roman-46"/>
      <use x="65.199997" xlink:href="#CMUSerif-Roman-45"/>
      <use x="133.199982" xlink:href="#CMUSerif-Roman-53"/>
      <use x="188.699966" xlink:href="#CMUSerif-Roman-4f"/>
      <use x="266.399948" xlink:href="#CMUSerif-Roman-4d"/>
     </g>
    </g>
    <g id="patch_36">
     <path d="M 183.93716 35.388321 
L 200.59716 35.388321 
L 200.59716 29.557321 
L 183.93716 29.557321 
z
" style="fill:#decbe4;stroke:#ac9ab2;stroke-linejoin:miter;"/>
    </g>
    <g id="text_19">
     <!-- DEAC -->
     <g transform="translate(204.76216 35.388321)scale(0.0833 -0.0833)">
      <defs>
       <path d="M 224 0 
L 224 198 
L 378 198 
Q 723 198 803 256 
Q 883 314 883 499 
L 883 3872 
Q 883 4058 803 4115 
Q 723 4173 378 4173 
L 224 4173 
L 224 4371 
L 2566 4371 
Q 3386 4371 3955 3718 
Q 4525 3066 4525 2150 
Q 4525 1254 3952 627 
Q 3379 0 2566 0 
L 224 0 
z
M 1434 454 
Q 1434 288 1482 243 
Q 1530 198 1747 198 
L 2394 198 
Q 2816 198 3101 371 
Q 3386 544 3533 742 
Q 3885 1222 3885 2150 
Q 3885 3123 3552 3578 
Q 3123 4173 2387 4173 
L 1747 4173 
Q 1530 4173 1482 4128 
Q 1434 4083 1434 3917 
L 1434 454 
z
" id="CMUSerif-Roman-44" transform="scale(0.015625)"/>
       <path d="M 205 0 
L 205 198 
Q 774 211 922 627 
L 2246 4454 
Q 2272 4531 2301 4556 
Q 2330 4582 2400 4582 
Q 2438 4582 2460 4576 
Q 2483 4570 2499 4547 
Q 2515 4525 2521 4512 
Q 2528 4499 2547 4454 
L 3930 454 
Q 3981 294 4083 246 
Q 4186 198 4474 198 
L 4589 198 
L 4589 0 
Q 4186 19 3750 19 
Q 3059 19 2829 0 
L 2829 198 
Q 3360 198 3360 390 
Q 3360 403 3341 480 
L 3002 1459 
L 1421 1459 
L 1126 621 
Q 1114 595 1114 525 
Q 1114 390 1238 294 
Q 1363 198 1594 198 
L 1594 0 
Q 979 19 858 19 
Q 646 19 205 0 
z
M 1491 1658 
L 2931 1658 
L 2208 3738 
L 1491 1658 
z
" id="CMUSerif-Roman-41" transform="scale(0.015625)"/>
       <path d="M 358 2189 
Q 358 3155 1017 3833 
Q 1677 4512 2586 4512 
Q 2867 4512 3116 4409 
Q 3366 4307 3481 4217 
Q 3597 4128 3763 3962 
L 4083 4435 
Q 4134 4512 4185 4512 
Q 4237 4512 4246 4483 
Q 4256 4454 4256 4358 
L 4256 2842 
Q 4256 2739 4243 2713 
Q 4230 2688 4154 2688 
Q 4090 2688 4077 2707 
Q 4064 2726 4051 2797 
Q 3955 3488 3571 3901 
Q 3187 4314 2656 4314 
Q 2502 4314 2332 4278 
Q 2163 4243 1916 4112 
Q 1670 3981 1481 3763 
Q 1293 3546 1155 3136 
Q 1018 2726 1018 2182 
Q 1018 1645 1155 1232 
Q 1293 819 1481 604 
Q 1670 390 1916 259 
Q 2163 128 2336 93 
Q 2509 58 2662 58 
Q 3213 58 3635 448 
Q 4058 838 4096 1498 
Q 4102 1530 4102 1542 
Q 4102 1555 4108 1571 
Q 4115 1587 4131 1593 
Q 4147 1600 4173 1600 
Q 4256 1600 4256 1491 
Q 4256 883 3789 371 
Q 3322 -141 2586 -141 
Q 1677 -141 1017 534 
Q 358 1210 358 2189 
z
" id="CMUSerif-Roman-43" transform="scale(0.015625)"/>
      </defs>
      <use xlink:href="#CMUSerif-Roman-44"/>
      <use x="76.299988" xlink:href="#CMUSerif-Roman-45"/>
      <use x="144.299973" xlink:href="#CMUSerif-Roman-41"/>
      <use x="219.299957" xlink:href="#CMUSerif-Roman-43"/>
     </g>
    </g>
   </g>
  </g>
 </g>
 <defs>
  <clipPath id="pa74e935b77">
   <rect height="128.289377" width="210.19032" x="31.89024" y="3.00024"/>
  </clipPath>
 </defs>
</svg>
